<svg width="23" height="32" viewBox="0 0 23 32" fill="none" xmlns="http://www.w3.org/2000/svg">
<g clip-path="url(#clip0)">
<path d="M11.4709 0.0491463C11.2704 0.0862693 10.5206 0.153091 9.80037 0.197638C8.18923 0.294158 7.27601 0.44265 6.77856 0.687661C6.57067 0.784181 6.1252 1.10344 5.79109 1.393C5.45698 1.68256 4.85559 2.16516 4.46209 2.46214C3.32613 3.31597 1.84863 5.02362 1.58135 5.80321C1.46998 6.10761 1.4477 6.38975 1.46255 7.39949C1.48483 8.78047 1.46255 8.91411 1.00223 9.66399C0.623573 10.2728 0.475081 10.748 0.371137 11.6686C0.296891 12.3814 0.363712 13.1239 0.556752 13.4802C0.608724 13.5916 0.868585 13.9109 1.13587 14.193C1.87833 15.0023 2.0194 15.3587 2.19759 16.7768C2.25698 17.3187 2.4426 18.477 2.60594 19.3531C2.76186 20.2292 2.8955 20.9642 2.8955 20.9939C2.8955 21.0162 2.69503 21.187 2.45745 21.38C2.21244 21.5656 1.9303 21.8626 1.82636 22.0408C1.57392 22.4714 1.46255 23.2584 1.55907 23.9712C1.70014 25.0774 1.98227 25.5229 3.05142 26.3396C3.75675 26.8742 3.96464 27.2083 4.12798 28.0473C4.2839 28.8937 4.48436 29.3243 4.87787 29.6658C5.26394 30.0148 5.56835 30.089 6.74886 30.1559C7.80316 30.2153 8.13726 30.3341 9.12473 31.0097C9.53309 31.2918 10.0305 31.6037 10.2236 31.7076C11.1813 32.1902 12.3693 32.1308 13.1043 31.574C13.4384 31.3141 13.7354 30.7201 13.7948 30.1781L13.8468 29.7104L14.6635 29.302C15.6584 28.8046 16.5048 28.5225 17.4848 28.374C19.6825 28.025 21.0338 27.6612 21.5387 27.2677C22.1697 26.7925 22.4296 26.258 22.4296 25.5006C22.4296 24.5948 22.0955 24.0974 20.811 23.0654C20.1725 22.5457 19.8904 22.271 19.7716 22.0259C19.4226 21.3429 19.6083 20.593 20.425 19.3754C21.0709 18.4176 21.2565 18.0018 21.5758 16.7545C21.9619 15.2696 22.0213 15.0988 22.5187 14.0445L22.979 13.0793V12.1512C22.979 11.0301 22.8974 10.8148 22.3405 10.451C21.6277 9.98325 21.405 9.33731 21.3159 7.51086C21.2417 5.77351 21.108 5.49137 19.8681 4.42966C19.5192 4.13267 19.0737 3.67977 18.8806 3.43476C17.6556 1.83847 17.4329 1.65286 15.8663 0.902974C14.3516 0.175364 13.8765 0.0342971 12.7702 0.00459875C12.2579 -0.0102504 11.6788 0.0120233 11.4709 0.0491463ZM12.8296 1.09601C14.025 1.22223 15.4653 1.7865 16.4454 2.51411C16.6978 2.69973 17.1804 3.16005 17.5219 3.54613C17.8709 3.93221 18.5094 4.593 18.9475 5.02362C19.9572 6.01109 20.0909 6.2858 20.2022 7.52571C20.3062 8.6988 20.4621 9.61945 20.6551 10.1243C20.7739 10.4436 20.9298 10.6515 21.3159 11.0227C22.1697 11.8394 22.1697 12.2403 21.3011 13.9925C20.8853 14.8315 20.7591 15.1656 20.7071 15.5517C20.6774 15.8264 20.6106 16.3239 20.5735 16.6654C20.4844 17.4004 20.2913 17.8013 19.6305 18.6923C18.8213 19.7837 18.4203 20.8974 18.5168 21.8255C18.5985 22.6125 18.8435 22.9392 20.0092 23.8078C21.1303 24.6394 21.4867 25.1591 21.3085 25.7011C21.0783 26.4065 19.779 26.9633 17.6704 27.2603C15.8885 27.5127 15.4282 27.6612 13.869 28.4705C12.8073 29.0199 12.7331 29.109 12.8073 29.7104C12.8816 30.2821 12.6663 30.7498 12.2876 30.8538C11.7976 30.9874 11.3373 30.8389 9.61476 29.9777C8.71638 29.5248 7.818 29.1239 7.61012 29.0867C7.40965 29.0422 6.95675 29.0125 6.6078 29.0199C5.52381 29.0348 5.27879 28.7749 5.04121 27.3345C4.96696 26.889 4.86302 26.4139 4.81847 26.2951C4.68483 25.961 4.39527 25.6788 3.92752 25.4338C3.48204 25.1888 2.94005 24.7062 2.78413 24.4018C2.62079 24.0677 2.59109 23.7039 2.70988 23.251C2.85095 22.7164 3.08854 22.3378 3.57114 21.8923C3.7716 21.7141 3.94979 21.4988 3.97206 21.4245C4.00176 21.3503 3.86812 20.4297 3.68251 19.3754C3.49689 18.3211 3.29643 17.0218 3.22961 16.4946C3.11081 15.5071 2.96974 14.8835 2.76928 14.4974C2.70988 14.3786 2.4426 14.0519 2.17531 13.7698C1.57392 13.1313 1.46255 12.8714 1.46255 12.1141C1.46255 11.3791 1.55165 11.045 1.88575 10.5178C2.62079 9.35216 2.56139 9.50808 2.56139 8.73592C2.56139 8.34984 2.53169 7.72617 2.49457 7.36237C2.4426 6.7684 2.45002 6.64961 2.59851 6.27095C2.9252 5.4097 3.97206 4.12525 4.90014 3.46446C5.16 3.27884 5.702 2.87049 6.11777 2.55123C6.9122 1.93499 7.35026 1.67513 7.83285 1.54149C7.99619 1.49694 8.85745 1.393 9.74097 1.3039C10.6319 1.22223 11.5006 1.12571 11.6714 1.09601C11.8496 1.05889 12.0203 1.02919 12.05 1.02177C12.0797 1.01434 12.4287 1.05147 12.8296 1.09601Z" fill="#0076B6"/>
<path d="M11.2482 1.38563C10.7582 1.45988 9.80784 1.5564 9.1322 1.59352C7.60273 1.67519 7.43939 1.74202 6.48162 2.67751C6.00645 3.13784 5.66491 3.40512 5.36793 3.53877C4.88533 3.7615 4.61805 4.00652 4.26909 4.54109C4.13545 4.74155 3.80877 5.15733 3.53406 5.45431C3.26677 5.7513 3.02176 6.07798 2.99948 6.18192C2.94751 6.37496 2.99948 7.81533 3.08858 8.78053C3.1554 9.53041 3.05146 9.79028 2.47976 10.3323C2.01201 10.7777 2.00459 10.7852 2.09368 11.0153C2.16793 11.2232 2.16051 11.2975 2.01201 11.6241C1.90064 11.8543 1.8561 12.0548 1.87837 12.1661C1.90807 12.2627 2.28672 12.7972 2.7322 13.3541C3.17768 13.9109 3.5786 14.4678 3.62315 14.594C3.6677 14.7202 3.7271 14.8241 3.75679 14.8241C3.78649 14.8241 3.78649 14.3638 3.75679 13.7996C3.7271 13.1016 3.73452 12.6413 3.80134 12.3369C3.85331 12.0919 3.89786 11.2529 3.90529 10.4808C3.92013 8.60976 3.94241 8.55037 5.07095 7.30304C5.39763 6.94666 5.72431 6.6571 5.79856 6.6571C5.98417 6.6571 6.16236 6.93923 6.16236 7.22879C6.16236 7.46638 5.9916 7.71881 5.78371 7.78563C5.62037 7.83761 6.05842 8.35733 6.37768 8.49097C6.88997 8.71371 7.82547 8.45385 8.6199 7.87473C9.1025 7.51835 9.28069 7.54062 9.59995 7.9861C9.91178 8.41673 10.335 8.64689 11.0477 8.75083C11.8941 8.87705 12.5327 8.58007 12.644 8.0158C12.6812 7.84503 12.7406 7.78563 13.0078 7.71881C13.186 7.66684 13.5053 7.49608 13.728 7.33273C13.9433 7.16197 14.1809 7.02833 14.2552 7.02833C14.6858 7.02833 15.0496 7.39213 14.9382 7.70396C14.8788 7.85246 14.916 7.91185 15.2204 8.14944C15.7846 8.59492 15.9183 8.83993 15.948 9.44132C15.9703 9.88679 15.9406 10.0576 15.7401 10.5921C15.1387 12.1884 15.0867 12.3592 15.1461 12.6636C15.1832 12.8641 15.3689 13.1907 15.7178 13.6585C16.4157 14.5866 16.5048 14.7722 16.4677 15.1954C16.386 15.9898 16.787 15.8933 17.1211 15.0395C17.4997 14.0743 18.1234 13.5694 18.9327 13.562C19.4004 13.562 19.586 13.6585 19.8236 14.0446C20.0241 14.3712 20.2097 14.3787 20.5364 14.052C20.8185 13.7699 20.8408 13.6511 20.6774 13.3467C20.5809 13.1536 20.5809 13.1239 20.6923 13.0348C20.9744 12.7972 21.457 12.0548 21.457 11.8469C21.457 11.639 21.4496 11.6316 21.0784 11.6316C20.8705 11.6316 20.6403 11.5945 20.5661 11.5573C20.3879 11.4608 20.2691 11.045 20.2691 10.5327C20.2691 10.2432 20.2023 9.98331 20.0315 9.60466C19.8013 9.08494 19.7939 9.04039 19.7494 7.73366C19.7048 6.19677 19.6603 6.07055 19.0292 5.61765C18.4129 5.17218 17.6853 4.42972 17.329 3.88772C16.8464 3.14526 16.5122 2.81116 16.0371 2.59584C15.8143 2.4919 15.2426 2.20234 14.7749 1.94248C13.4459 1.20002 12.9707 1.12577 11.2482 1.38563Z" fill="#0076B6"/>
<path d="M4.59569 10.3322C4.58826 10.4139 4.58084 10.696 4.57341 10.9633C4.56599 11.2454 4.46947 11.7429 4.34325 12.1512C4.20961 12.6041 4.12794 13.0348 4.12794 13.354C4.12051 13.7846 4.14279 13.8737 4.30613 14.0445C4.41007 14.1559 4.61053 14.3044 4.7516 14.3786L5.01146 14.5197L4.76645 14.6014C4.53629 14.6904 4.24673 15.0765 4.36552 15.1433C4.49174 15.225 5.27132 15.2844 5.27132 15.2102C5.27132 15.0691 5.73907 14.9503 6.21425 14.9577C6.94186 14.98 7.1349 15.1582 6.86761 15.5443C6.76367 15.6928 6.77109 15.7076 6.97898 15.7744C7.18687 15.8487 7.22399 15.9229 7.29081 16.3461C7.30566 16.4427 7.469 16.2051 7.76599 15.6408L8.21889 14.787L8.0407 14.5271C7.9516 14.386 7.86993 14.2153 7.86993 14.141C7.86993 14.0742 7.79568 13.9257 7.70659 13.8218C7.5581 13.651 7.45415 13.6213 6.83049 13.5545C5.94696 13.4654 5.58316 13.2946 5.22678 12.812C4.90752 12.374 4.88524 12.1364 5.15253 11.8617C5.25647 11.7503 5.34557 11.5944 5.34557 11.5127C5.34557 11.431 5.2045 11.1341 5.04116 10.8445C4.66251 10.2134 4.60311 10.1466 4.59569 10.3322Z" fill="#0076B6"/>
<path d="M8.77585 14.0297C8.87237 14.1559 9.08025 14.438 9.22875 14.6533C9.43664 14.9355 9.54058 15.0245 9.64452 14.9948C9.74104 14.9726 9.83014 15.0171 9.90438 15.1433C10.0158 15.3067 10.0974 15.329 11.0181 15.418C11.8719 15.4923 12.0352 15.4923 12.2209 15.3958C12.6663 15.173 12.748 15.173 13.045 15.4403C13.3494 15.715 13.5944 15.8635 13.7503 15.8635C13.8023 15.8635 13.7206 15.7819 13.5647 15.6779C13.3345 15.5146 13.2974 15.4626 13.3642 15.3438C13.4088 15.2621 13.5573 15.1879 13.7355 15.1582C13.8988 15.1285 14.0325 15.0839 14.0325 15.0542C14.0325 14.9503 13.1118 14.1113 12.8668 13.9851C12.6738 13.8812 12.2877 13.8515 10.6171 13.8218L8.59766 13.7846L8.77585 14.0297Z" fill="#0076B6"/>
<path d="M18.5615 14.4232C18.2719 14.6163 17.3735 15.5146 17.3735 15.6112C17.3735 15.6557 17.4329 15.7745 17.5072 15.871C17.8561 16.3165 17.8561 16.7917 17.5146 17.2891C17.3587 17.5044 17.3364 17.6455 17.4478 17.6455C17.6854 17.6455 18.2645 16.5912 18.2645 16.1606C18.2645 16.0047 18.2125 15.7448 18.1531 15.5666C18.0195 15.1805 18.0937 15.0023 18.465 14.8464C18.8213 14.7054 18.9104 14.8019 18.9698 15.381C19.0812 16.4798 19.1183 16.5095 19.3708 15.678C19.5489 15.1137 19.5267 14.8464 19.2891 14.5049C19.1183 14.2673 18.8436 14.2376 18.5615 14.4232Z" fill="#0076B6"/>
<path d="M3.9052 16.2199C3.80868 16.5243 4.3878 20.3925 4.69963 21.5062C4.80357 21.8923 4.85555 22.2041 4.82585 22.2932C4.78872 22.3749 4.38037 22.6719 3.9052 22.954C3.43002 23.2361 3.04395 23.496 3.04395 23.5257C3.04395 23.5628 3.12562 23.6296 3.22956 23.6742C3.4523 23.7707 3.4523 23.793 3.26668 24.0306C3.18501 24.1345 3.11819 24.2533 3.11819 24.3053C3.11819 24.4686 3.65276 24.773 3.9349 24.773C4.26158 24.773 4.33582 24.825 4.86297 25.4784C5.36042 26.0946 5.46436 26.2728 5.53118 26.6663C5.69453 27.6686 5.96181 28.6412 6.09545 28.708C6.1697 28.7526 6.44441 28.7674 6.73397 28.7377C7.35021 28.6784 8.19661 28.8046 8.76088 29.0273C8.98362 29.1238 9.65926 29.5025 10.2458 29.8737C11.5748 30.7127 11.6862 30.7647 11.8421 30.6384C11.998 30.5048 11.9832 30.0074 11.805 29.4802C11.7233 29.2426 11.6639 29.0125 11.6862 28.9679C11.701 28.9234 11.9609 28.7897 12.2579 28.6784C12.5623 28.5596 13.2453 28.2329 13.7873 27.9507C14.3219 27.6686 15.0866 27.3271 15.495 27.1934C15.8959 27.0598 16.3785 26.8816 16.5716 26.8074C16.9131 26.6737 16.9354 26.6737 17.1804 26.8074L17.4328 26.941L18.9103 26.592C20.4101 26.2282 20.7887 26.102 20.7887 25.9387C20.7813 25.7456 20.3136 25.3373 18.7915 24.1865C18.0342 23.6074 17.9674 23.4663 17.9674 22.4937C17.9674 22.0259 17.9154 21.5433 17.8189 21.1498C17.6184 20.3183 17.6258 20.0881 17.856 19.8728C18.0936 19.65 18.0936 19.561 17.8486 19.65C17.5665 19.7614 17.1284 19.7391 16.9502 19.6129C16.7943 19.5016 16.7794 19.509 16.7349 19.702C16.7126 19.8134 16.5419 20.4816 16.3637 21.1869C16.1187 22.1373 16.037 22.6125 16.037 23.0134C16.037 23.6519 15.9182 24.0528 15.5767 24.5206C15.1312 25.1368 14.1363 25.6565 13.1562 25.7828C12.6959 25.8422 12.4732 25.7011 12.4732 25.3521C12.4732 25.018 12.5845 24.877 13.0523 24.6245C13.4755 24.4018 14.7748 23.2732 14.7748 23.1322C14.7748 23.0951 14.5521 23.1842 14.2848 23.3252C14.0175 23.4663 13.7354 23.5851 13.6685 23.5851C13.2825 23.5851 12.8964 22.6719 12.889 21.7661C12.889 21.276 12.9261 21.083 13.0968 20.6895C13.327 20.1623 13.3196 19.8208 13.0894 19.561C13.0152 19.4793 12.6439 19.264 12.2727 19.0858C11.6787 18.8036 11.5451 18.6997 11.2852 18.3507C11.0996 18.0983 10.9289 17.9424 10.8398 17.9424C10.5205 17.9424 10.6913 18.2542 11.4263 19.0115C11.8272 19.4199 12.2133 19.8728 12.2801 20.0139C12.4361 20.3108 12.4212 20.3405 11.7753 20.7266C11.0922 21.135 10.8398 21.1721 9.81517 21.0236C9.34 20.9494 8.9168 20.8677 8.8871 20.838C8.8574 20.8083 9.14696 20.489 9.54046 20.1326C10.1344 19.5906 10.231 19.4644 10.1344 19.405C9.96367 19.3159 9.55531 19.3753 9.00589 19.5758C8.47132 19.7688 8.16692 19.7391 7.78826 19.4644C7.469 19.2343 7.00868 18.9818 6.90473 18.9818C6.85276 18.9818 6.84534 19.1229 6.87504 19.3902C6.93443 19.8802 6.84534 20.0213 6.48896 20.0213C6.28849 20.0213 6.22167 19.9767 6.12515 19.7985C5.93211 19.4273 5.98408 19.16 6.31077 18.8111C6.5929 18.4992 6.75624 18.1948 6.75624 17.9721C6.75624 17.779 6.14743 17.8384 5.82074 18.0686C5.66483 18.1726 5.41239 18.3433 5.27132 18.4398C5.13026 18.5364 4.93722 18.6106 4.83327 18.5958C4.52144 18.5586 4.39522 18.2691 4.2393 17.2668C4.16506 16.747 4.06854 16.2719 4.02399 16.1976C3.95717 16.0714 3.94975 16.0714 3.9052 16.2199ZM11.8569 21.5507C12.2579 21.8774 12.5474 22.464 12.5474 22.9466C12.5474 23.392 12.3024 23.9712 11.9832 24.2681C11.3298 24.8695 10.231 25.0923 9.43652 24.773C9.21378 24.6913 8.71634 24.5503 8.33768 24.476C7.18687 24.2459 6.75624 23.8969 6.6523 23.1396C6.61517 22.8797 6.51866 22.6347 6.34789 22.3823C6.20682 22.1744 6.08803 21.9517 6.08803 21.8774C6.08803 21.6473 6.37759 21.3577 6.60775 21.3577C6.9864 21.3577 7.37248 22.0259 7.25369 22.4714C7.23142 22.5531 7.22399 22.6199 7.23884 22.6199C7.29824 22.6199 8.44163 22.7758 8.67921 22.8129C8.92422 22.85 8.92422 22.85 8.80543 22.6793C8.64209 22.4565 8.64951 22.4268 8.90937 22.3229C9.03559 22.2709 9.15439 22.2041 9.16924 22.1744C9.19151 22.1447 8.8871 22.0036 8.50102 21.87C7.23142 21.4394 7.61007 21.2835 9.92654 21.3057L11.5674 21.3206L11.8569 21.5507Z" fill="#0076B6"/>
</g>
<defs>
<clipPath id="clip0">
<rect width="23" height="32" fill="white"/>
</clipPath>
</defs>
</svg>
