<svg width="1000" height="431" viewBox="0 0 1000 431" fill="none" xmlns="http://www.w3.org/2000/svg">
<g clip-path="url(#clip0)">
<path d="M154.5 0.662659C151.8 1.16266 141.7 2.06265 132 2.66266C110.3 3.96268 98 5.96268 91.3 9.26266C88.5 10.5627 82.5 14.8627 78 18.7627C73.5 22.6627 65.4 29.1627 60.1 33.1627C44.8 44.6627 24.9 67.6627 21.3 78.1627C19.8 82.2627 19.5 86.0627 19.7 99.6627C20 118.263 19.7 120.063 13.5 130.163C8.40002 138.363 6.40002 144.763 5.00002 157.163C4.00002 166.763 4.90002 176.763 7.50002 181.563C8.20002 183.063 11.7 187.363 15.3 191.163C25.3 202.063 27.2 206.863 29.6 225.963C30.4 233.263 32.9 248.863 35.1 260.663C37.2 272.463 39 282.363 39 282.763C39 283.063 36.3 285.363 33.1 287.963C29.8 290.463 26 294.463 24.6 296.863C21.2 302.663 19.7 313.263 21 322.863C22.9 337.763 26.7 343.763 41.1 354.763C50.6 361.963 53.4 366.463 55.6 377.763C57.7 389.163 60.4 394.963 65.7 399.563C70.9 404.263 75 405.263 90.9 406.163C105.1 406.963 109.6 408.563 122.9 417.663C128.4 421.463 135.1 425.663 137.7 427.063C150.6 433.563 166.6 432.763 176.5 425.263C181 421.763 185 413.763 185.8 406.463L186.5 400.163L197.5 394.663C210.9 387.963 222.3 384.163 235.5 382.163C265.1 377.463 283.3 372.563 290.1 367.263C298.6 360.863 302.1 353.663 302.1 343.463C302.1 331.263 297.6 324.563 280.3 310.663C271.7 303.663 267.9 299.963 266.3 296.663C261.6 287.463 264.1 277.363 275.1 260.963C283.8 248.063 286.3 242.463 290.6 225.663C295.8 205.663 296.6 203.363 303.3 189.163L309.5 176.163V163.663C309.5 148.563 308.4 145.663 300.9 140.763C291.3 134.463 288.3 125.763 287.1 101.163C286.1 77.7627 284.3 73.9627 267.6 59.6627C262.9 55.6627 256.9 49.5627 254.3 46.2627C237.8 24.7627 234.8 22.2627 213.7 12.1627C193.3 2.36267 186.9 0.462677 172 0.0626526C165.1 -0.137329 157.3 0.162659 154.5 0.662659ZM172.8 14.7627C188.9 16.4627 208.3 24.0627 221.5 33.8627C224.9 36.3627 231.4 42.5627 236 47.7627C240.7 52.9627 249.3 61.8627 255.2 67.6627C268.8 80.9627 270.6 84.6627 272.1 101.363C273.5 117.163 275.6 129.563 278.2 136.363C279.8 140.663 281.9 143.463 287.1 148.463C298.6 159.463 298.6 164.863 286.9 188.463C281.3 199.763 279.6 204.263 278.9 209.463C278.5 213.163 277.6 219.863 277.1 224.463C275.9 234.363 273.3 239.763 264.4 251.763C253.5 266.463 248.1 281.463 249.4 293.963C250.5 304.563 253.8 308.963 269.5 320.663C284.6 331.863 289.4 338.863 287 346.163C283.9 355.663 266.4 363.163 238 367.163C214 370.563 207.8 372.563 186.8 383.463C172.5 390.863 171.5 392.063 172.5 400.163C173.5 407.863 170.6 414.163 165.5 415.563C158.9 417.363 152.7 415.363 129.5 403.763C117.4 397.663 105.3 392.263 102.5 391.763C99.8 391.163 93.7 390.763 89 390.863C74.4 391.063 71.1 387.563 67.9 368.163C66.9 362.163 65.5 355.763 64.9 354.163C63.1 349.663 59.2 345.863 52.9 342.563C46.9 339.263 39.6 332.763 37.5 328.663C35.3 324.163 34.9 319.263 36.5 313.163C38.4 305.963 41.6 300.863 48.1 294.863C50.8 292.463 53.2 289.563 53.5 288.563C53.9 287.563 52.1 275.163 49.6 260.963C47.1 246.763 44.4 229.263 43.5 222.163C41.9 208.863 40 200.463 37.3 195.263C36.5 193.663 32.9 189.263 29.3 185.463C21.2 176.863 19.7 173.363 19.7 163.163C19.7 153.263 20.9 148.763 25.4 141.663C35.3 125.963 34.5 128.063 34.5 117.663C34.5 112.463 34.1 104.063 33.6 99.1627C32.9 91.1627 33 89.5627 35 84.4627C39.4 72.8627 53.5 55.5627 66 46.6627C69.5 44.1627 76.8 38.6627 82.4 34.3627C93.1 26.0627 99 22.5627 105.5 20.7627C107.7 20.1627 119.3 18.7627 131.2 17.5627C143.2 16.4627 154.9 15.1627 157.2 14.7627C159.6 14.2627 161.9 13.8627 162.3 13.7627C162.7 13.6627 167.4 14.1627 172.8 14.7627Z" fill="#0076B6"/>
<path d="M151.5 18.6627C144.9 19.6627 132.1 20.9627 123 21.4627C102.4 22.5627 100.2 23.4627 87.3 36.0627C80.9 42.2627 76.3 45.8627 72.3 47.6627C65.8 50.6627 62.2 53.9627 57.5 61.1627C55.7 63.8627 51.3 69.4627 47.6 73.4627C44 77.4627 40.7 81.8627 40.4 83.2627C39.7 85.8627 40.4 105.263 41.6 118.263C42.5 128.363 41.1 131.863 33.4 139.163C27.1 145.163 27 145.263 28.2 148.363C29.2 151.163 29.1 152.163 27.1 156.563C25.6 159.663 25 162.363 25.3 163.863C25.7 165.163 30.8 172.363 36.8 179.863C42.8 187.363 48.2 194.863 48.8 196.563C49.4 198.263 50.2 199.663 50.6 199.663C51 199.663 51 193.463 50.6 185.863C50.2 176.463 50.3 170.263 51.2 166.163C51.9 162.863 52.5 151.563 52.6 141.163C52.8 115.963 53.1 115.163 68.3 98.3627C72.7 93.5627 77.1 89.6627 78.1 89.6627C80.6 89.6627 83 93.4627 83 97.3627C83 100.563 80.7 103.963 77.9 104.863C75.7 105.563 81.6 112.563 85.9 114.363C92.8 117.363 105.4 113.863 116.1 106.063C122.6 101.263 125 101.563 129.3 107.563C133.5 113.363 139.2 116.463 148.8 117.863C160.2 119.563 168.8 115.563 170.3 107.963C170.8 105.663 171.6 104.863 175.2 103.963C177.6 103.263 181.9 100.963 184.9 98.7627C187.8 96.4627 191 94.6627 192 94.6627C197.8 94.6627 202.7 99.5627 201.2 103.763C200.4 105.763 200.9 106.563 205 109.763C212.6 115.763 214.4 119.063 214.8 127.163C215.1 133.163 214.7 135.463 212 142.663C203.9 164.163 203.2 166.463 204 170.563C204.5 173.263 207 177.663 211.7 183.963C221.1 196.463 222.3 198.963 221.8 204.663C220.7 215.363 226.1 214.063 230.6 202.563C235.7 189.563 244.1 182.763 255 182.663C261.3 182.663 263.8 183.963 267 189.163C269.7 193.563 272.2 193.663 276.6 189.263C280.4 185.463 280.7 183.863 278.5 179.763C277.2 177.163 277.2 176.763 278.7 175.563C282.5 172.363 289 162.363 289 159.563C289 156.763 288.9 156.663 283.9 156.663C281.1 156.663 278 156.163 277 155.663C274.6 154.363 273 148.763 273 141.863C273 137.963 272.1 134.463 269.8 129.363C266.7 122.363 266.6 121.763 266 104.163C265.4 83.4627 264.8 81.7627 256.3 75.6627C248 69.6627 238.2 59.6627 233.4 52.3627C226.9 42.3627 222.4 37.8627 216 34.9627C213 33.5627 205.3 29.6627 199 26.1627C181.1 16.1627 174.7 15.1627 151.5 18.6627Z" fill="#0076B6"/>
<path d="M61.9 139.163C61.8 140.263 61.7 144.063 61.6 147.663C61.5 151.463 60.2 158.163 58.5 163.663C56.7 169.763 55.6 175.563 55.6 179.863C55.5 185.663 55.8 186.863 58 189.163C59.4 190.663 62.1 192.663 64 193.663L67.5 195.563L64.2 196.663C61.1 197.863 57.2 203.063 58.8 203.963C60.5 205.063 71 205.863 71 204.863C71 202.963 77.3 201.363 83.7 201.463C93.5 201.763 96.1 204.163 92.5 209.363C91.1 211.363 91.2 211.563 94 212.463C96.8 213.463 97.3 214.463 98.2 220.163C98.4 221.463 100.6 218.263 104.6 210.663L110.7 199.163L108.3 195.663C107.1 193.763 106 191.463 106 190.463C106 189.563 105 187.563 103.8 186.163C101.8 183.863 100.4 183.463 92 182.563C80.1 181.363 75.2 179.063 70.4 172.563C66.1 166.663 65.8 163.463 69.4 159.763C70.8 158.263 72 156.163 72 155.063C72 153.963 70.1 149.963 67.9 146.063C62.8 137.563 62 136.663 61.9 139.163Z" fill="#0076B6"/>
<path d="M118.2 188.963C119.5 190.663 122.3 194.463 124.3 197.363C127.1 201.163 128.5 202.363 129.9 201.963C131.2 201.663 132.4 202.263 133.4 203.963C134.9 206.163 136 206.463 148.4 207.663C159.9 208.663 162.1 208.663 164.6 207.363C170.6 204.363 171.7 204.363 175.7 207.963C179.8 211.663 183.1 213.663 185.2 213.663C185.9 213.663 184.8 212.563 182.7 211.163C179.6 208.963 179.1 208.263 180 206.663C180.6 205.563 182.6 204.563 185 204.163C187.2 203.763 189 203.163 189 202.763C189 201.363 176.6 190.063 173.3 188.363C170.7 186.963 165.5 186.563 143 186.163L115.8 185.663L118.2 188.963Z" fill="#0076B6"/>
<path d="M250 194.263C246.1 196.863 234 208.963 234 210.263C234 210.863 234.8 212.463 235.8 213.763C240.5 219.763 240.5 226.163 235.9 232.863C233.8 235.763 233.5 237.663 235 237.663C238.2 237.663 246 223.463 246 217.663C246 215.563 245.3 212.063 244.5 209.663C242.7 204.463 243.7 202.063 248.7 199.963C253.5 198.063 254.7 199.363 255.5 207.163C257 221.963 257.5 222.363 260.9 211.163C263.3 203.563 263 199.963 259.8 195.363C257.5 192.163 253.8 191.763 250 194.263Z" fill="#0076B6"/>
<path d="M52.6 218.463C51.3 222.563 59.1 274.663 63.3 289.663C64.7 294.863 65.4 299.063 65 300.263C64.5 301.363 59 305.363 52.6 309.163C46.2 312.963 41 316.463 41 316.863C41 317.363 42.1 318.263 43.5 318.863C46.5 320.163 46.5 320.463 44 323.663C42.9 325.063 42 326.663 42 327.363C42 329.563 49.2 333.663 53 333.663C57.4 333.663 58.4 334.363 65.5 343.163C72.2 351.463 73.6 353.863 74.5 359.163C76.7 372.663 80.3 385.763 82.1 386.663C83.1 387.263 86.8 387.463 90.7 387.063C99 386.263 110.4 387.963 118 390.963C121 392.263 130.1 397.363 138 402.363C155.9 413.663 157.4 414.363 159.5 412.663C161.6 410.863 161.4 404.163 159 397.063C157.9 393.863 157.1 390.763 157.4 390.163C157.6 389.563 161.1 387.763 165.1 386.263C169.2 384.663 178.4 380.263 185.7 376.463C192.9 372.663 203.2 368.063 208.7 366.263C214.1 364.463 220.6 362.063 223.2 361.063C227.8 359.263 228.1 359.263 231.4 361.063L234.8 362.863L254.7 358.163C274.9 353.263 280 351.563 280 349.363C279.9 346.763 273.6 341.263 253.1 325.763C242.9 317.963 242 316.063 242 302.963C242 296.663 241.3 290.163 240 284.863C237.3 273.663 237.4 270.563 240.5 267.663C243.7 264.663 243.7 263.463 240.4 264.663C236.6 266.163 230.7 265.863 228.3 264.163C226.2 262.663 226 262.763 225.4 265.363C225.1 266.863 222.8 275.863 220.4 285.363C217.1 298.163 216 304.563 216 309.963C216 318.563 214.4 323.963 209.8 330.263C203.8 338.563 190.4 345.563 177.2 347.263C171 348.063 168 346.163 168 341.463C168 336.963 169.5 335.063 175.8 331.663C181.5 328.663 199 313.463 199 311.563C199 311.063 196 312.263 192.4 314.163C188.8 316.063 185 317.663 184.1 317.663C178.9 317.663 173.7 305.363 173.6 293.163C173.6 286.563 174.1 283.963 176.4 278.663C179.5 271.563 179.4 266.963 176.3 263.463C175.3 262.363 170.3 259.463 165.3 257.063C157.3 253.263 155.5 251.863 152 247.163C149.5 243.763 147.2 241.663 146 241.663C141.7 241.663 144 245.863 153.9 256.063C159.3 261.563 164.5 267.663 165.4 269.563C167.5 273.563 167.3 273.963 158.6 279.163C149.4 284.663 146 285.163 132.2 283.163C125.8 282.163 120.1 281.063 119.7 280.663C119.3 280.263 123.2 275.963 128.5 271.163C136.5 263.863 137.8 262.163 136.5 261.363C134.2 260.163 128.7 260.963 121.3 263.663C114.1 266.263 110 265.863 104.9 262.163C100.6 259.063 94.4 255.663 93 255.663C92.3 255.663 92.2 257.563 92.6 261.163C93.4 267.763 92.2 269.663 87.4 269.663C84.7 269.663 83.8 269.063 82.5 266.663C79.9 261.663 80.6 258.063 85 253.363C88.8 249.163 91 245.063 91 242.063C91 239.463 82.8 240.263 78.4 243.363C76.3 244.763 72.9 247.063 71 248.363C69.1 249.663 66.5 250.663 65.1 250.463C60.9 249.963 59.2 246.063 57.1 232.563C56.1 225.563 54.8 219.163 54.2 218.163C53.3 216.463 53.2 216.463 52.6 218.463ZM159.7 290.263C165.1 294.663 169 302.563 169 309.063C169 315.063 165.7 322.863 161.4 326.863C152.6 334.963 137.8 337.963 127.1 333.663C124.1 332.563 117.4 330.663 112.3 329.663C96.8 326.563 91 321.863 89.6 311.663C89.1 308.163 87.8 304.863 85.5 301.463C83.6 298.663 82 295.663 82 294.663C82 291.563 85.9 287.663 89 287.663C94.1 287.663 99.3 296.663 97.7 302.663C97.4 303.763 97.3 304.663 97.5 304.663C98.3 304.663 113.7 306.763 116.9 307.263C120.2 307.763 120.2 307.763 118.6 305.463C116.4 302.463 116.5 302.063 120 300.663C121.7 299.963 123.3 299.063 123.5 298.663C123.8 298.263 119.7 296.363 114.5 294.563C97.4 288.763 102.5 286.663 133.7 286.963L155.8 287.163L159.7 290.263Z" fill="#0076B6"/>
<path d="M539.5 98.1627C521.2 101.563 509 109.863 502.3 123.563C500.2 127.863 499.5 130.863 499.2 137.663C498.7 148.263 500.5 155.463 505.4 161.863C512.2 170.763 522.7 175.963 546.4 182.263C561.8 186.363 567.8 189.163 570.3 193.463C572.9 197.963 571.3 202.863 566.3 205.163C561.1 207.663 547 206.763 537.2 203.263C528.3 200.163 517.1 194.563 510.7 190.063C508.1 188.163 505.6 186.663 505.2 186.663C504.4 186.663 490.5 215.363 490.5 216.963C490.5 218.463 504.6 226.563 512.7 229.863C543.6 242.163 577.8 241.363 597.1 227.863C608.5 219.963 613.5 209.763 613.5 194.663C613.5 185.963 613.2 184.563 610.3 178.663C603.5 164.763 596.8 160.963 558.8 149.263C550 146.563 546.4 144.863 544.1 142.563C539 137.463 540.7 130.763 547.6 129.063C555.3 127.063 573.5 131.563 590.9 139.763C595.5 141.863 599.4 143.563 599.4 143.463C603.9 134.263 614 112.963 614 112.563C614 111.263 594 102.663 586.5 100.763C570.1 96.5627 553.2 95.5627 539.5 98.1627Z" fill="#0076B6"/>
<path d="M670 98.1627C657.2 100.763 648.9 104.763 641.5 111.763C625.9 126.463 625.2 152.263 639.9 166.063C647.5 173.063 655.4 176.463 678.5 182.663C696.1 187.363 702 190.963 702 196.963C702 203.663 697.5 206.663 687.3 206.663C675 206.663 658.9 201.163 644.3 192.063C639.6 189.063 635.7 186.663 635.6 186.663C635.5 186.663 632.1 193.463 628 201.763L620.5 216.863L623.3 219.063C628.3 223.063 641.3 229.463 650.6 232.563C664.7 237.163 678.3 239.063 691.9 238.363C713.5 237.263 727.9 230.963 737.1 218.563C742 212.163 744.3 204.463 744.2 194.763C744.1 172.263 732.2 161.363 697 151.663C677.2 146.163 672 142.863 672 136.063C672 130.563 674.8 129.163 685.4 129.263C695.6 129.363 705.7 132.263 720.5 139.263C724.9 141.363 728.9 143.063 729.3 143.063C729.8 143.163 733.5 136.263 737.5 127.863L744.9 112.663L742.7 111.163C734.3 105.763 716 99.5627 702.6 97.7627C692.4 96.3627 678.1 96.5627 670 98.1627Z" fill="#0076B6"/>
<path d="M407.9 99.6627C392.9 103.363 381.3 110.163 371.3 121.163C359.6 133.863 353.9 149.063 353.8 167.663C353.7 193.663 364.9 214.363 386.4 228.163C398.1 235.763 418.7 240.663 432.5 239.163C450.5 237.263 470.8 227.863 481.9 216.263L485.3 212.763L482 208.963C480.2 206.863 475 201.263 470.6 196.563L462.5 187.863L457.5 191.963C454.7 194.163 449.1 197.563 445 199.563C438.2 202.863 436.7 203.163 429 203.163C421.7 203.163 419.7 202.763 414.8 200.363C397.1 191.663 390.1 168.263 399.6 149.463C404.7 139.363 413 133.363 424.1 131.563C435.2 129.763 447.7 134.763 457.6 144.763L462.3 149.463L473.6 136.063C479.9 128.563 485 122.163 485 121.763C485 120.363 477.5 113.863 471.6 110.163C464.1 105.463 454.2 101.363 445.2 99.2627C435.5 97.0627 417.8 97.2627 407.9 99.6627Z" fill="#0076B6"/>
<path d="M760 114.663V130.663H784H808V162.363C808 191.163 807.8 194.563 806.1 198.263C803.8 203.363 800 205.063 792.6 204.463C785.9 203.863 777.4 199.663 770.7 193.763C766.8 190.263 765.6 189.563 765 190.763C764.5 191.563 760.3 197.563 755.6 204.163L747.1 216.163L753.1 221.863C759.9 228.263 771.5 234.663 781 237.263C789 239.363 806.2 239.663 814 237.763C831.9 233.363 844.3 220.963 847.9 203.863C848.6 200.463 849 181.163 849 148.663V98.6626H804.5H760V114.663Z" fill="#0076B6"/>
<path d="M871 168.263V237.763L914.3 237.463C961.4 236.963 962.5 236.863 975.5 230.763C992.8 222.563 1000.5 205.663 995.2 187.963C991.7 176.663 983.5 168.163 972.7 164.663L968.9 163.463L974.7 160.663C986.1 155.163 992.2 145.763 992.1 133.663C992.1 116.763 979.7 104.663 957.8 100.263C951.6 98.9627 942.5 98.6627 910.5 98.6627H871V168.263ZM943.5 130.063C952.3 133.763 953 146.963 944.5 151.463C940.7 153.463 913.2 154.563 912.1 152.763C911.5 151.863 911.4 130.063 911.9 128.863C911.9 128.763 918.3 128.663 926 128.663C935.9 128.663 941.1 129.063 943.5 130.063ZM943.6 181.763C946.1 182.463 949.4 184.263 951.1 185.863C953.5 188.263 954 189.663 954 193.563C954 199.063 951.7 202.663 946.7 205.363C942.7 207.563 913.2 208.663 912 206.763C911.5 205.863 911.3 182.063 911.9 180.863C912.3 180.063 939.9 180.863 943.6 181.763Z" fill="#0076B6"/>
<path d="M516.2 288.163C500.3 295.363 496.5 314.163 508.5 326.163C516.4 334.163 529.8 335.663 539.5 329.663L543 327.463V319.063C543 311.363 542.8 310.663 541 310.663C539.2 310.663 539 311.363 539 317.663V324.663L535 326.663C524.4 332.063 510.7 326.463 507 315.163C504.4 307.163 508.9 296.963 516.6 293.063C522 290.463 530.3 290.563 535.9 293.363C539.2 295.063 540.7 295.363 541.7 294.463C543.7 292.863 543.3 292.263 538.8 289.663C533.4 286.663 521.3 285.863 516.2 288.163Z" fill="#0076B6"/>
<path d="M557 309.663C557 331.963 557.1 332.663 559 332.663C560.8 332.663 561 331.963 561 325.663V318.663L568 318.463C571.9 318.463 575.6 318.363 576.3 318.263C576.9 318.163 579.7 321.463 582.4 325.363C586.2 330.863 587.9 332.663 589.7 332.663C591 332.663 592 332.463 592 332.263C592 331.963 589.8 328.563 587 324.563L582.1 317.363L585.3 315.663C591.9 312.163 594.6 301.363 590.7 294.063C587.8 288.563 582.2 286.663 568.7 286.663H557V309.663ZM579.4 291.763C585.2 293.363 588 296.663 588 301.863C588 310.463 583 313.663 569.5 313.663H561V302.863C561 296.863 561.3 291.663 561.7 291.363C562.7 290.263 575.1 290.563 579.4 291.763Z" fill="#0076B6"/>
<path d="M614.1 298.863C611.1 305.663 606.5 315.963 603.9 321.863L599.1 332.663H601.6C603.6 332.663 604.5 331.563 606.8 326.863L609.5 321.163L622.3 320.863L635.1 320.563L637.7 326.663C639.8 331.563 640.8 332.663 642.7 332.663C643.9 332.663 645 332.263 645 331.863C645 331.363 640.6 321.163 635.2 309.063C625.8 288.263 625.2 287.163 622.4 286.863C619.6 286.663 619.3 287.063 614.1 298.863ZM627.9 304.463C630.7 310.563 633 315.863 633 316.163C633 316.463 628.3 316.663 622.5 316.663C616.5 316.663 612 316.263 612 315.663C612 314.763 619.1 298.163 621.1 294.463C621.7 293.363 622.3 292.663 622.5 292.863C622.7 293.063 625.2 298.263 627.9 304.463Z" fill="#0076B6"/>
<path d="M654 309.563V332.663H656.5H659L659.2 313.963L659.5 295.263L673.3 313.963C685.8 330.863 687.4 332.663 690.1 332.663H693V309.663V286.663H690.5H688L687.8 305.363L687.5 324.163L673.6 305.663C661.8 289.863 659.4 287.163 656.9 286.863L654 286.563V309.563Z" fill="#0076B6"/>
<path d="M719.8 291.363C718.6 294.063 714.2 303.963 709.9 313.563C705.5 323.163 702 331.363 702 331.863C702 332.263 703 332.663 704.3 332.663C706.1 332.663 707.1 331.463 709.2 326.663L711.8 320.663H724.5H737.1L739.8 326.663C742.1 331.763 742.9 332.563 745.2 332.663H747.9L743.1 321.863C740.5 315.963 735.9 305.663 732.9 298.963C727.9 287.563 727.3 286.763 724.7 286.663C722.3 286.663 721.6 287.363 719.8 291.363ZM730.4 304.563C732.9 310.363 735 315.363 735 315.863C735 316.263 730.3 316.663 724.5 316.663C718.7 316.663 714 316.463 714 316.163C714 315.563 717.4 307.363 721.5 298.263C722.9 295.063 724.5 292.763 724.9 293.263C725.4 293.763 727.8 298.863 730.4 304.563Z" fill="#0076B6"/>
<path d="M756 309.663V332.663H768.8C780.5 332.663 782 332.463 786.7 330.163C794.6 326.163 799 318.663 799 309.363C798.9 302.663 796.3 296.963 791.1 292.563C785.5 287.763 781.3 286.663 767.6 286.663H756V309.663ZM783 292.663C786.5 294.463 790.9 298.663 792.6 301.863C794.6 305.763 794.4 314.063 792.1 318.463C788.2 326.163 782.8 328.663 770 328.663H761V309.563V290.363L770.8 290.863C776.1 291.163 781.6 291.963 783 292.663Z" fill="#0076B6"/>
<path d="M814.6 304.363C810.3 314.163 805.7 324.563 804.4 327.363L802 332.663H804.5C806.6 332.663 807.5 331.663 809.8 326.863L812.5 321.163L825.3 320.863L838.1 320.563L840.7 326.663C842.8 331.563 843.8 332.663 845.7 332.663C846.9 332.663 848 332.363 848 331.863C848 331.463 843.6 321.263 838.1 309.163C828.8 288.163 828.2 287.163 825.4 286.863C822.6 286.663 822.4 286.963 814.6 304.363ZM830.5 303.363C833.1 309.363 835.4 314.763 835.7 315.363C836.1 316.363 833.7 316.663 825.6 316.663C819.8 316.663 815 316.363 815 315.863C814.9 314.563 824.5 292.663 825.1 292.663C825.4 292.663 827.9 297.463 830.5 303.363Z" fill="#0076B6"/>
</g>
<defs>
<clipPath id="clip0">
<rect width="1000" height="431" fill="white"/>
</clipPath>
</defs>
</svg>
