<svg width="449" height="380" viewBox="0 0 449 380" fill="none" xmlns="http://www.w3.org/2000/svg">
<path d="M448.404 379.208L392.357 379.467L336.311 379.55L224.207 379.727L112.104 379.56L56.057 379.467L0 379.208L56.057 378.958L112.104 378.865L224.207 378.688L336.311 378.865L392.357 378.958L448.404 379.208Z" fill="#263238"/>
<path d="M398.046 76.3235C397.969 73.1459 398.091 69.9667 398.409 66.8042C398.685 63.6402 399.153 60.4959 399.811 57.3887C399.887 60.5662 399.766 63.7455 399.447 66.908C399.172 70.072 398.704 73.2163 398.046 76.3235V76.3235Z" fill="#263238"/>
<path d="M392.44 77.4136C390.792 74.6972 389.311 71.8821 388.008 68.9843C386.657 66.1089 385.489 63.1514 384.509 60.1294C387.779 65.5827 390.438 71.3789 392.44 77.4136Z" fill="#263238"/>
<path d="M388.143 81.161C385.357 79.6334 382.667 77.9382 380.087 76.0847C377.477 74.2677 374.984 72.2879 372.623 70.1572C378.181 73.2505 383.385 76.9402 388.143 81.161V81.161Z" fill="#263238"/>
<path d="M386.285 86.5487C379.927 86.6547 373.578 86.0629 367.35 84.7839C370.524 84.7074 373.7 84.8287 376.859 85.1473C380.026 85.4231 383.174 85.8911 386.285 86.5487V86.5487Z" fill="#263238"/>
<path d="M406.413 93.4731C411.987 96.566 417.208 100.256 421.984 104.477C419.195 102.957 416.504 101.261 413.929 99.4007C411.305 97.5801 408.795 95.6006 406.413 93.4731Z" fill="#263238"/>
<path d="M408.271 88.0852C414.632 87.9798 420.985 88.5716 427.216 89.8499C424.039 89.9267 420.86 89.8054 417.697 89.4866C414.53 89.2108 411.382 88.7428 408.271 88.0852V88.0852Z" fill="#263238"/>
<path d="M407.181 82.4794C409.898 80.8308 412.713 79.3504 415.611 78.0467C418.486 76.6961 421.444 75.5277 424.466 74.5483C421.752 76.1982 418.94 77.6819 416.047 78.9914C413.167 80.3368 410.206 81.5017 407.181 82.4794V82.4794Z" fill="#263238"/>
<path d="M403.434 78.1606C404.961 75.3727 406.66 72.6824 408.52 70.105C410.331 67.4927 412.307 64.9996 414.437 62.6411C411.347 68.2167 407.658 73.4382 403.434 78.2125V78.1606Z" fill="#263238"/>
<path d="M167.112 312.552C165.96 314.016 69.0332 318.366 64.424 317.037C64.2001 316.971 63.9842 316.881 63.7804 316.767C58.0709 314.089 33.5719 295.59 29.6687 287.794C26.5544 281.565 45.0221 247.474 51.4686 241.63C55.756 237.758 63.7077 236.232 63.7077 236.232C63.7077 236.232 86.1513 171.455 99.9891 157.897C103.467 154.492 163.572 153.164 174.306 158.063C178.905 160.14 190.085 171.559 190.396 173.635C190.656 176.635 168.244 311.068 167.112 312.552Z" fill="#37474F"/>
<path d="M167.776 312.553C166.624 314.016 69.7079 318.366 65.0884 317.037C64.8657 316.968 64.6501 316.878 64.4448 316.767C73.7876 291.656 117.387 173.832 118.633 173.074C119.879 172.317 177.306 172.659 191.061 173.656C191.352 176.635 168.939 311.068 167.776 312.553Z" fill="#263238"/>
<path d="M132.18 162.673C131.215 161.759 130.571 148.596 132.357 145.97C134.35 143.032 157.396 144.486 158.756 147.008C160.115 149.531 160.769 162.673 160.074 163.15C159.378 163.628 155.537 164.074 155.018 163.234C154.499 162.393 154.53 151.513 154.126 150.932C153.721 150.351 137.578 149.313 137.018 150.143C136.457 150.974 137.817 161.977 137.174 162.455C136.53 162.932 133.125 163.566 132.18 162.673Z" fill="#37474F"/>
<path d="M84.586 222.482L77.4703 219.147L73.6333 227.334L80.749 230.669L84.586 222.482Z" fill="#DBDBDB"/>
<path d="M84.2419 229.068L72.6425 223.632L68.2637 232.976L79.8631 238.412L84.2419 229.068Z" fill="#C7C7C7"/>
<path d="M82.4142 253.724L62.3687 296.493L34.7969 283.558L54.8321 240.799C58.808 232.339 67.1854 228.342 75.594 232.266C84.0025 236.19 86.3797 245.294 82.4142 253.724Z" fill="#0076B6"/>
<path opacity="0.1" d="M82.4142 253.724L62.3687 296.493L34.7969 283.558L54.8321 240.799C58.808 232.339 67.1854 228.342 75.594 232.266C84.0025 236.19 86.3797 245.294 82.4142 253.724Z" fill="black"/>
<path d="M72.6457 234.768C72.5775 234.91 72.4823 235.036 72.3653 235.14C72.2483 235.244 72.112 235.325 71.964 235.376C71.816 235.428 71.6594 235.45 71.5029 235.441C71.3465 235.432 71.1933 235.392 71.0522 235.324C70.9111 235.256 70.7848 235.16 70.6806 235.043C70.5763 234.926 70.4961 234.79 70.4445 234.642C70.393 234.494 70.371 234.337 70.38 234.181C70.389 234.025 70.4287 233.871 70.4969 233.73C70.6345 233.445 70.8797 233.227 71.1786 233.123C71.4774 233.018 71.8054 233.037 72.0903 233.175C72.3753 233.313 72.5939 233.558 72.698 233.857C72.8022 234.155 72.7834 234.483 72.6457 234.768V234.768Z" fill="white"/>
<path d="M81.8329 250.848C81.7331 251.06 81.5729 251.237 81.3726 251.357C81.1723 251.478 80.9407 251.536 80.7072 251.525C80.4736 251.514 80.2486 251.434 80.0604 251.296C79.8722 251.157 79.7293 250.966 79.6498 250.746C79.5702 250.526 79.5576 250.287 79.6134 250.06C79.6693 249.833 79.7911 249.628 79.9636 249.47C80.136 249.312 80.3514 249.209 80.5825 249.173C80.8135 249.138 81.05 249.172 81.2619 249.27C81.4033 249.336 81.5303 249.429 81.6356 249.544C81.7408 249.659 81.8223 249.794 81.8754 249.94C81.9285 250.087 81.952 250.243 81.9447 250.398C81.9374 250.554 81.8994 250.707 81.8329 250.848V250.848Z" fill="white"/>
<path d="M69.1266 246.208C69.0599 246.348 68.9661 246.474 68.8507 246.579C68.7352 246.683 68.6004 246.763 68.4539 246.815C68.3073 246.867 68.1519 246.89 67.9966 246.882C67.8413 246.874 67.6891 246.835 67.5487 246.769C67.4083 246.7 67.2827 246.605 67.1791 246.489C67.0754 246.372 66.9958 246.236 66.9447 246.088C66.8936 245.941 66.8721 245.785 66.8813 245.629C66.8905 245.473 66.9304 245.321 66.9985 245.18C67.0667 245.04 67.1618 244.914 67.2786 244.811C67.3953 244.707 67.5312 244.627 67.6787 244.576C67.8262 244.525 67.9823 244.504 68.1381 244.513C68.2939 244.522 68.4464 244.562 68.5868 244.63C68.8649 244.771 69.0771 245.014 69.1779 245.309C69.2788 245.604 69.2604 245.927 69.1266 246.208V246.208Z" fill="white"/>
<path d="M65.3792 256.973C65.3145 257.115 65.222 257.243 65.1071 257.349C64.9923 257.455 64.8574 257.537 64.7104 257.59C64.5634 257.644 64.4072 257.667 64.2511 257.659C64.095 257.651 63.942 257.612 63.8013 257.544C63.5898 257.444 63.4127 257.284 63.2921 257.083C63.1716 256.883 63.1132 256.652 63.1241 256.418C63.135 256.185 63.2149 255.959 63.3536 255.771C63.4924 255.583 63.6837 255.44 63.9036 255.361C64.1234 255.281 64.3619 255.268 64.5889 255.324C64.8159 255.38 65.0213 255.502 65.1792 255.674C65.337 255.847 65.4403 256.062 65.4759 256.293C65.5114 256.524 65.4778 256.761 65.3792 256.973V256.973Z" fill="white"/>
<path d="M49.2471 262.495C49.1824 262.638 49.0899 262.766 48.9751 262.872C48.8603 262.978 48.7254 263.06 48.5784 263.113C48.4314 263.166 48.2752 263.19 48.1191 263.182C47.963 263.174 47.81 263.134 47.6692 263.066C47.5288 262.998 47.4032 262.903 47.2995 262.786C47.1959 262.67 47.1163 262.534 47.0652 262.386C47.0141 262.239 46.9926 262.083 47.0018 261.927C47.011 261.771 47.0509 261.619 47.119 261.478C47.1872 261.338 47.2823 261.212 47.3991 261.108C47.5158 261.005 47.6517 260.925 47.7992 260.874C47.9467 260.823 48.1028 260.801 48.2586 260.811C48.4144 260.82 48.5669 260.86 48.7073 260.928C48.8466 260.994 48.9712 261.088 49.0739 261.203C49.1767 261.318 49.2554 261.453 49.3057 261.599C49.3559 261.744 49.3766 261.899 49.3666 262.053C49.3565 262.207 49.3159 262.357 49.2471 262.495V262.495Z" fill="white"/>
<path d="M52.6521 252.447C52.5839 252.588 52.4886 252.715 52.3717 252.819C52.2547 252.923 52.1183 253.003 51.9704 253.055C51.8224 253.106 51.6657 253.128 51.5093 253.119C51.3529 253.11 51.1997 253.071 51.0586 253.002C50.9175 252.934 50.7912 252.839 50.687 252.722C50.5827 252.605 50.5025 252.469 50.4509 252.321C50.3993 252.173 50.3774 252.016 50.3864 251.86C50.3954 251.703 50.4351 251.55 50.5032 251.409C50.6409 251.124 50.8861 250.905 51.1849 250.801C51.4838 250.697 51.8118 250.716 52.0967 250.854C52.3817 250.991 52.6003 251.237 52.7044 251.535C52.8086 251.834 52.7897 252.162 52.6521 252.447V252.447Z" fill="white"/>
<path d="M57.6661 242.45C57.5979 242.591 57.5026 242.717 57.3857 242.822C57.2687 242.926 57.1323 243.006 56.9844 243.058C56.8364 243.109 56.6797 243.131 56.5233 243.122C56.3669 243.113 56.2137 243.074 56.0726 243.005C55.9315 242.937 55.8052 242.842 55.701 242.725C55.5967 242.608 55.5165 242.472 55.4649 242.324C55.4133 242.176 55.3914 242.019 55.4004 241.863C55.4094 241.706 55.4491 241.553 55.5172 241.412C55.6549 241.127 55.9001 240.908 56.199 240.804C56.4978 240.7 56.8258 240.719 57.1107 240.857C57.3957 240.994 57.6143 241.239 57.7184 241.538C57.8226 241.837 57.8038 242.165 57.6661 242.45V242.45Z" fill="white"/>
<path d="M65.2234 238.443C65.1251 238.656 64.9658 238.835 64.7657 238.957C64.5657 239.079 64.3339 239.139 64.0997 239.129C63.8655 239.119 63.6395 239.04 63.4504 238.902C63.2612 238.763 63.1174 238.572 63.0372 238.352C62.957 238.131 62.944 237.892 62.9998 237.665C63.0556 237.437 63.1778 237.231 63.3508 237.073C63.5239 236.915 63.7399 236.812 63.9717 236.777C64.2034 236.741 64.4403 236.776 64.6525 236.876C64.9353 237.008 65.1541 237.248 65.2611 237.542C65.3681 237.835 65.3545 238.159 65.2234 238.443V238.443Z" fill="white"/>
<path d="M61.3098 249.602C61.21 249.814 61.0499 249.991 60.8495 250.112C60.6492 250.232 60.4176 250.291 60.1841 250.28C59.9506 250.269 59.7255 250.189 59.5373 250.05C59.3491 249.911 59.2062 249.72 59.1267 249.5C59.0471 249.28 59.0345 249.042 59.0903 248.815C59.1462 248.588 59.268 248.382 59.4405 248.225C59.6129 248.067 59.8283 247.963 60.0593 247.928C60.2904 247.892 60.5269 247.926 60.7388 248.025C60.8802 248.09 61.0072 248.183 61.1124 248.298C61.2177 248.414 61.2993 248.548 61.3523 248.695C61.4054 248.841 61.4289 248.997 61.4216 249.153C61.4143 249.309 61.3763 249.461 61.3098 249.602V249.602Z" fill="white"/>
<path d="M77.2549 242.938C77.1551 243.15 76.995 243.327 76.7946 243.448C76.5943 243.568 76.3628 243.626 76.1292 243.616C75.8957 243.605 75.6706 243.525 75.4824 243.386C75.2942 243.247 75.1514 243.056 75.0718 242.836C74.9923 242.616 74.9796 242.378 75.0354 242.151C75.0913 241.924 75.2131 241.718 75.3856 241.56C75.5581 241.403 75.7734 241.299 76.0045 241.264C76.2355 241.228 76.472 241.262 76.6839 241.36C76.8253 241.426 76.9523 241.519 77.0576 241.634C77.1629 241.749 77.2444 241.884 77.2974 242.031C77.3505 242.177 77.374 242.333 77.3667 242.489C77.3594 242.645 77.3214 242.797 77.2549 242.938V242.938Z" fill="white"/>
<path d="M73.6838 253.983C73.5841 254.195 73.4239 254.372 73.2236 254.492C73.0232 254.613 72.7917 254.671 72.5581 254.66C72.3246 254.65 72.0995 254.57 71.9114 254.431C71.7232 254.292 71.5803 254.101 71.5007 253.881C71.4212 253.661 71.4085 253.423 71.4644 253.196C71.5202 252.969 71.6421 252.763 71.8145 252.605C71.987 252.448 72.2023 252.344 72.4334 252.309C72.6645 252.273 72.9009 252.307 73.1129 252.405C73.2542 252.471 73.3812 252.564 73.4865 252.679C73.5918 252.794 73.6733 252.929 73.7264 253.076C73.7794 253.222 73.803 253.378 73.7957 253.534C73.7884 253.69 73.7504 253.842 73.6838 253.983V253.983Z" fill="white"/>
<path d="M57.199 259.828C57.0992 260.039 56.939 260.216 56.7387 260.337C56.5384 260.457 56.3068 260.516 56.0733 260.505C55.8397 260.494 55.6147 260.414 55.4265 260.275C55.2383 260.136 55.0954 259.945 55.0159 259.725C54.9363 259.505 54.9237 259.267 54.9795 259.04C55.0354 258.813 55.1572 258.607 55.3297 258.45C55.5021 258.292 55.7175 258.189 55.9485 258.153C56.1796 258.117 56.416 258.151 56.628 258.25C56.7694 258.315 56.8964 258.409 57.0016 258.524C57.1069 258.639 57.1884 258.773 57.2415 258.92C57.2945 259.067 57.3181 259.222 57.3108 259.378C57.3035 259.534 57.2655 259.687 57.199 259.828V259.828Z" fill="white"/>
<path d="M64.7978 273.78C64.698 273.991 64.5379 274.168 64.3375 274.289C64.1372 274.409 63.9056 274.468 63.6721 274.457C63.4386 274.446 63.2135 274.366 63.0253 274.227C62.8371 274.089 62.6942 273.897 62.6147 273.677C62.5351 273.458 62.5225 273.219 62.5783 272.992C62.6342 272.765 62.756 272.56 62.9285 272.402C63.1009 272.244 63.3163 272.141 63.5474 272.105C63.7784 272.07 64.0149 272.103 64.2268 272.202C64.3682 272.268 64.4952 272.361 64.6005 272.476C64.7057 272.591 64.7873 272.725 64.8403 272.872C64.8934 273.019 64.9169 273.174 64.9096 273.33C64.9023 273.486 64.8643 273.639 64.7978 273.78V273.78Z" fill="white"/>
<path d="M60.8427 281.783C60.7429 281.995 60.5828 282.172 60.3824 282.292C60.1821 282.413 59.9505 282.471 59.717 282.46C59.4835 282.449 59.2584 282.369 59.0702 282.231C58.882 282.092 58.7391 281.901 58.6596 281.681C58.5801 281.461 58.5674 281.222 58.6232 280.995C58.6791 280.768 58.8009 280.563 58.9734 280.405C59.1459 280.247 59.3612 280.144 59.5923 280.109C59.8233 280.073 60.0598 280.107 60.2717 280.205C60.4131 280.271 60.5401 280.364 60.6454 280.479C60.7507 280.594 60.8322 280.729 60.8852 280.875C60.9383 281.022 60.9618 281.178 60.9545 281.334C60.9472 281.489 60.9092 281.642 60.8427 281.783V281.783Z" fill="white"/>
<path d="M53.7733 268.849C53.7075 268.99 53.6144 269.117 53.4993 269.222C53.3843 269.328 53.2496 269.409 53.103 269.462C52.9564 269.515 52.8007 269.539 52.6449 269.532C52.4892 269.524 52.3364 269.486 52.1954 269.42C51.9839 269.32 51.8068 269.16 51.6862 268.959C51.5657 268.759 51.5073 268.528 51.5182 268.294C51.5291 268.061 51.609 267.835 51.7477 267.647C51.8865 267.459 52.0778 267.316 52.2977 267.237C52.5175 267.157 52.756 267.144 52.983 267.2C53.21 267.256 53.4154 267.378 53.5733 267.55C53.7311 267.723 53.8344 267.938 53.87 268.169C53.9056 268.4 53.8719 268.637 53.7733 268.849Z" fill="white"/>
<path d="M42.6345 278.991C42.5664 279.132 42.4711 279.258 42.3541 279.363C42.2371 279.467 42.1008 279.547 41.9528 279.599C41.8048 279.65 41.6482 279.672 41.4917 279.663C41.3353 279.654 41.1822 279.615 41.0411 279.546C40.9 279.478 40.7737 279.383 40.6694 279.266C40.5651 279.149 40.4849 279.013 40.4333 278.865C40.3818 278.717 40.3598 278.56 40.3688 278.404C40.3778 278.247 40.4175 278.094 40.4857 277.953C40.6233 277.668 40.8686 277.449 41.1674 277.345C41.4662 277.241 41.7942 277.26 42.0791 277.398C42.3641 277.535 42.5827 277.78 42.6869 278.079C42.791 278.378 42.7722 278.706 42.6345 278.991V278.991Z" fill="white"/>
<path d="M61.6005 266.617C61.5007 266.829 61.3406 267.006 61.1402 267.126C60.9399 267.247 60.7084 267.305 60.4748 267.294C60.2413 267.283 60.0162 267.203 59.828 267.065C59.6398 266.926 59.497 266.735 59.4174 266.515C59.3379 266.295 59.3252 266.056 59.3811 265.829C59.4369 265.602 59.5587 265.397 59.7312 265.239C59.9037 265.081 60.119 264.978 60.3501 264.943C60.5812 264.907 60.8176 264.941 61.0296 265.039C61.1709 265.105 61.2979 265.198 61.4032 265.313C61.5085 265.428 61.59 265.563 61.643 265.709C61.6961 265.856 61.7197 266.012 61.7124 266.168C61.7051 266.323 61.667 266.476 61.6005 266.617V266.617Z" fill="white"/>
<path d="M57.6453 275.399C57.5455 275.611 57.3854 275.788 57.1851 275.908C56.9847 276.029 56.7532 276.087 56.5196 276.076C56.2861 276.066 56.061 275.986 55.8728 275.847C55.6846 275.708 55.5418 275.517 55.4622 275.297C55.3827 275.077 55.37 274.839 55.4259 274.612C55.4817 274.385 55.6036 274.179 55.776 274.021C55.9485 273.864 56.1638 273.76 56.3949 273.725C56.626 273.689 56.8624 273.723 57.0744 273.821C57.2157 273.887 57.3427 273.98 57.448 274.095C57.5533 274.21 57.6348 274.345 57.6878 274.492C57.7409 274.638 57.7645 274.794 57.7572 274.95C57.7499 275.106 57.7118 275.258 57.6453 275.399V275.399Z" fill="white"/>
<path d="M53.5657 284.109C53.4659 284.32 53.3057 284.497 53.1054 284.618C52.9051 284.738 52.6735 284.797 52.44 284.786C52.2064 284.775 51.9814 284.695 51.7932 284.556C51.605 284.418 51.4621 284.226 51.3826 284.007C51.303 283.787 51.2904 283.548 51.3462 283.321C51.4021 283.094 51.5239 282.889 51.6964 282.731C51.8688 282.573 52.0842 282.47 52.3152 282.434C52.5463 282.399 52.7827 282.432 52.9947 282.531C53.1361 282.597 53.2631 282.69 53.3683 282.805C53.4736 282.92 53.5551 283.055 53.6082 283.201C53.6612 283.348 53.6848 283.503 53.6775 283.659C53.6702 283.815 53.6322 283.968 53.5657 284.109V284.109Z" fill="white"/>
<path d="M57.1471 290.701C57.0121 290.984 56.7707 291.203 56.4754 291.31C56.18 291.417 55.8544 291.403 55.5692 291.272C55.4281 291.203 55.3018 291.108 55.1975 290.991C55.0933 290.874 55.013 290.738 54.9615 290.59C54.9099 290.442 54.888 290.285 54.8969 290.129C54.9059 289.972 54.9456 289.819 55.0138 289.678C55.082 289.537 55.1772 289.411 55.2942 289.306C55.4112 289.202 55.5475 289.122 55.6955 289.07C55.8435 289.019 56.0001 288.997 56.1566 289.006C56.313 289.015 56.4662 289.055 56.6073 289.123C56.8854 289.263 57.0975 289.507 57.1984 289.802C57.2992 290.097 57.2808 290.419 57.1471 290.701V290.701Z" fill="white"/>
<path d="M46.3405 270.738C46.2028 271.023 45.9576 271.242 45.6588 271.346C45.36 271.45 45.032 271.431 44.747 271.294C44.4621 271.156 44.2435 270.911 44.1393 270.612C44.0352 270.313 44.054 269.985 44.1917 269.7C44.2598 269.559 44.3551 269.433 44.4721 269.328C44.589 269.224 44.7254 269.144 44.8734 269.092C45.0213 269.041 45.178 269.019 45.3345 269.028C45.4909 269.037 45.644 269.077 45.7851 269.145C45.9262 269.213 46.0525 269.308 46.1568 269.425C46.2611 269.542 46.3413 269.678 46.3928 269.826C46.4444 269.974 46.4663 270.131 46.4574 270.287C46.4484 270.444 46.4087 270.597 46.3405 270.738V270.738Z" fill="white"/>
<path d="M49.9011 277.122C49.8013 277.334 49.6412 277.511 49.4409 277.632C49.2405 277.752 49.009 277.811 48.7754 277.8C48.5419 277.789 48.3168 277.709 48.1286 277.57C47.9404 277.431 47.7976 277.24 47.718 277.02C47.6385 276.8 47.6258 276.562 47.6817 276.335C47.7375 276.108 47.8594 275.902 48.0318 275.745C48.2043 275.587 48.4196 275.483 48.6507 275.448C48.8818 275.412 49.1182 275.446 49.3302 275.545C49.4715 275.61 49.5985 275.703 49.7038 275.818C49.8091 275.934 49.8906 276.068 49.9436 276.215C49.9967 276.361 50.0203 276.517 50.013 276.673C50.0057 276.829 49.9676 276.981 49.9011 277.122V277.122Z" fill="white"/>
<path d="M64.1438 289.071C64.044 289.282 63.8839 289.459 63.6836 289.58C63.4832 289.7 63.2517 289.759 63.0181 289.748C62.7846 289.737 62.5595 289.657 62.3713 289.518C62.1831 289.38 62.0403 289.188 61.9607 288.968C61.8812 288.749 61.8685 288.51 61.9244 288.283C61.9802 288.056 62.102 287.851 62.2745 287.693C62.447 287.535 62.6623 287.432 62.8934 287.396C63.1245 287.361 63.3609 287.394 63.5729 287.493C63.8565 287.628 64.0755 287.869 64.1823 288.165C64.2892 288.46 64.2754 288.786 64.1438 289.071V289.071Z" fill="white"/>
<path d="M46.1848 285.666C46.085 285.877 45.9249 286.055 45.7245 286.175C45.5242 286.296 45.2926 286.354 45.0591 286.343C44.8256 286.332 44.6005 286.252 44.4123 286.114C44.2241 285.975 44.0812 285.783 44.0017 285.564C43.9221 285.344 43.9095 285.105 43.9653 284.878C44.0212 284.651 44.143 284.446 44.3155 284.288C44.4879 284.13 44.7033 284.027 44.9344 283.991C45.1654 283.956 45.4019 283.989 45.6138 284.088C45.7552 284.154 45.8822 284.247 45.9875 284.362C46.0927 284.477 46.1743 284.612 46.2273 284.758C46.2804 284.905 46.3039 285.061 46.2966 285.216C46.2893 285.372 46.2513 285.525 46.1848 285.666V285.666Z" fill="white"/>
<path d="M72.3343 272.015C72.2345 272.226 72.0743 272.404 71.874 272.524C71.6737 272.645 71.4421 272.703 71.2086 272.692C70.975 272.681 70.75 272.601 70.5618 272.463C70.3736 272.324 70.2307 272.133 70.1512 271.913C70.0716 271.693 70.059 271.454 70.1148 271.227C70.1707 271 70.2925 270.795 70.465 270.637C70.6374 270.479 70.8528 270.376 71.0839 270.34C71.3149 270.305 71.5514 270.339 71.7633 270.437C71.9047 270.503 72.0317 270.596 72.137 270.711C72.2422 270.826 72.3237 270.961 72.3768 271.107C72.4299 271.254 72.4534 271.41 72.4461 271.565C72.4388 271.721 72.4008 271.874 72.3343 272.015Z" fill="white"/>
<path d="M68.3895 280.444C68.2898 280.656 68.1296 280.833 67.9293 280.953C67.7289 281.074 67.4974 281.132 67.2639 281.121C67.0303 281.11 66.8053 281.031 66.6171 280.892C66.4289 280.753 66.286 280.562 66.2064 280.342C66.1269 280.122 66.1142 279.884 66.1701 279.657C66.2259 279.43 66.3478 279.224 66.5202 279.066C66.6927 278.908 66.9081 278.805 67.1391 278.77C67.3702 278.734 67.6066 278.768 67.8186 278.866C67.96 278.932 68.0869 279.025 68.1922 279.14C68.2975 279.255 68.379 279.39 68.4321 279.537C68.4851 279.683 68.5087 279.839 68.5014 279.995C68.4941 280.15 68.4561 280.303 68.3895 280.444Z" fill="white"/>
<path d="M69.1473 265.08C69.0476 265.292 68.8874 265.469 68.6871 265.59C68.4868 265.71 68.2552 265.769 68.0217 265.758C67.7881 265.747 67.5631 265.667 67.3749 265.528C67.1867 265.389 67.0438 265.198 66.9643 264.978C66.8847 264.758 66.8721 264.52 66.9279 264.293C66.9838 264.066 67.1056 263.86 67.278 263.703C67.4505 263.545 67.6659 263.441 67.8969 263.406C68.128 263.37 68.3644 263.404 68.5764 263.503C68.7178 263.568 68.8448 263.661 68.95 263.777C69.0553 263.892 69.1368 264.026 69.1899 264.173C69.2429 264.319 69.2665 264.475 69.2592 264.631C69.2519 264.787 69.2139 264.939 69.1473 265.08Z" fill="white"/>
<path d="M77.4729 262.454C77.3731 262.665 77.2129 262.843 77.0126 262.963C76.8123 263.084 76.5807 263.142 76.3472 263.131C76.1136 263.12 75.8886 263.04 75.7004 262.902C75.5122 262.763 75.3693 262.572 75.2898 262.352C75.2102 262.132 75.1976 261.893 75.2534 261.666C75.3093 261.439 75.4311 261.234 75.6036 261.076C75.776 260.918 75.9914 260.815 76.2224 260.779C76.4535 260.744 76.6899 260.777 76.9019 260.876C77.0433 260.942 77.1703 261.035 77.2755 261.15C77.3808 261.265 77.4623 261.4 77.5154 261.546C77.5685 261.693 77.592 261.849 77.5847 262.004C77.5774 262.16 77.5394 262.313 77.4729 262.454V262.454Z" fill="white"/>
<path d="M31.5684 284.171C33.8938 295.59 59.2647 307.902 60.9984 307.85C62.732 307.798 79.5698 266.119 79.5698 266.119C79.5698 266.119 59.0467 259.371 49.8077 247.371C49.8077 247.371 30.8418 280.59 31.5684 284.171Z" fill="#455A64"/>
<path d="M227.415 378.793H129.222C123.242 355.955 117.751 335.806 114.253 323.079C112.052 315.075 110.64 309.999 110.37 309.044C110.356 308.987 110.338 308.932 110.318 308.877H212.435L215.55 323.193C216.785 328.985 218.352 336.293 220.159 344.65C220.304 345.377 220.47 346.114 220.626 346.882C222.681 356.453 224.996 367.301 227.415 378.793Z" fill="#455A64"/>
<path d="M144.108 378.793H142.26C137.236 360.28 132.333 341.733 127.55 323.151L127.156 321.584C127.063 321.158 127.696 320.961 127.82 321.387C127.997 321.978 128.173 322.56 128.339 323.151C133.758 341.65 138.969 360.211 144.108 378.793Z" fill="#263238"/>
<path d="M204.483 309.044C203.683 313.897 202.517 318.682 200.995 323.359C199.854 327.076 198.473 331.093 196.916 335.235C196.584 336.18 196.21 337.093 195.878 338.028C190.926 350.641 184.459 363.492 177.773 369.596H177.721C176.938 370.346 176.082 371.017 175.168 371.6L169.479 375.119C169.485 375.146 169.485 375.174 169.479 375.202V375.202C169.479 375.544 169.219 376.78 168.898 378.773H73.0506C70.6007 356.578 75.7081 335.817 80.1616 322.799C81.7202 318.093 83.5787 313.492 85.7257 309.023L204.483 309.044Z" fill="#455A64"/>
<path d="M193.064 364.187C187.042 367.494 180.838 370.461 174.483 373.073C172.791 373.8 171.098 374.516 169.375 375.212C169.271 375.212 169.168 375.305 169.064 375.336C167.583 375.952 166.098 376.544 164.61 377.111C163.157 377.672 161.714 378.253 160.24 378.793H157.001C159.233 377.672 161.569 376.717 163.842 375.679C166.998 374.295 170.164 372.911 173.341 371.526C174.784 370.904 176.227 370.27 177.659 369.627H177.711C182.663 367.426 187.594 365.225 192.691 363.398C193.199 363.149 193.532 363.917 193.064 364.187Z" fill="#263238"/>
<path d="M169.427 375.284C169.427 376.032 169.365 377.267 169.219 378.793H168.181C168.514 377.361 168.815 376.187 169.105 375.336C169.102 375.305 169.102 375.274 169.105 375.243C169.157 375.108 169.344 375.098 169.386 375.243C169.386 375.243 169.427 375.253 169.427 375.284Z" fill="#263238"/>
<path d="M94.9959 315.013C93.6983 317.608 92.5253 320.203 91.4353 322.923C84.8243 339.179 82.3282 356.815 84.1686 374.267C84.3451 375.783 84.5631 377.288 84.7915 378.793H83.1305C82.475 374.409 82.0936 369.989 81.9886 365.557C81.6459 350.9 84.5011 336.344 90.3557 322.902C91.5806 320.11 92.9405 317.369 94.425 314.701C94.4454 314.664 94.4731 314.631 94.5063 314.604C94.5395 314.577 94.5777 314.557 94.6187 314.545C94.6597 314.533 94.7026 314.529 94.7451 314.534C94.7875 314.538 94.8287 314.551 94.8662 314.571C94.9037 314.592 94.9368 314.62 94.9636 314.653C94.9904 314.686 95.0104 314.724 95.0224 314.765C95.0345 314.806 95.0383 314.849 95.0338 314.892C95.0292 314.934 95.0164 314.975 94.9959 315.013V315.013Z" fill="#263238"/>
<path d="M167.019 348.564C167.112 344.869 167.372 341.183 167.559 337.498C167.984 328.799 168.327 320.048 169.136 311.38C169.136 311.308 169.165 311.24 169.215 311.189C169.266 311.138 169.335 311.11 169.406 311.11C169.478 311.11 169.547 311.138 169.597 311.189C169.648 311.24 169.676 311.308 169.676 311.38C169.78 318.107 169.521 324.875 169.386 331.591C169.313 334.955 169.219 338.329 169.126 341.692C168.944 344.904 168.924 348.122 169.064 351.336C169.24 353.765 169.77 358.478 172.936 358.769C175.926 359.049 178.282 355.831 179.029 353.474C180.919 347.474 181.594 341.017 182.206 334.789C182.569 331.104 182.995 316.103 182.798 312.345C182.798 312.106 183.151 312.117 183.171 312.345C183.379 316.145 183.898 319.923 184.023 323.764C184.147 327.605 184.158 331.363 183.919 335.183C183.68 338.817 183.379 342.45 182.829 346.073C182.46 349.366 181.675 352.6 180.493 355.696C179.393 358.25 177.503 360.596 174.638 361.156C174.295 361.215 173.948 361.249 173.6 361.26C173.6 362.039 173.455 362.828 173.403 363.596C173.32 364.821 173.164 366.025 172.998 367.24C172.83 368.431 172.584 369.61 172.261 370.769C172 371.941 171.581 373.073 171.015 374.132C170.994 374.165 170.962 374.19 170.925 374.204C170.889 374.218 170.848 374.22 170.81 374.21C170.772 374.199 170.739 374.177 170.714 374.147C170.689 374.116 170.675 374.078 170.673 374.039C170.645 372.873 170.742 371.707 170.963 370.561C171.13 369.378 171.296 368.174 171.534 367.011C171.773 365.848 171.991 364.696 172.23 363.544C172.386 362.776 172.489 361.976 172.635 361.198C171.71 361.035 170.84 360.645 170.103 360.064C169.365 359.482 168.784 358.727 168.41 357.866C167.05 354.99 166.946 351.637 167.019 348.564Z" fill="#263238"/>
<path d="M165.254 181.659C177.638 197.179 226.2 252.25 253.191 257.388C271.368 260.866 329.76 231.145 342.55 220.38C347.74 215.979 318.539 172.41 311.407 174.164C303.684 176.064 261.662 203.999 256.201 203.677C250.741 203.355 207.733 179.178 181.645 168.476C165.97 161.998 158.278 172.929 165.254 181.659Z" fill="#AD6359"/>
<path d="M326.511 230.761C337.743 226.432 371.803 202.546 377.461 196.338C383.118 190.13 398.108 171.123 393.79 166.306C389.471 161.489 384.655 166.711 384.655 166.711C384.655 166.711 390.333 156.901 384.935 153.216C380.627 150.278 373.433 157.264 373.433 157.264C373.433 157.264 379.091 146.188 373.267 143.229C367.962 140.53 362.118 150.018 362.118 150.018C362.118 150.018 365.907 140.271 360.301 138.662C353.554 136.71 346.982 153.579 340.224 159.963C338.688 161.406 293.355 183.652 293.355 183.652L326.511 230.761Z" fill="#AD6359"/>
<path d="M361.869 149.53C355.64 161.666 352.733 166.503 342.145 174.268C341.937 174.414 342.145 174.756 342.352 174.621C353.377 167.957 357.259 162.465 362.45 149.707C362.73 149.115 362.159 148.97 361.869 149.53Z" fill="#263238"/>
<path d="M373.308 157.265C367.132 169.722 362.408 174.403 351.955 183.341C351.799 183.466 351.955 183.736 352.162 183.622C363.156 175.701 369.218 170.604 373.755 157.368C373.962 156.777 373.589 156.704 373.308 157.265Z" fill="#263238"/>
<path d="M384.136 167.157C377.284 178.763 372.499 184.473 361.225 191.843C361.167 191.876 361.125 191.931 361.107 191.995C361.09 192.059 361.099 192.128 361.132 192.186C361.165 192.244 361.219 192.286 361.284 192.304C361.348 192.321 361.416 192.312 361.474 192.279C373.693 185.874 379.734 178.784 384.468 167.365C384.79 166.628 384.561 166.4 384.136 167.157Z" fill="#263238"/>
<path d="M429.365 201.425C399.562 210.124 370.194 218.833 341.647 227.533C324.549 189.123 322.027 150.714 310.317 112.304C340.162 103.595 369.488 94.8956 398.15 86.186C415.216 124.585 417.687 163.005 429.365 201.425Z" fill="white"/>
<path d="M429.365 201.425C414.507 205.84 399.787 210.249 385.205 214.65C370.623 219.052 356.149 223.45 341.782 227.844L341.491 227.938L341.346 227.626C324.175 189.217 321.622 150.807 309.819 112.398C309.767 112.232 309.725 112.066 309.673 111.9L310.161 111.754C340.006 103.097 369.333 94.439 397.994 85.8021L398.337 85.6982L398.493 86.0512C407.005 105.308 411.853 124.564 416.036 143.821C420.22 163.078 423.614 182.23 429.365 201.425ZM429.365 201.425C423.438 182.21 419.805 163.015 415.507 143.769C411.209 124.523 406.351 105.432 397.859 86.2692L398.347 86.5183C369.727 95.2695 340.359 104.031 310.514 112.782L310.857 112.138C322.515 150.548 324.975 189.009 342 227.439L341.574 227.221C355.858 222.917 370.319 218.612 384.956 214.307C399.593 210.003 414.396 205.709 429.365 201.425Z" fill="#263238"/>
<path d="M324.425 129.028C341.262 124.184 358 119.34 374.637 114.495C374.928 115.481 375.218 116.467 375.499 117.454C358.827 122.298 342.041 127.143 325.141 131.987C324.902 131.042 324.663 130.066 324.425 129.028Z" fill="#DBDBDB"/>
<path d="M326.21 136.544C343.131 131.699 359.976 126.855 376.745 122.01L377.523 124.969C360.734 129.813 343.854 134.658 326.885 139.502C326.667 138.516 326.439 137.53 326.21 136.544Z" fill="#DBDBDB"/>
<path d="M327.892 144.018C344.875 139.174 361.799 134.329 378.665 129.485C378.904 130.523 379.153 131.457 379.381 132.443C362.502 137.288 345.546 142.132 328.515 146.977C328.328 145.991 328.11 145.004 327.892 144.018Z" fill="#DBDBDB"/>
<path d="M329.511 151.482C354.426 144.395 379.264 137.305 404.026 130.211L404.742 133.18C379.994 140.26 355.069 147.35 330.145 154.44C329.927 153.454 329.719 152.468 329.511 151.482Z" fill="#DBDBDB"/>
<path d="M331.131 158.957C356.045 151.863 380.942 144.773 405.821 137.686C406.05 138.672 406.278 139.658 406.496 140.645C381.644 147.738 356.73 154.828 331.754 161.915C331.515 160.929 331.307 159.943 331.131 158.957Z" fill="#DBDBDB"/>
<path d="M332.698 166.399L407.441 145.139C407.659 146.177 407.877 147.112 408.084 148.098C383.17 155.188 358.256 162.268 333.342 169.358C333.124 168.392 332.916 167.437 332.698 166.399Z" fill="#DBDBDB"/>
<path d="M334.349 173.895C359.187 166.801 384.101 159.711 409.091 152.624C409.309 153.662 409.517 154.596 409.725 155.583C384.81 162.669 359.917 169.759 335.044 176.853C334.795 175.867 334.567 174.881 334.349 173.895Z" fill="#DBDBDB"/>
<path d="M336.082 181.359C360.82 174.269 385.734 167.189 410.659 160.099C410.877 161.085 411.085 162.071 411.292 163.057C386.378 170.151 361.55 177.238 336.809 184.317C336.56 183.331 336.321 182.345 336.082 181.359Z" fill="#DBDBDB"/>
<path d="M337.951 188.833C362.554 181.739 387.326 174.649 412.268 167.562C412.486 168.548 412.694 169.534 412.912 170.521C388.039 177.614 363.315 184.704 338.74 191.791C338.47 190.805 338.21 189.819 337.951 188.833Z" fill="#DBDBDB"/>
<path d="M339.986 196.296C364.402 189.216 389.049 182.13 413.929 175.036C414.157 176.074 414.375 177.008 414.614 177.995C389.824 185.085 365.18 192.175 340.847 199.265C340.557 198.269 340.266 197.282 339.986 196.296Z" fill="#DBDBDB"/>
<path d="M342.217 203.771C366.44 196.684 390.928 189.594 415.683 182.5C415.922 183.539 416.161 184.473 416.41 185.459C391.745 192.553 367.332 199.643 343.173 206.73C342.851 205.743 342.55 204.809 342.217 203.771Z" fill="#DBDBDB"/>
<path d="M344.698 211.245C368.658 204.158 392.949 197.068 417.573 189.975C417.832 190.961 418.092 191.947 418.361 192.933C393.863 200.02 369.661 207.11 345.757 214.204L344.698 211.245Z" fill="#DBDBDB"/>
<path d="M383.212 129.963C382.101 121.897 380.741 113.831 378.924 105.765C384.603 111.547 390.032 117.329 395.316 123.111L393.759 124.533C390.063 120.464 386.295 116.395 382.412 112.325C383.544 118.087 384.489 123.838 385.267 129.599L383.212 129.963Z" fill="#0076B6"/>
<path d="M381.727 125.769L380.523 124.118C384.219 121.35 387.88 118.582 391.506 115.813L392.752 117.464C389.118 120.246 385.444 123.014 381.727 125.769Z" fill="#0076B6"/>
<path d="M378.488 102.599C376.781 103.864 375.266 105.371 373.994 107.073C371.485 110.521 370.172 114.695 370.256 118.959C370.274 121.027 370.727 123.068 371.585 124.949C372.469 126.764 373.753 128.354 375.341 129.6C376.928 130.847 378.779 131.716 380.752 132.143C384.717 132.921 388.963 131.499 392.513 129.153C396.148 126.981 398.904 123.601 400.299 119.603C400.954 117.642 401.158 115.558 400.896 113.507C400.633 111.456 399.911 109.491 398.783 107.758C397.54 106.045 395.935 104.627 394.081 103.606C392.228 102.534 390.168 101.873 388.039 101.664C385.924 101.45 383.788 101.746 381.81 102.526C379.848 103.335 378.039 104.476 376.464 105.9C377.193 105.114 377.977 104.382 378.81 103.709C379.678 103.064 380.606 102.504 381.582 102.038C383.587 101.064 385.8 100.593 388.029 100.668C390.371 100.783 392.661 101.398 394.745 102.472C396.83 103.547 398.66 105.055 400.112 106.896C401.503 108.799 402.399 111.018 402.718 113.353C403.046 115.659 402.865 118.008 402.188 120.236C400.675 124.711 397.626 128.506 393.582 130.949C391.627 132.238 389.484 133.215 387.229 133.845C384.966 134.488 382.584 134.592 380.274 134.146C378.019 133.671 375.92 132.636 374.17 131.136C372.437 129.662 371.048 127.827 370.101 125.759C368.437 121.474 368.462 116.717 370.173 112.45C371.738 108.313 374.673 104.836 378.488 102.599V102.599Z" fill="#0076B6"/>
<path d="M389.876 110.343C388.686 108.709 387.471 107.08 386.233 105.453L387.862 104.249C389.108 105.875 390.333 107.505 391.537 109.138L389.876 110.343Z" fill="#0076B6"/>
<path d="M387.188 109.834L385.952 108.131L390.624 104.768C391.049 105.339 391.465 105.91 391.89 106.471L387.188 109.834Z" fill="#0076B6"/>
<path d="M293.355 183.663C293.355 183.663 304.389 172.358 309.352 166.742C314.314 161.126 326.169 143.302 332.605 143.728C339.871 144.205 334.619 162.984 325.826 173.075C325.826 173.075 337.505 191.698 329.522 201.799C327.788 203.979 315.206 210.892 312.082 210.249L293.355 183.663Z" fill="#AD6359"/>
<path d="M325.297 174.424C330.103 181.504 333.446 192.289 329.999 200.106C329.983 200.151 329.983 200.199 330 200.244C330.016 200.288 330.048 200.325 330.09 200.347C330.131 200.37 330.18 200.377 330.226 200.367C330.272 200.357 330.313 200.331 330.342 200.293C335.169 192.414 331.38 179.895 326.75 173.822C325.847 172.628 324.051 172.628 325.297 174.424Z" fill="#263238"/>
<path d="M293.355 183.663L326.511 230.761C326.609 233.751 325.788 236.7 324.161 239.211C322.534 241.722 320.177 243.674 317.407 244.806C307.514 249.135 266.593 263.897 250.388 258.426C234.183 252.955 187.957 213.113 168.015 186.632C148.074 160.15 177.545 165.413 183.161 167.946C188.777 170.479 254.706 201.549 257.052 201.497C259.399 201.445 274.7 189.808 281.967 186.196C289.233 182.583 293.355 183.663 293.355 183.663Z" fill="#0076B6"/>
<path opacity="0.1" d="M274.036 258.063C264.693 259.776 256.045 260.337 250.409 258.427C234.194 252.945 187.967 213.124 168.026 186.622C166.759 184.95 165.7 183.393 164.808 181.981L274.036 258.063Z" fill="black"/>
<path d="M313.597 240.488C310.556 236.761 308.023 232.619 305.376 228.633C302.729 224.647 300.185 220.764 297.621 216.799C292.431 208.816 287.064 200.885 282.423 192.601C282.409 192.563 282.408 192.521 282.42 192.483C282.433 192.444 282.459 192.411 282.493 192.389C282.527 192.367 282.568 192.358 282.608 192.362C282.648 192.367 282.686 192.385 282.714 192.414C288.704 199.961 293.925 208.12 299.178 216.145C301.815 220.166 304.393 224.221 306.912 228.311C309.47 232.188 311.809 236.205 313.919 240.343C314.013 240.54 313.722 240.644 313.597 240.488Z" fill="#263238"/>
<g opacity="0.1">
<path opacity="0.1" d="M302.967 250.246L299.22 251.523C299.024 250.148 298.93 248.76 298.94 247.37C298.94 244.744 299.147 242.18 299.116 239.678C299.125 237.176 298.881 234.678 298.389 232.225C297.888 229.82 297.045 227.499 295.888 225.332C295.607 224.792 295.285 224.294 294.984 223.775C294.683 223.256 294.341 222.82 293.998 222.342C293.261 221.397 292.493 220.422 291.694 219.467L286.918 213.664C285.299 211.712 283.7 209.75 282.122 207.746C280.545 205.743 279.008 203.667 277.586 201.518C276.11 199.297 274.835 196.948 273.776 194.5C273.412 193.606 273.1 192.691 272.842 191.76C274.181 190.877 275.499 190.026 276.745 189.237C277.156 190.357 277.631 191.452 278.167 192.518C279.313 194.616 280.578 196.647 281.956 198.601C284.738 202.649 287.666 206.729 290.604 210.85C292.067 212.927 293.573 215.003 294.943 217.152C295.628 218.242 296.313 219.342 296.926 220.536C297.227 221.138 297.528 221.73 297.798 222.394C298.068 223.058 298.265 223.66 298.452 224.304C299.988 229.411 300.216 234.56 300.808 239.595C301.209 243.203 301.932 246.767 302.967 250.246V250.246Z" fill="black"/>
<path opacity="0.1" d="M289.867 254.305C288.829 254.596 287.853 254.876 286.825 255.146C285.579 250.848 285.507 246.613 285.413 242.429V235.951C285.413 234.913 285.413 233.823 285.33 232.775C285.308 231.758 285.207 230.745 285.029 229.744C284.992 229.517 284.933 229.294 284.853 229.079L284.593 228.373L284.282 227.688C284.167 227.46 284.033 227.242 283.918 227.013C283.391 226.119 282.764 225.286 282.05 224.532C280.558 223.016 278.863 221.713 277.015 220.66C276.091 220.1 275.136 219.622 274.171 219.114L271.254 217.629C269.166 216.656 267.281 215.297 265.7 213.622C265.308 213.153 264.961 212.65 264.662 212.117C264.506 211.847 264.371 211.556 264.236 211.276L263.914 210.445C263.54 209.35 263.259 208.225 263.073 207.082C262.721 204.872 262.589 202.633 262.679 200.397C262.679 199.743 262.741 199.089 262.793 198.435L264.869 197.064C264.869 198.175 264.869 199.276 264.963 200.376C265.048 202.466 265.284 204.548 265.669 206.605C265.87 207.591 266.14 208.563 266.478 209.511L266.748 210.196C266.852 210.394 266.925 210.601 267.039 210.809C267.256 211.217 267.502 211.609 267.776 211.982C269.045 213.58 270.526 214.998 272.178 216.196C273.87 217.494 275.707 218.667 277.524 219.861C279.401 221.003 281.188 222.287 282.87 223.702C283.733 224.437 284.522 225.254 285.226 226.141C285.581 226.597 285.91 227.072 286.213 227.564L286.638 228.321C286.779 228.6 286.9 228.888 287.001 229.183C287.363 230.277 287.616 231.403 287.759 232.546C287.936 233.647 288.029 234.747 288.123 235.837C288.299 238.017 288.403 240.176 288.548 242.315C288.694 244.453 288.849 246.592 289.057 248.689C289.2 250.577 289.47 252.453 289.867 254.305V254.305Z" fill="black"/>
</g>
<path d="M75.1994 329.65C75.3032 329.785 216.972 323.162 217.896 322.29C218.321 321.885 220.159 313.819 217.989 302.618C211.48 269.036 191.974 200.438 174.773 171.413C170.476 164.147 151.105 153.465 137.049 167.188C108.553 195.009 86.1824 265.807 77.369 304.694C73.0506 323.702 74.6181 328.84 75.1994 329.65Z" fill="#0076B6"/>
<g opacity="0.1">
<path opacity="0.1" d="M217.356 299.41C216.93 299.41 216.505 299.41 216.089 299.472C212.062 299.857 208.062 300.485 204.11 301.351C195.961 303.012 187.666 304.881 179.31 306.739C175.157 307.663 170.943 308.638 166.635 309.344C164.475 309.687 162.306 310.03 160.053 310.196C158.911 310.268 157.79 310.351 156.565 310.331C155.34 310.31 154.302 310.216 153.171 310.081C144.191 309.116 136.021 306.074 127.768 303.676C119.516 301.278 111.003 299.638 103.425 299.669C101.557 299.669 99.5427 299.825 97.5184 300.012C95.4942 300.199 93.4699 300.5 91.4248 300.801C87.3451 301.455 83.2239 302.275 79.1131 303.168L77.6286 303.5C78.1269 301.32 78.6667 299.036 79.2584 296.68C82.8214 295.503 86.4464 294.522 90.1168 293.742C92.2761 293.271 94.4699 292.898 96.6983 292.621C97.8195 292.486 98.9406 292.372 100.072 292.309C101.247 292.231 102.426 292.231 103.602 292.309C108.188 292.621 112.682 293.753 116.868 295.652C120.959 297.354 124.779 299.368 128.723 300.998C132.619 302.666 136.675 303.932 140.828 304.777C144.911 305.583 149.088 305.803 153.233 305.431C154.271 305.358 155.309 305.202 156.254 305.067C157.198 304.932 158.153 304.683 159.129 304.455C161.102 303.926 163.115 303.417 165.119 302.773L177.337 299.15C181.427 297.915 185.559 296.711 189.722 295.579C193.885 294.448 198.12 293.441 202.449 292.641C206.786 291.819 211.187 291.381 215.601 291.333C216.245 294.157 216.826 296.867 217.356 299.41Z" fill="black"/>
<path opacity="0.1" d="M211.179 273.073C208.295 272.048 205.347 271.209 202.355 270.561C200.685 270.215 198.992 269.993 197.289 269.897H196.054C195.67 269.897 195.296 269.897 194.912 269.949C194.13 270.024 193.353 270.149 192.587 270.322C189.261 271.248 186.077 272.621 183.12 274.402C180.005 276.188 176.891 278.264 173.88 280.329C170.858 282.497 167.676 284.434 164.361 286.122C162.647 286.978 160.857 287.673 159.015 288.198C158.072 288.452 157.115 288.653 156.15 288.8L154.655 288.894C154.126 288.93 153.596 288.93 153.067 288.894C151.124 288.739 149.201 288.391 147.326 287.856C145.499 287.399 143.724 286.818 141.97 286.247C138.45 285.084 135.014 283.828 131.589 282.634C128.163 281.44 124.727 280.278 121.322 279.219C118.012 278.134 114.625 277.301 111.19 276.727C109.585 276.485 107.956 276.451 106.342 276.623C104.643 276.816 102.961 277.132 101.307 277.568C97.8678 278.486 94.4906 279.623 91.1965 280.973C88.2275 282.177 85.2724 283.465 82.3311 284.835C82.653 283.641 82.9851 282.437 83.3692 281.212C85.4454 279.945 87.5527 278.748 89.6912 277.62C93.0291 275.851 96.5 274.344 100.072 273.115C101.924 272.501 103.818 272.025 105.74 271.693C107.752 271.342 109.802 271.265 111.834 271.464C119.723 272.253 126.668 275.035 133.499 277.765L143.63 281.918C145.302 282.613 146.984 283.267 148.644 283.901C150.241 284.529 151.883 285.039 153.555 285.427C153.938 285.507 154.327 285.563 154.717 285.593L155.984 285.645H157.261C157.697 285.645 158.122 285.561 158.548 285.52C160.289 285.291 161.999 284.866 163.645 284.253C166.983 282.917 170.126 281.136 172.988 278.959C174.451 277.921 175.842 276.707 177.265 275.554L181.5 271.973C184.376 269.627 187.469 267.239 191.414 265.973C192.406 265.643 193.428 265.414 194.466 265.288C194.995 265.215 195.504 265.204 196.065 265.173H197.57C199.523 265.312 201.461 265.617 203.362 266.087C205.603 266.62 207.803 267.314 209.944 268.163L211.179 273.073Z" fill="black"/>
</g>
<path d="M122.173 170.552C75.9261 190.161 40.0185 207.238 45.2297 225.01C47.3059 231.986 59.3478 250.807 74.8569 250.786C87.0441 250.786 108.771 231.228 133.53 197.023C146.35 179.324 151.375 158.157 122.173 170.552Z" fill="#0076B6"/>
<path d="M130.374 206.407C128.402 208.037 126.44 209.708 124.519 211.411L125.755 209.978C129.066 206.054 132.336 202.099 135.606 198.144C135.668 198.061 135.533 197.957 135.461 198.04C129.232 204.663 123.004 211.224 116.702 217.826C110.401 224.429 93.9682 241.152 89.9715 244.433C89.8885 244.505 89.9715 244.64 90.0754 244.578C93.6879 241.754 103.83 233.263 107.069 230.097C111.962 225.307 116.664 220.366 121.177 215.273C124.469 212.559 127.612 209.669 130.592 206.615C130.706 206.501 130.509 206.293 130.374 206.407Z" fill="#263238"/>
<path d="M61.7666 240.031C41.5445 231.727 28.4438 170.386 23.4817 129.101C22.5371 121.242 84.6565 113.675 84.7292 122.135C84.9783 170.427 83.9194 249.104 61.7666 240.031Z" fill="#AD6359"/>
<path d="M15.6752 96.92C16.0386 110.093 27.3226 143.074 32.5235 148.461C37.7243 153.849 77.1614 134.966 79.331 127.699C81.5007 120.433 83.3692 77.2274 74.6804 66.971C65.9916 56.7147 15.2911 83.2794 15.6752 96.92Z" fill="#AD6359"/>
<path d="M84.8848 85.4281C81.4383 91.5009 76.2582 83.9644 76.2582 83.9644C76.2582 83.9644 81.1061 96.6084 75.1371 101.498C69.3653 106.19 63.417 96.8679 62.9914 96.2035C63.2406 96.8783 67.3929 108.661 60.9152 112.906C54.1469 117.36 49.7869 106.979 49.4962 106.304C49.4962 107.02 49.8803 116.384 44.1916 118.522C34.4231 122.197 32.8867 98.2589 26.3156 92.9439C26.3156 92.9439 16.0489 97.7191 15.6856 97.9475C15.6856 97.9475 13.7651 80.5491 21.4158 72.0782C22.5084 70.8276 23.9964 69.9889 25.6321 69.7018C27.2678 69.4147 28.9525 69.6965 30.4057 70.5003C30.4057 70.5003 28.9835 63.2337 33.9975 59.6938C36.572 57.8771 41.7728 60.3997 41.7728 60.3997C41.7728 60.3997 40.8697 54.5345 45.5203 51.659C49.2367 49.3544 53.8251 52.2403 53.8251 52.2403C53.8251 52.2403 55.5691 46.209 60.1263 45.0775C69.3342 42.7625 92.2448 72.3897 84.8848 85.4281Z" fill="#AD6359"/>
<path d="M54.6452 52.5516C54.6342 52.5324 54.6296 52.5101 54.6321 52.4881C54.6346 52.4661 54.6441 52.4454 54.6591 52.4292C54.6742 52.4129 54.6941 52.4019 54.7159 52.3978C54.7377 52.3937 54.7602 52.3966 54.7802 52.4062C64.694 60.3061 73.1648 72.0262 76.5801 84.3068C76.6943 84.7117 76.0818 85.075 75.8742 84.6494C69.9363 72.6594 63.7078 62.4861 54.6452 52.5516Z" fill="#263238"/>
<path d="M41.6899 60.1718C41.5964 60.068 41.7729 59.9019 41.8975 59.9953C52.0708 68.1962 61.2475 81.6603 63.5106 96.3285C63.5936 96.8268 63.1576 97.3666 63.0227 96.7853C60.7804 87.131 49.8908 69.0786 41.6899 60.1718Z" fill="#263238"/>
<path d="M49.2887 107.352C46.5689 93.4109 39.6552 81.7427 30.8314 70.7805C30.7173 70.6352 30.9352 70.4898 31.0598 70.5832C36.842 74.7356 41.7314 82.3448 45.0429 88.563C48.2296 94.2635 49.872 100.697 49.8078 107.228C49.8078 107.519 49.3406 107.654 49.2887 107.352Z" fill="#263238"/>
<path d="M76.2584 83.9336C76.9635 86.442 77.4361 89.01 77.6702 91.6051C77.9902 94.1207 77.6318 96.6762 76.6321 99.0067C76.1274 100.054 75.2501 100.876 74.1718 101.311C73.08 101.738 71.8968 101.878 70.7357 101.716C69.5915 101.465 68.5134 100.974 67.5723 100.276C66.6312 99.5783 65.8484 98.6893 65.2753 97.6675L62.2649 92.7989L63.4068 98.415C63.9296 100.906 64.0453 103.465 63.7493 105.993C63.4275 108.453 62.4517 110.82 60.5728 112.066C59.7036 112.733 58.6321 113.083 57.5367 113.056C56.4412 113.03 55.3878 112.629 54.5518 111.921C52.7126 110.294 51.3191 108.226 50.5033 105.91L48.0222 99.5984L48.2921 106.346C48.3767 108.224 48.2162 110.105 47.8146 111.941C47.5049 113.696 46.6853 115.321 45.4582 116.613C44.8795 117.169 44.1573 117.553 43.3724 117.722C42.5876 117.891 41.7713 117.837 41.0151 117.568C39.4173 116.712 38.0959 115.42 37.2053 113.841C35.2497 110.449 33.5628 106.908 32.1602 103.252C31.3816 101.425 30.5927 99.5984 29.7207 97.8025C28.9423 95.9513 27.782 94.2852 26.3157 92.9131C27.602 94.4125 28.5856 96.1469 29.212 98.0205C29.9387 99.8579 30.5823 101.737 31.2259 103.616C32.4251 107.451 33.9858 111.163 35.8869 114.703C36.8861 116.639 38.4259 118.244 40.3196 119.322C41.4138 119.792 42.6214 119.933 43.7943 119.726C44.9671 119.52 46.0542 118.975 46.9219 118.159C48.5097 116.608 49.5947 114.615 50.0361 112.44C50.5137 110.399 50.7231 108.305 50.659 106.211L48.4582 106.647C49.3798 109.403 51.0085 111.87 53.1816 113.8C54.4147 114.838 55.9711 115.414 57.5831 115.429C59.1648 115.39 60.6981 114.876 61.9846 113.955C64.611 112.128 65.6906 109.024 66.002 106.273C66.2925 103.496 66.1206 100.69 65.4933 97.9686L63.6144 98.7264C64.3744 99.9662 65.3963 101.025 66.6085 101.828C67.8207 102.632 69.1939 103.16 70.6319 103.377C72.0785 103.508 73.5344 103.261 74.8569 102.661C76.2068 102.025 77.2775 100.917 77.8674 99.5465C79.0093 96.8994 78.7705 94.1173 78.4072 91.522C77.9774 88.9201 77.2566 86.3746 76.2584 83.9336V83.9336Z" fill="#263238"/>
<path d="M80.556 130.481C80.556 130.481 112.592 71.8291 82.6322 71.0505C75.3655 70.8637 46.4962 82.5734 48.5827 88.4178C51.2818 95.9752 64.1541 93.6602 72.0851 90.9196C72.0851 90.9196 62.6074 107.612 72.2616 117.682C75.8587 121.347 78.6797 125.701 80.556 130.481V130.481Z" fill="#AD6359"/>
<path d="M84.7084 71.0198C81.8553 70.9084 79.0013 71.2162 76.2376 71.9333C73.454 72.5724 70.7174 73.4013 68.0471 74.4144C62.6572 76.3548 57.447 78.7619 52.4757 81.6083C51.1616 82.365 49.9597 83.3014 48.9046 84.3904C48.3035 85.024 47.8497 85.7826 47.5759 86.6119C47.421 87.0697 47.3472 87.551 47.3579 88.0341C47.3711 88.5085 47.4587 88.9779 47.6174 89.4252C48.2118 91.0328 49.3553 92.3785 50.8459 93.2246C52.233 93.9552 53.7362 94.4399 55.2889 94.6572C58.2307 95.0112 61.2113 94.8602 64.1023 94.2108C66.9243 93.6289 69.7 92.8413 72.407 91.8543L71.234 90.4114C70.2237 92.3569 69.3999 94.3937 68.7737 96.4946C68.1316 98.57 67.7038 100.706 67.4969 102.868C67.3158 105.039 67.4486 107.224 67.8913 109.357C68.3364 111.465 69.1783 113.469 70.3724 115.263C69.4419 113.367 68.8349 111.328 68.5765 109.232C68.3504 107.158 68.4063 105.063 68.7426 103.003C69.058 100.953 69.5797 98.9389 70.2997 96.9929C71.0053 95.0542 71.888 93.1847 72.9365 91.4079L74.2549 89.2383L71.7634 89.9754C69.1219 90.8231 66.4274 91.4958 63.6974 91.9893C61.0435 92.529 58.32 92.6377 55.6315 92.3111C53.1089 91.927 50.5137 90.7436 49.8078 88.6777C49.0188 86.913 51.4168 84.9302 53.6487 83.4873C55.9962 82.0016 58.4219 80.6432 60.9154 79.418C63.4172 78.1307 65.9397 76.885 68.5142 75.7743C73.7669 73.6669 79.0508 71.4662 84.7084 71.0198Z" fill="#263238"/>
<path d="M87.1791 134.063L22.5786 148.181C22.5786 148.181 18.3224 160.431 22.0803 173.147C29.212 197.272 50.4825 249.063 67.6422 247.89C86.224 246.592 90.7397 181.857 90.4802 150.153C90.2933 139.409 87.1791 134.063 87.1791 134.063Z" fill="#0076B6"/>
<g opacity="0.1">
<path opacity="0.1" d="M90.4075 159.257C90.4075 160.617 90.4075 162.019 90.3141 163.41C88.7569 164.188 87.1998 164.925 85.5181 165.559C84.3035 166.036 83.0578 166.472 81.7913 166.846C81.1477 167.033 80.5041 167.219 79.8501 167.365C79.1658 167.527 78.4725 167.648 77.7739 167.728C75.0671 167.989 72.3356 167.764 69.7079 167.064C67.1646 166.472 64.7355 165.662 62.2752 165.102C59.8462 164.505 57.3627 164.157 54.8632 164.064C52.4144 163.993 49.9679 164.269 47.5966 164.884C47.0152 165.029 46.4235 165.216 45.8733 165.392C45.3232 165.569 44.8353 165.797 44.2539 166.026C43.1639 166.524 42.0428 167.064 40.9216 167.593L34.1637 170.894C31.9006 172.005 29.6064 173.116 27.2915 174.175C25.8901 174.839 24.4575 175.452 23.0042 176.043C22.6824 175.005 22.3813 174.04 22.101 173.095C21.883 172.379 21.6962 171.663 21.5508 170.946C25.0907 169.555 28.6722 168.102 32.264 166.638C34.6204 165.704 36.9561 164.718 39.406 163.887C40.631 163.482 41.8559 163.067 43.1535 162.756C43.8075 162.6 44.4615 162.444 45.2297 162.34C45.9979 162.237 46.5585 162.185 47.2229 162.154C52.5587 161.842 57.6038 162.818 62.6489 163.41C67.4871 164.086 72.3959 164.086 77.2341 163.41C78.2722 163.223 79.4764 162.943 80.639 162.631C81.8017 162.32 82.954 161.956 84.1167 161.593C86.1409 160.887 88.2898 160.098 90.4075 159.257Z" fill="black"/>
<path opacity="0.1" d="M90.0546 170.551C90.0546 171.299 89.9923 172.046 89.9508 172.804C89.0995 173.52 88.2379 174.216 87.3452 174.88C85.577 176.229 83.7101 177.444 81.7602 178.513C80.756 179.047 79.7153 179.508 78.6459 179.894C77.5061 180.289 76.3195 180.533 75.1164 180.621C70.4346 180.922 66.1266 179.977 61.8704 179.053L55.5588 177.6C54.5207 177.361 53.4826 177.143 52.4445 176.936C51.4523 176.725 50.4462 176.586 49.434 176.52C49.2059 176.505 48.977 176.505 48.7489 176.52L48.0015 176.614L47.254 176.759C47.0153 176.759 46.7661 176.894 46.517 176.956C45.4899 177.276 44.5038 177.715 43.5792 178.264C41.7546 179.361 40.0915 180.706 38.6379 182.261C37.8801 183.029 37.1846 183.849 36.4683 184.659L34.3921 187.161C32.9634 188.967 31.2014 190.482 29.2016 191.625C28.9917 191.742 28.773 191.842 28.5476 191.926C28.2258 191.085 27.9144 190.254 27.603 189.424C27.7587 189.361 27.9248 189.31 28.0805 189.237C29.9272 188.372 31.6487 187.262 33.1983 185.936C34.8592 184.586 36.4267 183.081 38.0046 181.586C39.557 180.025 41.2262 178.585 42.9979 177.278C43.9106 176.614 44.8838 176.037 45.9045 175.555C46.434 175.316 46.9426 175.119 47.524 174.932L48.3648 174.693C48.6555 174.631 48.998 174.569 49.2887 174.538C50.4349 174.428 51.589 174.428 52.7352 174.538C53.8459 174.631 54.9359 174.787 56.0155 174.953C58.1748 175.295 60.3029 175.69 62.4206 176.053C64.5383 176.416 66.6456 176.759 68.7322 177.039C70.7659 177.351 72.8203 177.507 74.8777 177.506C75.8396 177.489 76.7954 177.35 77.722 177.091C78.6906 176.814 79.6378 176.467 80.556 176.053C82.474 175.187 84.3328 174.195 86.1202 173.084C87.449 172.302 88.7604 171.458 90.0546 170.551Z" fill="black"/>
</g>
<path d="M86.3797 151.451C54.4272 160.42 31.3608 164.583 26.8659 165.278C26.8411 165.278 26.8173 165.269 26.7998 165.251C26.7823 165.234 26.7725 165.21 26.7725 165.185C26.7725 165.16 26.7823 165.136 26.7998 165.119C26.8173 165.101 26.8411 165.092 26.8659 165.092C49.0707 158.282 84.1997 151.243 86.359 151.067C86.403 151.074 86.4432 151.097 86.473 151.13C86.5027 151.164 86.5202 151.206 86.5226 151.251C86.525 151.295 86.5122 151.339 86.4862 151.376C86.4603 151.412 86.4227 151.439 86.3797 151.451Z" fill="#263238"/>
<path d="M89.5251 189.86C88.7673 195.912 87.0441 205.515 85.653 211.453C85.5596 211.826 85.4662 212.2 85.3831 212.574C85.7774 214.704 85.9755 216.865 85.9748 219.031C85.9748 221.564 85.7568 224.066 85.4973 226.578C85.4973 226.681 85.3208 226.671 85.3312 226.578C85.4973 224.078 85.4765 221.569 85.2689 219.072C85.1547 217.588 85.0302 216.093 84.9056 214.598C83.5457 220.266 82.1131 225.934 80.3484 231.488C80.3484 231.592 80.1615 231.488 80.1926 231.426C81.5214 225.394 82.9436 219.373 84.0544 213.3C85.1651 207.228 87.7084 192.975 88.7673 186.943C89.6081 182.158 89.7639 187.961 89.5251 189.86Z" fill="#263238"/>
<path d="M148.426 164.645C149.184 166.856 161.423 180.507 171.721 179.012C175.085 178.514 173.206 160.088 173.206 160.088L173.382 158.697L175.791 139.201L148.561 125.426C148.561 125.426 148.105 163.7 148.426 164.645Z" fill="#AD6359"/>
<path d="M175.77 139.212L173.341 158.686L173.175 160.088C173.175 160.088 173.507 163.43 173.642 167.292C159.337 166.576 151.842 156.61 148.312 149.572C148.375 138.516 148.53 125.426 148.53 125.426L175.77 139.212Z" fill="#263238"/>
<path d="M206.134 105.982C216.079 146.863 192.712 157.43 183.888 159.569C175.884 161.5 148.385 167.074 134.277 127.44C120.17 87.8054 136.032 70.2617 154.105 64.8636C172.178 59.4655 196.179 65.092 206.134 105.982Z" fill="#AD6359"/>
<path d="M194.393 107.156C193.423 107.17 192.453 107.132 191.487 107.041C190.46 107.147 189.427 106.91 188.549 106.367C188.305 106.142 188.144 105.842 188.089 105.515C188.035 105.188 188.091 104.852 188.248 104.56C188.639 104.028 189.167 103.611 189.775 103.354C190.384 103.096 191.05 103.007 191.705 103.097C193.058 103.06 194.376 103.53 195.4 104.415C195.621 104.63 195.776 104.905 195.844 105.206C195.912 105.508 195.892 105.822 195.786 106.112C195.679 106.402 195.491 106.655 195.244 106.84C194.997 107.025 194.701 107.135 194.393 107.156V107.156Z" fill="#263238"/>
<path d="M165.306 113.384C166.226 113.084 167.13 112.737 168.015 112.346C169.017 112.105 169.912 111.539 170.559 110.737C170.716 110.445 170.771 110.108 170.715 109.78C170.658 109.453 170.494 109.154 170.247 108.931C169.701 108.56 169.065 108.342 168.406 108.3C167.747 108.258 167.089 108.393 166.5 108.692C165.211 109.109 164.123 109.989 163.448 111.163C163.319 111.438 163.272 111.745 163.311 112.046C163.35 112.347 163.475 112.631 163.67 112.865C163.865 113.098 164.123 113.271 164.412 113.363C164.702 113.455 165.012 113.462 165.306 113.384Z" fill="#263238"/>
<path d="M177.618 141.621C178.375 142.212 179.154 143.053 180.192 143.032C181.251 142.901 182.269 142.547 183.182 141.994C183.201 141.987 183.221 141.985 183.241 141.989C183.261 141.993 183.279 142.003 183.294 142.017C183.308 142.032 183.318 142.05 183.322 142.07C183.326 142.09 183.324 142.11 183.317 142.129C182.97 142.732 182.467 143.23 181.86 143.57C181.253 143.91 180.566 144.079 179.87 144.06C179.273 143.974 178.714 143.712 178.267 143.307C177.819 142.902 177.503 142.373 177.358 141.787C177.296 141.621 177.493 141.486 177.618 141.621Z" fill="#263238"/>
<path d="M187.936 134.821C187.192 136.694 185.981 138.345 184.417 139.617C183.539 140.27 182.48 140.633 181.386 140.655C178.988 140.717 178.344 138.682 178.272 136.814C178.231 135.818 178.311 134.821 178.51 133.845C181.468 135.166 184.771 135.508 187.936 134.821V134.821Z" fill="white"/>
<path d="M186.504 137.468C186.389 137.623 186.265 137.8 186.13 137.956C185.375 138.044 184.612 138.044 183.857 137.956C184.76 137.79 185.642 137.634 186.504 137.468Z" fill="#DBDBDB"/>
<path d="M181.448 137.759C180.865 137.764 180.283 137.701 179.715 137.572C179.219 137.444 178.736 137.27 178.272 137.053C178.272 136.99 178.272 136.907 178.272 136.845C178.272 136.783 178.272 136.638 178.272 136.534C179.304 137.008 180.365 137.418 181.448 137.759Z" fill="#DBDBDB"/>
<path d="M187.739 129.444C187.739 129.444 189.016 133.596 189.348 135.558C189.348 135.745 188.912 135.911 188.248 136.056C188.248 136.056 188.196 136.056 188.165 136.056C186.508 136.651 184.719 136.778 182.994 136.425C181.27 136.072 179.676 135.251 178.386 134.053C178.342 134.02 178.313 133.97 178.305 133.916C178.297 133.861 178.311 133.806 178.344 133.762C178.377 133.718 178.427 133.689 178.481 133.681C178.536 133.673 178.591 133.687 178.635 133.72C181.464 135.037 184.644 135.401 187.698 134.759C187.698 134.188 185.248 127.7 185.569 127.7C186.929 127.7 189.358 127.897 190.262 127.969C189.483 125.27 186.909 117.723 185.507 112.803C185.424 112.502 185.891 112.315 186.005 112.595C188.567 118.022 190.766 123.612 192.587 129.329C192.722 129.807 188.59 129.641 187.739 129.444Z" fill="#263238"/>
<path d="M167.579 121.035C167.593 120.3 167.804 119.583 168.192 118.959C168.421 118.633 168.714 118.357 169.053 118.148C169.392 117.939 169.77 117.802 170.164 117.744C170.568 117.696 170.977 117.744 171.359 117.883C171.741 118.021 172.086 118.248 172.365 118.543C172.847 119.068 173.202 119.697 173.403 120.381C173.511 120.791 173.594 121.207 173.652 121.627C173.775 122.501 173.697 123.392 173.424 124.232C173.376 123.595 173.258 122.964 173.071 122.353C172.911 121.804 172.714 121.266 172.479 120.744C171.97 119.706 171.202 118.844 170.32 119.011C169.437 119.177 168.804 119.966 168.576 121.087C168.382 122.295 168.306 123.518 168.347 124.741C167.814 123.58 167.551 122.312 167.579 121.035V121.035Z" fill="#263238"/>
<path d="M195.857 115.533C195.57 114.868 195.107 114.293 194.518 113.872C194.184 113.654 193.809 113.508 193.416 113.441C193.023 113.375 192.621 113.391 192.234 113.488C191.842 113.594 191.48 113.791 191.179 114.063C190.878 114.336 190.645 114.676 190.5 115.055C190.25 115.717 190.161 116.428 190.241 117.131C190.289 117.552 190.368 117.969 190.48 118.377C190.686 119.237 191.095 120.034 191.673 120.702C191.471 120.097 191.342 119.47 191.289 118.834C191.243 118.26 191.243 117.684 191.289 117.111C191.352 115.938 191.746 114.879 192.628 114.702C193.511 114.526 194.393 115.003 195.037 116C195.671 117.047 196.203 118.152 196.625 119.301C196.673 118.002 196.41 116.709 195.857 115.533Z" fill="#263238"/>
<path d="M130.229 131.104C142.738 131.239 148.364 116 144.762 104.228C144.762 104.228 178.147 106.657 178.157 79.9784C180.697 83.4351 184.048 86.2138 187.915 88.0694C191.782 89.9251 196.046 90.8006 200.331 90.6188L204.618 100.2C207.961 99.017 211.003 89.1551 202.241 82.065C202.241 82.065 200.892 68.85 190.646 61.4692C187.872 59.3412 184.543 58.0602 181.058 57.7802C177.574 57.5003 174.083 58.2334 171.005 59.8913C164.992 56.0613 157.725 54.721 150.741 56.1542C138.679 58.438 134.308 69.857 134.308 69.857C134.308 69.857 118.083 74.0094 115.986 85.7813C115.309 89.1385 115.353 92.601 116.113 95.9402C116.874 99.2793 118.334 102.419 120.398 105.152C120.398 105.152 116.557 109.979 119.235 119.8C120.917 126.059 126.481 131.104 130.229 131.104Z" fill="#263238"/>
<path d="M177.265 77.6841C177.644 79.8248 177.797 81.9994 177.721 84.1722C177.707 86.316 177.428 88.4498 176.891 90.5253C175.868 94.6329 173.332 98.203 169.79 100.522C166.354 103.024 161.953 103.636 157.759 104.301C155.61 104.363 153.451 104.581 151.281 104.519C149.112 104.456 146.942 104.29 144.741 104.249C146.89 104.633 149.06 104.934 151.24 105.287C153.42 105.64 155.631 105.422 157.852 105.495C162.212 105.059 166.801 104.456 170.631 101.809C174.445 99.2507 177.105 95.301 178.043 90.8056C178.893 86.436 178.625 81.9226 177.265 77.6841Z" fill="#263238"/>
<path d="M134.308 69.8569C130.101 70.1387 125.998 71.2873 122.256 73.2307C118.351 75.1558 115.252 78.3986 113.505 82.3867C112.772 84.4168 112.369 86.5512 112.311 88.7087C112.175 90.85 112.407 92.9988 112.996 95.0618C114.106 99.237 116.749 102.84 120.398 105.152C117.253 102.496 115.065 98.8826 114.17 94.8646C113.293 90.9292 113.567 86.8248 114.958 83.0407C115.677 81.2002 116.733 79.5102 118.073 78.0579C119.495 76.6281 121.088 75.3798 122.817 74.3415C126.386 72.2471 130.264 70.7334 134.308 69.8569V69.8569Z" fill="#263238"/>
<path d="M171.046 59.9327C174.103 58.609 177.352 57.7819 180.67 57.4828C183.903 57.1683 187.163 57.6902 190.137 58.9984C193.045 60.4292 195.545 62.5717 197.404 65.2269C199.322 67.9516 200.833 70.9417 201.888 74.1026C201.39 70.7177 200.195 67.4728 198.379 64.5729C196.621 61.513 193.959 59.0722 190.759 57.5853C187.558 56.0984 183.976 55.6383 180.503 56.2682C177.123 56.791 173.897 58.0413 171.046 59.9327V59.9327Z" fill="#263238"/>
<path d="M195.255 92.0407C191.551 91.022 188.043 89.3942 184.874 87.224C183.325 86.1418 181.929 84.857 180.721 83.4038C179.502 81.9044 178.457 80.271 177.607 78.5352C177.896 80.5164 178.603 82.4134 179.683 84.0993C180.766 85.8155 182.177 87.3008 183.836 88.4697C185.48 89.6365 187.299 90.5368 189.223 91.1376C191.167 91.7847 193.207 92.0903 195.255 92.0407V92.0407Z" fill="#263238"/>
<path d="M168.939 136.586C166.194 136.779 163.451 136.198 161.02 134.909C158.589 133.619 156.569 131.674 155.189 129.293C153.809 126.912 153.126 124.192 153.215 121.442C153.305 118.692 154.165 116.022 155.698 113.737C157.23 111.452 159.373 109.642 161.883 108.514C164.393 107.387 167.169 106.986 169.895 107.358C172.621 107.73 175.188 108.86 177.304 110.619C179.42 112.378 181 114.696 181.863 117.308C183.079 121.01 182.778 125.043 181.027 128.523C179.276 132.004 176.217 134.649 172.521 135.88C171.36 136.259 170.157 136.496 168.939 136.586ZM167.019 109.222C165.96 109.298 164.914 109.504 163.904 109.834C160.83 110.85 158.259 113 156.714 115.845C155.169 118.69 154.766 122.018 155.588 125.149C156.41 128.281 158.395 130.982 161.138 132.701C163.882 134.421 167.177 135.031 170.354 134.406C173.531 133.781 176.351 131.969 178.238 129.338C180.126 126.708 180.94 123.457 180.515 120.247C180.09 117.037 178.458 114.11 175.95 112.062C173.443 110.013 170.249 108.998 167.019 109.222V109.222Z" fill="#0076B6"/>
<path d="M200.767 130.232C195.151 130.627 189.67 125.239 188.237 117.703C187.501 114.113 187.9 110.383 189.379 107.031C189.93 105.553 190.853 104.243 192.058 103.226C193.264 102.21 194.712 101.522 196.262 101.23C197.811 100.938 199.41 101.05 200.903 101.558C202.396 102.065 203.733 102.949 204.785 104.124C207.386 106.7 209.117 110.025 209.736 113.633C211.241 121.595 207.66 128.987 201.722 130.108C201.407 130.17 201.088 130.211 200.767 130.232V130.232ZM197.362 103.076C197.113 103.076 196.874 103.076 196.625 103.169C195.403 103.46 194.268 104.04 193.316 104.86C192.364 105.68 191.623 106.716 191.154 107.882C189.846 110.858 189.501 114.168 190.168 117.35C191.476 124.242 196.48 129.111 201.359 128.187C206.238 127.263 209.113 120.921 207.805 114.017C207.268 110.81 205.74 107.851 203.435 105.557C202.652 104.742 201.707 104.1 200.661 103.673C199.616 103.246 198.492 103.042 197.362 103.076V103.076Z" fill="#0076B6"/>
<path d="M181.832 119.042L180.545 118.004C182.102 116.104 185.974 113.218 189.556 115.834L188.518 117.163C185.372 114.807 181.978 118.876 181.832 119.042Z" fill="#0076B6"/>
<path d="M123.678 133.305L122.09 132.828C122.318 132.091 124.353 125.561 127.872 124.284C131.173 123.101 153.368 121.025 154.312 120.931L154.468 122.582C148.105 123.173 130.987 124.917 128.443 125.841C126.118 126.693 124.218 131.52 123.678 133.305Z" fill="#0076B6"/>
<path d="M142.956 129.319C142.956 129.319 131.89 117.734 126.502 121.865C121.114 125.997 130.81 143.779 138.118 145.295C139.04 145.555 140.005 145.626 140.955 145.503C141.905 145.381 142.82 145.068 143.646 144.583C144.472 144.099 145.191 143.452 145.761 142.682C146.331 141.913 146.74 141.036 146.963 140.104L142.956 129.319Z" fill="#AD6359"/>
<path d="M129.409 126.89C129.388 126.896 129.37 126.91 129.357 126.927C129.344 126.945 129.337 126.966 129.337 126.988C129.337 127.01 129.344 127.031 129.357 127.049C129.37 127.067 129.388 127.08 129.409 127.087C134.599 128.301 137.796 132.412 140.298 136.803C138.585 135.226 136.468 134.54 134.329 136.627C134.215 136.741 134.329 136.918 134.506 136.866C135.317 136.465 136.232 136.325 137.125 136.465C138.019 136.604 138.848 137.016 139.499 137.644C140.576 138.708 141.537 139.885 142.364 141.153C142.655 141.548 143.402 141.153 143.163 140.727L143.101 140.613C142.271 134.416 136.146 126.495 129.409 126.89Z" fill="#263238"/>
<path d="M131.422 167.437C129.72 165.361 140.672 159.133 143.516 161.479C146.361 163.825 160.759 200.345 156.088 239.969C151.416 279.593 74.7219 322.29 71.8671 316.362C70.6837 313.871 72.1993 306.926 74.0679 304.704C76.6943 301.59 132.076 267.209 137.547 242.637C142.406 220.785 135.741 172.836 131.422 167.437Z" fill="#455A64"/>
<path d="M174.597 166.607C172.292 162.236 184.158 165.755 185.455 168.112C186.753 170.468 202.615 208.328 205.356 233.076C206.394 242.99 210.286 269.679 210.286 269.679C210.286 269.679 198.701 233.875 189.151 203.895C185.091 191.171 180.23 178.716 174.597 166.607V166.607Z" fill="#455A64"/>
<path d="M431.291 365.101H312.014V379.219H431.291V365.101Z" fill="#37474F"/>
<path d="M340.271 365.101H335.413V379.219H340.271V365.101Z" fill="#455A64"/>
<path d="M417.256 365.101H405.598V379.219H417.256V365.101Z" fill="#455A64"/>
<path d="M422.706 323.826H300.876V342.481H422.706V323.826Z" fill="#37474F"/>
<path d="M401.155 329.878H371.891V336.429H401.155V329.878Z" fill="#0076B6"/>
<path d="M415.824 333.148C415.874 333.923 415.689 334.695 415.295 335.364C414.9 336.033 414.314 336.568 413.612 336.899C412.909 337.231 412.124 337.343 411.357 337.222C410.59 337.101 409.877 336.753 409.31 336.221C408.744 335.69 408.35 335.001 408.181 334.243C408.011 333.485 408.074 332.694 408.359 331.972C408.645 331.25 409.142 330.63 409.784 330.194C410.427 329.758 411.185 329.525 411.962 329.525C412.954 329.494 413.918 329.859 414.642 330.538C415.366 331.217 415.791 332.156 415.824 333.148Z" fill="#0076B6"/>
<path d="M356.549 307.32H295V323.784H356.549V307.32Z" fill="#263238"/>
<path d="M413.436 307.321H356.548V323.785H413.436V307.321Z" fill="#263238"/>
<path d="M356.548 309.034H295V322.083H356.548V309.034Z" fill="white"/>
<path d="M300.357 311.733C306.807 311.649 313.257 311.587 319.707 311.546L328.458 311.483L347.797 311.546C354.244 311.546 350.102 311.639 356.548 311.733C350.102 311.826 354.244 311.888 347.797 311.93L328.458 311.982L319.707 311.93C313.257 311.874 306.807 311.809 300.357 311.733Z" fill="#DBDBDB"/>
<path d="M300.357 314.276C306.807 314.186 313.257 314.123 319.707 314.089L328.458 314.026L347.797 314.078C354.244 314.078 350.102 314.182 356.548 314.276C350.102 314.369 354.244 314.431 347.797 314.462L328.458 314.525L319.707 314.462C313.257 314.435 306.807 314.372 300.357 314.276Z" fill="#DBDBDB"/>
<path d="M300.357 316.83C306.807 316.747 313.257 316.684 319.707 316.643L328.458 316.591L347.797 316.643C354.244 316.643 350.102 316.747 356.548 316.83C350.102 316.923 354.244 316.996 347.797 317.027H328.458H319.707C313.257 316.992 306.807 316.926 300.357 316.83Z" fill="#DBDBDB"/>
<path d="M300.357 319.394C306.807 319.304 313.257 319.241 319.707 319.207L328.458 319.145L347.797 319.207C354.244 319.207 350.102 319.3 356.548 319.394C350.102 319.487 354.244 319.549 347.797 319.581L328.458 319.643L319.707 319.581C313.257 319.553 306.807 319.491 300.357 319.394Z" fill="#DBDBDB"/>
<path d="M377.165 307.321H369.151V323.785H377.165V307.321Z" fill="#455A64"/>
<path d="M410.498 307.321H405.11V323.785H410.498V307.321Z" fill="#455A64"/>
<path d="M348.379 365.09H417.692V342.46H348.379V365.09Z" fill="#0076B6"/>
<path d="M295.747 365.09H348.379V342.46H295.747V365.09Z" fill="#0076B6"/>
<path d="M348.379 362.744H417.692V344.816H348.379V362.744Z" fill="white"/>
<path d="M413.197 359.059C407.799 359.156 402.398 359.218 396.993 359.246L380.788 359.308L364.583 359.246C359.178 359.246 353.773 359.184 348.368 359.059C353.78 358.969 359.185 358.907 364.583 358.872L380.788 358.81L396.993 358.872C402.398 358.907 407.799 358.969 413.197 359.059Z" fill="#DBDBDB"/>
<path d="M413.197 355.54C407.799 355.637 402.398 355.699 396.993 355.727L380.788 355.789L364.583 355.737C359.178 355.696 353.773 355.63 348.368 355.54C353.78 355.45 359.185 355.388 364.583 355.353L380.788 355.333L396.993 355.395C402.398 355.402 407.799 355.45 413.197 355.54Z" fill="#DBDBDB"/>
<path d="M413.197 352.021C407.799 352.111 402.398 352.176 396.993 352.218L380.788 352.27L364.583 352.218C359.178 352.176 353.773 352.111 348.368 352.021C353.78 351.931 359.185 351.868 364.583 351.834L380.788 351.771L396.993 351.834C402.398 351.868 407.799 351.931 413.197 352.021Z" fill="#DBDBDB"/>
<path d="M413.197 348.502C407.799 348.592 402.398 348.657 396.993 348.699L380.788 348.751L364.583 348.699C359.178 348.699 353.773 348.633 348.368 348.502C353.78 348.405 359.185 348.342 364.583 348.315L380.788 348.252L396.993 348.315C402.401 348.346 407.778 348.419 413.197 348.502Z" fill="#DBDBDB"/>
<path d="M313.976 342.47H304.125V365.101H313.976V342.47Z" fill="#455A64"/>
<path d="M291.6 37.323C291.598 44.1918 289.689 50.925 286.084 56.772C282.48 62.619 277.322 67.3499 271.186 70.4372C265.05 73.5245 258.177 74.8469 251.334 74.2568C244.491 73.6668 237.946 71.1875 232.429 67.0955L214.262 71.7357L221.83 54.8148C219.168 49.8428 217.675 44.3293 217.465 38.6935C217.254 33.0577 218.332 27.4482 220.615 22.2914C222.898 17.1347 226.328 12.5665 230.642 8.93432C234.956 5.30216 240.042 2.70166 245.513 1.33058C250.983 -0.0405028 256.694 -0.146055 262.212 1.02195C267.729 2.18996 272.907 4.60076 277.353 8.07103C281.799 11.5413 285.394 15.9796 287.867 21.0485C290.339 26.1174 291.623 31.6833 291.621 37.323H291.6Z" fill="white"/>
<path d="M291.6 37.3226C291.59 44.193 289.686 50.9278 286.098 56.7868C285.197 58.2273 284.213 59.6138 283.15 60.9392C282.045 62.2436 280.859 63.4779 279.6 64.6348C278.985 65.2281 278.341 65.7894 277.669 66.3165L275.593 67.8632C274.908 68.3719 274.15 68.7768 273.423 69.2439L272.333 69.9187C271.959 70.1263 271.565 70.3028 271.191 70.4896C270.413 70.8633 269.655 71.2578 268.876 71.6108L266.468 72.5139C265.666 72.8208 264.844 73.0705 264.008 73.2613C263.177 73.4586 262.367 73.7388 261.516 73.8634C259.831 74.1954 258.124 74.4036 256.409 74.4863C254.681 74.6234 252.946 74.6234 251.218 74.4863C247.787 74.2054 244.41 73.458 241.18 72.2648C237.952 71.0475 234.904 69.3993 232.117 67.365L232.429 67.4272L214.283 72.1402L213.369 72.3789L213.754 71.5173L221.28 54.5757V55.022C218.587 49.9963 217.102 44.4128 216.94 38.7136C216.733 33.0032 217.836 27.3212 220.165 22.103C222.493 16.8847 225.985 12.2688 230.373 8.60894C234.744 4.97372 239.89 2.38845 245.415 1.05163C250.904 -0.278824 256.624 -0.347786 262.143 0.849931C267.663 2.04765 272.839 4.48088 277.283 7.96676C281.727 11.4526 285.323 15.9005 287.801 20.976C290.279 26.0515 291.574 31.6226 291.59 37.2707L291.6 37.3226ZM291.6 37.3226C291.571 31.6934 290.264 26.1444 287.779 21.0933C285.294 16.0423 281.695 11.6211 277.254 8.16256C272.801 4.74624 267.64 2.36975 262.149 1.20735C256.65 0.0996377 250.972 0.252251 245.54 1.65373C240.132 3.034 235.111 5.63325 230.861 9.25256C226.649 12.8951 223.286 17.4165 221.01 22.4986C218.77 27.5883 217.716 33.1202 217.926 38.6769C218.136 44.2336 219.606 49.6699 222.224 54.5757L222.339 54.7937L222.245 55.022L214.657 71.9326L214.127 71.2993L232.325 66.7421H232.491L232.636 66.8459C238.066 70.9614 244.538 73.4782 251.322 74.1126C253.013 74.2717 254.714 74.296 256.409 74.1852C258.104 74.116 259.793 73.9322 261.464 73.635C262.305 73.5208 263.115 73.2406 263.945 73.0537C264.779 72.8804 265.598 72.6444 266.395 72.3478L268.793 71.4862L271.098 70.3962C271.482 70.2093 271.876 70.0432 272.25 69.8356L273.288 69.1816C274.004 68.7352 274.773 68.3408 275.458 67.8425L277.534 66.3165C278.207 65.7938 278.851 65.2359 279.465 64.6451C280.721 63.4962 281.906 62.2725 283.015 60.9807C284.085 59.6579 285.073 58.2712 285.974 56.8283C289.613 50.9701 291.56 44.2191 291.6 37.3226V37.3226Z" fill="#263238"/>
<path d="M248.499 59.3931L231.879 42.5656L237.464 37.043L247.17 46.8737L267.35 15.2534L273.963 19.4681L248.499 59.3931Z" fill="#0076B6"/>
</svg>
