<svg width="601" height="448" viewBox="0 0 601 448" fill="none" xmlns="http://www.w3.org/2000/svg">
<path d="M601 393.535H0V393.836H601V393.535Z" fill="#EBEBEB"/>
<path d="M540.78 412.875H474.393V413.176H540.78V412.875Z" fill="#EBEBEB"/>
<path d="M397.261 406.576H386.815V406.877H397.261V406.576Z" fill="#EBEBEB"/>
<path d="M470.775 401.721H447.709V402.021H470.775V401.721Z" fill="#EBEBEB"/>
<path d="M114.972 403.74H63.0571V404.04H114.972V403.74Z" fill="#EBEBEB"/>
<path d="M313.782 411.504H258.827V411.805H313.782V411.504Z" fill="#EBEBEB"/>
<path d="M281.436 406.42H168.833V406.72H281.436V406.42Z" fill="#EBEBEB"/>
<path d="M291.749 333.062C291.749 333.965 291.571 334.858 291.226 335.691C290.88 336.525 290.373 337.282 289.735 337.92C289.096 338.557 288.338 339.062 287.504 339.407C286.67 339.751 285.776 339.927 284.874 339.926H52.7796C50.9614 339.922 49.2188 339.198 47.9342 337.911C46.6497 336.624 45.9282 334.88 45.9282 333.062V6.80332C45.9441 4.99554 46.6725 3.26701 47.9553 1.99318C49.2382 0.719347 50.9718 0.00309682 52.7796 0H284.874C286.694 0 288.44 0.723109 289.727 2.01025C291.014 3.29739 291.737 5.04313 291.737 6.86342L291.749 333.062ZM291.437 6.86342C291.443 5.99696 291.278 5.13779 290.951 4.33531C290.624 3.53283 290.142 2.80287 289.532 2.18738C288.922 1.5719 288.197 1.08304 287.397 0.748907C286.598 0.414774 285.74 0.241962 284.874 0.240401H52.7796C51.0411 0.243585 49.3749 0.936436 48.1467 2.16688C46.9185 3.39732 46.2287 5.06481 46.2287 6.80332V333.062C46.2287 334.801 46.9185 336.468 48.1467 337.699C49.3749 338.929 51.0411 339.622 52.7796 339.625H284.874C286.613 339.622 288.281 338.929 289.511 337.699C290.741 336.469 291.434 334.802 291.437 333.062" fill="#EBEBEB"/>
<path d="M544.879 339.926H312.772C310.953 339.922 309.209 339.198 307.923 337.912C306.636 336.625 305.912 334.881 305.909 333.062V6.80332C305.928 4.99445 306.659 3.26593 307.944 1.99243C309.229 0.718927 310.963 0.00306304 312.772 0H544.879C546.684 0.0062558 548.415 0.723903 549.695 1.9974C550.975 3.27089 551.702 4.99762 551.718 6.80332V333.062C551.718 334.878 550.998 336.62 549.716 337.907C548.434 339.193 546.695 339.919 544.879 339.926V339.926ZM312.772 0.240401C311.033 0.243578 309.365 0.936046 308.135 2.16614C306.905 3.39624 306.213 5.0637 306.209 6.80332V333.062C306.213 334.802 306.905 336.469 308.135 337.699C309.365 338.929 311.033 339.622 312.772 339.625H544.879C546.618 339.622 548.286 338.929 549.516 337.699C550.746 336.469 551.438 334.802 551.441 333.062V6.80332C551.438 5.0637 550.746 3.39624 549.516 2.16614C548.286 0.936046 546.618 0.243578 544.879 0.240401H312.772Z" fill="#EBEBEB"/>
<path d="M408.091 83.8999H328.338V176.37H408.091V83.8999Z" fill="#E6E6E6"/>
<path d="M413.656 83.8999H329.54V176.37H413.656V83.8999Z" fill="#F0F0F0"/>
<path d="M406.613 169.338V90.9551H336.596V169.338H406.613Z" fill="white"/>
<path d="M388.631 147.846H370.456C366.06 147.839 361.846 146.089 358.739 142.98C355.631 139.87 353.884 135.654 353.881 131.258V113.096C353.881 112.917 353.952 112.746 354.078 112.62C354.204 112.494 354.375 112.423 354.554 112.423H372.728C377.127 112.426 381.344 114.175 384.454 117.285C387.564 120.395 389.313 124.612 389.316 129.01V147.185C389.314 147.273 389.295 147.36 389.26 147.441C389.225 147.522 389.174 147.596 389.11 147.657C389.047 147.719 388.971 147.767 388.889 147.799C388.807 147.832 388.719 147.847 388.631 147.846V147.846ZM355.227 113.769V131.258C355.233 135.295 356.84 139.165 359.695 142.02C362.549 144.875 366.419 146.481 370.456 146.488H387.958V129.01C387.954 124.972 386.349 121.101 383.493 118.245C380.638 115.39 376.766 113.784 372.728 113.781L355.227 113.769Z" fill="#F0F0F0"/>
<path d="M523.327 118.662H432.011L440.1 51.6621H515.237L523.327 118.662Z" fill="#EBEBEB"/>
<path d="M447.132 118.65H445.665V144.313H447.132V118.65Z" fill="#E0E0E0"/>
<path d="M446.399 146.067C447.368 146.067 448.154 145.281 448.154 144.312C448.154 143.343 447.368 142.557 446.399 142.557C445.429 142.557 444.644 143.343 444.644 144.312C444.644 145.281 445.429 146.067 446.399 146.067Z" fill="#E0E0E0"/>
<path d="M503.29 118.662H487.591L484.262 51.6621H498.746L503.29 118.662Z" fill="#F5F5F5"/>
<path d="M482.242 118.65H473.107V393.523H482.242V118.65Z" fill="#F0F0F0"/>
<path d="M492.123 393.535H463.215C463.215 391.902 463.863 390.335 465.017 389.179C466.17 388.023 467.736 387.372 469.369 387.369H485.969C487.602 387.372 489.167 388.023 490.321 389.179C491.475 390.335 492.123 391.902 492.123 393.535V393.535Z" fill="#F0F0F0"/>
<path d="M482.242 118.65H473.107V124.227H482.242V118.65Z" fill="#E0E0E0"/>
<path d="M467.073 263.635C466.34 263.635 465.607 263.635 464.862 263.707C460.231 264.029 455.73 265.373 451.681 267.642C447.632 269.911 444.136 273.049 441.445 276.83C438.753 280.611 436.933 284.942 436.114 289.51C435.296 294.079 435.499 298.772 436.711 303.253C440.14 316.629 441.797 330.397 441.639 344.205V384.424C441.637 385.117 441.773 385.804 442.037 386.445C442.302 387.086 442.691 387.668 443.181 388.159C443.671 388.649 444.254 389.037 444.895 389.302C445.535 389.567 446.222 389.702 446.916 389.701H533.46V263.635H467.073Z" fill="#F0F0F0"/>
<path d="M564.94 295.067C564.939 290.59 563.981 286.164 562.132 282.087C560.282 278.01 557.584 274.374 554.216 271.424C550.848 268.473 546.889 266.276 542.604 264.979C538.319 263.683 533.806 263.316 529.367 263.904C524.929 264.491 520.667 266.02 516.867 268.388C513.067 270.756 509.816 273.908 507.333 277.633C504.849 281.358 503.19 285.571 502.465 289.989C501.741 294.407 501.969 298.929 503.133 303.253C506.562 316.629 508.219 330.397 508.061 344.205V384.424C508.06 385.117 508.195 385.804 508.46 386.445C508.724 387.086 509.113 387.668 509.603 388.158C510.094 388.649 510.676 389.037 511.317 389.302C511.958 389.567 512.645 389.702 513.338 389.7H553.653C555.053 389.7 556.395 389.145 557.384 388.155C558.374 387.165 558.93 385.823 558.93 384.424V341.849C558.793 328.897 560.41 315.987 563.738 303.469C564.519 300.736 564.923 297.909 564.94 295.067V295.067Z" fill="#F5F5F5"/>
<path d="M517.533 313.157H374.183V389.7H517.533V313.157Z" fill="#F0F0F0"/>
<path d="M427.72 212.874H321.944C318.895 212.819 315.87 213.413 313.069 214.617C310.268 215.821 307.755 217.608 305.697 219.858C303.639 222.108 302.084 224.769 301.134 227.667C300.184 230.564 299.861 233.63 300.188 236.662L308.241 330.418H461.568L453.515 236.662C452.866 230.229 449.884 224.256 445.131 219.873C440.378 215.49 434.184 213 427.72 212.874V212.874Z" fill="#E0E0E0"/>
<path d="M458.827 212.874H350.767C347.864 212.818 344.982 213.381 342.314 214.525C339.645 215.67 337.251 217.371 335.292 219.514C333.332 221.657 331.851 224.192 330.949 226.952C330.046 229.712 329.742 232.633 330.057 235.52L338.219 330.478H491.618L483.456 235.52C482.844 229.381 479.996 223.682 475.455 219.506C470.913 215.331 464.996 212.97 458.827 212.874V212.874Z" fill="#F5F5F5"/>
<path d="M376.539 306.173H515.105C517.193 306.173 519.196 307.003 520.672 308.479C522.149 309.956 522.978 311.958 522.978 314.046V329.468C522.978 331.556 522.149 333.559 520.672 335.035C519.196 336.512 517.193 337.341 515.105 337.341H376.539C375.901 337.341 375.29 337.088 374.839 336.637C374.388 336.186 374.135 335.575 374.135 334.937V308.493C374.157 307.87 374.419 307.28 374.868 306.847C375.316 306.415 375.915 306.173 376.539 306.173V306.173Z" fill="#E0E0E0"/>
<path d="M296.954 263.635C296.217 263.635 295.484 263.659 294.755 263.707C290.126 264.034 285.627 265.38 281.58 267.65C277.533 269.921 274.038 273.058 271.346 276.838C268.655 280.617 266.832 284.946 266.01 289.513C265.188 294.079 265.387 298.772 266.592 303.253C270.026 316.628 271.683 330.397 271.52 344.205V384.424C271.52 385.823 272.076 387.165 273.066 388.155C274.055 389.145 275.397 389.701 276.797 389.701H363.341V263.635H296.954Z" fill="#F0F0F0"/>
<path d="M394.785 295.067C394.771 290.597 393.804 286.182 391.949 282.116C390.094 278.05 387.393 274.425 384.027 271.485C380.661 268.544 376.707 266.355 372.428 265.064C368.15 263.772 363.645 263.407 359.214 263.994C354.783 264.58 350.528 266.105 346.733 268.465C342.937 270.826 339.689 273.969 337.204 277.684C334.719 281.399 333.055 285.601 332.322 290.01C331.589 294.419 331.804 298.933 332.954 303.253C336.389 316.628 338.046 330.397 337.882 344.205V384.424C337.882 385.118 338.019 385.805 338.285 386.446C338.551 387.087 338.941 387.669 339.432 388.159C339.923 388.649 340.506 389.038 341.148 389.302C341.789 389.567 342.477 389.702 343.171 389.7H383.474C384.167 389.702 384.854 389.567 385.495 389.302C386.136 389.037 386.718 388.649 387.209 388.158C387.699 387.668 388.088 387.086 388.352 386.445C388.617 385.804 388.752 385.117 388.751 384.424V341.849C388.637 328.894 390.279 315.983 393.631 303.469C394.39 300.733 394.778 297.907 394.785 295.067V295.067Z" fill="#F5F5F5"/>
<path d="M517.509 393.535H299.202C298.185 393.535 297.21 393.131 296.49 392.412C295.771 391.693 295.367 390.718 295.367 389.701H521.343C521.343 390.718 520.939 391.693 520.22 392.412C519.501 393.131 518.526 393.535 517.509 393.535Z" fill="#E0E0E0"/>
<path d="M81.7719 41.8657H55.4241V393.535H81.7719V41.8657Z" fill="#E6E6E6"/>
<path d="M81.7598 393.535H312.989L312.989 41.866H81.7598L81.7598 393.535Z" fill="#F5F5F5"/>
<path d="M308.674 393.534V47.0459L86.0872 47.0459L86.0872 393.534H308.674Z" fill="#E6E6E6"/>
<path d="M104.718 393.534L104.718 47.0459H86.0873L86.0873 393.534H104.718Z" fill="#E0E0E0"/>
<path d="M311.018 331.764V326.595H86.0873V331.764H311.018Z" fill="#F5F5F5"/>
<path d="M311.018 259.163V253.994H86.0873V259.163H311.018Z" fill="#F5F5F5"/>
<path d="M311.018 186.574V181.394H86.0873V186.574H311.018Z" fill="#F5F5F5"/>
<path d="M311.018 113.962V108.793L86.0873 108.793V113.962L311.018 113.962Z" fill="#F5F5F5"/>
<path d="M105.92 108.805H139.372V59.4866L105.92 59.4866V108.805Z" fill="#FAFAFA"/>
<path d="M142.93 59.4751H136.511C135.502 59.4751 134.684 60.2931 134.684 61.3021V106.966C134.684 107.975 135.502 108.793 136.511 108.793H142.93C143.939 108.793 144.757 107.975 144.757 106.966V61.3021C144.757 60.2931 143.939 59.4751 142.93 59.4751Z" fill="#F0F0F0"/>
<path d="M94.6455 108.805H128.097V59.4866L94.6455 59.4866V108.805Z" fill="#FAFAFA"/>
<path d="M131.679 59.4751H125.26C124.251 59.4751 123.433 60.2931 123.433 61.3021V106.966C123.433 107.975 124.251 108.793 125.26 108.793H131.679C132.688 108.793 133.506 107.975 133.506 106.966V61.3021C133.506 60.2931 132.688 59.4751 131.679 59.4751Z" fill="#E6E6E6"/>
<path d="M86.0874 59.4751H114.959L112.664 108.805H86.0874V59.4751Z" fill="#FAFAFA"/>
<path d="M118.686 59.4751H111.942C111.452 59.5236 110.997 59.7565 110.672 60.1269C110.346 60.4972 110.173 60.9774 110.187 61.4704L108.072 106.81C108.04 107.045 108.056 107.284 108.118 107.513C108.181 107.742 108.289 107.955 108.436 108.142C108.583 108.328 108.766 108.483 108.974 108.597C109.182 108.711 109.411 108.782 109.647 108.805H116.39C116.878 108.751 117.329 108.517 117.654 108.148C117.979 107.779 118.154 107.301 118.145 106.81L120.26 61.4704C120.294 61.2351 120.279 60.9954 120.217 60.7659C120.156 60.5364 120.048 60.3219 119.9 60.1353C119.753 59.9487 119.57 59.794 119.361 59.6805C119.152 59.567 118.922 59.4971 118.686 59.4751V59.4751Z" fill="#F0F0F0"/>
<path d="M260.618 108.793H285.98V67.1557H260.618V108.793Z" fill="#FAFAFA"/>
<path d="M288.612 67.1675H283.888C283.085 67.1675 282.434 67.8186 282.434 68.6219V107.35C282.434 108.154 283.085 108.805 283.888 108.805H288.612C289.415 108.805 290.067 108.154 290.067 107.35V68.6219C290.067 67.8186 289.415 67.1675 288.612 67.1675Z" fill="#F0F0F0"/>
<path d="M252.071 108.793H277.434V67.1557H252.071V108.793Z" fill="#FAFAFA"/>
<path d="M280.078 67.1675H275.354C274.551 67.1675 273.9 67.8186 273.9 68.6219V107.35C273.9 108.154 274.551 108.805 275.354 108.805H280.078C280.881 108.805 281.532 108.154 281.532 107.35V68.6219C281.532 67.8186 280.881 67.1675 280.078 67.1675Z" fill="#E6E6E6"/>
<path d="M245.581 67.1675H267.469L265.726 108.805H245.581V67.1675Z" fill="#FAFAFA"/>
<path d="M270.294 67.1675H265.185C264.488 67.1675 263.899 67.9247 263.851 68.8503L262.252 107.122C262.252 108.047 262.745 108.805 263.454 108.805H268.575C269.272 108.805 269.861 108.047 269.897 107.122L271.508 68.8503C271.532 67.9247 270.991 67.1675 270.294 67.1675Z" fill="#F0F0F0"/>
<path d="M227.911 108.793H253.273V67.1557H227.911V108.793Z" fill="#FAFAFA"/>
<path d="M255.906 67.1675H251.182C250.379 67.1675 249.728 67.8186 249.728 68.6219V107.35C249.728 108.154 250.379 108.805 251.182 108.805H255.906C256.709 108.805 257.36 108.154 257.36 107.35V68.6219C257.36 67.8186 256.709 67.1675 255.906 67.1675Z" fill="#F0F0F0"/>
<path d="M219.377 108.793H244.739V67.1557H219.377V108.793Z" fill="#FAFAFA"/>
<path d="M247.372 67.1675H242.648C241.845 67.1675 241.193 67.8186 241.193 68.6219V107.35C241.193 108.154 241.845 108.805 242.648 108.805H247.372C248.175 108.805 248.826 108.154 248.826 107.35V68.6219C248.826 67.8186 248.175 67.1675 247.372 67.1675Z" fill="#E6E6E6"/>
<path d="M212.886 67.1675H234.763L233.032 108.805H212.886V67.1675Z" fill="#FAFAFA"/>
<path d="M237.599 67.1675H232.479C231.782 67.1675 231.193 67.9247 231.157 68.8503L229.582 107.122C229.582 108.047 230.087 108.805 230.784 108.805H235.893C236.59 108.805 237.179 108.047 237.227 107.122L238.825 68.8503C238.825 67.9247 238.297 67.1675 237.599 67.1675Z" fill="#F0F0F0"/>
<path d="M180.132 108.805H197.813V64.0542H180.132V108.805Z" fill="#FAFAFA"/>
<path d="M199.412 64.0425H196.611C195.914 64.0425 195.349 64.6075 195.349 65.3046V107.531C195.349 108.228 195.914 108.793 196.611 108.793H199.412C200.109 108.793 200.674 108.228 200.674 107.531V65.3046C200.674 64.6075 200.109 64.0425 199.412 64.0425Z" fill="#F0F0F0"/>
<path d="M165.407 108.805H184.892V59.4866H165.407V108.805Z" fill="#FAFAFA"/>
<path d="M186.647 59.4751H183.57C182.8 59.4751 182.175 60.0994 182.175 60.8694V107.399C182.175 108.169 182.8 108.793 183.57 108.793H186.647C187.417 108.793 188.041 108.169 188.041 107.399V60.8694C188.041 60.0994 187.417 59.4751 186.647 59.4751Z" fill="#F5F5F5"/>
<path d="M160.419 59.4751H177.235L175.901 108.805H160.419V59.4751Z" fill="#FAFAFA"/>
<path d="M179.411 59.4751H175.492C174.963 59.4751 174.494 60.3646 174.47 61.4704L173.268 106.81C173.268 107.904 173.641 108.805 174.182 108.805H178.112C178.641 108.805 179.098 107.904 179.134 106.81L180.336 61.4704C180.3 60.3646 179.939 59.4751 179.411 59.4751Z" fill="#F0F0F0"/>
<path d="M194.976 181.406H228.428V132.088H194.976V181.406Z" fill="#FAFAFA"/>
<path d="M231.998 132.076H225.579C224.57 132.076 223.752 132.894 223.752 133.903V179.567C223.752 180.576 224.57 181.394 225.579 181.394H231.998C233.007 181.394 233.825 180.576 233.825 179.567V133.903C233.825 132.894 233.007 132.076 231.998 132.076Z" fill="#F0F0F0"/>
<path d="M183.726 181.406H217.177V132.088H183.726V181.406Z" fill="#FAFAFA"/>
<path d="M220.735 132.076H214.317C213.308 132.076 212.49 132.894 212.49 133.903V179.567C212.49 180.576 213.308 181.394 214.317 181.394H220.735C221.744 181.394 222.562 180.576 222.562 179.567V133.903C222.562 132.894 221.744 132.076 220.735 132.076Z" fill="#E6E6E6"/>
<path d="M175.156 132.076H204.016L201.72 181.406H175.156V132.076Z" fill="#FAFAFA"/>
<path d="M207.754 132.076H201.01C200.52 132.124 200.065 132.357 199.74 132.727C199.414 133.098 199.241 133.578 199.256 134.071L197.128 179.41C197.094 179.646 197.109 179.885 197.171 180.115C197.233 180.344 197.34 180.559 197.488 180.746C197.635 180.932 197.819 181.087 198.027 181.2C198.236 181.314 198.466 181.384 198.703 181.406H205.446C205.934 181.352 206.385 181.117 206.71 180.748C207.035 180.379 207.21 179.902 207.201 179.41L209.304 134.071C209.34 133.837 209.327 133.599 209.267 133.37C209.208 133.141 209.102 132.927 208.957 132.741C208.812 132.554 208.631 132.399 208.424 132.284C208.217 132.17 207.989 132.099 207.754 132.076V132.076Z" fill="#F0F0F0"/>
<path d="M246.253 181.394H266.748V139.756H246.253V181.394Z" fill="#FAFAFA"/>
<path d="M268.743 139.769H265.197C264.474 139.769 263.887 140.356 263.887 141.079V180.096C263.887 180.82 264.474 181.406 265.197 181.406H268.743C269.467 181.406 270.053 180.82 270.053 180.096V141.079C270.053 140.356 269.467 139.769 268.743 139.769Z" fill="#F0F0F0"/>
<path d="M239.354 181.394H259.848V139.756H239.354V181.394Z" fill="#FAFAFA"/>
<path d="M261.844 139.769H258.298C257.574 139.769 256.988 140.356 256.988 141.079V180.096C256.988 180.82 257.574 181.406 258.298 181.406H261.844C262.567 181.406 263.154 180.82 263.154 180.096V141.079C263.154 140.356 262.567 139.769 261.844 139.769Z" fill="#E6E6E6"/>
<path d="M234.102 139.769H251.795L250.389 181.406H234.102V139.769Z" fill="#FAFAFA"/>
<path d="M254.079 139.769H249.944C249.379 139.769 248.898 140.526 248.874 141.452L247.612 179.724C247.612 180.649 248.009 181.406 248.574 181.406H252.709C253.274 181.406 253.755 180.649 253.779 179.724L255.077 141.452C255.077 140.526 254.644 139.769 254.079 139.769Z" fill="#F0F0F0"/>
<path d="M280.451 181.406H297.423V146.92H280.451V181.406Z" fill="#FAFAFA"/>
<path d="M299.07 146.909H296.125C295.527 146.909 295.043 147.393 295.043 147.99V180.312C295.043 180.91 295.527 181.394 296.125 181.394H299.07C299.667 181.394 300.151 180.91 300.151 180.312V147.99C300.151 147.393 299.667 146.909 299.07 146.909Z" fill="#F0F0F0"/>
<path d="M274.729 181.406H291.701V146.92H274.729V181.406Z" fill="#FAFAFA"/>
<path d="M293.36 146.909H290.415C289.818 146.909 289.333 147.393 289.333 147.99V180.312C289.333 180.91 289.818 181.394 290.415 181.394H293.36C293.957 181.394 294.442 180.91 294.442 180.312V147.99C294.442 147.393 293.957 146.909 293.36 146.909Z" fill="#E6E6E6"/>
<path d="M270.378 146.909H285.03L283.864 181.406H270.378V146.909Z" fill="#FAFAFA"/>
<path d="M286.929 146.909H283.504C283.035 146.909 282.638 147.534 282.614 148.303L281.544 180.012C281.544 180.781 281.869 181.406 282.338 181.406H285.763C286.22 181.406 286.629 180.781 286.653 180.012L287.723 148.303C287.747 147.534 287.386 146.909 286.929 146.909Z" fill="#F0F0F0"/>
<path d="M141.355 181.394H166.717V139.756H141.355V181.394Z" fill="#FAFAFA"/>
<path d="M169.362 139.769H164.638C163.835 139.769 163.183 140.42 163.183 141.223V179.952C163.183 180.755 163.835 181.406 164.638 181.406H169.362C170.165 181.406 170.816 180.755 170.816 179.952V141.223C170.816 140.42 170.165 139.769 169.362 139.769Z" fill="#F0F0F0"/>
<path d="M132.833 181.394H158.195V139.756H132.833V181.394Z" fill="#FAFAFA"/>
<path d="M160.816 139.769H156.092C155.289 139.769 154.637 140.42 154.637 141.223V179.952C154.637 180.755 155.289 181.406 156.092 181.406H160.816C161.619 181.406 162.27 180.755 162.27 179.952V141.223C162.27 140.42 161.619 139.769 160.816 139.769Z" fill="#E6E6E6"/>
<path d="M126.33 139.769H148.218L146.476 181.406H126.33V139.769Z" fill="#FAFAFA"/>
<path d="M151.043 139.769H145.935C145.543 139.834 145.19 140.042 144.943 140.353C144.696 140.664 144.574 141.056 144.6 141.452L143.038 179.724C143.038 180.649 143.531 181.406 144.24 181.406H149.348C149.74 181.342 150.093 181.133 150.34 180.822C150.587 180.511 150.709 180.12 150.683 179.724L152.281 141.452C152.281 140.526 151.74 139.769 151.043 139.769Z" fill="#F0F0F0"/>
<path d="M105.8 181.406H123.481V136.655H105.8V181.406Z" fill="#FAFAFA"/>
<path d="M125.068 136.643H122.268C121.571 136.643 121.006 137.208 121.006 137.905V180.131C121.006 180.828 121.571 181.394 122.268 181.394H125.068C125.765 181.394 126.33 180.828 126.33 180.131V137.905C126.33 137.208 125.765 136.643 125.068 136.643Z" fill="#F0F0F0"/>
<path d="M91.0754 181.406H110.56V132.088H91.0754V181.406Z" fill="#FAFAFA"/>
<path d="M112.303 132.076H109.226C108.456 132.076 107.831 132.7 107.831 133.47V179.999C107.831 180.769 108.456 181.394 109.226 181.394H112.303C113.073 181.394 113.697 180.769 113.697 179.999V133.47C113.697 132.7 113.073 132.076 112.303 132.076Z" fill="#F5F5F5"/>
<path d="M86.0874 132.076H102.903L101.569 181.406H86.0874V132.076Z" fill="#FAFAFA"/>
<path d="M105.079 132.076H101.149C100.608 132.076 100.151 132.965 100.127 134.071L98.9248 179.41C98.9248 180.504 99.3094 181.406 99.8503 181.406H103.733C104.274 181.406 104.73 180.504 104.755 179.41L105.957 134.071C106.017 132.965 105.608 132.076 105.079 132.076Z" fill="#F0F0F0"/>
<path d="M105.92 254.006H139.372V204.688H105.92V254.006Z" fill="#FAFAFA"/>
<path d="M142.93 204.677H136.511C135.502 204.677 134.684 205.495 134.684 206.504V252.168C134.684 253.177 135.502 253.995 136.511 253.995H142.93C143.939 253.995 144.757 253.177 144.757 252.168V206.504C144.757 205.495 143.939 204.677 142.93 204.677Z" fill="#F0F0F0"/>
<path d="M94.6455 254.006H128.097V204.688H94.6455V254.006Z" fill="#FAFAFA"/>
<path d="M131.679 204.677H125.26C124.251 204.677 123.433 205.495 123.433 206.504V252.168C123.433 253.177 124.251 253.995 125.26 253.995H131.679C132.688 253.995 133.506 253.177 133.506 252.168V206.504C133.506 205.495 132.688 204.677 131.679 204.677Z" fill="#E6E6E6"/>
<path d="M86.0874 204.677H114.959L112.664 254.007H86.0874V204.677Z" fill="#FAFAFA"/>
<path d="M118.686 204.677H111.942C111.452 204.725 110.997 204.958 110.672 205.329C110.346 205.699 110.173 206.179 110.187 206.672L108.072 252.012C108.04 252.247 108.056 252.486 108.118 252.714C108.181 252.943 108.289 253.157 108.436 253.343C108.583 253.53 108.766 253.684 108.974 253.798C109.182 253.912 109.411 253.983 109.647 254.007H116.39C116.878 253.953 117.329 253.718 117.654 253.349C117.979 252.98 118.154 252.503 118.145 252.012L120.26 206.672C120.294 206.437 120.279 206.197 120.217 205.968C120.156 205.738 120.048 205.524 119.9 205.337C119.753 205.15 119.57 204.996 119.361 204.882C119.152 204.769 118.922 204.699 118.686 204.677V204.677Z" fill="#F0F0F0"/>
<path d="M260.618 253.994H285.98V212.357H260.618V253.994Z" fill="#FAFAFA"/>
<path d="M288.612 212.37H283.888C283.085 212.37 282.434 213.021 282.434 213.824V252.552C282.434 253.356 283.085 254.007 283.888 254.007H288.612C289.415 254.007 290.067 253.356 290.067 252.552V213.824C290.067 213.021 289.415 212.37 288.612 212.37Z" fill="#F0F0F0"/>
<path d="M252.071 253.994H277.434V212.357H252.071V253.994Z" fill="#FAFAFA"/>
<path d="M280.078 212.37H275.354C274.551 212.37 273.9 213.021 273.9 213.824V252.552C273.9 253.356 274.551 254.007 275.354 254.007H280.078C280.881 254.007 281.532 253.356 281.532 252.552V213.824C281.532 213.021 280.881 212.37 280.078 212.37Z" fill="#E6E6E6"/>
<path d="M245.581 212.37H267.469L265.726 254.007H245.581V212.37Z" fill="#FAFAFA"/>
<path d="M270.294 212.37H265.185C264.488 212.37 263.899 213.127 263.851 214.052L262.252 252.324C262.252 253.25 262.745 254.007 263.454 254.007H268.575C269.272 254.007 269.861 253.25 269.897 252.324L271.508 214.052C271.532 213.127 270.991 212.37 270.294 212.37Z" fill="#F0F0F0"/>
<path d="M227.911 253.994H253.273V212.357H227.911V253.994Z" fill="#FAFAFA"/>
<path d="M255.906 212.37H251.182C250.379 212.37 249.728 213.021 249.728 213.824V252.552C249.728 253.356 250.379 254.007 251.182 254.007H255.906C256.709 254.007 257.36 253.356 257.36 252.552V213.824C257.36 213.021 256.709 212.37 255.906 212.37Z" fill="#F0F0F0"/>
<path d="M219.377 253.994H244.739V212.357H219.377V253.994Z" fill="#FAFAFA"/>
<path d="M247.372 212.37H242.648C241.845 212.37 241.193 213.021 241.193 213.824V252.552C241.193 253.356 241.845 254.007 242.648 254.007H247.372C248.175 254.007 248.826 253.356 248.826 252.552V213.824C248.826 213.021 248.175 212.37 247.372 212.37Z" fill="#E6E6E6"/>
<path d="M212.886 212.37H234.763L233.032 254.007H212.886V212.37Z" fill="#FAFAFA"/>
<path d="M237.599 212.37H232.479C231.782 212.37 231.193 213.127 231.157 214.052L229.582 252.324C229.582 253.25 230.087 254.007 230.784 254.007H235.893C236.59 254.007 237.179 253.25 237.227 252.324L238.825 214.052C238.825 213.127 238.297 212.37 237.599 212.37Z" fill="#F0F0F0"/>
<path d="M180.132 254.006H197.813V209.256H180.132V254.006Z" fill="#FAFAFA"/>
<path d="M199.412 209.244H196.611C195.914 209.244 195.349 209.809 195.349 210.506V252.733C195.349 253.43 195.914 253.995 196.611 253.995H199.412C200.109 253.995 200.674 253.43 200.674 252.733V210.506C200.674 209.809 200.109 209.244 199.412 209.244Z" fill="#F0F0F0"/>
<path d="M165.407 254.006H184.892V204.688H165.407V254.006Z" fill="#FAFAFA"/>
<path d="M186.647 204.677H183.57C182.8 204.677 182.175 205.301 182.175 206.071V252.6C182.175 253.371 182.8 253.995 183.57 253.995H186.647C187.417 253.995 188.041 253.371 188.041 252.6V206.071C188.041 205.301 187.417 204.677 186.647 204.677Z" fill="#F5F5F5"/>
<path d="M160.419 204.677H177.235L175.901 254.007H160.419V204.677Z" fill="#FAFAFA"/>
<path d="M179.411 204.677H175.492C174.963 204.677 174.494 205.566 174.47 206.672L173.268 252.012C173.268 253.105 173.641 254.007 174.182 254.007H178.112C178.641 254.007 179.098 253.105 179.134 252.012L180.336 206.672C180.3 205.542 179.939 204.677 179.411 204.677Z" fill="#F0F0F0"/>
<path d="M98.7803 393.535H120.212V344.217H98.7803V393.535Z" fill="#FAFAFA"/>
<path d="M122.22 344.205H118.674C117.87 344.205 117.219 344.856 117.219 345.66V392.069C117.219 392.872 117.87 393.523 118.674 393.523H122.22C123.023 393.523 123.674 392.872 123.674 392.069V345.66C123.674 344.856 123.023 344.205 122.22 344.205Z" fill="#F0F0F0"/>
<path d="M91.5805 393.535H113.012V344.217H91.5805V393.535Z" fill="#FAFAFA"/>
<path d="M115.007 344.205H111.462C110.658 344.205 110.007 344.856 110.007 345.66V392.069C110.007 392.872 110.658 393.523 111.462 393.523H115.007C115.811 393.523 116.462 392.872 116.462 392.069V345.66C116.462 344.856 115.811 344.205 115.007 344.205Z" fill="#E6E6E6"/>
<path d="M86.0874 344.217H104.574L103.108 393.535H86.0874V344.217Z" fill="#FAFAFA"/>
<path d="M106.978 344.205H102.651C102.062 344.205 101.557 345.107 101.521 346.2L100.175 391.54C100.175 392.646 100.596 393.535 101.184 393.535H105.5C106.089 393.535 106.593 392.646 106.63 391.54L107.976 346.176C108.012 345.107 107.555 344.205 106.978 344.205Z" fill="#F0F0F0"/>
<path d="M278.095 393.535H300.44V351.898H278.095V393.535Z" fill="#FAFAFA"/>
<path d="M302.676 351.898H298.685C297.928 351.898 297.315 352.511 297.315 353.268V392.165C297.315 392.922 297.928 393.535 298.685 393.535H302.676C303.432 393.535 304.046 392.922 304.046 392.165V353.268C304.046 352.511 303.432 351.898 302.676 351.898Z" fill="#F0F0F0"/>
<path d="M270.57 393.535H292.916V351.898H270.57V393.535Z" fill="#FAFAFA"/>
<path d="M295.151 351.898H291.161C290.404 351.898 289.79 352.511 289.79 353.268V392.165C289.79 392.922 290.404 393.535 291.161 393.535H295.151C295.908 393.535 296.521 392.922 296.521 392.165V353.268C296.521 352.511 295.908 351.898 295.151 351.898Z" fill="#E6E6E6"/>
<path d="M264.849 351.898H284.129L282.59 393.535H264.849V351.898Z" fill="#FAFAFA"/>
<path d="M286.629 351.898H282.121C281.508 351.898 280.919 352.655 280.919 353.581L279.537 391.852C279.537 392.778 279.97 393.535 280.583 393.535H285.09C285.703 393.535 286.232 392.778 286.292 391.852L287.699 353.581C287.711 352.655 287.278 351.898 286.629 351.898Z" fill="#F0F0F0"/>
<path d="M249.271 393.535H271.616V351.898H249.271V393.535Z" fill="#FAFAFA"/>
<path d="M273.852 351.898H269.861C269.104 351.898 268.491 352.511 268.491 353.268V392.165C268.491 392.922 269.104 393.535 269.861 393.535H273.852C274.608 393.535 275.222 392.922 275.222 392.165V353.268C275.222 352.511 274.608 351.898 273.852 351.898Z" fill="#F0F0F0"/>
<path d="M241.746 393.535H264.091V351.898H241.746V393.535Z" fill="#FAFAFA"/>
<path d="M266.327 351.898H262.337C261.58 351.898 260.966 352.511 260.966 353.268V392.165C260.966 392.922 261.58 393.535 262.337 393.535H266.327C267.084 393.535 267.698 392.922 267.698 392.165V353.268C267.698 352.511 267.084 351.898 266.327 351.898Z" fill="#E6E6E6"/>
<path d="M236.025 351.898H255.305L253.778 393.535H236.025V351.898Z" fill="#FAFAFA"/>
<path d="M257.805 351.898H253.297C252.684 351.898 252.156 352.655 252.095 353.581L250.713 391.852C250.713 392.778 251.146 393.535 251.759 393.535H256.266C256.879 393.535 257.468 392.778 257.468 391.852L258.875 353.581C258.887 352.655 258.43 351.898 257.805 351.898Z" fill="#F0F0F0"/>
<path d="M226.325 393.535H241.903V348.785H226.325V393.535Z" fill="#FAFAFA"/>
<path d="M240.917 348.785H243.237C243.556 348.785 243.861 348.911 244.087 349.137C244.312 349.362 244.439 349.668 244.439 349.987V392.369C244.439 392.688 244.312 392.994 244.087 393.219C243.861 393.445 243.556 393.571 243.237 393.571H240.917C240.598 393.571 240.292 393.445 240.067 393.219C239.842 392.994 239.715 392.688 239.715 392.369V349.963C239.721 349.648 239.851 349.348 240.075 349.128C240.3 348.908 240.602 348.785 240.917 348.785V348.785Z" fill="#F0F0F0"/>
<path d="M213.355 393.535H230.52V344.217H213.355V393.535Z" fill="#FAFAFA"/>
<path d="M231.974 344.205H229.426C228.702 344.205 228.116 344.792 228.116 345.515V392.213C228.116 392.937 228.702 393.523 229.426 393.523H231.974C232.698 393.523 233.284 392.937 233.284 392.213V345.515C233.284 344.792 232.698 344.205 231.974 344.205Z" fill="#F5F5F5"/>
<path d="M208.956 344.217H223.776L222.598 393.535H208.956V344.217Z" fill="#FAFAFA"/>
<path d="M225.687 344.205H222.226C221.757 344.205 221.348 345.107 221.324 346.2L220.242 391.54C220.242 392.646 220.579 393.535 221.048 393.535H224.51C224.978 393.535 225.387 392.646 225.411 391.54L226.493 346.2C226.517 345.107 226.156 344.205 225.687 344.205Z" fill="#F0F0F0"/>
<path d="M194.976 326.608H228.428V277.29H194.976V326.608Z" fill="#FAFAFA"/>
<path d="M231.998 277.278H225.579C224.57 277.278 223.752 278.096 223.752 279.105V324.769C223.752 325.778 224.57 326.596 225.579 326.596H231.998C233.007 326.596 233.825 325.778 233.825 324.769V279.105C233.825 278.096 233.007 277.278 231.998 277.278Z" fill="#F0F0F0"/>
<path d="M183.726 326.608H217.177V277.29H183.726V326.608Z" fill="#FAFAFA"/>
<path d="M220.735 277.278H214.317C213.308 277.278 212.49 278.096 212.49 279.105V324.769C212.49 325.778 213.308 326.596 214.317 326.596H220.735C221.744 326.596 222.562 325.778 222.562 324.769V279.105C222.562 278.096 221.744 277.278 220.735 277.278Z" fill="#E6E6E6"/>
<path d="M175.156 277.278H204.016L201.72 326.608H175.156V277.278Z" fill="#FAFAFA"/>
<path d="M207.754 277.278H201.01C200.521 277.329 200.068 277.563 199.743 277.933C199.418 278.302 199.244 278.781 199.256 279.273L197.128 324.613C197.094 324.848 197.109 325.088 197.171 325.317C197.233 325.547 197.34 325.761 197.488 325.948C197.635 326.134 197.819 326.289 198.027 326.403C198.236 326.516 198.466 326.586 198.703 326.608H205.446C205.934 326.554 206.385 326.32 206.71 325.95C207.035 325.581 207.21 325.104 207.201 324.613L209.304 279.273C209.338 279.04 209.324 278.802 209.264 278.574C209.203 278.346 209.098 278.132 208.953 277.946C208.808 277.76 208.627 277.605 208.421 277.49C208.215 277.375 207.988 277.303 207.754 277.278V277.278Z" fill="#F0F0F0"/>
<path d="M246.253 326.595H266.748V284.958H246.253V326.595Z" fill="#FAFAFA"/>
<path d="M268.743 284.97H265.197C264.474 284.97 263.887 285.557 263.887 286.28V325.297C263.887 326.021 264.474 326.608 265.197 326.608H268.743C269.467 326.608 270.053 326.021 270.053 325.297V286.28C270.053 285.557 269.467 284.97 268.743 284.97Z" fill="#F0F0F0"/>
<path d="M239.354 326.595H259.848V284.958H239.354V326.595Z" fill="#FAFAFA"/>
<path d="M261.844 284.97H258.298C257.574 284.97 256.988 285.557 256.988 286.28V325.297C256.988 326.021 257.574 326.608 258.298 326.608H261.844C262.567 326.608 263.154 326.021 263.154 325.297V286.28C263.154 285.557 262.567 284.97 261.844 284.97Z" fill="#E6E6E6"/>
<path d="M234.102 284.97H251.795L250.389 326.608H234.102V284.97Z" fill="#FAFAFA"/>
<path d="M254.079 284.97H249.944C249.379 284.97 248.898 285.728 248.874 286.653L247.612 324.925C247.612 325.85 248.009 326.608 248.574 326.608H252.709C253.274 326.608 253.755 325.85 253.779 324.925L255.077 286.653C255.077 285.728 254.644 284.97 254.079 284.97Z" fill="#F0F0F0"/>
<path d="M280.451 326.608H297.423V292.123H280.451V326.608Z" fill="#FAFAFA"/>
<path d="M299.07 292.11H296.125C295.527 292.11 295.043 292.595 295.043 293.192V325.514C295.043 326.111 295.527 326.596 296.125 326.596H299.07C299.667 326.596 300.151 326.111 300.151 325.514V293.192C300.151 292.595 299.667 292.11 299.07 292.11Z" fill="#F0F0F0"/>
<path d="M274.729 326.608H291.701V292.123H274.729V326.608Z" fill="#FAFAFA"/>
<path d="M293.36 292.11H290.415C289.818 292.11 289.333 292.595 289.333 293.192V325.514C289.333 326.111 289.818 326.596 290.415 326.596H293.36C293.957 326.596 294.442 326.111 294.442 325.514V293.192C294.442 292.595 293.957 292.11 293.36 292.11Z" fill="#E6E6E6"/>
<path d="M270.378 292.11H285.03L283.864 326.608H270.378V292.11Z" fill="#FAFAFA"/>
<path d="M286.929 292.086H283.504C283.035 292.086 282.638 292.711 282.614 293.48L281.544 325.189C281.544 325.958 281.869 326.583 282.338 326.583H285.763C286.22 326.583 286.629 325.958 286.653 325.189L287.723 293.48C287.747 292.735 287.386 292.086 286.929 292.086Z" fill="#F0F0F0"/>
<path d="M141.355 326.595H166.717V284.958H141.355V326.595Z" fill="#FAFAFA"/>
<path d="M169.362 284.97H164.638C163.835 284.97 163.183 285.621 163.183 286.425V325.153C163.183 325.956 163.835 326.608 164.638 326.608H169.362C170.165 326.608 170.816 325.956 170.816 325.153V286.425C170.816 285.621 170.165 284.97 169.362 284.97Z" fill="#F0F0F0"/>
<path d="M132.833 326.595H158.195V284.958H132.833V326.595Z" fill="#FAFAFA"/>
<path d="M160.816 284.97H156.092C155.289 284.97 154.637 285.621 154.637 286.425V325.153C154.637 325.956 155.289 326.608 156.092 326.608H160.816C161.619 326.608 162.27 325.956 162.27 325.153V286.425C162.27 285.621 161.619 284.97 160.816 284.97Z" fill="#E6E6E6"/>
<path d="M126.33 284.97H148.218L146.476 326.608H126.33V284.97Z" fill="#FAFAFA"/>
<path d="M151.043 284.97H145.935C145.543 285.035 145.19 285.243 144.943 285.554C144.696 285.865 144.574 286.257 144.6 286.653L143.038 324.925C143.038 325.85 143.531 326.608 144.24 326.608H149.348C149.74 326.543 150.093 326.335 150.34 326.024C150.587 325.712 150.709 325.321 150.683 324.925L152.281 286.653C152.281 285.728 151.74 284.97 151.043 284.97Z" fill="#F0F0F0"/>
<path d="M105.8 326.608H123.481V281.857H105.8V326.608Z" fill="#FAFAFA"/>
<path d="M125.068 281.845H122.268C121.571 281.845 121.006 282.41 121.006 283.107V325.334C121.006 326.031 121.571 326.596 122.268 326.596H125.068C125.765 326.596 126.33 326.031 126.33 325.334V283.107C126.33 282.41 125.765 281.845 125.068 281.845Z" fill="#F0F0F0"/>
<path d="M91.0754 326.608H110.56V277.29H91.0754V326.608Z" fill="#FAFAFA"/>
<path d="M112.303 277.278H109.226C108.456 277.278 107.831 277.902 107.831 278.672V325.202C107.831 325.972 108.456 326.596 109.226 326.596H112.303C113.073 326.596 113.697 325.972 113.697 325.202V278.672C113.697 277.902 113.073 277.278 112.303 277.278Z" fill="#F5F5F5"/>
<path d="M86.0874 277.278H102.903L101.569 326.608H86.0874V277.278Z" fill="#FAFAFA"/>
<path d="M105.079 277.278H101.149C100.608 277.278 100.151 278.179 100.127 279.273L98.9248 324.613C98.9248 325.706 99.3094 326.608 99.8503 326.608H103.733C104.274 326.608 104.73 325.706 104.755 324.613L105.957 279.273C106.017 278.179 105.608 277.278 105.079 277.278Z" fill="#F0F0F0"/>
<path d="M185.517 393.535H210.314V340.263H185.517V393.535Z" fill="#FAFAFA"/>
<path d="M212.682 340.262H208.487C207.584 340.262 206.852 340.994 206.852 341.897V391.9C206.852 392.803 207.584 393.535 208.487 393.535H212.682C213.585 393.535 214.317 392.803 214.317 391.9V341.897C214.317 340.994 213.585 340.262 212.682 340.262Z" fill="#F0F0F0"/>
<path d="M177.175 393.535H201.972V340.263H177.175V393.535Z" fill="#FAFAFA"/>
<path d="M204.328 340.262H200.133C199.23 340.262 198.498 340.994 198.498 341.897V391.9C198.498 392.803 199.23 393.535 200.133 393.535H204.328C205.231 393.535 205.962 392.803 205.962 391.9V341.897C205.962 340.994 205.231 340.262 204.328 340.262Z" fill="#E6E6E6"/>
<path d="M170.816 340.262H192.212L190.517 393.535H170.816V340.262Z" fill="#FAFAFA"/>
<path d="M194.988 340.262H189.988C189.303 340.262 188.714 341.224 188.678 342.414L187.115 391.383C187.115 392.585 187.596 393.535 188.317 393.535H193.318C194.003 393.535 194.52 392.573 194.616 391.383L196.178 342.414C196.19 341.224 195.661 340.262 194.988 340.262Z" fill="#F0F0F0"/>
<path d="M148.543 393.535H169.975V347.162H148.543V393.535Z" fill="#FAFAFA"/>
<path d="M172.018 347.161H168.4C167.617 347.161 166.982 347.796 166.982 348.579V392.116C166.982 392.899 167.617 393.534 168.4 393.534H172.018C172.801 393.534 173.436 392.899 173.436 392.116V348.579C173.436 347.796 172.801 347.161 172.018 347.161Z" fill="#F0F0F0"/>
<path d="M141.331 393.535H162.763V347.162H141.331V393.535Z" fill="#FAFAFA"/>
<path d="M164.806 347.161H161.188C160.405 347.161 159.77 347.796 159.77 348.579V392.116C159.77 392.899 160.405 393.534 161.188 393.534H164.806C165.59 393.534 166.225 392.899 166.225 392.116V348.579C166.225 347.796 165.59 347.161 164.806 347.161Z" fill="#E6E6E6"/>
<path d="M135.85 347.161H154.337L152.87 393.534H135.85V347.161Z" fill="#FAFAFA"/>
<path d="M156.729 347.161H152.414C151.825 347.161 151.32 348.003 151.284 349.036L149.938 391.659C149.938 392.693 150.346 393.534 150.935 393.534H155.262C155.851 393.534 156.356 392.693 156.38 391.659L157.738 349.036C157.775 348.003 157.318 347.161 156.729 347.161Z" fill="#F0F0F0"/>
<path d="M300.5 447.817C429.213 447.817 533.556 441.725 533.556 434.21C533.556 426.695 429.213 420.604 300.5 420.604C171.787 420.604 67.4441 426.695 67.4441 434.21C67.4441 441.725 171.787 447.817 300.5 447.817Z" fill="#F5F5F5"/>
<path d="M276.616 431.061C276.738 431.432 276.767 431.826 276.702 432.211C276.637 432.595 276.479 432.958 276.242 433.268C276.006 433.578 275.697 433.826 275.344 433.99C274.99 434.154 274.602 434.23 274.212 434.21H106.774C101.545 434.21 101.545 400.158 106.774 400.158H274.26C274.648 400.139 275.035 400.215 275.388 400.378C275.74 400.542 276.048 400.788 276.284 401.097C276.52 401.405 276.678 401.766 276.744 402.149C276.811 402.532 276.783 402.925 276.664 403.295C274.573 409.786 274.573 424.582 276.616 431.061Z" fill="#00AC69"/>
<path opacity="0.8" d="M276.376 404.136H174.771C170.768 404.136 170.768 430.232 174.771 430.232H276.376C274.657 423.681 274.657 410.675 276.376 404.136Z" fill="white"/>
<path opacity="0.2" d="M169.71 431.061C169.832 431.432 169.861 431.826 169.796 432.211C169.731 432.595 169.573 432.958 169.337 433.268C169.1 433.578 168.791 433.826 168.438 433.99C168.084 434.154 167.696 434.23 167.306 434.21H106.774C101.545 434.21 101.545 400.158 106.774 400.158H167.354C167.742 400.139 168.129 400.215 168.482 400.378C168.834 400.542 169.142 400.788 169.378 401.097C169.614 401.405 169.772 401.766 169.839 402.149C169.905 402.532 169.877 402.925 169.758 403.295C167.667 409.786 167.667 424.582 169.71 431.061Z" fill="black"/>
<path d="M132.593 400.157H118.758C113.529 400.157 113.529 434.21 118.758 434.21H132.593C127.412 434.21 127.412 400.157 132.593 400.157Z" fill="#00AC69"/>
<path d="M143.495 400.157H138.062C132.833 400.157 132.833 434.21 138.062 434.21H143.495C138.23 434.21 138.23 400.157 143.495 400.157Z" fill="#00AC69"/>
<path d="M97.0134 397.333C96.4364 398.727 97.8548 400.157 99.778 400.157H250.365C256.507 400.157 256.507 369.542 250.365 369.542H99.766C97.8428 369.542 96.4244 370.961 97.0014 372.367C99.4054 378.197 99.4054 391.503 97.0134 397.333Z" fill="#263238"/>
<path opacity="0.2" d="M97.0134 397.333C96.4364 398.727 97.8548 400.157 99.778 400.157H173.617C179.759 400.157 179.759 369.542 173.617 369.542H99.766C97.8428 369.542 96.4244 370.961 97.0014 372.367C99.4054 378.197 99.4054 391.503 97.0134 397.333Z" fill="black"/>
<path opacity="0.8" d="M97.2778 373.113H170.6C175.3 373.113 175.3 396.576 170.6 396.576H97.2778C99.2972 390.65 99.2972 379.003 97.2778 373.113Z" fill="white"/>
<path opacity="0.2" d="M194.952 376.37C194.495 375.012 195.818 373.69 197.645 373.69H239.799C244.27 373.69 244.27 395.999 239.799 395.999H197.645C195.818 395.999 194.495 394.689 194.952 393.331C196.395 387.769 196.395 381.932 194.952 376.37V376.37Z" fill="white"/>
<path d="M499.707 383.666C499.84 384.073 499.879 384.505 499.819 384.928C499.759 385.352 499.603 385.756 499.363 386.11C499.123 386.464 498.805 386.758 498.433 386.97C498.061 387.182 497.646 387.306 497.219 387.333H320.285C314.756 387.333 314.756 347.667 320.285 347.667H497.219C497.639 347.695 498.047 347.819 498.413 348.027C498.779 348.235 499.093 348.523 499.332 348.87C499.571 349.217 499.729 349.612 499.794 350.028C499.859 350.444 499.829 350.87 499.707 351.273C497.556 358.905 497.556 376.13 499.707 383.666Z" fill="#00AC69"/>
<path opacity="0.5" d="M499.707 383.666C499.84 384.073 499.879 384.505 499.819 384.928C499.759 385.352 499.603 385.756 499.363 386.11C499.123 386.464 498.805 386.758 498.433 386.97C498.061 387.182 497.646 387.306 497.219 387.333H320.285C314.756 387.333 314.756 347.667 320.285 347.667H497.219C497.639 347.695 498.047 347.819 498.413 348.027C498.779 348.235 499.093 348.523 499.332 348.87C499.571 349.217 499.729 349.612 499.794 350.028C499.859 350.444 499.829 350.87 499.707 351.273C497.556 358.905 497.556 376.13 499.707 383.666Z" fill="white"/>
<path opacity="0.8" d="M499.467 352.33H392.116C387.885 352.33 387.885 382.693 392.116 382.693H499.467C497.628 375.084 497.628 359.951 499.467 352.33Z" fill="white"/>
<path opacity="0.6" d="M386.767 383.666C386.9 384.073 386.939 384.505 386.879 384.928C386.819 385.352 386.663 385.756 386.423 386.11C386.183 386.464 385.865 386.758 385.493 386.97C385.122 387.182 384.706 387.306 384.279 387.333H320.285C314.756 387.333 314.756 347.667 320.285 347.667H384.279C384.699 347.695 385.107 347.819 385.473 348.027C385.839 348.235 386.153 348.523 386.392 348.87C386.631 349.217 386.789 349.612 386.854 350.028C386.919 350.444 386.89 350.87 386.767 351.273C384.64 358.905 384.64 376.13 386.767 383.666Z" fill="#00AC69"/>
<path opacity="0.5" d="M360.804 350.636C360.93 350.325 360.98 349.989 360.952 349.656C360.924 349.322 360.818 348.999 360.643 348.714C360.467 348.429 360.228 348.189 359.942 348.013C359.657 347.837 359.335 347.731 359.001 347.703H334.601C329.071 347.703 329.071 387.369 334.601 387.369H359.001C359.335 387.338 359.658 387.231 359.943 387.054C360.228 386.877 360.467 386.635 360.643 386.349C360.818 386.063 360.924 385.74 360.952 385.406C360.98 385.071 360.929 384.735 360.804 384.424C358.34 377.056 358.34 357.98 360.804 350.636Z" fill="white"/>
<path d="M487.014 429.847C487.157 430.374 487.172 430.928 487.057 431.462C486.943 431.996 486.704 432.495 486.358 432.918C486.013 433.341 485.572 433.675 485.071 433.894C484.571 434.112 484.026 434.208 483.481 434.174H299.647C291.798 434.174 291.786 387.296 299.647 387.296H483.553C484.098 387.262 484.643 387.358 485.143 387.577C485.644 387.795 486.085 388.13 486.43 388.553C486.776 388.976 487.015 389.475 487.13 390.009C487.244 390.543 487.229 391.096 487.087 391.623C483.949 400.554 483.961 420.928 487.014 429.847Z" fill="#00AC69"/>
<path opacity="0.2" d="M487.014 429.847C487.157 430.374 487.172 430.928 487.057 431.462C486.943 431.996 486.704 432.495 486.358 432.918C486.013 433.341 485.572 433.675 485.071 433.894C484.571 434.112 484.026 434.208 483.481 434.174H299.647C291.798 434.174 291.786 387.296 299.647 387.296H483.553C484.098 387.262 484.643 387.358 485.143 387.577C485.644 387.795 486.085 388.13 486.43 388.553C486.776 388.976 487.015 389.475 487.13 390.009C487.244 390.543 487.229 391.096 487.087 391.623C483.949 400.554 483.961 420.928 487.014 429.847Z" fill="white"/>
<path opacity="0.8" d="M486.654 392.778H375.505C369.495 392.778 369.495 428.694 375.505 428.694H486.666C484.094 419.691 484.093 401.793 486.654 392.778Z" fill="white"/>
<path opacity="0.6" d="M367.908 429.871C368.053 430.397 368.07 430.951 367.958 431.485C367.845 432.019 367.607 432.519 367.262 432.942C366.918 433.365 366.477 433.7 365.977 433.919C365.476 434.137 364.931 434.233 364.386 434.198H299.647C291.798 434.198 291.786 387.32 299.647 387.32H364.386C364.931 387.286 365.477 387.382 365.977 387.601C366.478 387.819 366.919 388.154 367.264 388.577C367.609 389 367.849 389.499 367.963 390.033C368.077 390.567 368.063 391.12 367.92 391.647C364.855 400.578 364.855 420.94 367.908 429.871Z" fill="#00AC69"/>
<path opacity="0.5" d="M329.132 388.955C329.232 388.783 329.283 388.587 329.279 388.389C329.275 388.19 329.217 387.996 329.11 387.828C329.003 387.661 328.852 387.526 328.674 387.438C328.495 387.351 328.296 387.314 328.098 387.332H317.1C309.263 387.332 309.263 434.21 317.1 434.21H328.146C328.344 434.229 328.543 434.192 328.722 434.104C328.9 434.017 329.051 433.882 329.158 433.714C329.265 433.547 329.323 433.353 329.327 433.154C329.331 432.955 329.28 432.759 329.18 432.588C324.408 425.339 324.408 396.191 329.132 388.955Z" fill="white"/>
<path opacity="0.5" d="M346.296 388.955C346.395 388.782 346.445 388.586 346.441 388.387C346.437 388.188 346.378 387.994 346.272 387.826C346.166 387.658 346.015 387.522 345.838 387.433C345.66 387.344 345.461 387.305 345.263 387.32H334.264C326.427 387.32 326.427 434.198 334.264 434.198H345.263C345.46 434.214 345.657 434.176 345.834 434.087C346.01 433.999 346.16 433.863 346.265 433.696C346.37 433.529 346.428 433.336 346.431 433.139C346.434 432.941 346.384 432.746 346.284 432.575C341.572 425.339 341.572 396.179 346.296 388.955Z" fill="white"/>
<path d="M485.211 322.761C484.998 319.423 484.214 316.146 482.892 313.073L483.973 312.544C485.347 315.747 486.161 319.162 486.377 322.641L485.211 322.761Z" fill="#00AC69"/>
<path d="M477.675 307.868H447.817V309.07H477.675V307.868Z" fill="#00AC69"/>
<path d="M283.083 344.421C282.47 346.055 283.973 347.702 286.004 347.702H477.675C484.154 347.702 484.154 312.075 477.675 312.075H286.004C283.973 312.075 282.47 313.733 283.083 315.368C285.607 322.135 285.607 337.629 283.083 344.421Z" fill="#00AC69"/>
<path opacity="0.2" d="M283.083 344.421C282.47 346.055 283.973 347.702 286.004 347.702H396.588C403.079 347.702 403.079 312.075 396.588 312.075H286.004C283.973 312.075 282.47 313.733 283.083 315.368C285.607 322.135 285.607 337.629 283.083 344.421Z" fill="black"/>
<path opacity="0.8" d="M283.372 316.246H393.379C398.355 316.246 398.355 343.544 393.379 343.544H283.372C285.499 336.692 285.499 323.097 283.372 316.246Z" fill="white"/>
<path opacity="0.2" d="M419.125 320.021C418.645 318.446 420.039 316.919 421.962 316.919H466.508C471.232 316.919 471.232 342.871 466.508 342.871H421.962C420.039 342.871 418.645 341.344 419.125 339.757C420.7 334.769 420.7 325.021 419.125 320.021Z" fill="white"/>
<path d="M265.161 51.6863C259.74 57.4919 246.506 51.6863 244.487 67.6729C242.299 84.9095 250.593 93.1913 239.883 97.7229C223.055 104.755 211.035 132.857 234.402 143.399C257.769 153.94 307.532 142.894 301.93 121.414C296.329 99.9345 297.435 88.4074 304.046 78.2865C312.76 64.9083 310.897 47.7197 303.793 41.4933C292.735 31.7571 277.457 38.4643 265.161 51.6863Z" fill="#263238"/>
<path d="M294.081 120.837C293.989 120.841 293.9 120.809 293.831 120.749C293.761 120.689 293.718 120.604 293.709 120.513C293.7 120.465 293.702 120.415 293.713 120.367C293.724 120.32 293.745 120.275 293.774 120.235C293.804 120.196 293.84 120.163 293.883 120.138C293.925 120.114 293.972 120.098 294.021 120.092C298.661 119.455 301.425 118.313 302.724 116.486C304.334 114.214 303.637 110.837 302.724 106.558C301.305 99.598 299.346 90.0662 305.596 78.0221C313.181 63.4178 310.404 47.4072 303.301 42.1665C303.221 42.1087 303.168 42.0221 303.152 41.9253C303.137 41.8286 303.16 41.7295 303.216 41.6496C303.276 41.5696 303.365 41.5161 303.464 41.5004C303.563 41.4847 303.663 41.508 303.745 41.5655C311.15 46.9865 314.01 63.4299 306.257 78.3707C300.139 90.1744 302.063 99.562 303.457 106.413C304.37 110.861 305.092 114.383 303.289 116.919C301.87 118.926 298.949 120.164 294.093 120.837H294.081Z" fill="#263238"/>
<path d="M233.477 100.019C232.717 100.016 231.958 99.9675 231.205 99.8746C231.156 99.8686 231.108 99.853 231.065 99.8286C231.022 99.8041 230.985 99.7714 230.954 99.7322C230.924 99.6931 230.902 99.6483 230.889 99.6005C230.877 99.5527 230.873 99.5029 230.88 99.4539C230.886 99.4048 230.902 99.3573 230.926 99.3143C230.951 99.2713 230.983 99.2337 231.023 99.2034C231.062 99.1732 231.106 99.1511 231.154 99.1384C231.202 99.1257 231.252 99.1226 231.301 99.1293C234.715 99.55 237.191 99.0452 238.861 97.5787C241.987 94.8262 242.035 89.0686 242.071 82.3975C242.071 74.8489 242.179 66.3027 247.071 60.473C247.103 60.4351 247.141 60.4038 247.185 60.3809C247.229 60.358 247.276 60.3439 247.326 60.3394C247.375 60.335 247.424 60.3402 247.471 60.3549C247.518 60.3696 247.562 60.3934 247.6 60.4249C247.638 60.4565 247.669 60.4952 247.692 60.5389C247.715 60.5825 247.729 60.6303 247.734 60.6794C247.738 60.7285 247.733 60.778 247.718 60.8251C247.703 60.8722 247.68 60.9159 247.648 60.9538C242.924 66.5792 242.84 74.9811 242.84 82.4095C242.84 89.2489 242.756 95.1627 239.378 98.1437C237.713 99.4814 235.609 100.15 233.477 100.019V100.019Z" fill="#263238"/>
<path d="M351.453 312.052C343.436 311.955 340.286 311.451 336.596 311.511C332.906 311.571 332.029 312.22 328.182 312.052C325.586 311.943 325.574 308.854 326.572 306.739C327.353 305.08 328.314 303.409 329.204 301.342L339.373 302.087C340.743 305.957 347.546 307.616 353.508 308.986C355.876 309.551 354.662 312.088 351.453 312.052Z" fill="#00AC69"/>
<path d="M298.432 164.386C298.432 164.386 325.333 187.524 352.522 212.069C364.014 222.467 339.913 301.738 339.913 301.738C339.409 303.433 330.442 301.017 329.095 299.683C329.095 299.683 327.725 238.153 333.555 225.76C273.263 210.519 263.839 180.913 263.839 180.913L268.166 162.547L298.432 164.386Z" fill="#263238"/>
<path opacity="0.2" d="M267.818 188.209C271.193 192.926 275.192 197.164 279.705 200.806C285.715 193.774 284.033 182.416 284.033 182.416L267.818 188.209Z" fill="black"/>
<path d="M342.005 298.313C341.837 299.515 341.548 301.642 341.392 303.217C341.368 303.472 341.248 303.708 341.056 303.878C340.864 304.047 340.614 304.138 340.358 304.13C336.336 303.815 332.352 303.123 328.459 302.063C328.271 302.011 328.105 301.9 327.986 301.746C327.867 301.592 327.801 301.404 327.798 301.209L327.713 296.822C327.713 296.679 327.742 296.538 327.799 296.408C327.856 296.277 327.94 296.16 328.046 296.063C328.151 295.967 328.275 295.894 328.411 295.849C328.546 295.803 328.689 295.787 328.831 295.8L341.236 297.303C341.354 297.316 341.468 297.353 341.571 297.412C341.674 297.47 341.765 297.549 341.837 297.643C341.908 297.738 341.96 297.846 341.989 297.961C342.018 298.076 342.024 298.195 342.005 298.313V298.313Z" fill="#263238"/>
<path opacity="0.3" d="M342.005 298.313C341.837 299.515 341.548 301.642 341.392 303.217C341.368 303.472 341.248 303.708 341.056 303.878C340.864 304.047 340.614 304.138 340.358 304.13C336.336 303.815 332.352 303.123 328.459 302.063C328.271 302.011 328.105 301.9 327.986 301.746C327.867 301.592 327.801 301.404 327.798 301.209L327.713 296.822C327.713 296.679 327.742 296.538 327.799 296.408C327.856 296.277 327.94 296.16 328.046 296.063C328.151 295.967 328.275 295.894 328.411 295.849C328.546 295.803 328.689 295.787 328.831 295.8L341.236 297.303C341.354 297.316 341.468 297.353 341.571 297.412C341.674 297.47 341.765 297.549 341.837 297.643C341.908 297.738 341.96 297.846 341.989 297.961C342.018 298.076 342.024 298.195 342.005 298.313V298.313Z" fill="white"/>
<path d="M233.753 369.543C225.603 369.543 222.935 366.478 218.379 365.637C214.533 364.915 213.511 365.252 210.41 364.711C207.814 364.254 207.609 362.475 209.208 359.843C210.251 358.023 211.136 356.117 211.852 354.146L224.209 354.963C225.495 358.268 228.464 364.988 232.996 365.781C237.263 366.61 236.998 369.543 233.753 369.543Z" fill="#00AC69"/>
<path d="M296.569 164.313C296.569 164.313 268.142 214.858 256.699 246.122C244.679 278.96 225.543 332.666 224.161 354.963C222.117 355.936 215.41 355.564 211.804 354.145C211.804 354.145 208.463 277.217 231.601 246.398C237.118 180.396 246.278 169.843 256.014 161.801L296.569 164.313Z" fill="#263238"/>
<path d="M225.651 350.407C225.504 351.929 225.464 353.459 225.531 354.987C225.548 355.253 225.458 355.514 225.283 355.715C225.107 355.915 224.859 356.038 224.594 356.056C219.99 356.477 213.571 354.999 211.54 354.494C211.351 354.447 211.183 354.339 211.061 354.187C210.94 354.035 210.871 353.847 210.867 353.652L210.711 349.349C210.709 349.208 210.736 349.067 210.791 348.937C210.846 348.807 210.928 348.689 211.03 348.592C211.133 348.495 211.255 348.42 211.388 348.373C211.522 348.325 211.663 348.306 211.804 348.316L224.834 349.433C224.952 349.442 225.067 349.475 225.173 349.529C225.278 349.583 225.371 349.658 225.447 349.748C225.524 349.839 225.581 349.944 225.616 350.057C225.651 350.17 225.663 350.289 225.651 350.407V350.407Z" fill="#263238"/>
<path opacity="0.3" d="M225.651 350.407C225.504 351.929 225.464 353.459 225.531 354.987C225.548 355.253 225.458 355.514 225.283 355.715C225.107 355.915 224.859 356.038 224.594 356.056C219.99 356.477 213.571 354.999 211.54 354.494C211.351 354.447 211.183 354.339 211.061 354.187C210.94 354.035 210.871 353.847 210.867 353.652L210.711 349.349C210.709 349.208 210.736 349.067 210.791 348.937C210.846 348.807 210.928 348.689 211.03 348.592C211.133 348.495 211.255 348.42 211.388 348.373C211.522 348.325 211.663 348.306 211.804 348.316L224.834 349.433C224.952 349.442 225.067 349.475 225.173 349.529C225.278 349.583 225.371 349.658 225.447 349.748C225.524 349.839 225.581 349.944 225.616 350.057C225.651 350.17 225.663 350.289 225.651 350.407V350.407Z" fill="white"/>
<path d="M304.106 114.732C305.308 117.003 306.606 119.54 307.929 121.944C309.251 124.348 310.585 126.752 311.931 129.095C314.648 133.819 317.484 138.447 320.525 142.81L318.891 141.356C320.097 142.204 321.427 142.861 322.833 143.303C324.535 143.874 326.279 144.308 328.05 144.601C329.901 144.938 331.824 145.166 333.784 145.347C335.743 145.527 337.798 145.635 339.673 145.755H339.926C340.706 145.8 341.447 146.115 342.021 146.647C342.594 147.179 342.965 147.893 343.069 148.668C343.172 149.444 343.003 150.231 342.59 150.894C342.176 151.558 341.545 152.057 340.803 152.306C338.656 153.021 336.458 153.575 334.228 153.965C331.988 154.363 329.723 154.608 327.449 154.698C325.037 154.791 322.621 154.646 320.237 154.265C317.546 153.86 314.945 152.998 312.544 151.717C312.045 151.445 311.601 151.082 311.234 150.647L310.909 150.263C308.998 147.979 307.135 145.647 305.428 143.255C303.722 140.863 302.051 138.447 300.5 136.043C298.95 133.639 297.447 131.079 296.029 128.543C294.61 126.006 293.264 123.494 291.978 120.718C291.303 119.14 291.256 117.364 291.846 115.752C292.437 114.141 293.621 112.816 295.156 112.049C296.691 111.281 298.461 111.129 300.105 111.623C301.748 112.117 303.141 113.221 303.998 114.708L304.106 114.732Z" fill="#FFB573"/>
<path d="M297.471 105.031C305.32 107.616 306.594 111.137 310.897 124.143C308.037 131.944 296.473 135.899 296.473 135.899C296.473 135.899 282.819 113.662 297.471 105.031Z" fill="#00AC69"/>
<path d="M308.217 121.955C307.772 126.258 306.666 131.391 304.346 141.475C302.543 150.034 302.519 166.717 299.634 167.595C294.093 170.336 280.222 169.278 256.014 161.801C256.783 149.301 258.238 140.814 254.079 112.135C253.817 110.631 253.894 109.088 254.303 107.618C254.713 106.148 255.445 104.788 256.447 103.636C257.449 102.485 258.695 101.571 260.094 100.962C261.493 100.353 263.011 100.063 264.536 100.115C266.291 100.115 268.142 100.259 270.029 100.427C276.687 100.828 283.307 101.707 289.838 103.06C291.966 103.54 294.165 104.105 296.257 104.682C299.94 105.734 303.145 108.03 305.326 111.18C307.506 114.329 308.528 118.137 308.217 121.955V121.955Z" fill="#00AC69"/>
<path d="M223.476 171.67L225.88 169.47C226.327 169.061 226.67 168.551 226.879 167.982C227.088 167.413 227.158 166.802 227.082 166.201L226.421 160.467C226.294 159.34 225.901 158.26 225.274 157.315C224.647 156.37 223.804 155.588 222.815 155.034L221.613 154.349C217.322 157.727 215.17 164.53 215.17 164.53L214.341 166.405C214.158 166.784 214.053 167.196 214.031 167.616C214.01 168.036 214.071 168.456 214.213 168.852C214.356 169.248 214.575 169.612 214.859 169.922C215.143 170.233 215.485 170.484 215.867 170.66L219.557 172.343C220.206 172.62 220.921 172.703 221.616 172.584C222.311 172.464 222.957 172.147 223.476 171.67Z" fill="#FFB573"/>
<path d="M349.65 142.798L346.573 141.596C346.003 141.381 345.39 141.305 344.786 141.377C344.181 141.448 343.603 141.663 343.099 142.005L338.291 145.226C337.347 145.861 336.57 146.713 336.024 147.711C335.478 148.708 335.179 149.822 335.154 150.959V152.39C340.118 154.65 347.174 153.424 347.174 153.424L349.217 153.303C349.637 153.289 350.051 153.192 350.434 153.018C350.817 152.843 351.161 152.594 351.447 152.286C351.733 151.978 351.955 151.615 352.101 151.221C352.246 150.826 352.312 150.406 352.294 149.986L352.102 145.935C352.046 145.229 351.784 144.555 351.348 143.997C350.912 143.439 350.321 143.022 349.65 142.798Z" fill="#FFB573"/>
<path d="M261.243 116.006L259.704 116.715L258.022 117.484C256.904 118.025 255.798 118.59 254.692 119.167C252.468 120.369 250.305 121.571 248.177 122.833C246.05 124.095 243.994 125.501 241.999 126.932C240.004 128.362 238.153 129.925 236.35 131.523L237.143 130.514C236.557 131.376 236.042 132.284 235.604 133.23C235.075 134.324 234.583 135.514 234.102 136.728C233.14 139.132 232.203 141.704 231.337 144.289C230.472 146.873 229.594 149.493 228.741 152.114L226.145 160.011C225.893 160.787 225.368 161.445 224.668 161.862C223.967 162.28 223.139 162.43 222.337 162.283C221.535 162.136 220.813 161.703 220.306 161.064C219.8 160.425 219.542 159.623 219.582 158.809C219.714 155.912 219.978 153.099 220.303 150.263C220.627 147.426 221.036 144.601 221.505 141.765C221.974 138.928 222.587 136.079 223.368 133.194C223.753 131.752 224.173 130.309 224.702 128.795C225.261 127.128 225.977 125.518 226.842 123.987C226.993 123.736 227.166 123.499 227.359 123.278L227.647 122.977C229.627 120.794 231.747 118.743 233.994 116.835C236.208 114.953 238.527 113.2 240.941 111.582C243.323 109.968 245.791 108.483 248.333 107.135C249.608 106.462 250.894 105.825 252.204 105.2C252.865 104.899 253.514 104.587 254.199 104.298C254.884 104.01 255.509 103.757 256.363 103.433C258 102.778 259.828 102.793 261.454 103.475C263.08 104.156 264.373 105.449 265.054 107.075C265.735 108.701 265.751 110.53 265.096 112.166C264.441 113.803 263.17 115.117 261.555 115.825L261.243 116.006Z" fill="#FFB573"/>
<path d="M272.854 103.24C266.964 99.0208 263.382 98.5641 249.126 104.754C247.432 113.721 252.985 126.883 252.985 126.883C252.985 126.883 271.952 117.003 272.854 103.24Z" fill="#00AC69"/>
<path d="M274.393 78.2622C275.27 84.8612 275.835 96.8211 271.123 100.523C271.123 100.523 277.278 100.415 289.045 110.043C293.456 105.235 290.932 103.156 290.932 103.156C283.925 100.499 284.417 95.1984 285.944 90.3543L274.393 78.2622Z" fill="#FFB573"/>
<path d="M286.557 108.096C282.266 108.096 280.09 114.335 280.09 114.335C280.09 114.335 269.777 106.113 268.371 100.331C269.74 99.7792 271.08 99.1574 272.385 98.4683C272.385 98.4683 284.417 105.332 286.557 108.096Z" fill="white"/>
<path d="M290.667 107.94C290.667 107.94 293.913 109.142 294.983 113.95C297.182 104.79 292.891 103.348 292.891 103.348C291.816 102.542 290.479 102.165 289.141 102.29C290.018 102.903 290.652 103.804 290.931 104.837C291.21 105.87 291.117 106.969 290.667 107.94V107.94Z" fill="white"/>
<path opacity="0.2" d="M279.104 83.1904L285.932 90.4024C285.56 91.5298 285.29 92.6884 285.126 93.8642C282.434 93.1069 278.876 89.6091 278.756 86.6522C278.658 85.4866 278.776 84.313 279.104 83.1904V83.1904Z" fill="black"/>
<path d="M266.988 68.6583C269.392 78.9234 270.269 83.3107 276.436 87.9985C285.703 95.0422 297.735 90.4746 298.384 79.8489C298.961 70.2329 294.85 55.0877 283.96 52.2029C281.653 51.5092 279.202 51.4441 276.86 52.0145C274.519 52.5848 272.373 53.7699 270.643 55.4472C268.913 57.1246 267.662 59.2334 267.019 61.5559C266.377 63.8784 266.366 66.3303 266.988 68.6583V68.6583Z" fill="#FFB573"/>
<path d="M268.996 76.039C272.77 74.1879 276.772 65.0888 271.4 60.7856C275.835 61.615 280.919 60.425 285.619 56.795C291.749 51.987 300.776 63.9228 297.807 56.9152C293.528 46.8184 280.631 44.2942 268.959 52.6841C257.288 61.0741 258.117 71.2791 268.996 76.039Z" fill="#263238"/>
<path d="M265.798 73.9833C265.757 73.9792 265.719 73.9621 265.688 73.9344C265.658 73.9068 265.637 73.8701 265.629 73.8297C265.621 73.7893 265.626 73.7474 265.643 73.7102C265.661 73.6729 265.69 73.6423 265.726 73.6227C268.731 72.3246 281.484 69.608 282.025 69.4999C282.05 69.4927 282.075 69.4909 282.101 69.4944C282.126 69.498 282.15 69.5069 282.172 69.5205C282.193 69.5342 282.212 69.5522 282.226 69.5735C282.24 69.5948 282.249 69.6189 282.253 69.6441C282.261 69.6917 282.25 69.7403 282.223 69.7804C282.197 69.8204 282.156 69.849 282.109 69.8605C281.977 69.8605 268.887 72.6852 265.87 73.9713L265.798 73.9833Z" fill="white"/>
<path opacity="0.2" d="M281.268 69.7166C279.98 69.15 278.519 69.1154 277.205 69.6204C278.54 69.916 279.92 69.9486 281.268 69.7166V69.7166Z" fill="black"/>
<path opacity="0.2" d="M281.16 70.63C280.534 70.498 279.888 70.5039 279.265 70.6471C278.643 70.7903 278.058 71.0675 277.554 71.4593C278.801 71.4394 280.029 71.1568 281.16 70.63V70.63Z" fill="black"/>
<path d="M283.504 69.5716C283.672 70.4491 284.261 71.0981 284.826 71.026C285.391 70.9539 285.703 70.1966 285.535 69.3192C285.367 68.4417 284.766 67.8047 284.213 67.8648C283.66 67.9249 283.335 68.7062 283.504 69.5716Z" fill="#263238"/>
<path d="M294.057 68.43C294.225 69.2954 294.826 69.9445 295.379 69.8844C295.932 69.8243 296.257 69.043 296.089 68.1776C295.92 67.3121 295.331 66.651 294.766 66.7232C294.201 66.7953 293.889 67.5525 294.057 68.43Z" fill="#263238"/>
<path d="M294.49 66.8073L296.437 65.9419C296.437 65.9419 295.692 67.7088 294.49 66.8073Z" fill="#263238"/>
<path d="M292.086 70.1006C293.126 72.0615 294.411 73.883 295.908 75.5216C295.499 75.8657 295.018 76.1143 294.5 76.2495C293.982 76.3846 293.441 76.4029 292.915 76.3029L292.086 70.1006Z" fill="#ED893E"/>
<path d="M288.3 80.1859C288.784 80.2271 289.27 80.2271 289.754 80.1859C289.787 80.1816 289.819 80.1706 289.847 80.1535C289.876 80.1364 289.9 80.1135 289.919 80.0864C289.939 80.0593 289.952 80.0285 289.959 79.996C289.965 79.9635 289.965 79.9299 289.958 79.8974C289.947 79.8284 289.909 79.7664 289.853 79.724C289.797 79.6816 289.728 79.6619 289.658 79.669C288.57 79.8009 287.466 79.6891 286.427 79.342C285.387 78.9948 284.438 78.4209 283.648 77.6617C283.624 77.6377 283.596 77.6187 283.565 77.6057C283.534 77.5926 283.501 77.5859 283.468 77.5859C283.434 77.5859 283.401 77.5926 283.37 77.6057C283.339 77.6187 283.311 77.6377 283.287 77.6617C283.242 77.7107 283.216 77.7751 283.216 77.842C283.216 77.9089 283.242 77.9734 283.287 78.0223C284.639 79.3292 286.421 80.0984 288.3 80.1859V80.1859Z" fill="#263238"/>
<path d="M264.548 77.8536C265.127 78.6801 265.872 79.3772 266.735 79.9007C267.598 80.4242 268.56 80.7627 269.56 80.8947C272.061 81.099 272.601 78.1902 271.327 75.6059C270.185 73.286 267.505 70.3651 265.317 71.3748C263.13 72.3845 262.925 75.7261 264.548 77.8536Z" fill="#FFB573"/>
<path d="M280.126 62.9488C280.193 62.9488 280.259 62.9337 280.319 62.9046C280.38 62.8754 280.433 62.833 280.474 62.7805C280.861 62.2854 281.364 61.8935 281.939 61.6398C282.513 61.386 283.142 61.2783 283.768 61.3261C283.833 61.3362 283.899 61.3329 283.963 61.3163C284.027 61.2997 284.086 61.2702 284.138 61.2297C284.19 61.1891 284.233 61.1383 284.264 61.0805C284.296 61.0226 284.315 60.959 284.321 60.8934C284.326 60.7554 284.282 60.62 284.196 60.5119C284.11 60.4038 283.988 60.3302 283.852 60.3044C283.061 60.2343 282.265 60.3612 281.535 60.6737C280.805 60.9863 280.164 61.4747 279.669 62.0954C279.611 62.1774 279.577 62.274 279.571 62.3743C279.564 62.4747 279.586 62.5747 279.634 62.6634C279.681 62.752 279.752 62.8257 279.839 62.8761C279.926 62.9265 280.025 62.9517 280.126 62.9488V62.9488Z" fill="#263238"/>
<path d="M296.005 62.5043C296.069 62.5114 296.134 62.5055 296.196 62.4869C296.258 62.4684 296.316 62.4375 296.365 62.3961C296.413 62.3491 296.451 62.293 296.477 62.2311C296.503 62.1691 296.517 62.1027 296.517 62.0355C296.517 61.9683 296.503 61.9018 296.477 61.8399C296.451 61.778 296.413 61.7219 296.365 61.6749C295.846 61.0226 295.183 60.4989 294.429 60.1445C293.674 59.7901 292.848 59.6145 292.014 59.6315C291.948 59.6369 291.883 59.6563 291.825 59.6886C291.766 59.7209 291.716 59.7653 291.676 59.8188C291.636 59.8722 291.608 59.9336 291.594 59.9987C291.58 60.0638 291.579 60.1312 291.593 60.1964C291.614 60.3323 291.685 60.4556 291.791 60.5423C291.898 60.6289 292.033 60.6728 292.17 60.6652C292.831 60.6581 293.485 60.8029 294.081 61.0884C294.677 61.3739 295.199 61.7925 295.608 62.3119C295.656 62.3713 295.716 62.4193 295.785 62.4525C295.853 62.4858 295.928 62.5034 296.005 62.5043V62.5043Z" fill="#263238"/>
<path d="M286.761 75.0169C284.225 75.0169 282.025 72.3244 281.785 68.8747C281.639 67.2499 282.014 65.6209 282.855 64.2229C283.187 63.6304 283.655 63.1259 284.222 62.7515C284.789 62.3772 285.437 62.144 286.112 62.0714C288.769 61.8911 291.1 64.6436 291.353 68.2136C291.605 71.7835 289.646 74.8246 287.014 75.0049L286.761 75.0169ZM286.365 62.5041H286.148C285.53 62.575 284.937 62.7918 284.419 63.1366C283.9 63.4814 283.472 63.9444 283.167 64.4874C282.369 65.8171 282.015 67.3665 282.158 68.9107C282.386 72.2643 284.562 74.8486 286.966 74.6924C289.37 74.5361 291.185 71.6513 290.956 68.2977C290.728 64.9441 288.708 62.5041 286.365 62.5041Z" fill="white"/>
<path d="M298 74.3682C295.463 74.3682 293.252 71.6877 293.011 68.238C292.871 66.6136 293.246 64.9863 294.081 63.5862C294.416 62.9934 294.887 62.4889 295.455 62.1147C296.024 61.7405 296.674 61.5074 297.351 61.4346C299.983 61.2543 302.339 64.0069 302.579 67.5648C302.719 69.1892 302.345 70.8165 301.509 72.2166C301.176 72.8107 300.706 73.3162 300.137 73.6906C299.568 74.065 298.917 74.2974 298.24 74.3682H298ZM297.603 61.8073H297.375C296.756 61.8782 296.163 62.095 295.645 62.4398C295.127 62.7846 294.698 63.2476 294.394 63.7906C293.606 65.1245 293.253 66.6704 293.384 68.2139C293.612 71.4593 295.656 73.9955 298 73.9955H298.216C298.835 73.9275 299.429 73.7119 299.948 73.3668C300.467 73.0217 300.895 72.5572 301.197 72.0122C301.989 70.6844 302.342 69.1409 302.207 67.6009C301.978 64.3435 299.935 61.8073 297.603 61.8073V61.8073Z" fill="white"/>
<path d="M293.288 68.7305C293.256 68.7287 293.225 68.719 293.198 68.7022C293.17 68.6855 293.148 68.6621 293.132 68.6343C292.675 67.9131 291.341 68.6944 291.329 68.6944C291.308 68.7075 291.285 68.7163 291.262 68.7203C291.238 68.7244 291.213 68.7236 291.19 68.718C291.166 68.7124 291.144 68.7021 291.124 68.6877C291.105 68.6733 291.089 68.6552 291.076 68.6343C291.046 68.5993 291.029 68.5545 291.029 68.5081C291.029 68.4617 291.046 68.4169 291.076 68.3819C291.148 68.3819 292.735 67.3963 293.384 68.3819C293.399 68.4017 293.409 68.4245 293.414 68.4488C293.42 68.4731 293.419 68.4982 293.414 68.5223C293.408 68.5464 293.397 68.5689 293.381 68.5883C293.366 68.6077 293.346 68.6234 293.324 68.6343C293.325 68.652 293.322 68.6695 293.316 68.6861C293.309 68.7026 293.3 68.7177 293.288 68.7305V68.7305Z" fill="white"/>
<path d="M283.972 67.9491L285.908 67.0957C285.908 67.0957 285.174 68.8626 283.972 67.9491Z" fill="#263238"/>
</svg>
