<svg width="474" height="473" viewBox="0 0 474 473" fill="none" xmlns="http://www.w3.org/2000/svg">
<path d="M389.286 231.709C389.286 231.709 381.017 231.114 381.779 249.657C382.541 268.199 384.431 278.086 384.431 278.086C384.431 278.086 384.18 282.189 380.996 281.385C377.811 280.581 371.819 276.583 368.864 279.569C365.909 282.555 366.891 287.43 370.952 293.037C375.013 298.643 383.481 311.245 384.243 312.394C385.005 313.542 385.287 315.62 383.032 315.411C380.777 315.202 365.544 310.045 363.518 317.426C361.493 324.807 375.41 338.558 376.903 340.092C378.396 341.627 378.469 342.588 377.864 343.517C377.258 344.446 372.309 342.222 367.914 340.938C363.518 339.654 358.194 338.913 357.39 343.266C356.586 347.62 362.704 360.368 385.642 373.753L396.677 379.265L407.118 372.604C428.605 356.943 433.418 343.694 432.175 339.445C430.933 335.196 425.702 336.449 421.526 338.171C417.35 339.894 412.568 342.598 411.868 341.742C411.169 340.886 411.158 339.904 412.495 338.234C413.831 336.563 426.287 321.529 423.541 314.346C420.795 307.163 406.147 313.866 403.923 314.294C401.699 314.722 401.783 312.602 402.409 311.412C403.036 310.222 410.219 296.796 413.706 290.824C417.193 284.852 417.809 279.986 414.447 277.251C411.085 274.515 405.635 279.151 402.555 280.279C399.475 281.406 398.807 277.324 398.807 277.324C398.807 277.324 399.705 267.311 398.609 248.78C397.513 230.248 389.16 231.709 389.16 231.709" fill="#EBEBEB"/>
<path d="M389.933 248.32C389.933 248.32 389.933 248.446 389.933 248.707C389.933 248.968 389.985 249.354 390.027 249.845C390.089 250.889 390.194 252.34 390.319 254.219C390.57 258.03 390.904 263.532 391.279 270.339C392.031 283.912 392.919 302.757 393.827 323.534C394.735 344.311 395.571 363.135 396.249 376.781C396.594 383.577 396.876 389.079 397.064 392.901C397.158 394.79 397.231 396.263 397.283 397.286C397.283 397.776 397.283 398.152 397.335 398.434C397.342 398.563 397.342 398.692 397.335 398.821C397.335 398.821 397.335 398.685 397.335 398.434C397.335 398.184 397.283 397.776 397.241 397.296C397.178 396.252 397.074 394.801 396.949 392.911C396.688 389.111 396.364 383.609 395.988 376.801C395.236 363.229 394.349 344.373 393.441 323.555C392.532 302.736 391.697 283.964 391.018 270.308C390.674 263.522 390.392 258.02 390.194 254.188C390.11 252.298 390.027 250.826 389.985 249.803C389.985 249.323 389.985 248.936 389.933 248.665C389.927 248.55 389.927 248.435 389.933 248.32V248.32Z" fill="#E0E0E0"/>
<path d="M377.018 285.509C377.27 285.668 377.502 285.857 377.707 286.073C378.135 286.459 378.751 287.044 379.461 287.754C380.912 289.205 382.875 291.252 384.994 293.548L390.392 299.447L392.031 301.233C392.249 301.435 392.442 301.663 392.606 301.911C392.353 301.753 392.122 301.564 391.916 301.348C391.488 300.961 390.872 300.387 390.173 299.656C388.732 298.195 386.801 296.127 384.681 293.83L379.242 287.963L377.592 286.188C377.374 285.985 377.182 285.757 377.018 285.509V285.509Z" fill="#E0E0E0"/>
<path d="M393.702 301.546C393.618 301.462 397.648 297.244 402.712 292.149C407.776 287.054 411.941 282.93 412.025 283.014C412.108 283.097 408.078 287.315 403.015 292.41C397.951 297.505 393.785 301.629 393.702 301.546Z" fill="#E0E0E0"/>
<path d="M393.65 333.525C393.889 333.334 394.148 333.17 394.422 333.035L396.583 331.823C398.4 330.779 400.916 329.38 403.631 327.71C406.345 326.039 408.757 324.463 410.49 323.294L412.578 321.926C412.822 321.743 413.085 321.585 413.361 321.456C413.361 321.456 413.132 321.696 412.672 322.062C412.213 322.427 411.545 322.928 410.689 323.544C408.997 324.776 406.606 326.405 403.881 328.075C401.156 329.746 398.661 331.134 396.75 332.085C395.821 332.565 395.059 332.941 394.527 333.181C394.253 333.339 393.958 333.455 393.65 333.525V333.525Z" fill="#E0E0E0"/>
<path d="M375.368 322.333C375.641 322.42 375.9 322.543 376.141 322.698C376.611 322.949 377.3 323.325 378.135 323.805C379.816 324.755 382.123 326.102 384.66 327.605C387.197 329.109 389.473 330.498 391.112 331.521C391.937 332.032 392.595 332.45 393.044 332.753C393.29 332.886 393.518 333.051 393.723 333.243C393.452 333.166 393.194 333.046 392.96 332.888C392.48 332.638 391.802 332.252 390.956 331.782C389.285 330.821 386.978 329.485 384.441 327.971C381.904 326.457 379.628 325.079 377.989 324.066C377.164 323.555 376.506 323.137 376.057 322.834C375.804 322.702 375.572 322.533 375.368 322.333V322.333Z" fill="#E0E0E0"/>
<path d="M371.745 350.564C372.088 350.677 372.415 350.835 372.716 351.034L375.285 352.443C377.446 353.654 380.411 355.356 383.637 357.256C386.863 359.157 389.849 360.9 391.99 362.174L394.495 363.709C394.811 363.884 395.108 364.09 395.383 364.325C395.044 364.2 394.719 364.043 394.412 363.855L391.843 362.435C389.682 361.224 386.707 359.522 383.491 357.622C380.275 355.722 377.279 353.978 375.139 352.704L372.633 351.17C372.319 350.995 372.022 350.793 371.745 350.564V350.564Z" fill="#E0E0E0"/>
<path d="M394.923 363.834C395.227 363.595 395.548 363.378 395.884 363.187L398.567 361.558C400.832 360.18 403.954 358.259 407.337 356.056C410.72 353.853 413.747 351.775 415.919 350.261L418.498 348.466C418.805 348.23 419.134 348.024 419.479 347.85C419.205 348.124 418.908 348.376 418.592 348.601C418.018 349.061 417.161 349.708 416.096 350.502C414.008 352.078 410.97 354.197 407.567 356.411C404.163 358.624 401.02 360.504 398.723 361.819C397.565 362.466 396.635 362.988 395.967 363.333C395.635 363.531 395.285 363.699 394.923 363.834V363.834Z" fill="#E0E0E0"/>
<path d="M411.513 382.878H380.985L390.945 458.3H401.542L411.513 382.878Z" fill="#E0E0E0"/>
<path d="M382.562 392.159C382.562 392.159 382.562 392.264 382.729 392.431C382.931 392.66 383.185 392.839 383.47 392.953C384 393.137 384.566 393.198 385.124 393.129C385.682 393.06 386.216 392.864 386.686 392.556C387.928 391.877 388.993 390.541 390.653 389.956C392.481 389.366 394.454 389.402 396.259 390.061C398.095 390.693 399.848 391.545 401.48 392.598C402.846 393.447 404.265 394.208 405.729 394.874C406.725 395.323 407.78 395.629 408.861 395.782C409.155 395.828 409.452 395.849 409.749 395.845C409.957 395.845 410.062 395.845 410.062 395.845C408.618 395.623 407.213 395.201 405.886 394.592C404.448 393.888 403.054 393.1 401.709 392.232C400.052 391.14 398.263 390.263 396.385 389.622C394.476 388.929 392.388 388.907 390.465 389.56C389.648 389.889 388.892 390.355 388.231 390.938C387.681 391.426 387.098 391.876 386.487 392.284C386.058 392.58 385.57 392.78 385.056 392.87C384.543 392.961 384.016 392.939 383.512 392.807C383.16 392.648 382.838 392.429 382.562 392.159V392.159Z" fill="#F5F5F5"/>
<path d="M383.679 406.045C383.679 406.045 383.919 405.732 384.399 405.231C385.095 404.549 385.928 404.022 386.842 403.686C388.199 403.193 389.64 402.976 391.081 403.049C392.866 403.177 394.641 403.418 396.396 403.769C398.188 404.112 400.02 404.189 401.835 403.999C403.314 403.802 404.756 403.391 406.116 402.777C407.027 402.364 407.889 401.849 408.684 401.243C408.992 401.043 409.267 400.796 409.498 400.512C408.372 401.246 407.193 401.895 405.969 402.454C404.631 402.99 403.226 403.341 401.793 403.498C400.022 403.66 398.236 403.573 396.489 403.237C394.715 402.886 392.918 402.656 391.113 402.548C389.609 402.494 388.112 402.757 386.717 403.32C385.773 403.7 384.932 404.297 384.264 405.064C384.091 405.272 383.937 405.496 383.804 405.732C383.743 405.828 383.701 405.934 383.679 406.045V406.045Z" fill="#F5F5F5"/>
<path d="M408.058 413.479C407.806 413.28 407.519 413.132 407.212 413.04C406.401 412.736 405.55 412.553 404.685 412.498C403.404 412.418 402.118 412.491 400.854 412.717C399.434 412.946 397.909 413.343 396.302 413.677C394.814 414.032 393.289 414.204 391.76 414.189C390.518 414.158 389.293 413.896 388.148 413.416C387.107 412.93 386.176 412.237 385.412 411.38C385.525 411.678 385.699 411.948 385.924 412.174C386.508 412.827 387.218 413.356 388.012 413.729C389.183 414.285 390.454 414.598 391.75 414.648C393.319 414.693 394.888 414.531 396.416 414.168C398.035 413.823 399.549 413.416 400.948 413.124C402.175 412.888 403.425 412.783 404.675 412.811C405.826 412.891 406.962 413.115 408.058 413.479V413.479Z" fill="#F5F5F5"/>
<path d="M386.383 423.94C387.312 423.534 388.345 423.428 389.338 423.638C390.423 423.902 391.474 424.291 392.47 424.797C394.255 425.644 396.223 426.034 398.197 425.932C400.171 425.83 402.088 425.239 403.777 424.212C404.435 423.814 405.048 423.345 405.604 422.813C405.81 422.623 405.99 422.405 406.136 422.166C405.331 422.798 404.487 423.38 403.61 423.909C401.444 425.091 398.98 425.613 396.521 425.413C393.629 425.245 391.415 423.523 389.411 423.324C388.631 423.17 387.824 423.224 387.072 423.481C386.581 423.69 386.362 423.92 386.383 423.94Z" fill="#F5F5F5"/>
<path d="M388.116 438.411C388.992 438.44 389.863 438.268 390.663 437.91C392.198 437.398 394.098 436.218 396.322 435.341C397.35 434.916 398.447 434.686 399.559 434.663C400.463 434.657 401.356 434.861 402.169 435.258C402.905 435.66 403.548 436.211 404.059 436.876C404.014 436.643 403.914 436.425 403.766 436.239C403.399 435.7 402.909 435.256 402.336 434.944C401.488 434.476 400.538 434.222 399.569 434.203C398.395 434.202 397.232 434.429 396.145 434.871C393.837 435.79 391.969 436.959 390.538 437.575C389.108 438.191 388.116 438.338 388.116 438.411Z" fill="#F5F5F5"/>
<path d="M389.578 445.145C390.186 445.454 390.837 445.668 391.509 445.782C393.1 446.162 394.715 446.435 396.343 446.596C397.971 446.754 399.607 446.799 401.24 446.732C401.92 446.746 402.598 446.665 403.255 446.492C403.255 446.346 400.123 446.492 396.385 446.095C392.647 445.699 389.609 444.999 389.578 445.145Z" fill="#F5F5F5"/>
<path d="M143.54 108.112L53.991 129.396L85.2362 260.855L174.785 239.571L143.54 108.112Z" fill="#E0E0E0"/>
<path d="M136.569 104.234L47.02 125.518L78.2653 256.977L167.814 235.693L136.569 104.234Z" fill="#EBEBEB"/>
<path d="M129.378 103.062L39.8286 124.346L70.4775 253.296L160.027 232.012L129.378 103.062Z" fill="#F5F5F5"/>
<path d="M128.262 239.571C128.262 239.571 149.143 225.34 154.269 208.782C152.061 211.258 149.374 213.261 146.37 214.67C143.366 216.079 140.108 216.864 136.792 216.978C136.792 216.978 134.568 234.685 128.262 239.571Z" fill="#EBEBEB"/>
<path d="M128.742 137.411C128.742 137.557 112.883 141.451 93.2442 146.118C73.6056 150.785 57.6525 154.47 57.6211 154.303C57.5898 154.136 73.4803 150.263 93.1189 145.596C112.758 140.929 128.711 137.254 128.742 137.411Z" fill="#E0E0E0"/>
<path d="M130.966 146.807C130.966 146.953 115.107 150.858 95.4681 155.514C75.8295 160.171 59.8763 163.867 59.845 163.7C59.8137 163.533 75.7042 159.659 95.3428 154.992C114.981 150.325 130.924 146.609 130.966 146.807Z" fill="#E0E0E0"/>
<path d="M133.19 156.11C133.19 156.256 117.33 160.161 97.6917 164.828C78.0531 169.494 62.1 173.18 62.0686 173.013C62.0373 172.846 77.9174 168.962 97.5664 164.295C117.216 159.628 133.148 155.964 133.19 156.11Z" fill="#E0E0E0"/>
<path d="M135.455 165.464C135.455 165.61 119.596 169.515 99.9576 174.182C80.319 178.849 64.3658 182.534 64.3345 182.367C64.3032 182.2 80.1832 178.316 99.8323 173.65C119.481 168.983 135.372 165.318 135.455 165.464Z" fill="#E0E0E0"/>
<path d="M137.637 174.819C137.637 174.965 121.778 178.87 102.139 183.537C82.5007 188.203 66.5476 191.868 66.5476 191.701C66.5476 191.534 82.3963 187.65 102.045 182.983C121.694 178.316 137.595 174.673 137.637 174.819Z" fill="#E0E0E0"/>
<path d="M139.861 184.174C139.861 184.32 124.002 188.225 104.363 192.892C84.7248 197.558 68.7821 201.244 68.7508 201.077C68.7195 200.91 84.5995 197.026 104.249 192.359C123.898 187.692 139.819 184.027 139.861 184.174Z" fill="#E0E0E0"/>
<path d="M142.085 193.528C142.085 193.674 126.226 197.579 106.587 202.246C86.9487 206.913 71.006 210.598 70.9747 210.431C70.9433 210.264 86.8234 206.38 106.472 201.714C126.122 197.047 142.043 193.382 142.085 193.528Z" fill="#E0E0E0"/>
<path d="M144.309 202.893C144.309 203.04 128.45 206.934 108.811 211.601C89.1723 216.268 73.2296 219.953 73.1983 219.786C73.167 219.619 89.047 215.735 108.696 211.068C128.345 206.401 144.267 202.747 144.309 202.893Z" fill="#E0E0E0"/>
<path d="M474 458.206C474 458.352 367.882 458.477 237 458.477C106.118 458.477 0 458.352 0 458.206C0 458.06 106.107 457.935 237 457.935C367.893 457.935 474 458.049 474 458.206Z" fill="#263238"/>
<path d="M203.747 421.717L201.314 448.539L193.265 469.2C193.127 469.552 193.063 469.929 193.078 470.307C193.092 470.684 193.183 471.055 193.347 471.396C193.511 471.737 193.742 472.04 194.028 472.287C194.314 472.535 194.648 472.721 195.008 472.834V472.834C195.428 472.969 195.874 473 196.308 472.926C196.743 472.851 197.153 472.673 197.503 472.406C202.035 468.95 218.635 456.171 218.708 454.197C218.792 451.911 223.156 426.06 223.156 426.06L203.747 421.717Z" fill="#F4A100"/>
<g opacity="0.6">
<path opacity="0.6" d="M194.967 472.844L218.875 452.401L218.74 453.529C218.635 454.512 218.179 455.424 217.455 456.097C215.534 457.904 210.147 462.769 197.545 472.426C197.184 472.704 196.759 472.887 196.309 472.96C195.859 473.033 195.397 472.993 194.967 472.844V472.844Z" fill="white"/>
</g>
<g opacity="0.6">
<path opacity="0.6" d="M214.407 443.14C214.057 443.345 213.793 443.669 213.664 444.053C213.535 444.437 213.551 444.855 213.707 445.229C213.895 445.594 214.218 445.874 214.607 446.008C214.996 446.142 215.421 446.121 215.795 445.949C216.173 445.731 216.456 445.381 216.591 444.967C216.726 444.552 216.703 444.103 216.526 443.704C216.289 443.344 215.921 443.091 215.5 442.997C215.079 442.904 214.638 442.977 214.271 443.203" fill="white"/>
</g>
<path d="M202.463 461.85C201.924 460.94 201.215 460.142 200.374 459.5C199.438 458.998 198.414 458.679 197.357 458.561C197.357 458.488 197.702 458.321 198.339 458.3C199.176 458.302 199.995 458.545 200.698 458.999C201.401 459.447 201.959 460.089 202.306 460.847C202.536 461.432 202.536 461.829 202.463 461.85Z" fill="#263238"/>
<path d="M200.187 465.243C200.051 465.347 199.289 464.376 197.953 463.823C197.105 463.564 196.244 463.351 195.374 463.186C195.816 462.977 196.301 462.876 196.789 462.893C197.278 462.909 197.755 463.042 198.182 463.28C199.665 463.886 200.291 465.159 200.187 465.243Z" fill="#263238"/>
<path d="M206.535 457.652C205.495 456.762 204.388 455.952 203.225 455.23C201.974 454.673 200.683 454.212 199.362 453.852C200.795 453.736 202.232 454.033 203.503 454.706C204.773 455.379 205.825 456.402 206.535 457.652Z" fill="#263238"/>
<path d="M207.954 449.582C207.871 449.739 206.461 448.945 204.54 448.663C202.619 448.381 201.053 448.663 201.011 448.486C202.16 448.026 203.412 447.886 204.634 448.079C205.856 448.272 207.003 448.791 207.954 449.582V449.582Z" fill="#263238"/>
<path d="M208.873 441.71C207.751 441.199 206.564 440.848 205.344 440.666C204.11 440.665 202.881 440.83 201.69 441.157C201.69 441.094 201.983 440.791 202.64 440.509C203.511 440.153 204.453 440.006 205.39 440.08C206.328 440.155 207.235 440.448 208.038 440.937C208.644 441.303 208.925 441.647 208.873 441.71Z" fill="#263238"/>
<path d="M205.564 439.142C205.515 438.792 205.543 438.435 205.647 438.098C205.84 437.179 206.217 436.309 206.754 435.54C207.097 434.943 207.625 434.475 208.257 434.203C208.474 434.135 208.707 434.136 208.924 434.205C209.141 434.274 209.331 434.409 209.468 434.59C209.716 434.961 209.82 435.41 209.761 435.853C209.594 436.744 209.123 437.55 208.428 438.133C207.733 438.716 206.857 439.039 205.95 439.048C205.049 439.043 204.17 438.769 203.426 438.261C202.682 437.753 202.107 437.035 201.774 436.197C201.69 435.986 201.654 435.759 201.666 435.532C201.679 435.305 201.74 435.083 201.847 434.882C201.97 434.688 202.153 434.54 202.368 434.461C202.583 434.382 202.818 434.376 203.037 434.443C203.68 434.662 204.253 435.047 204.697 435.561C205.362 436.221 205.903 436.995 206.294 437.847C206.458 438.148 206.561 438.478 206.597 438.818C206.013 437.735 205.278 436.74 204.415 435.863C204.008 435.435 203.503 435.113 202.943 434.924C202.822 434.886 202.692 434.888 202.573 434.932C202.454 434.975 202.353 435.057 202.285 435.164C202.228 435.299 202.198 435.445 202.198 435.592C202.198 435.739 202.228 435.885 202.285 436.02C202.594 436.731 203.1 437.339 203.744 437.77C204.389 438.202 205.143 438.438 205.919 438.453C206.684 438.442 207.423 438.174 208.016 437.69C208.609 437.207 209.022 436.537 209.186 435.79C209.24 435.484 209.181 435.169 209.019 434.903C208.946 434.799 208.842 434.722 208.722 434.68C208.602 434.639 208.473 434.637 208.351 434.673C207.817 434.907 207.366 435.296 207.057 435.79C206.368 436.812 205.862 437.946 205.564 439.142V439.142Z" fill="#263238"/>
<path d="M308.539 161.142C308.566 161.258 308.566 161.38 308.539 161.497C308.09 163.136 305.271 169.995 304.31 169.964C303.35 169.933 301.094 168.46 301.293 167.479C301.491 166.498 305.093 158.96 305.093 158.96C305.093 158.96 305.74 157.811 307.912 158.323C308.173 158.396 308.476 161.424 308.539 161.142Z" fill="#EB996E"/>
<path d="M304.968 157.049C304.968 157.049 304.968 157.195 304.916 157.394C304.456 159.043 301.648 165.903 300.687 165.861C299.727 165.819 297.472 164.357 297.67 163.387C297.868 162.416 301.47 154.867 301.47 154.867C301.47 154.867 302.118 153.708 304.289 154.22C305.636 154.533 304.968 157.049 304.968 157.049Z" fill="#EB996E"/>
<path d="M301.815 154.209C301.815 154.209 301.815 154.356 301.815 154.554C301.366 156.204 298.547 163.063 297.587 163.021C296.626 162.979 294.371 161.518 294.569 160.547C294.768 159.576 298.328 152.027 298.328 152.027C298.192 152.267 298.015 150.649 301.147 151.38C302.504 151.693 301.815 154.209 301.815 154.209Z" fill="#EB996E"/>
<path d="M297.837 151.474C297.837 151.474 297.837 151.62 297.837 151.818C297.388 153.468 294.569 160.317 293.609 160.286C292.648 160.254 290.393 158.782 290.591 157.811C290.79 156.84 294.392 149.292 294.392 149.292C294.392 149.292 295.039 148.133 297.211 148.645C298.495 148.958 297.837 151.474 297.837 151.474Z" fill="#EB996E"/>
<path d="M302.003 165.453C302.678 164.449 303.229 163.365 303.642 162.227C304.187 161.16 304.59 160.026 304.843 158.855C304.164 159.862 303.613 160.949 303.203 162.092C302.652 163.152 302.248 164.283 302.003 165.453V165.453Z" fill="#D1734A"/>
<path d="M297.92 163.877C298.82 162.411 299.579 160.862 300.186 159.252C300.938 157.708 301.553 156.101 302.024 154.449C301.128 155.918 300.37 157.467 299.758 159.074C299.006 160.618 298.391 162.225 297.92 163.877V163.877Z" fill="#D1734A"/>
<g opacity="0.78">
<path opacity="0.78" d="M293.922 161.914C294.839 160.435 295.615 158.873 296.239 157.247C296.995 155.705 297.61 154.098 298.077 152.445C297.188 153.914 296.43 155.458 295.811 157.06C295.04 158.619 294.408 160.244 293.922 161.914V161.914Z" fill="#D1734A"/>
</g>
<path d="M303.423 174.996C303.59 174.589 306.325 166.467 306.325 166.467L290.664 158.751C289.871 159.795 287.459 171.186 287.459 171.186L288.013 175.07C288.013 175.07 299.894 181.898 300.218 181.96C300.541 182.023 303.423 174.996 303.423 174.996Z" fill="#EB996E"/>
<path d="M291.186 171.488L289.589 165.6C288.894 163.013 289.219 160.259 290.497 157.905L291.479 156.109L304.78 162.165C304.78 162.165 301.7 166.529 298.317 164.169L300.917 169.223L291.186 171.488Z" fill="#EB996E"/>
<path d="M299.769 169.703C299.696 169.703 299.769 169.014 299.581 167.855C299.259 166.259 298.364 164.837 297.065 163.856L295.833 162.948L297.315 163.355L300.74 164.315H300.667C301.412 164.413 302.17 164.298 302.852 163.982C303.534 163.665 304.112 163.162 304.519 162.53C304.581 162.432 304.63 162.327 304.665 162.217L304.864 162.635C301.032 161.079 297.555 159.628 295.175 158.458C293.964 157.863 292.993 157.352 292.345 156.986C291.987 156.823 291.655 156.605 291.364 156.339C292.73 156.827 294.068 157.388 295.373 158.02C297.827 159.064 301.283 160.473 305.125 162.029L305.417 162.144L305.313 162.447C305.265 162.595 305.202 162.739 305.125 162.875C304.669 163.679 303.95 164.302 303.089 164.639C302.307 164.935 301.468 165.052 300.635 164.984H300.562L297.159 163.94L297.409 163.438C298.783 164.521 299.679 166.099 299.904 167.834C300.026 168.458 299.979 169.103 299.769 169.703Z" fill="#D1734A"/>
<path d="M302.963 163.804C303.099 163.804 302.869 164.535 303.078 165.495C303.121 165.757 303.244 165.998 303.432 166.186C303.619 166.373 303.861 166.497 304.122 166.539C304.452 166.517 304.77 166.409 305.044 166.226C305.319 166.043 305.541 165.791 305.688 165.495C306.492 164.086 307.317 162.802 307.776 161.862C308.236 160.922 308.528 160.296 308.622 160.327C308.716 160.359 308.622 161.027 308.215 162.071C307.636 163.381 306.969 164.65 306.221 165.871C306.016 166.273 305.703 166.609 305.318 166.843C304.932 167.078 304.49 167.2 304.039 167.197C303.656 167.128 303.308 166.934 303.049 166.644C302.79 166.355 302.635 165.987 302.608 165.6C302.544 165.144 302.587 164.679 302.734 164.242C302.838 163.95 302.922 163.794 302.963 163.804Z" fill="#D1734A"/>
<path d="M248.725 94.3747L244.141 141.357C243.964 143.156 243.088 144.813 241.702 145.972C240.316 147.132 238.53 147.701 236.729 147.559L225.943 146.692C224.141 146.548 222.467 145.701 221.284 144.334C220.1 142.966 219.501 141.189 219.617 139.384C219.961 133.746 220.504 126.855 220.504 126.855C220.504 126.855 210.471 125.3 210.345 115.266C210.283 110.464 210.961 100.649 211.682 91.6811C212.065 86.9192 214.228 82.4764 217.739 79.2375C221.251 75.9986 225.854 74.2013 230.631 74.2036H231.299C233.78 74.3491 236.207 74.9908 238.436 76.0907C240.664 77.1906 242.65 78.7263 244.274 80.607C245.899 82.4877 247.13 84.6752 247.895 87.04C248.659 89.4048 248.941 91.8989 248.725 94.3747V94.3747Z" fill="#EB996E"/>
<path d="M220.483 126.74C225.127 126.837 229.694 125.543 233.596 123.023C233.596 123.023 230.464 130.248 220.494 129.34L220.483 126.74Z" fill="#D1734A"/>
<path d="M213.853 99.1247C214.031 99.3127 215.117 98.5087 216.662 98.5192C218.207 98.5296 219.335 99.2918 219.502 99.1038C219.669 98.9159 219.397 98.6758 218.907 98.3208C218.241 97.8603 217.45 97.616 216.641 97.6213C215.838 97.613 215.054 97.8658 214.407 98.3417C213.927 98.7071 213.759 99.0412 213.853 99.1247Z" fill="#263238"/>
<path d="M228.961 99.1246C229.138 99.3126 230.224 98.5086 231.769 98.5191C233.315 98.5295 234.432 99.2917 234.609 99.1038C234.787 98.9158 234.505 98.6757 234.014 98.3207C233.344 97.8624 232.55 97.6185 231.738 97.6212C230.935 97.6152 230.152 97.8677 229.504 98.3416C229.034 98.707 228.877 99.0411 228.961 99.1246Z" fill="#263238"/>
<path d="M223.417 108.062C222.604 107.804 221.762 107.65 220.911 107.603C220.514 107.603 220.149 107.488 220.076 107.216C220.041 106.811 220.137 106.405 220.347 106.058C220.713 105.097 221.099 104.105 221.506 103.051C223.125 98.7909 224.294 95.2725 224.127 95.2098C223.96 95.1472 222.498 98.5612 220.88 102.831L219.763 105.838C219.52 106.315 219.45 106.861 219.564 107.383C219.624 107.522 219.712 107.646 219.824 107.747C219.936 107.848 220.068 107.923 220.212 107.968C220.43 108.024 220.655 108.052 220.88 108.052C221.722 108.157 222.574 108.16 223.417 108.062Z" fill="#263238"/>
<path d="M227.959 109.127C227.708 109.127 227.698 110.787 226.267 111.977C224.837 113.168 223.052 113.021 223.041 113.209C223.031 113.397 223.438 113.533 224.19 113.554C225.171 113.572 226.126 113.239 226.883 112.614C227.614 112.023 228.083 111.168 228.188 110.234C228.251 109.534 228.074 109.117 227.959 109.127Z" fill="#263238"/>
<path d="M228.616 90.5846C228.762 91.0023 230.307 90.8039 232.114 91.0231C233.92 91.2424 235.382 91.7331 235.622 91.3572C235.737 91.1797 235.476 90.783 234.891 90.3758C234.103 89.8791 233.212 89.5684 232.286 89.4671C231.359 89.3658 230.422 89.4766 229.545 89.7912C228.888 90.0522 228.553 90.428 228.616 90.5846Z" fill="#263238"/>
<path d="M214.428 91.8793C214.699 92.2238 215.754 91.8793 217.038 91.8793C218.322 91.8793 219.397 92.109 219.637 91.7436C219.752 91.5661 219.637 91.2215 219.105 90.8874C218.474 90.4954 217.741 90.2983 216.998 90.3205C216.255 90.3428 215.535 90.5836 214.929 91.0127C214.449 91.3468 214.302 91.7018 214.428 91.8793Z" fill="#263238"/>
<path d="M237.825 83.37H237.888C239.486 84.6311 240.537 86.4596 240.821 88.4754C240.816 88.5414 240.816 88.6077 240.821 88.6737C241.218 91.5345 241.145 94.4474 241.563 97.3081C241.832 100.209 243.072 102.935 245.081 105.044C245.948 105.848 247.482 106.412 248.213 105.462C248.447 105.063 248.569 104.609 248.568 104.147C249.101 97.235 250.99 91.1064 250.98 83.8816C250.98 82.9142 250.751 81.9605 250.312 81.0986C249.873 80.2366 249.236 79.4909 248.453 78.9223C246.94 77.8782 245.092 76.7193 243.411 77.5128C241.73 78.3063 239.548 81.4593 238.243 82.7331" fill="#263238"/>
<path d="M245.342 98.9055C245.509 98.8324 252.233 96.8174 252.014 103.729C251.794 110.641 244.956 108.949 244.945 108.761C244.935 108.573 245.342 98.9055 245.342 98.9055Z" fill="#EB996E"/>
<path d="M247.169 106.224C247.169 106.224 247.284 106.308 247.482 106.412C247.77 106.527 248.092 106.527 248.38 106.412C248.831 106.147 249.203 105.766 249.459 105.309C249.714 104.852 249.842 104.336 249.831 103.813C249.866 103.224 249.77 102.636 249.549 102.09C249.492 101.874 249.383 101.675 249.232 101.509C249.081 101.344 248.893 101.217 248.683 101.14C248.546 101.099 248.4 101.107 248.269 101.162C248.137 101.217 248.029 101.317 247.963 101.443C247.869 101.63 247.9 101.777 247.869 101.787C247.837 101.797 247.722 101.662 247.785 101.38C247.83 101.213 247.929 101.067 248.067 100.962C248.263 100.83 248.501 100.774 248.735 100.806C249.017 100.87 249.277 101.005 249.491 101.199C249.705 101.393 249.865 101.638 249.957 101.912C250.224 102.516 250.343 103.175 250.301 103.833C250.313 104.445 250.145 105.047 249.819 105.565C249.492 106.083 249.021 106.493 248.464 106.746C248.284 106.785 248.098 106.785 247.918 106.747C247.739 106.709 247.569 106.634 247.42 106.527C247.169 106.391 247.096 106.235 247.169 106.224Z" fill="#D1734A"/>
<path d="M243.661 78.6095C245.353 75.8741 240.717 71.9275 237.334 70.8626C233.952 69.7977 229.493 71.4473 226.121 72.5644C224.033 73.2639 221.882 74.2558 219.638 74.1618C218.143 74.0109 216.679 73.6379 215.294 73.0551C213.903 72.4699 212.408 72.175 210.899 72.1886C210.147 72.2039 209.413 72.4252 208.778 72.8283C208.143 73.2315 207.631 73.801 207.297 74.475C207.153 74.8164 207.085 75.1847 207.096 75.5549C207.108 75.9252 207.199 76.2886 207.363 76.6204C207.527 76.9523 207.762 77.2449 208.049 77.4782C208.337 77.7115 208.671 77.8802 209.03 77.9726C208.552 77.7143 208.019 77.5752 207.476 77.5673C206.932 77.5595 206.395 77.6829 205.91 77.9273C205.425 78.1716 205.006 78.5296 204.688 78.9707C204.371 79.4118 204.165 79.923 204.088 80.4608C204.011 80.9986 204.065 81.5471 204.246 82.0595C204.426 82.572 204.728 83.0332 205.125 83.404C205.522 83.7748 206.003 84.0442 206.526 84.1892C207.05 84.3342 207.601 84.3506 208.132 84.2369C207.151 83.4956 205.658 84.7172 205.783 85.9387C205.913 86.5379 206.198 87.0928 206.608 87.5486C207.018 88.0045 207.54 88.3456 208.122 88.5384C210.982 89.7913 214.323 89.3946 217.278 88.3923C220.233 87.39 222.989 85.8448 225.923 84.7798C228.857 83.7149 233.774 81.7834 236.718 82.8275C238.89 83.5896 240.404 86.1997 241.625 85.6255C242.203 85.3183 242.701 84.8794 243.078 84.3444C243.456 83.8094 243.702 83.1932 243.797 82.5456C243.96 81.2416 243.915 79.9199 243.661 78.6304" fill="#263238"/>
<path d="M208.195 77.7845C208.257 77.7845 208.55 78.2961 209.291 79.0896C210.342 80.2061 211.65 81.0485 213.102 81.5431C215.23 82.3177 217.578 82.224 219.637 81.2821C221.976 80.2381 223.97 78.1499 226.267 76.1767C228.401 74.1837 231.093 72.8905 233.983 72.4703C235.177 72.3266 236.388 72.4568 237.524 72.8512C238.66 73.2456 239.691 73.8937 240.539 74.7463C241.083 75.3435 241.501 76.0442 241.769 76.8066C242.036 77.569 242.147 78.3774 242.095 79.1836C242.051 79.612 241.953 80.033 241.803 80.4364C241.677 80.7079 241.594 80.8436 241.573 80.8332C241.705 80.2844 241.793 79.7257 241.834 79.1627C241.836 77.636 241.245 76.1682 240.184 75.07C239.372 74.3056 238.399 73.7319 237.337 73.3906C236.276 73.0493 235.151 72.9489 234.045 73.0967C231.304 73.5396 228.758 74.7943 226.737 76.6987C224.482 78.6198 222.425 80.7705 219.93 81.8563C218.09 82.6449 216.044 82.8189 214.098 82.3524C212.151 81.8859 210.407 80.8039 209.124 79.2671C208.854 78.9406 208.613 78.5913 208.403 78.223C208.236 77.8994 208.174 77.795 208.195 77.7845Z" fill="#455A64"/>
<path d="M247.086 98.6135C247.086 98.6135 246.793 98.4256 246.532 97.8723C246.189 97.0921 246.069 96.2316 246.188 95.3874C246.344 93.1845 248.276 90.804 248.547 87.7554C248.718 86.3453 248.452 84.9169 247.785 83.6627C247.2 82.6696 246.305 81.8958 245.238 81.4598C244.512 81.1575 243.721 81.0495 242.941 81.1465C242.398 81.2301 242.095 81.3658 242.074 81.3136C242.053 81.2614 242.314 81.063 242.889 80.8855C243.721 80.6778 244.597 80.7214 245.405 81.0108C246.616 81.4265 247.645 82.2493 248.318 83.339C249.093 84.6959 249.408 86.2672 249.215 87.818C249.043 89.3266 248.597 90.7912 247.9 92.1404C247.332 93.1823 246.917 94.3005 246.668 95.4605C246.483 96.5295 246.628 97.6296 247.086 98.6135Z" fill="#455A64"/>
<path d="M187.971 49.4591C187.606 49.1563 186.311 37.9745 186.311 37.9745L195.708 32.4619L210.324 35.8342L207.391 44.0196L192.377 51.8917L187.971 49.4591Z" fill="#EB996E"/>
<path d="M158.905 58.3028C158.905 58.3028 182.521 46.0247 197.671 44.4169C214.49 42.6211 231.446 52.6336 231.446 52.6336L228.094 8.27176C228.094 8.27176 212.277 -3.53648 192.158 1.48541C175.098 5.74515 158.028 14.014 158.028 14.014L158.905 58.3028Z" fill="#FAFAFA"/>
<path d="M158.905 58.3025V57.5404L158.842 55.2539C158.79 53.1658 158.717 50.2425 158.612 46.4317C158.435 38.7161 158.174 27.6387 157.85 14.066V13.9303L157.976 13.8677C162.496 11.7795 167.424 9.60792 172.728 7.60334C178.298 5.39883 183.978 3.48563 189.746 1.87149L192.022 1.26594L194.371 0.785674C195.957 0.463193 197.561 0.236572 199.174 0.10704C202.489 -0.120983 205.818 0.0155611 209.103 0.51422C212.48 1.0559 215.79 1.95176 218.98 3.18699C222.267 4.4379 225.397 6.07086 228.303 8.05228L228.397 8.11493V8.25065C228.397 8.67871 228.47 9.14854 228.501 9.60792C229.639 24.8198 230.736 39.3634 231.728 52.6125V53.0823L231.31 52.8526C226.598 50.2583 221.616 48.1891 216.453 46.6822C211.762 45.2964 206.904 44.5588 202.014 44.4897C197.675 44.5169 193.361 45.1422 189.193 46.3481C185.288 47.3922 181.759 48.6242 178.585 49.8039C172.258 52.1948 167.362 54.3978 164.021 55.943L160.22 57.7388L159.249 58.2086L158.905 58.3547L159.228 58.1668L160.179 57.6657C161.035 57.2272 162.267 56.6216 163.958 55.7864C167.268 54.1994 172.154 51.9443 178.481 49.5221C181.613 48.3214 185.184 47.079 189.099 46.0036C193.296 44.7594 197.647 44.1093 202.024 44.0721C206.976 44.1341 211.895 44.8825 216.641 46.2959C221.851 47.7889 226.876 49.8622 231.623 52.4767L231.247 52.7169C230.203 39.4678 229.159 24.9242 227.979 9.71233L227.875 8.34462L227.99 8.54299C225.12 6.59646 222.033 4.99168 218.792 3.76123C215.636 2.53715 212.361 1.64829 209.019 1.10933C205.754 0.590723 202.442 0.433165 199.143 0.639507C197.551 0.767979 195.969 0.98759 194.403 1.29726L192.085 1.77752L189.819 2.37263C184.073 3.94255 178.411 5.80337 172.853 7.94788C167.56 9.97334 162.622 12.1241 158.122 14.2122L158.237 14.0243C158.456 27.597 158.633 38.6013 158.759 46.2855C158.811 50.1172 158.853 53.1136 158.884 55.1704V57.5091C158.915 58.0624 158.905 58.3025 158.905 58.3025Z" fill="#263238"/>
<path d="M219.042 40.4079C218.886 40.4079 218.259 32.9221 217.643 23.7031C217.027 14.4841 216.641 6.9043 216.787 6.9043C216.933 6.9043 217.56 14.3797 218.186 23.6091C218.813 32.8386 219.188 40.3975 219.042 40.4079Z" fill="#E0E0E0"/>
<path d="M213.112 38.0792C212.966 38.0792 212.34 30.5933 211.724 21.3743C211.108 12.1553 210.679 4.66948 210.867 4.60683C211.055 4.54419 211.64 12.0823 212.256 21.3117C212.872 30.5411 213.269 38.0687 213.112 38.0792Z" fill="#E0E0E0"/>
<path d="M207.401 37.2648C207.255 37.2648 206.629 29.779 206.002 20.56C205.376 11.341 204.958 3.79248 205.156 3.79248C205.355 3.79248 205.929 11.2679 206.545 20.4973C207.161 29.7268 207.547 37.2544 207.401 37.2648Z" fill="#E0E0E0"/>
<path d="M195.677 38.9039C195.53 38.9039 194.904 31.418 194.278 22.199C193.651 12.98 193.233 5.49418 193.432 5.43154C193.63 5.3689 194.204 12.907 194.82 22.1364C195.436 31.3658 195.823 38.8934 195.677 38.9039Z" fill="#E0E0E0"/>
<path d="M190.216 40.4079C190.07 40.4079 189.443 32.9325 188.827 23.7031C188.211 14.4737 187.825 6.9043 187.971 6.9043C188.117 6.9043 188.744 14.3902 189.37 23.6091C189.997 32.8281 190.372 40.3975 190.216 40.4079Z" fill="#E0E0E0"/>
<path d="M184.411 41.8898C184.254 41.8898 183.639 34.404 183.012 25.185C182.386 15.966 181.968 8.41748 182.156 8.41748C182.344 8.41748 182.939 15.8929 183.555 25.1223C184.171 34.3518 184.526 41.8794 184.411 41.8898Z" fill="#E0E0E0"/>
<path d="M173.355 46.4528C173.198 46.4528 172.571 38.9774 171.955 29.748C171.339 20.5185 170.911 12.9909 171.099 12.9805C171.287 12.97 171.872 20.4663 172.498 29.6853C173.125 38.9043 173.501 46.4424 173.355 46.4528Z" fill="#E0E0E0"/>
<path d="M178.637 43.9784C178.481 43.9784 177.865 36.503 177.238 27.2735C176.612 18.0441 176.194 10.5061 176.382 10.4956C176.57 10.4852 177.165 17.9815 177.781 27.2005C178.397 36.4194 178.784 43.9784 178.637 43.9784Z" fill="#E0E0E0"/>
<path d="M167.184 48.4361C167.038 48.4361 166.412 40.9502 165.796 31.7313C165.18 22.5123 164.752 15.0264 164.939 14.9638C165.127 14.9011 165.712 22.4392 166.338 31.6686C166.965 40.898 167.341 48.4257 167.184 48.4361Z" fill="#E0E0E0"/>
<path d="M201.377 37.4318C201.231 37.4318 200.604 29.946 199.978 20.727C199.352 11.508 198.934 3.96992 199.132 3.95948C199.331 3.94904 199.905 11.4349 200.521 20.6643C201.137 29.8938 201.523 37.4214 201.377 37.4318Z" fill="#E0E0E0"/>
<path d="M209.238 37.7871C210.464 37.1603 211.761 36.6835 213.101 36.3672C215.545 35.605 218.959 34.6027 222.822 33.5378L222.665 34.5088L221.141 33.5482C213.644 28.9022 206.66 27.002 206.764 26.6784C206.764 26.5426 208.581 26.8559 211.368 27.7224C214.986 28.9445 218.454 30.5732 221.704 32.5773C222.247 32.9009 222.749 33.2455 223.26 33.5691C223.345 33.6272 223.412 33.7084 223.453 33.8032C223.494 33.898 223.507 34.0025 223.491 34.1044C223.474 34.2063 223.429 34.3015 223.361 34.3786C223.292 34.4558 223.203 34.5118 223.104 34.5401C219.23 35.5841 215.795 36.4403 213.289 37.0249C211.976 37.4469 210.615 37.703 209.238 37.7871V37.7871Z" fill="#F4A100"/>
<path d="M215.002 36.5964C214.709 36.5964 214.219 34.1533 213.958 31.0838C213.697 28.0143 213.645 25.4877 213.958 25.4564C214.271 25.425 214.741 27.889 215.002 30.9689C215.263 34.0489 215.305 36.5651 215.002 36.5964Z" fill="#F4A100"/>
<path d="M223.26 34.6235C223.26 34.6235 223.386 34.8114 223.5 35.229C223.643 35.8535 223.603 36.5059 223.386 37.1083C223.022 38.0606 222.382 38.8824 221.548 39.4679C221.053 39.8462 220.517 40.1684 219.951 40.4284C219.309 40.713 218.637 40.9198 217.946 41.0444C216.365 41.3449 214.738 41.3022 213.175 40.9191C212.305 40.7159 211.453 40.4435 210.627 40.1048C209.215 39.5909 207.919 38.8036 206.811 37.7877C205.704 36.7719 204.808 35.5476 204.175 34.185C203.073 32.2222 202.703 29.9322 203.131 27.7223C203.402 26.5499 204.083 25.513 205.052 24.799C205.985 24.1599 207.061 23.7584 208.184 23.6296C210.895 23.276 213.652 23.6383 216.18 24.6805C218.707 25.7227 220.918 27.4085 222.592 29.5703C223.983 31.4121 224.813 33.6162 224.983 35.9181C225.104 36.7439 225.083 37.5843 224.92 38.403C224.759 37.599 224.64 36.787 224.565 35.9703C224.25 33.8022 223.359 31.7581 221.987 30.0505C219.933 27.539 217.119 25.762 213.968 24.9869C212.134 24.5197 210.226 24.4134 208.351 24.6737C207.398 24.8092 206.489 25.1668 205.699 25.7177C204.936 26.2801 204.402 27.0996 204.196 28.0251C203.835 29.9858 204.175 32.0111 205.156 33.7465C205.967 35.4452 207.182 36.9188 208.696 38.0375C211.361 39.8619 214.589 40.6763 217.8 40.3345C219.015 40.1662 220.173 39.7156 221.183 39.019C221.958 38.5256 222.583 37.8285 222.989 37.0039C223.216 36.4666 223.316 35.8843 223.281 35.3021C223.228 35.0797 223.221 34.8488 223.26 34.6235V34.6235Z" fill="#F4A100"/>
<path d="M199.55 53.6881L204.258 49.8773C206.317 48.2151 207.653 45.8205 207.986 43.1954L208.247 41.1908L194.1 38.3301C194.1 38.3301 192.774 42.6107 198.099 43.6756C193.379 45.7637 191.615 49.9399 190.32 54.6277L199.55 53.6881Z" fill="#EB996E"/>
<path d="M193.714 47.2876C193.787 47.2876 194.089 46.7029 194.946 45.9199C196.121 44.8239 197.661 44.2026 199.268 44.1763H200.782L199.362 43.6438L196.063 42.4014H196.125C195.465 42.0526 194.917 41.5225 194.547 40.8734C194.177 40.2242 194 39.483 194.037 38.7368C194.048 38.6238 194.069 38.512 194.1 38.4027L193.703 38.6219C197.67 39.6034 201.262 40.4282 203.893 40.8771C205.209 41.1068 206.274 41.2634 207.025 41.3365C207.407 41.4125 207.797 41.4335 208.184 41.3991C206.811 40.9949 205.417 40.6672 204.008 40.4177C201.419 39.8539 197.848 38.956 193.881 37.9642L193.578 37.8911L193.484 38.1834C193.438 38.3367 193.406 38.494 193.39 38.6533C193.282 39.5573 193.497 40.4704 193.995 41.2321C194.447 41.9257 195.05 42.5077 195.76 42.9339V42.9339L199.08 44.0823L199.174 43.5394C197.445 43.6118 195.813 44.3619 194.632 45.6275C194.184 46.0891 193.866 46.6623 193.714 47.2876Z" fill="#D1734A"/>
<path d="M227.102 431.635L247.409 270.851L243.515 246.483H202.724L197.858 428.701C197.838 429.399 198.066 430.081 198.502 430.626C198.938 431.171 199.554 431.544 200.239 431.677L222.54 435.112C223.069 435.193 223.609 435.166 224.128 435.034C224.646 434.901 225.133 434.666 225.559 434.342C225.984 434.017 226.34 433.61 226.606 433.145C226.871 432.68 227.04 432.167 227.102 431.635V431.635Z" fill="#263238"/>
<path d="M246.825 276.269L283.763 312.811L230.621 325.726L234.4 352.485L306.325 342.702C309.368 342.287 312.295 341.258 314.928 339.677C317.561 338.096 319.845 335.996 321.641 333.504V333.504C324.357 329.733 325.847 325.218 325.909 320.571C325.97 315.924 324.601 311.37 321.986 307.528L265.962 225.309L240.905 233.463L246.825 276.269Z" fill="#263238"/>
<path d="M244.789 266.936C245.388 268.414 245.819 269.955 246.073 271.529C246.502 273.065 246.754 274.645 246.825 276.238C246.226 274.76 245.795 273.219 245.541 271.644C245.112 270.108 244.86 268.529 244.789 266.936V266.936Z" fill="#455A64"/>
<path d="M239.412 329.088C239.412 329.088 239.704 328.973 240.289 328.796L242.868 327.992L252.786 324.974L288.848 314.127L288.754 314.471L244.413 267.27L244.883 267.113C243.995 274.536 243.087 282.273 242.147 290.176C237.574 328.472 233.283 363.124 229.953 388.181C228.303 400.71 226.821 410.827 225.777 417.812C225.181 421.299 224.795 424.013 224.388 425.83L223.95 427.918C223.845 428.377 223.782 428.617 223.782 428.617C223.808 428.376 223.847 428.135 223.897 427.897C223.981 427.417 224.117 426.728 224.284 425.809C224.649 423.992 225.004 421.267 225.568 417.78C226.612 410.785 227.959 400.658 229.567 388.129C232.793 363.072 237.021 328.409 241.594 290.113C242.534 282.21 243.452 274.453 244.34 267.05L244.403 266.476L244.799 266.894L289.046 314.189L289.276 314.44L288.952 314.534L252.838 325.204L242.899 328.107L240.289 328.858L239.412 329.088Z" fill="#455A64"/>
<path d="M227.457 428.607C227.301 428.607 231.519 394.456 236.854 352.392C242.189 310.327 246.657 276.176 246.804 276.238C246.95 276.301 242.742 310.368 237.407 352.454C232.072 394.54 227.604 428.618 227.457 428.607Z" fill="#455A64"/>
<path d="M240.832 249.918C241.212 250.714 241.499 251.551 241.688 252.413C242.137 253.969 242.732 256.151 243.233 258.573C243.734 260.995 244.152 263.209 244.392 264.837C244.576 265.699 244.663 266.578 244.653 267.458C244.353 266.633 244.139 265.78 244.016 264.911C243.64 263.125 243.191 261.027 242.701 258.709L241.312 252.528C241.067 251.676 240.906 250.802 240.832 249.918V249.918Z" fill="#455A64"/>
<path d="M243.202 246.765C243.202 246.765 243.724 246.264 244.705 246.608C244.992 246.711 245.247 246.887 245.443 247.12C245.639 247.353 245.77 247.634 245.822 247.934C245.893 248.306 245.852 248.69 245.703 249.038C245.554 249.386 245.305 249.681 244.987 249.887C244.659 250.066 244.283 250.142 243.911 250.105C243.538 250.068 243.186 249.919 242.899 249.678C242.663 249.478 242.491 249.213 242.406 248.915C242.32 248.618 242.325 248.302 242.419 248.007C242.519 247.622 242.766 247.292 243.108 247.088C243.348 246.953 243.505 246.953 243.515 246.984C243.526 247.015 242.951 247.276 242.784 248.101C242.738 248.32 242.753 248.547 242.829 248.757C242.904 248.968 243.037 249.153 243.212 249.291C243.425 249.461 243.683 249.564 243.954 249.588C244.225 249.612 244.497 249.556 244.737 249.427C244.963 249.272 245.141 249.057 245.252 248.806C245.363 248.556 245.401 248.279 245.363 248.007C245.329 247.782 245.24 247.569 245.103 247.387C244.966 247.204 244.787 247.059 244.58 246.963C244.143 246.79 243.67 246.722 243.202 246.765V246.765Z" fill="#455A64"/>
<path d="M294.632 319.076C294.527 319.201 292.439 317.29 289.411 315.568C286.384 313.845 283.742 312.957 283.784 312.801C287.955 313.702 291.735 315.894 294.59 319.065L294.632 319.076Z" fill="#455A64"/>
<path d="M202.139 245.992L198.548 182.085C198.548 182.085 193.192 159.064 188.566 149.814L212.987 131.918L219.314 134.957L231.842 146.347L244.517 138.945C244.517 138.945 259.698 145.335 263.696 147.736C267.695 150.137 268.489 156.527 268.489 156.527C268.489 156.527 255.323 179.726 254.916 188.83C254.509 197.934 268.081 221.195 268.081 221.195C268.081 221.195 275.505 223.398 275.922 229.37C276.288 234.538 273.886 236.386 273.886 236.386C273.886 236.386 272.842 230.769 265.294 233.171C257.745 235.572 241.949 249.552 230.621 249.949C219.293 250.345 202.139 245.992 202.139 245.992Z" fill="#F4A100"/>
<path d="M267.82 153.802L277.447 193.267L288.388 167.166L303.903 176.563C303.903 176.563 289.286 228.567 274.795 223.451C274.795 223.451 265.774 218.889 264.667 215.652C263.561 212.415 246.835 188.83 246.835 188.83L267.82 153.802Z" fill="#F4A100"/>
<path d="M268.05 221.196C268.05 221.196 267.914 221.05 267.716 220.757L266.839 219.473C266.463 218.909 265.993 218.22 265.524 217.385C265.054 216.55 264.48 215.621 263.926 214.524C263.373 213.428 262.746 212.269 262.193 210.954C261.64 209.638 261.045 208.229 260.481 206.725C259.32 203.437 258.422 200.061 257.798 196.629C257.222 193.178 256.911 189.688 256.868 186.189C256.868 184.581 256.868 183.057 256.983 181.626C257.098 180.196 257.202 178.88 257.317 177.669C257.599 175.258 257.902 173.316 258.194 171.99C258.32 171.384 258.424 170.873 258.518 170.465C258.54 170.285 258.589 170.109 258.664 169.943C258.688 170.124 258.688 170.306 258.664 170.486C258.602 170.904 258.528 171.415 258.445 172.031C258.226 173.368 257.975 175.31 257.745 177.711C257.651 178.912 257.505 180.227 257.484 181.647C257.464 183.067 257.401 184.581 257.411 186.178C257.486 189.639 257.81 193.09 258.382 196.504C258.994 199.908 259.871 203.259 261.003 206.527C261.546 208.02 262.047 209.45 262.652 210.703C263.258 211.956 263.78 213.188 264.302 214.284C264.824 215.381 265.346 216.31 265.826 217.155C266.307 218.001 266.714 218.711 267.058 219.296L267.841 220.643C267.932 220.819 268.002 221.004 268.05 221.196Z" fill="#263238"/>
<path d="M184.38 46.2749C184.38 46.2749 159.949 87.3271 158.278 93.3826C156.524 99.6469 190.446 153.301 190.446 153.301C190.446 153.301 191.103 155.023 191.114 155.013L215.357 135.646L186.781 95.2097L202.139 54.8257L184.38 46.2749Z" fill="#F4A100"/>
<path d="M187.773 96.8488C187.689 96.9114 187.178 96.1806 186.102 95.2618C184.695 94.0744 183.035 93.2248 181.249 92.7778C179.463 92.3308 177.598 92.2984 175.798 92.683C174.419 92.9858 173.615 93.393 173.574 93.299C174.186 92.8042 174.899 92.4481 175.662 92.255C176.487 92.0154 177.34 91.8821 178.199 91.8582C179.254 91.8357 180.307 91.9515 181.331 92.2028C182.35 92.4703 183.332 92.8631 184.254 93.3721C185.01 93.8009 185.711 94.3197 186.343 94.9173C186.955 95.4488 187.443 96.1081 187.773 96.8488V96.8488Z" fill="#263238"/>
<path d="M198.871 156.621C198.767 156.621 198.819 155.191 198.433 152.946C198.196 151.628 197.847 150.332 197.389 149.073C196.3 145.974 194.587 143.131 192.356 140.721C191.446 139.747 190.458 138.849 189.402 138.037C187.574 136.659 186.269 136.033 186.343 135.949C186.668 136.036 186.981 136.166 187.272 136.336C187.631 136.498 187.98 136.683 188.316 136.889C188.769 137.148 189.208 137.43 189.631 137.735C190.758 138.516 191.807 139.404 192.763 140.386C193.909 141.602 194.927 142.931 195.802 144.354C196.654 145.787 197.354 147.306 197.89 148.885C198.32 150.176 198.628 151.504 198.809 152.852C198.88 153.368 198.925 153.888 198.944 154.408C198.975 154.801 198.975 155.195 198.944 155.588C198.976 155.934 198.951 156.283 198.871 156.621V156.621Z" fill="#263238"/>
<path d="M265.21 222.386C265.21 222.449 264.448 222.386 263.122 222.469C261.229 222.659 259.376 223.141 257.631 223.9C255.049 225.044 252.619 226.502 250.395 228.243C247.848 230.164 245.175 232.503 242.137 234.612C239.29 236.695 236.029 238.141 232.573 238.851C229.747 239.35 226.859 239.381 224.023 238.945C222.118 238.666 220.241 238.219 218.416 237.608C217.769 237.389 217.278 237.201 216.944 237.065C216.773 237.006 216.608 236.929 216.453 236.836C217.138 236.987 217.814 237.175 218.479 237.399C220.308 237.93 222.175 238.321 224.064 238.569C226.843 238.937 229.662 238.863 232.417 238.349C235.811 237.643 239.014 236.219 241.813 234.173C244.841 232.085 247.493 229.757 250.082 227.846C252.35 226.099 254.834 224.653 257.474 223.545C259.263 222.8 261.166 222.366 263.101 222.261C263.623 222.23 264.146 222.23 264.667 222.261C264.853 222.28 265.035 222.322 265.21 222.386V222.386Z" fill="#263238"/>
<path d="M276.465 211.382C276.139 210.54 275.925 209.659 275.828 208.761C275.493 206.607 275.385 204.423 275.505 202.246C275.629 200.069 275.979 197.91 276.549 195.805C276.739 194.921 277.048 194.068 277.467 193.268C277.341 194.155 277.16 195.034 276.925 195.899C276.48 198 276.198 200.133 276.079 202.278C275.965 204.423 276.021 206.573 276.246 208.709C276.381 209.594 276.454 210.487 276.465 211.382V211.382Z" fill="#263238"/>
<g opacity="0.3">
<path opacity="0.3" d="M217.476 236.595C217.56 233.985 220.671 232.492 223.281 232.649C225.891 232.805 228.366 233.985 230.976 234.079C235.403 234.246 239.328 231.344 242.711 228.525C246.094 225.706 249.852 222.668 254.279 222.49C254.832 222.49 255.532 222.584 255.689 223.127C255.845 223.67 255.417 224.077 255.041 224.411C249.591 229.277 244.016 234.236 237.292 237.086C230.569 239.936 222.373 240.385 216.265 236.387" fill="black"/>
</g>
<g opacity="0.3">
<path opacity="0.3" d="M258.173 173.274C257.437 186.052 261.592 198.632 269.794 208.458C271.161 210.077 272.675 211.674 273.344 213.679C274.012 215.683 273.563 218.272 271.704 219.296C270.894 219.664 269.994 219.785 269.115 219.644C268.237 219.503 267.42 219.106 266.766 218.502C265.475 217.278 264.469 215.785 263.822 214.128C257.662 200.952 254.613 185.74 258.602 171.75" fill="black"/>
</g>
<path d="M137.752 384.245C138.796 380.737 140.937 377.355 144.288 375.893C147.64 374.431 151.805 375.246 155.376 376.54C158.947 377.835 162.444 379.578 166.234 379.808C170.024 380.038 174.294 378.242 175.432 374.588C176.476 371.174 174.44 367.551 171.872 365.077C169.158 362.463 165.829 360.574 162.193 359.585C158.557 358.596 154.73 358.538 151.066 359.417C147.401 360.296 144.017 362.083 141.225 364.614C138.433 367.145 136.323 370.338 135.09 373.899" fill="#F4A100"/>
<g opacity="0.5">
<path opacity="0.5" d="M137.752 384.245C138.796 380.737 140.937 377.355 144.288 375.893C147.64 374.431 151.805 375.246 155.376 376.54C158.947 377.835 162.444 379.578 166.234 379.808C170.024 380.038 174.294 378.242 175.432 374.588C176.476 371.174 174.44 367.551 171.872 365.077C169.158 362.463 165.829 360.574 162.193 359.585C158.557 358.596 154.73 358.538 151.066 359.417C147.401 360.296 144.017 362.083 141.225 364.614C138.433 367.145 136.323 370.338 135.09 373.899" fill="black"/>
</g>
<path d="M107.746 399.468C102.181 394.195 102.463 384.997 105.23 377.856C107.997 370.715 114.063 365.223 120.818 361.6C127.416 358.137 134.713 356.213 142.161 355.972C149.609 355.732 157.014 357.181 163.822 360.211C160.489 360.354 157.241 361.312 154.363 363.001C151.485 364.69 149.066 367.059 147.316 369.9C144.278 374.964 143.599 381.103 141.052 386.438C138.216 392.454 133.185 397.156 126.991 399.579C120.798 402.002 113.911 401.962 107.746 399.468" fill="#F4A100"/>
<path d="M105.074 367.739C98.9242 360.483 98.0994 348.821 99.0077 339.341C99.916 329.861 102.14 320.329 100.616 310.932C99.7281 305.357 97.5669 300.043 96.8361 294.447C96.1052 288.85 97.1388 282.534 101.472 278.921C106.452 274.745 114.293 275.789 119.482 279.652C124.671 283.515 127.657 289.665 129.849 295.762C134.673 309.168 136.447 324.025 132.48 337.702C128.513 351.379 119.231 363.615 105.606 367.739" fill="#F4A100"/>
<path d="M102.119 427.333C102.096 427.056 102.096 426.776 102.119 426.498C102.119 425.955 102.119 425.141 102.119 424.097C102.202 422.009 102.401 419.002 102.871 415.306C103.413 410.97 104.201 406.669 105.23 402.422C106.51 397.207 108.487 392.189 111.108 387.503C113.739 382.824 116.968 378.507 120.713 374.661C123.763 371.524 127.141 368.724 130.789 366.309C132.323 365.265 133.806 364.44 135.09 363.688C136.374 362.936 137.544 362.435 138.483 361.986L140.697 361.057C140.949 360.937 141.211 360.839 141.48 360.765C141.241 360.91 140.994 361.039 140.738 361.151L138.567 362.195C137.648 362.675 136.479 363.239 135.226 363.97C133.973 364.701 132.501 365.567 130.987 366.643C122.965 372.104 116.315 379.347 111.557 387.806C105.898 397.703 104.343 408.112 103.205 415.4C102.693 419.085 102.432 422.082 102.296 424.16C102.234 425.204 102.192 425.966 102.161 426.55C102.166 426.812 102.152 427.074 102.119 427.333Z" fill="#263238"/>
<path d="M49.0495 339.09C37.6589 345.96 37.7007 352.214 39.6531 358.112C41.6054 364.011 48.5379 368.115 54.3324 365.901C57.6003 364.648 59.9808 361.808 62.0062 358.948C64.0317 356.087 65.9319 353.028 68.7717 350.971C71.6115 348.914 75.7251 348.131 78.5753 350.167" fill="#F4A100"/>
<g opacity="0.5">
<path opacity="0.5" d="M49.0495 339.09C37.6589 345.96 37.7007 352.214 39.6531 358.112C41.6054 364.011 48.5379 368.115 54.3324 365.901C57.6003 364.648 59.9808 361.808 62.0062 358.948C64.0317 356.087 65.9319 353.028 68.7717 350.971C71.6115 348.914 75.7251 348.131 78.5753 350.167" fill="black"/>
</g>
<path d="M40.5198 346.618C43.4953 342.504 50.8559 341.314 55.4915 343.371C60.1271 345.427 63.5412 349.489 66.548 353.529C69.5549 357.57 72.5513 361.882 76.7693 364.711C80.9873 367.54 86.8757 368.564 91.0833 365.755C92.4219 364.756 93.5429 363.495 94.3776 362.048C95.2123 360.601 95.7433 358.999 95.9381 357.34C96.3107 354.017 96.0844 350.654 95.2699 347.411C94.2259 342.64 92.6285 337.649 88.8072 334.621C84.5475 331.239 78.6382 331.082 73.2091 331.26C66.9448 331.458 60.6804 331.928 54.792 334.089C48.9035 336.25 42.9629 340.917 40.478 346.618" fill="#F4A100"/>
<path d="M92.6493 418.261C92.6358 418.178 92.6358 418.093 92.6493 418.01C92.6493 417.812 92.6493 417.572 92.6493 417.279C92.6493 416.59 92.6493 415.64 92.5553 414.45C92.4823 411.955 92.3778 408.415 92.2526 404.062C92.1273 399.708 91.9393 394.446 91.6157 388.662C91.292 382.878 90.864 376.499 89.987 369.869C89.6141 366.646 88.9821 363.458 88.0972 360.337C86.3364 354.815 83.6381 349.637 80.1207 345.031C78.6543 343.152 77.0452 341.39 75.3076 339.759C72.7714 337.412 69.9002 335.455 66.7881 333.954C66.2348 333.693 65.7441 333.442 65.316 333.265L64.1989 332.836L63.5202 332.565L63.2905 332.45L63.5411 332.513L64.2406 332.743L65.3682 333.129C65.8171 333.285 66.3078 333.526 66.8716 333.766C70.0424 335.218 72.9719 337.147 75.5581 339.487C77.3289 341.118 78.9663 342.888 80.4548 344.78C82.1439 346.962 83.6424 349.285 84.9337 351.723C86.3723 354.414 87.5605 357.231 88.4835 360.138C89.3824 363.29 90.0214 366.509 90.3941 369.765C91.2816 376.415 91.6992 382.794 91.9915 388.558C92.2839 394.321 92.43 399.583 92.524 403.978C92.618 408.374 92.6389 411.923 92.6597 414.419V417.217C92.6597 417.52 92.6597 417.76 92.6597 417.958C92.6696 418.059 92.6661 418.161 92.6493 418.261V418.261Z" fill="#263238"/>
<path d="M96.7524 423.366C96.2116 421.769 95.7962 420.132 95.5099 418.47C94.717 413.938 94.5414 409.319 94.9879 404.74C95.6861 397.97 97.1394 391.299 99.3207 384.851C101.659 377.543 104.833 369.692 107.537 361.276C108.874 357.186 109.965 353.02 110.805 348.8C111.557 344.864 112.097 340.891 112.424 336.898C112.943 330.128 113.065 323.333 112.789 316.549C112.591 310.744 112.277 306.057 112.089 302.82L111.87 299.093C111.87 298.685 111.87 298.362 111.87 298.122C111.856 298.011 111.856 297.899 111.87 297.788C111.88 297.895 111.88 298.004 111.87 298.111C111.87 298.362 111.922 298.675 111.964 299.082C112.041 299.973 112.145 301.216 112.277 302.81C112.528 306.046 112.893 310.734 113.134 316.539C113.463 323.338 113.38 330.151 112.883 336.94C112.568 340.95 112.035 344.941 111.286 348.894C110.448 353.132 109.357 357.316 108.018 361.423C105.293 369.869 102.108 377.689 99.7592 384.987C97.5627 391.417 96.0783 398.07 95.3324 404.824C94.863 409.376 94.9823 413.969 95.6874 418.491C95.9693 420.088 96.2303 421.32 96.4496 422.145C96.5435 422.541 96.6271 422.855 96.6793 423.084C96.7142 423.175 96.7387 423.27 96.7524 423.366V423.366Z" fill="#263238"/>
<path d="M124.973 428.503H71.5177L70.2961 418.219H124.973V428.503Z" fill="#455A64"/>
<path d="M77.26 427.333L83.9419 458.206H112.987L119.241 427.333H77.26Z" fill="#455A64"/>
<path d="M125.015 428.503C125.015 428.649 113.269 428.732 98.7675 428.691C84.2656 428.649 72.52 428.503 72.52 428.357C72.52 428.21 84.2761 428.137 98.778 428.179C113.28 428.221 125.015 428.367 125.015 428.503Z" fill="#455A64"/>
<path d="M115.806 443.746C114.352 442.658 112.771 441.75 111.098 441.042C109.269 440.325 107.329 439.936 105.366 439.894C102.962 439.902 100.579 440.34 98.3289 441.188C95.8963 442.013 93.6202 442.973 91.4068 443.496C89.4372 443.924 87.4055 443.984 85.414 443.673C84.0751 443.485 82.7768 443.075 81.5719 442.462C81.2455 442.291 80.9346 442.092 80.6427 441.867C80.4443 441.721 80.3399 441.637 80.3503 441.616C80.3608 441.595 80.8097 441.888 81.6554 442.284C82.8672 442.818 84.1514 443.17 85.4662 443.328C87.4131 443.578 89.3887 443.483 91.3024 443.047C93.4427 442.514 95.7188 441.543 98.1723 440.718C100.478 439.852 102.924 439.416 105.387 439.434C107.397 439.507 109.378 439.942 111.233 440.718C112.478 441.238 113.648 441.923 114.71 442.754C115.002 442.975 115.281 443.212 115.545 443.464C115.723 443.631 115.817 443.725 115.806 443.746Z" fill="#263238"/>
<path d="M115.399 445.803C113.995 444.752 112.479 443.859 110.878 443.141C109.123 442.425 107.251 442.039 105.355 442.003C103.032 442.01 100.729 442.423 98.5481 443.224C96.1885 444.018 93.9856 444.926 91.8766 445.5C90.0052 446.036 88.0571 446.255 86.1134 446.148C84.7997 446.056 83.518 445.701 82.3444 445.103C82.0299 444.937 81.7297 444.745 81.4465 444.529C81.2481 444.383 81.1542 444.3 81.1646 444.289C81.175 444.279 81.6135 444.55 82.4279 444.926C83.6058 445.426 84.8657 445.706 86.1447 445.751C88.0381 445.811 89.9285 445.561 91.7409 445.01C93.829 444.435 96.0006 443.506 98.3915 442.713C100.625 441.894 102.987 441.484 105.366 441.502C107.313 441.562 109.23 441.994 111.014 442.775C112.212 443.301 113.335 443.982 114.355 444.801C114.635 445.016 114.9 445.25 115.149 445.5C115.326 445.699 115.41 445.793 115.399 445.803Z" fill="white"/>
<path d="M116.328 441.7C114.831 440.569 113.209 439.612 111.494 438.85C109.634 438.047 107.649 437.57 105.627 437.44C103.13 437.375 100.646 437.808 98.3184 438.714C95.9734 439.63 93.5788 440.415 91.1458 441.063C89.0965 441.409 87.0038 441.409 84.9546 441.063C83.5763 440.843 82.2389 440.417 80.9872 439.8C80.6516 439.627 80.3304 439.428 80.0266 439.205C79.8178 439.048 79.7134 438.964 79.7239 438.943C79.7343 438.923 80.1937 439.225 81.0707 439.622C82.3353 440.14 83.6619 440.491 85.0172 440.666C87.0218 440.953 89.0596 440.915 91.0518 440.551C93.4576 439.884 95.8273 439.093 98.1514 438.181C100.525 437.26 103.061 436.83 105.606 436.918C107.676 437.072 109.702 437.595 111.588 438.463C112.863 439.03 114.062 439.752 115.159 440.614C115.459 440.844 115.744 441.092 116.015 441.355C116.255 441.585 116.339 441.679 116.328 441.7Z" fill="white"/>
<path d="M125.453 428.555C125.453 428.691 113.426 428.806 98.5898 428.806C83.7538 428.806 71.7681 428.702 71.7681 428.555C71.7681 428.409 83.7956 428.294 98.6211 428.294C113.447 428.294 125.453 428.409 125.453 428.555Z" fill="#263238"/>
<path d="M404.654 177.868C404.159 177.265 403.754 176.593 403.453 175.873C402.743 174.527 401.731 172.522 400.446 169.922C397.878 164.702 394.182 157.154 389.734 147.705C380.756 128.808 368.404 102.435 354.623 72.6375H357.087C355.208 77.0121 353.203 81.6164 351.324 86.3564C347.931 94.7088 344.83 103.061 342.094 111.1C340.674 115.13 339.432 119.129 338.158 123.034C336.884 126.939 335.767 130.802 334.702 134.519C330.38 149.595 327.185 163.366 324.857 175.007C322.529 186.648 321.046 196.139 320.023 202.706C319.511 205.994 319.167 208.552 318.864 210.275C318.78 211.169 318.587 212.049 318.29 212.896C318.166 212.005 318.166 211.102 318.29 210.212C318.415 208.469 318.593 205.88 318.937 202.57C319.637 195.951 320.848 186.387 322.936 174.652C325.024 162.917 328.041 149.031 332.259 133.84C333.303 130.04 334.473 126.166 335.653 122.209C336.832 118.252 338.127 114.243 339.536 110.192C342.261 102.059 345.362 93.7274 348.766 85.281C350.666 80.5201 352.691 75.8845 354.581 71.4995C354.652 71.3368 354.753 71.1897 354.881 71.0664C355.008 70.9432 355.159 70.8463 355.323 70.7813C355.488 70.7163 355.664 70.6845 355.842 70.6877C356.019 70.6909 356.194 70.7291 356.356 70.8C356.66 70.9275 356.903 71.1667 357.035 71.4682V71.4682C370.754 101.297 382.802 127.847 391.342 146.901C395.612 156.454 399.016 164.149 401.303 169.473C402.441 172.136 403.307 174.203 403.871 175.612C404.238 176.323 404.502 177.082 404.654 177.868V177.868Z" fill="#F4A100"/>
<path d="M387.177 132.889C387.375 133.62 367.726 139.592 343.326 146.232C318.927 152.873 298.912 157.717 298.714 156.944C298.516 156.172 318.165 150.241 342.616 143.601C367.068 136.961 386.978 132.19 387.177 132.889Z" fill="#F4A100"/>
<path d="M373.499 49.8562C373.887 49.5623 374.312 49.3201 374.763 49.1358L376.36 48.3424C377.007 48.05 377.79 47.7681 378.667 47.4236C380.852 46.6198 383.106 46.0221 385.402 45.6383C388.555 45.1638 391.76 45.1287 394.923 45.5339C398.89 46.0935 402.741 47.2923 406.324 49.0836C410.555 51.2622 414.465 54.0131 417.945 57.2586C421.937 60.9748 425.486 65.1404 428.521 69.6724C429.355 70.8896 430.099 72.1668 430.745 73.4936C431.413 74.8195 432.113 76.1559 432.781 77.5236L434.576 81.8042C435.203 83.245 435.621 84.7694 436.163 86.2832C438.219 92.6849 439.502 99.3095 439.985 106.016C440.476 113.272 440.217 120.56 439.212 127.763C438.13 135.455 436.479 143.055 434.274 150.503C433.752 152.434 433.094 154.335 432.509 156.277C431.925 158.218 431.131 160.14 430.421 162.092C429.575 163.982 428.792 165.913 427.863 167.803L426.412 170.611L425.692 172.021L424.877 173.389C420.484 180.9 415.228 187.873 409.216 194.165C402.969 200.715 396.062 206.604 388.607 211.737C380.945 217.15 372.671 221.639 363.957 225.111C354.881 228.73 345.17 230.487 335.402 230.279C330.438 230.125 325.533 229.162 320.879 227.429C316.25 225.692 312.023 223.031 308.455 219.609C306.693 217.94 305.089 216.112 303.663 214.148C302.244 212.218 300.973 210.184 299.862 208.062C297.674 203.901 295.924 199.524 294.642 195C289.951 177.827 289.011 159.845 291.886 142.276C293.187 134.131 295.203 126.117 297.91 118.325C298.255 117.386 298.589 116.446 298.954 115.506C299.319 114.567 299.622 113.637 299.998 112.729C300.757 110.912 301.508 109.106 302.253 107.31L304.738 102.09C305.532 100.347 306.513 98.7179 307.38 97.0474C310.839 90.674 314.794 84.5824 319.209 78.8287L320.775 76.7406L322.414 74.7569C323.521 73.4518 324.565 72.1259 325.682 70.8835L329.033 67.2293C330.077 65.9973 331.33 64.9219 332.447 63.7839C334.682 61.4974 337.104 59.5137 339.359 57.5196L342.888 54.7215L344.621 53.3538L346.396 52.1009L349.883 49.6579L353.381 47.4653L355.082 46.4213L356.815 45.4503L360.198 43.5815C362.443 42.4121 364.667 41.3681 366.786 40.3449C368.906 39.3217 371.025 38.5074 373.05 37.7035L378.887 35.5423L384.253 33.83C391.081 31.815 396.469 30.6143 400.144 29.9148C401.981 29.5807 403.391 29.3302 404.32 29.184C404.79 29.0621 405.275 29.0093 405.761 29.0274C405.316 29.2246 404.85 29.3683 404.372 29.4554C403.443 29.6956 402.054 30.0297 400.196 30.4473C396.573 31.3243 391.238 32.6816 384.535 34.8427L379.252 36.6594L373.499 38.8624C371.516 39.6976 369.49 40.6372 367.35 41.5769C365.21 42.5165 363.101 43.665 360.898 44.8761L357.588 46.7763L355.886 47.7472L354.216 48.7913L350.791 50.9943L347.398 53.4895L345.665 54.7424L343.974 56.0997L340.528 58.8873C338.325 60.9128 335.966 62.886 333.794 65.1516C332.698 66.2792 331.508 67.3441 330.453 68.5657C329.399 69.7872 328.281 70.967 327.185 72.199C326.089 73.4309 325.097 74.7569 324.001 76.0411L322.393 78.0143L320.869 80.1024C316.557 85.7979 312.7 91.8232 309.332 98.1228C308.486 99.7724 307.536 101.38 306.764 103.092L304.352 108.25L302.17 113.596C301.783 114.483 301.449 115.402 301.126 116.331L300.155 119.108C297.552 126.767 295.62 134.637 294.381 142.631C293.069 151.037 292.614 159.555 293.024 168.053C293.417 176.905 294.818 185.683 297.2 194.217C298.435 198.555 300.115 202.753 302.211 206.746C303.265 208.752 304.47 210.675 305.813 212.499C307.151 214.334 308.654 216.043 310.303 217.604C313.608 220.763 317.513 223.227 321.787 224.85C326.173 226.468 330.792 227.367 335.465 227.512C344.864 227.696 354.207 226.003 362.944 222.532C371.48 219.151 379.589 214.777 387.103 209.502C394.421 204.489 401.204 198.737 407.348 192.338C413.226 186.206 418.373 179.413 422.685 172.094L423.478 170.758L424.188 169.39L425.608 166.665C426.516 164.838 427.279 162.958 428.114 161.131C428.792 159.231 429.534 157.383 430.15 155.483C430.766 153.583 431.403 151.693 431.925 149.783C434.139 142.461 435.811 134.986 436.926 127.419C437.963 120.37 438.267 113.232 437.834 106.12C437.422 99.5705 436.231 93.0934 434.284 86.8261C433.773 85.354 433.376 83.8506 432.781 82.4411C432.186 81.0316 431.632 79.6222 431.068 78.2649L429.127 74.2975C428.523 73.0153 427.825 71.7798 427.038 70.6016C424.137 66.1401 420.732 62.0273 416.89 58.3444C413.556 55.1428 409.801 52.4102 405.729 50.2216C402.303 48.4327 398.613 47.2026 394.798 46.5779C391.729 46.1058 388.609 46.0567 385.527 46.4317C383.267 46.7383 381.038 47.2414 378.866 47.9352C377.989 48.238 377.206 48.4676 376.538 48.7182L374.898 49.3864C374.453 49.6 373.983 49.7578 373.499 49.8562Z" fill="#F4A100"/>
<path d="M396.918 118.722C396.166 118.722 394.903 106.193 394.109 90.5326C393.316 74.8718 393.263 62.2388 394.015 62.2388C394.767 62.2388 396.02 74.7674 396.824 90.4282C397.628 106.089 397.659 118.68 396.918 118.722Z" fill="#F4A100"/>
<path d="M413.852 83.6835C414.134 84.3726 405.928 88.3818 395.331 92.1299C384.733 95.8781 375.838 97.9662 375.629 97.2562C375.42 96.5463 383.898 93.3201 394.422 89.572C404.946 85.8238 413.57 82.984 413.852 83.6835Z" fill="#F4A100"/>
</svg>
