<svg width="521" height="482" viewBox="0 0 521 482" fill="none" xmlns="http://www.w3.org/2000/svg">
<path d="M445.215 7.76221H286.832V292.296H445.215V7.76221Z" fill="#EBEBEB"/>
<path d="M437.261 16.0098H293.164V283.813H437.261V16.0098Z" fill="#FAFAFA"/>
<path d="M437.261 19.1644L293.164 202.458V16.0098H437.261V19.1644Z" fill="#F5F5F5"/>
<path d="M440.393 93.0493H293.164V95.8997H440.393V93.0493Z" fill="#EBEBEB"/>
<path d="M440.393 156.817H293.164V159.668H440.393V156.817Z" fill="#EBEBEB"/>
<path d="M440.393 220.597H293.164V223.447H440.393V220.597Z" fill="#EBEBEB"/>
<path d="M361.573 94.4799V291.406H368.852V94.4799H361.573Z" fill="#EBEBEB"/>
<path d="M324.214 16.0098H320.913V94.4691H324.214V16.0098Z" fill="#EBEBEB"/>
<path d="M352.65 16.0098H349.349V94.4691H352.65V16.0098Z" fill="#EBEBEB"/>
<path d="M381.098 16.0098H377.797V94.4691H381.098V16.0098Z" fill="#EBEBEB"/>
<path d="M409.546 16.0098H406.245V94.4691H409.546V16.0098Z" fill="#EBEBEB"/>
<path d="M286.832 2.9292H280.128V294.042H286.832V2.9292Z" fill="#F5F5F5"/>
<path d="M451.919 294.853L445.215 292.285V2.9292H451.919V294.853Z" fill="#E0E0E0"/>
<path d="M451.907 0H280.128V7.76257H451.907V0Z" fill="#E0E0E0"/>
<path d="M456.459 295.812H275.385V303.045H456.459V295.812Z" fill="#E0E0E0"/>
<path d="M445.215 292.285L456.448 295.811H275.385L286.832 292.285H445.215Z" fill="#EBEBEB"/>
<path d="M287.361 479.443C306.255 468.098 311.967 445.001 312.711 423.933C312.835 420.418 313.477 416.745 312.024 413.557C310.57 410.368 306.818 407.991 303.574 409.253C300.881 410.29 299.54 413.241 297.94 415.652C295.763 418.859 292.725 421.386 289.175 422.942C286.854 423.944 284.038 424.463 281.92 423.088C279.013 421.218 278.945 417.004 279.204 413.523C279.7 407.026 280.192 400.525 280.68 394.021C281.133 390.548 281.019 387.024 280.342 383.588C279.486 380.208 277.312 376.952 274.056 375.792C270.8 374.631 266.564 376.265 265.617 379.634C265.389 381.069 265.257 382.518 265.223 383.971C265.02 385.413 264.243 386.968 262.834 387.272C261.426 387.576 260.085 386.506 259.116 385.413C255.736 381.639 253.63 376.93 251.658 372.254C249.686 367.579 247.782 362.813 244.786 358.734C241.789 354.656 237.474 351.299 232.494 350.668C227.514 350.037 221.982 352.763 220.382 357.574C218.783 362.385 221.295 367.601 224.145 371.792C228.365 378.026 233.465 383.616 239.288 388.388C240.437 389.127 241.318 390.218 241.8 391.497C242.397 393.874 240.031 396.004 237.688 396.635C235.018 397.322 232.223 396.86 229.474 396.984C226.725 397.108 223.706 398.111 222.501 400.612C220.822 404.082 223.548 408.025 226.309 410.684C231.847 415.993 238.257 420.311 245.259 423.449C247.771 424.575 250.407 425.578 252.357 427.516C254.306 429.454 255.331 432.687 253.911 435.064C252.492 437.442 249.224 437.994 246.566 437.318C243.907 436.642 241.608 435.008 239.119 433.859C234.443 431.718 228.235 431.606 224.878 435.549C223.843 436.909 223.136 438.491 222.814 440.17C222.491 441.849 222.561 443.579 223.019 445.227C223.961 448.517 225.559 451.583 227.717 454.24C234.68 463.901 244.085 471.537 254.97 476.367C265.82 480.986 276.061 482.744 287.395 479.465" fill="#F5F5F5"/>
<path d="M283.936 480.457C283.745 472.074 285.221 476.716 282.81 465.9C280.118 454.21 276.755 442.684 272.738 431.38C271.679 428.376 270.642 425.401 269.628 422.457C268.603 419.539 267.578 416.644 266.417 413.872C264.157 408.548 261.603 403.354 258.767 398.313C256.097 393.48 253.393 388.996 250.881 384.793C248.368 380.591 245.845 376.772 243.434 373.369C239.675 367.969 235.489 362.879 230.917 358.148C229.306 356.47 228.01 355.219 227.12 354.374L226.106 353.428C225.995 353.316 225.874 353.215 225.745 353.124C225.838 353.251 225.944 353.368 226.061 353.473L227.03 354.464C227.886 355.343 229.148 356.627 230.736 358.329C235.223 363.112 239.344 368.226 243.062 373.628C245.439 377.008 247.884 380.895 250.43 385.075C252.976 389.255 255.658 393.75 258.317 398.595C261.119 403.625 263.647 408.804 265.888 414.109C267.014 416.869 268.051 419.742 269.076 422.671L272.186 431.583C276.202 442.862 279.588 454.357 282.325 466.013C284.725 476.795 283.294 472.108 283.531 480.457" fill="#E0E0E0"/>
<path d="M266.259 413.827C266.466 413.358 266.617 412.866 266.71 412.362C266.958 411.416 267.273 410.03 267.634 408.306C268.377 404.859 269.222 400.082 270.146 394.787C271.07 389.492 271.983 384.748 272.76 381.323C273.154 379.622 273.481 378.236 273.718 377.279C273.869 376.791 273.971 376.289 274.022 375.78C273.786 376.234 273.605 376.715 273.481 377.211C273.166 378.146 272.771 379.464 272.354 381.222C271.453 384.602 270.462 389.39 269.549 394.674C268.636 399.958 267.848 404.6 267.228 408.194C266.935 409.816 266.687 411.191 266.496 412.283C266.36 412.788 266.281 413.305 266.259 413.827V413.827Z" fill="#E0E0E0"/>
<path d="M221.982 402.391C222.563 402.562 223.159 402.676 223.762 402.729C224.889 402.909 226.556 403.169 228.596 403.552C232.674 404.273 238.273 405.478 244.369 407.078C250.464 408.678 255.962 410.379 259.882 411.72C261.854 412.373 263.431 412.948 264.524 413.331C265.076 413.57 265.649 413.755 266.237 413.883C265.722 413.569 265.179 413.305 264.614 413.094C263.544 412.632 261.989 411.968 260.029 411.28C256.131 409.827 250.666 408.058 244.526 406.447C239.295 405.054 233.997 403.926 228.652 403.067C226.59 402.752 224.923 402.56 223.762 402.459C223.172 402.38 222.576 402.357 221.982 402.391Z" fill="#E0E0E0"/>
<path d="M282.348 465.033C282.488 464.874 282.606 464.695 282.697 464.503L283.576 462.937C284.331 461.574 285.378 459.557 286.64 457.067C289.153 452.076 292.42 445.08 295.924 437.306C299.428 429.532 302.616 422.502 305.027 417.466L307.9 411.517L308.677 409.895C308.783 409.709 308.859 409.507 308.903 409.298C308.776 409.465 308.663 409.642 308.565 409.827L307.686 411.393C306.92 412.768 305.883 414.773 304.621 417.263C302.098 422.254 298.83 429.262 295.338 437.036C291.845 444.81 288.646 451.829 286.235 456.865L283.35 462.825L282.584 464.447C282.48 464.631 282.4 464.828 282.348 465.033V465.033Z" fill="#E0E0E0"/>
<path d="M224.066 441.689C224.244 441.81 224.437 441.905 224.641 441.971L226.331 442.68L232.527 445.204C237.8 447.333 245.044 450.342 253.044 453.688C261.043 457.034 268.321 459.974 273.639 461.991C276.298 462.994 278.449 463.794 279.948 464.312L281.683 464.898C281.882 464.977 282.09 465.03 282.303 465.056C282.124 464.937 281.931 464.843 281.728 464.774L280.038 464.075L273.796 461.563C268.535 459.434 261.291 456.425 253.28 453.079C245.27 449.733 238.014 446.793 232.696 444.776C230.038 443.773 227.886 442.973 226.376 442.466L224.641 441.824C224.456 441.754 224.263 441.709 224.066 441.689Z" fill="#E0E0E0"/>
<path d="M198.976 43.2183H156.378V56.9295H198.976V43.2183Z" fill="#F5F5F5"/>
<path d="M238.927 70.6406H196.329V84.3519H238.927V70.6406Z" fill="#FAFAFA"/>
<path d="M215.144 70.6405C215.135 70.5544 215.135 70.4676 215.144 70.3814V69.6716C215.144 69.0069 215.144 68.1056 215.144 66.9564C215.144 64.5679 215.087 61.1655 215.042 56.9293L215.234 57.1208L173.548 57.2222C173.672 57.087 173.244 57.5152 173.83 56.9293V70.6405L173.537 70.3589L203.235 70.4828L211.989 70.5617H214.344H215.189C214.934 70.5776 214.678 70.5776 214.423 70.5617H212.169L203.494 70.6405L173.514 70.7757H173.233V63.7906C173.233 62.6639 173.233 61.5373 173.233 60.3205V56.9518C173.819 56.366 173.402 56.7828 173.537 56.6589L215.223 56.7603H215.414V56.9518C215.414 61.2443 215.335 64.6806 215.313 67.0916C215.313 68.2183 215.313 69.1083 215.313 69.7618C215.313 70.4152 215.155 70.6518 215.144 70.6405Z" fill="#E0E0E0"/>
<path d="M505.491 160.265H462.892V173.976H505.491V160.265Z" fill="#FAFAFA"/>
<path d="M519.822 159.916C519.813 159.829 519.813 159.743 519.822 159.656C519.822 159.465 519.822 159.228 519.822 158.947C519.822 158.282 519.822 157.381 519.822 156.231C519.822 153.843 519.765 150.452 519.72 146.204L519.912 146.396L478.226 146.497C478.35 146.362 477.922 146.79 478.508 146.204V159.893L478.215 159.611L507.992 159.735L516.735 159.825H519.101H519.946C519.687 159.842 519.427 159.842 519.168 159.825H516.915L508.24 159.904L478.136 160.163H477.854V153.189C477.854 152.063 477.854 150.88 477.854 149.708V146.193C478.44 145.607 478.023 146.024 478.158 145.9L519.844 146.002H520.036V146.193C520.036 150.486 519.957 153.922 519.934 156.333C519.934 157.459 519.934 158.35 519.934 159.003C519.934 159.656 519.822 159.927 519.822 159.916Z" fill="#E0E0E0"/>
<path d="M487.566 314.671H444.968V328.383H487.566V314.671Z" fill="#F5F5F5"/>
<path d="M502.392 327.91H459.794V341.621H502.392V327.91Z" fill="#FAFAFA"/>
<path d="M475.342 355.072C475.332 354.99 475.332 354.907 475.342 354.825V354.104C475.342 353.439 475.342 352.537 475.342 351.388C475.342 349 475.285 345.609 475.24 341.361L475.432 341.553L433.746 341.654C433.87 341.53 433.442 341.947 434.028 341.361V355.072L433.735 354.791L463.512 354.926L472.255 355.005H474.62H475.465C475.207 355.019 474.947 355.019 474.688 355.005H472.435L463.76 355.084L433.78 355.219H433.498V348.234C433.498 347.107 433.498 345.924 433.498 344.752V341.237C434.084 340.651 433.667 341.079 433.802 340.944L475.488 341.046H475.68V341.237C475.68 345.53 475.601 348.966 475.578 351.377C475.578 352.504 475.578 353.405 475.578 354.058C475.578 354.712 475.353 355.129 475.342 355.072Z" fill="#E0E0E0"/>
<path d="M58.0222 128.899H15.4238V142.611H58.0222V128.899Z" fill="#FAFAFA"/>
<path d="M76.8483 128.899C76.8483 128.899 76.8483 128.798 76.8483 128.64C76.8483 128.482 76.8483 128.212 76.8483 127.93C76.8483 127.266 76.8483 126.353 76.8483 125.204C76.8483 122.827 76.7807 119.424 76.7356 115.177L76.9272 115.368L35.2414 115.47L35.5343 115.188V122.196C35.5343 124.449 35.5343 126.702 35.5343 128.899L35.2527 128.606L65.0298 128.741L73.7726 128.82H76.1385C76.4158 128.795 76.6949 128.795 76.9722 128.82C76.7171 128.837 76.4612 128.837 76.2061 128.82H73.9528L65.2777 128.899L35.309 129.034H35.0273V128.753C35.0273 126.578 35.0273 124.348 35.0273 122.049V115.041C35.6132 114.444 35.1851 114.872 35.3203 114.737L77.006 114.839H77.0511V115.03C77.0511 119.323 76.961 122.759 76.9384 125.17C76.9384 126.297 76.9384 127.187 76.9384 127.84C76.9482 128.195 76.9179 128.551 76.8483 128.899V128.899Z" fill="#E0E0E0"/>
<path d="M514.628 481.594C514.628 481.752 399.417 481.887 257.325 481.887C115.233 481.887 0 481.752 0 481.594C0 481.437 115.188 481.256 257.314 481.256C399.44 481.256 514.628 481.437 514.628 481.594Z" fill="#263238"/>
<path d="M473.088 424.688L471.579 452.583C471.55 453.062 471.341 453.511 470.994 453.842C470.647 454.172 470.188 454.358 469.708 454.363L419.517 454.735C419.017 454.735 418.538 454.539 418.182 454.189C417.826 453.84 417.621 453.364 417.613 452.865L417.455 431.143C417.455 430.643 417.653 430.163 418.005 429.809C418.358 429.454 418.836 429.253 419.336 429.25H450.206C450.704 429.245 451.181 429.047 451.536 428.698L456.865 423.369C457.214 423.018 457.688 422.82 458.183 422.817L471.196 422.727C471.451 422.724 471.704 422.773 471.94 422.871C472.175 422.969 472.389 423.115 472.566 423.298C472.743 423.482 472.881 423.7 472.971 423.939C473.061 424.178 473.101 424.433 473.088 424.688V424.688Z" fill="#F76400"/>
<path opacity="0.3" d="M473.088 424.688L471.579 452.583C471.55 453.062 471.341 453.511 470.994 453.842C470.647 454.172 470.188 454.358 469.708 454.363L419.517 454.735C419.017 454.735 418.538 454.539 418.182 454.189C417.826 453.84 417.621 453.364 417.613 452.865L417.455 431.143C417.455 430.643 417.653 430.163 418.005 429.809C418.358 429.454 418.836 429.253 419.336 429.25H450.206C450.704 429.245 451.181 429.047 451.536 428.698L456.865 423.369C457.214 423.018 457.688 422.82 458.183 422.817L471.196 422.727C471.451 422.724 471.704 422.773 471.94 422.871C472.175 422.969 472.389 423.115 472.566 423.298C472.743 423.482 472.881 423.7 472.971 423.939C473.061 424.178 473.101 424.433 473.088 424.688V424.688Z" fill="black"/>
<path d="M417.659 458.741L472.502 458.339L472.262 425.566L417.418 425.968L417.659 458.741Z" fill="#F5F5F5"/>
<path d="M476.649 428.473L472.717 462.678C472.689 462.979 472.553 463.26 472.333 463.467C472.113 463.675 471.825 463.795 471.522 463.805L418.075 464.188C417.765 464.194 417.466 464.08 417.239 463.87C417.012 463.66 416.875 463.37 416.858 463.061L413.917 428.879C413.901 428.713 413.921 428.545 413.974 428.387C414.027 428.229 414.112 428.083 414.225 427.96C414.337 427.837 414.474 427.739 414.627 427.672C414.78 427.605 414.945 427.571 415.111 427.572L475.443 427.121C475.614 427.122 475.783 427.158 475.939 427.228C476.095 427.298 476.234 427.401 476.348 427.528C476.461 427.656 476.547 427.806 476.599 427.968C476.651 428.131 476.668 428.303 476.649 428.473Z" fill="#F76400"/>
<path d="M487.859 419.426L486.349 447.322C486.321 447.8 486.112 448.25 485.765 448.58C485.417 448.911 484.958 449.097 484.479 449.102L434.287 449.462C434.04 449.465 433.795 449.42 433.565 449.328C433.336 449.236 433.127 449.1 432.95 448.927C432.773 448.755 432.632 448.549 432.535 448.322C432.437 448.095 432.386 447.851 432.383 447.603L432.225 425.882C432.224 425.634 432.271 425.388 432.365 425.158C432.459 424.929 432.597 424.72 432.772 424.544C432.947 424.368 433.155 424.229 433.384 424.133C433.613 424.038 433.859 423.989 434.107 423.989H464.977C465.474 423.992 465.952 423.797 466.306 423.448L471.635 418.119C471.984 417.768 472.458 417.569 472.953 417.567L485.966 417.477C486.22 417.475 486.471 417.525 486.705 417.623C486.94 417.721 487.151 417.866 487.328 418.048C487.505 418.23 487.643 418.446 487.734 418.683C487.826 418.92 487.868 419.172 487.859 419.426V419.426Z" fill="#F76400"/>
<path opacity="0.3" d="M487.859 419.426L486.349 447.322C486.321 447.8 486.112 448.25 485.765 448.58C485.417 448.911 484.958 449.097 484.479 449.102L434.287 449.462C434.04 449.465 433.795 449.42 433.565 449.328C433.336 449.236 433.127 449.1 432.95 448.927C432.773 448.755 432.632 448.549 432.535 448.322C432.437 448.095 432.386 447.851 432.383 447.603L432.225 425.882C432.224 425.634 432.271 425.388 432.365 425.158C432.459 424.929 432.597 424.72 432.772 424.544C432.947 424.368 433.155 424.229 433.384 424.133C433.613 424.038 433.859 423.989 434.107 423.989H464.977C465.474 423.992 465.952 423.797 466.306 423.448L471.635 418.119C471.984 417.768 472.458 417.569 472.953 417.567L485.966 417.477C486.22 417.475 486.471 417.525 486.705 417.623C486.94 417.721 487.151 417.866 487.328 418.048C487.505 418.23 487.643 418.446 487.734 418.683C487.826 418.92 487.868 419.172 487.859 419.426V419.426Z" fill="black"/>
<path d="M432.434 453.475L487.278 453.073L487.037 420.3L432.194 420.702L432.434 453.475Z" fill="#F5F5F5"/>
<path d="M491.419 423.212L487.476 457.417C487.459 457.721 487.325 458.008 487.103 458.218C486.881 458.427 486.587 458.544 486.282 458.543L432.834 458.938C432.525 458.941 432.227 458.826 432.001 458.617C431.774 458.407 431.637 458.119 431.617 457.811L428.676 423.651C428.662 423.484 428.683 423.317 428.737 423.159C428.792 423 428.878 422.855 428.992 422.732C429.105 422.609 429.243 422.511 429.396 422.445C429.549 422.378 429.715 422.344 429.882 422.344L490.202 421.894C490.371 421.893 490.538 421.927 490.693 421.995C490.847 422.062 490.986 422.161 491.101 422.285C491.215 422.409 491.302 422.555 491.357 422.715C491.412 422.874 491.433 423.044 491.419 423.212V423.212Z" fill="#F76400"/>
<path opacity="0.3" d="M491.419 423.212L487.476 457.417C487.459 457.721 487.325 458.008 487.103 458.218C486.881 458.427 486.587 458.544 486.282 458.543L432.834 458.938C432.525 458.941 432.227 458.826 432.001 458.617C431.774 458.407 431.637 458.119 431.617 457.811L428.676 423.651C428.662 423.484 428.683 423.317 428.737 423.159C428.792 423 428.878 422.855 428.992 422.732C429.105 422.609 429.243 422.511 429.396 422.445C429.549 422.378 429.715 422.344 429.882 422.344L490.202 421.894C490.371 421.893 490.538 421.927 490.693 421.995C490.847 422.062 490.986 422.161 491.101 422.285C491.215 422.409 491.302 422.555 491.357 422.715C491.412 422.874 491.433 423.044 491.419 423.212V423.212Z" fill="black"/>
<path d="M504.499 425.961L502.989 453.845C502.964 454.325 502.756 454.778 502.409 455.111C502.061 455.443 501.6 455.631 501.119 455.636L450.927 455.997C450.427 456 449.946 455.805 449.59 455.455C449.233 455.104 449.029 454.627 449.023 454.127L448.843 432.416C448.843 431.916 449.041 431.437 449.393 431.082C449.746 430.727 450.224 430.527 450.725 430.524H481.595C481.842 430.527 482.087 430.479 482.316 430.384C482.545 430.289 482.751 430.149 482.924 429.972L488.253 424.654C488.602 424.303 489.076 424.104 489.571 424.102L502.584 424C502.841 423.995 503.096 424.043 503.333 424.141C503.571 424.238 503.786 424.383 503.965 424.567C504.145 424.75 504.284 424.969 504.376 425.208C504.468 425.448 504.51 425.704 504.499 425.961V425.961Z" fill="#F76400"/>
<path d="M449.061 460.008L503.904 459.606L503.664 426.833L448.821 427.235L449.061 460.008Z" fill="#F5F5F5"/>
<path d="M508.059 429.746L504.127 463.951C504.092 464.244 503.951 464.514 503.732 464.711C503.512 464.908 503.228 465.018 502.933 465.021L449.474 465.416C449.167 465.419 448.87 465.304 448.645 465.094C448.421 464.884 448.286 464.596 448.269 464.289L445.328 430.129C445.312 429.963 445.332 429.795 445.384 429.636C445.437 429.477 445.523 429.331 445.635 429.207C445.747 429.083 445.884 428.984 446.037 428.916C446.19 428.847 446.355 428.812 446.522 428.811L506.843 428.372C507.017 428.37 507.189 428.406 507.348 428.477C507.507 428.548 507.649 428.652 507.764 428.782C507.879 428.912 507.965 429.066 508.016 429.232C508.067 429.398 508.082 429.574 508.059 429.746V429.746Z" fill="#F76400"/>
<path d="M445.317 434.399V481.842H513.771V434.399H445.317ZM467.658 442.95C467.658 442.021 468.027 441.13 468.684 440.473C469.341 439.815 470.233 439.446 471.162 439.446H487.926C488.402 439.419 488.879 439.49 489.327 439.653C489.775 439.817 490.185 440.07 490.531 440.398C490.878 440.725 491.154 441.12 491.343 441.558C491.531 441.996 491.629 442.468 491.629 442.944C491.629 443.421 491.531 443.893 491.343 444.331C491.154 444.769 490.878 445.164 490.531 445.491C490.185 445.819 489.775 446.072 489.327 446.236C488.879 446.399 488.402 446.47 487.926 446.443H471.162C470.234 446.443 469.345 446.075 468.688 445.42C468.031 444.766 467.661 443.877 467.658 442.95Z" fill="#455A64"/>
<path d="M408.419 434.399V481.842H445.317V434.399H408.419Z" fill="#263238"/>
<path d="M279.385 446.004L275.814 466.611C275.814 466.611 253.675 469.9 252.65 473.641L292.33 482.001L299.214 450.139L279.385 446.004Z" fill="#F76400"/>
<g opacity="0.6">
<path opacity="0.6" d="M288.443 467.467C288.799 467.665 289.069 467.986 289.204 468.37C289.339 468.754 289.329 469.174 289.176 469.551C288.993 469.916 288.677 470.197 288.294 470.335C287.91 470.474 287.487 470.459 287.114 470.295C286.725 470.085 286.43 469.737 286.288 469.319C286.145 468.901 286.167 468.444 286.348 468.041C286.578 467.674 286.944 467.412 287.366 467.313C287.787 467.214 288.231 467.285 288.601 467.512" fill="white"/>
</g>
<path opacity="0.6" d="M292.33 481.989L292.893 478.756L254.588 471.996C254.588 471.996 252.661 472.39 252.605 473.675L292.33 481.989Z" fill="white"/>
<path d="M275.205 466.272C275.205 466.464 276.129 466.757 276.951 467.579C277.774 468.402 278.078 469.325 278.303 469.28C278.529 469.235 278.439 468.064 277.425 467.083C276.411 466.103 275.205 466.081 275.205 466.272Z" fill="#263238"/>
<path d="M270.687 467.118C270.597 467.287 271.375 467.794 271.814 468.752C272.253 469.709 272.298 470.622 272.501 470.656C272.704 470.689 273.042 469.619 272.422 468.402C271.803 467.186 270.732 466.926 270.687 467.118Z" fill="#263238"/>
<path d="M267.274 471.59C267.443 471.669 267.916 470.768 267.634 469.596C267.353 468.424 266.508 467.816 266.429 467.962C266.35 468.109 266.755 468.796 266.97 469.754C267.184 470.711 267.082 471.534 267.274 471.59Z" fill="#263238"/>
<path d="M276.546 461.665C276.546 461.856 277.537 461.778 278.607 462.082C279.678 462.386 280.478 462.915 280.613 462.769C280.748 462.623 280.072 461.755 278.788 461.417C277.503 461.079 276.467 461.496 276.546 461.665Z" fill="#263238"/>
<path opacity="0.3" d="M278.675 450.094L278.033 453.756L297.58 457.688L298.301 454.409L278.675 450.094Z" fill="black"/>
<path d="M277.346 457.519C277.957 457.833 278.642 457.977 279.329 457.936C280.085 457.958 280.841 457.89 281.582 457.733C282.01 457.637 282.432 457.513 282.844 457.361C283.094 457.289 283.33 457.174 283.542 457.023C283.7 456.913 283.816 456.754 283.873 456.57C283.93 456.387 283.925 456.189 283.858 456.009C283.785 455.855 283.679 455.719 283.546 455.611C283.413 455.504 283.258 455.428 283.092 455.39C282.84 455.339 282.582 455.32 282.325 455.333C281.882 455.348 281.44 455.404 281.007 455.502C280.273 455.657 279.569 455.931 278.923 456.313C277.796 456.978 277.346 457.632 277.413 457.688C277.481 457.744 278.055 457.26 279.148 456.753C279.777 456.453 280.444 456.24 281.131 456.122C281.533 456.054 281.94 456.017 282.348 456.009C282.787 456.009 283.148 456.066 283.215 456.268C283.283 456.471 283.216 456.381 283.125 456.482C282.967 456.592 282.792 456.675 282.607 456.73C282.239 456.88 281.863 457.008 281.48 457.113C280.797 457.287 280.1 457.397 279.396 457.44C278.712 457.419 278.027 457.445 277.346 457.519V457.519Z" fill="#263238"/>
<path d="M277.594 457.856C278.081 457.361 278.403 456.728 278.517 456.042C278.711 455.308 278.776 454.546 278.709 453.789C278.664 453.343 278.577 452.901 278.45 452.471C278.401 452.187 278.278 451.922 278.094 451.7C277.911 451.479 277.672 451.309 277.402 451.209C277.225 451.173 277.042 451.189 276.874 451.255C276.706 451.321 276.561 451.434 276.456 451.581C276.303 451.792 276.182 452.023 276.095 452.268C275.934 452.698 275.839 453.15 275.814 453.609C275.762 454.383 275.906 455.158 276.23 455.862C276.782 457.056 277.549 457.451 277.571 457.394C277.594 457.338 277.064 456.797 276.681 455.682C276.457 455.039 276.377 454.354 276.444 453.677C276.481 453.289 276.576 452.909 276.726 452.55C276.873 452.144 277.109 451.84 277.256 451.908C277.402 451.975 277.718 452.336 277.808 452.708C277.933 453.093 278.023 453.489 278.078 453.891C278.17 454.575 278.17 455.268 278.078 455.952C277.796 457.124 277.436 457.8 277.594 457.856Z" fill="#263238"/>
<path d="M414.21 446.466L405.625 435.256L405.186 434.682L390.54 445.554L404.059 460.425L403.564 475.477C396.026 477.426 394.888 481.189 394.888 481.189H410.56L424.801 453.767L414.21 446.466Z" fill="#F76400"/>
<path opacity="0.6" d="M424.846 453.756L410.605 481.178L394.933 481.19L396.702 478.835L409.445 478.125L422.581 452.201L424.846 453.756Z" fill="white"/>
<path d="M403.699 468.582C403.823 468.74 404.724 468.222 405.952 468.256C407.18 468.289 408.059 468.796 408.205 468.639C408.352 468.481 407.462 467.58 405.952 467.568C404.442 467.557 403.563 468.459 403.699 468.582Z" fill="#263238"/>
<path d="M403.958 464.842C404.116 464.954 404.803 464.031 406.054 463.783C407.304 463.535 408.307 464.109 408.408 463.952C408.51 463.794 408.284 463.614 407.845 463.377C407.253 463.071 406.575 462.975 405.921 463.106C405.268 463.237 404.679 463.587 404.251 464.098C403.947 464.493 403.879 464.797 403.958 464.842Z" fill="#263238"/>
<path d="M403.845 460.054C404.014 460.133 404.555 459.231 405.648 458.848C406.741 458.465 407.721 458.848 407.8 458.657C407.878 458.465 407.642 458.353 407.202 458.195C406.622 457.996 405.991 458 405.412 458.204C404.834 458.409 404.341 458.802 404.014 459.321C403.777 459.727 403.777 460.02 403.845 460.054Z" fill="#263238"/>
<path d="M399.654 456.335C399.834 456.403 400.274 455.513 401.254 454.882C402.234 454.251 403.192 454.15 403.203 453.958C403.214 453.767 402.076 453.508 400.871 454.307C399.665 455.107 399.463 456.313 399.654 456.335Z" fill="#263238"/>
<path d="M397.604 453.091C398.14 452.616 398.6 452.061 398.967 451.446L400.296 449.565C400.596 449.177 400.839 448.748 401.017 448.292C401.067 448.136 401.084 447.972 401.069 447.809C401.053 447.647 401.005 447.489 400.927 447.345C400.837 447.178 400.698 447.041 400.53 446.953C400.361 446.865 400.17 446.829 399.981 446.849C399.43 446.955 398.922 447.217 398.516 447.604C398.15 447.937 397.828 448.316 397.559 448.731C397.12 449.411 396.843 450.181 396.747 450.984C396.582 451.716 396.707 452.484 397.097 453.125C397.099 452.436 397.14 451.747 397.221 451.063C397.448 449.923 398.056 448.894 398.944 448.145C399.262 447.854 399.651 447.652 400.071 447.559C400.129 447.548 400.19 447.555 400.244 447.579C400.299 447.604 400.344 447.644 400.375 447.694C400.433 447.839 400.433 448 400.375 448.145C400.222 448.543 400.022 448.921 399.778 449.272L398.573 451.232C398.155 451.798 397.828 452.425 397.604 453.091V453.091Z" fill="#263238"/>
<path d="M397.018 453.587C397.097 453.587 397.018 452.753 396.184 451.818C395.608 451.191 394.842 450.77 394.003 450.62C393.165 450.469 392.301 450.597 391.542 450.984C391.461 451.051 391.397 451.136 391.354 451.231C391.311 451.327 391.291 451.431 391.294 451.536C391.302 451.718 391.37 451.892 391.486 452.032C391.644 452.228 391.834 452.396 392.049 452.528C392.403 452.775 392.78 452.987 393.176 453.159C393.829 453.458 394.524 453.651 395.238 453.733C395.886 453.881 396.565 453.818 397.175 453.553C397.175 453.44 396.432 453.497 395.316 453.26C394.669 453.119 394.044 452.892 393.457 452.584C393.124 452.407 392.807 452.199 392.511 451.964C392.358 451.871 392.221 451.753 392.106 451.615C392.027 451.48 392.049 451.514 392.106 451.48C392.243 451.394 392.396 451.336 392.556 451.311C392.749 451.264 392.945 451.234 393.142 451.221C393.519 451.188 393.899 451.215 394.269 451.3C394.895 451.438 395.476 451.733 395.959 452.156C396.702 452.911 396.939 453.632 397.018 453.587Z" fill="#263238"/>
<path opacity="0.6" d="M414.199 455.142C415.226 455.142 416.058 454.309 416.058 453.283C416.058 452.256 415.226 451.424 414.199 451.424C413.172 451.424 412.34 452.256 412.34 453.283C412.34 454.309 413.172 455.142 414.199 455.142Z" fill="white"/>
<path opacity="0.3" d="M391.925 447.052L394.933 450.353L407.586 437.814L405.828 435.527L391.925 447.052Z" fill="black"/>
<path d="M315.381 245.259C315.381 245.259 300.735 294.967 287.643 351.164C279.757 385.233 272.265 448.629 272.265 448.629L307.033 456.29L321.938 374.789L337.847 326.546C343.311 311.314 351.163 300.183 360.695 291.936C371.06 277.29 376.468 260.536 374.384 242.702L315.381 245.259Z" fill="#263238"/>
<path d="M312.52 253.18L325.51 360.211C326.772 370.542 328.518 380.49 335.537 388.185L388.14 450.568L414.199 427.178L358.441 350.95L368.131 243.491L313.579 252.797" fill="#263238"/>
<path d="M358.971 350.15C359.072 350.341 356.718 351.513 354.464 353.845C352.211 356.178 351.208 358.589 351.017 358.498C350.825 358.408 351.625 355.783 353.946 353.361C356.267 350.939 358.926 349.97 358.971 350.15Z" fill="#455A64"/>
<path d="M358.183 350.949C358.183 351.152 356.098 351.085 353.597 351.332C351.096 351.58 349.091 352.031 349.012 351.828C350.396 351.072 351.941 350.659 353.518 350.623C356.11 350.364 358.205 350.758 358.183 350.949Z" fill="#455A64"/>
<path d="M372.817 267.015C372.782 267.424 372.718 267.831 372.626 268.231C372.536 268.66 372.446 269.144 372.333 269.707C372.22 270.271 371.984 270.947 371.77 271.679C370.406 275.829 368.464 279.766 366.001 283.373C362.959 288.004 358.734 293.04 354.239 298.741C351.877 301.705 349.695 304.809 347.705 308.036C345.615 311.528 343.716 315.131 342.015 318.829C338.511 326.445 335.683 333.926 333.284 340.787C330.884 347.648 328.89 353.879 327.2 359.118C325.51 364.357 324.18 368.525 323.211 371.511C322.738 372.919 322.355 374.046 322.085 374.891C321.964 375.277 321.813 375.654 321.634 376.017C321.703 375.608 321.805 375.205 321.938 374.812L322.941 371.432L326.704 358.949C328.326 353.699 330.275 347.434 332.641 340.551C335.007 333.667 337.824 326.152 341.339 318.502C343.056 314.782 344.978 311.16 347.096 307.653C349.101 304.402 351.309 301.283 353.71 298.313C358.216 292.612 362.497 287.632 365.562 283.081C368.043 279.531 370.04 275.666 371.499 271.589C371.725 270.856 371.961 270.214 372.119 269.64C372.277 269.065 372.378 268.603 372.479 268.198C372.56 267.795 372.673 267.399 372.817 267.015V267.015Z" fill="#455A64"/>
<path d="M247.174 214.355L238.037 219.11L222.185 226.895C221.115 227.265 220.215 228.009 219.65 228.991L213.837 239.22H224.957L227.92 234.229C229.784 234.897 231.81 234.969 233.717 234.436C235.624 233.903 237.318 232.792 238.567 231.255L254.711 225.622L247.174 214.355Z" fill="#FFBE9D"/>
<path d="M353.315 88.7801C353.96 87.4102 355.02 86.278 356.344 85.5442C357.669 84.8103 359.19 84.512 360.694 84.6915C362.197 84.871 363.606 85.5193 364.721 86.5443C365.835 87.5694 366.598 88.9192 366.902 90.4025C367.004 91.8335 367.257 93.2498 367.657 94.6274C368.083 95.5115 368.797 96.2243 369.681 96.6483C370.566 97.0722 371.569 97.182 372.524 96.9595C371.955 98.0321 371.076 98.9078 370.001 99.4719C370.138 99.3828 370.295 99.3277 370.458 99.311C370.622 99.2943 370.786 99.3166 370.939 99.376C371.092 99.4354 371.229 99.5302 371.338 99.6526C371.447 99.7751 371.525 99.9217 371.567 100.08C371.618 100.411 371.57 100.75 371.427 101.053C371.285 101.357 371.055 101.61 370.767 101.782C370.181 102.109 369.532 102.305 368.863 102.356C365.652 102.841 362.103 102.965 359.399 101.23C356.447 99.3255 355.14 95.7428 354.036 92.4192" fill="#263238"/>
<path d="M322.558 79.4741C319.178 79.767 316.361 82.2569 314.401 85.0285C312.441 87.8 311.077 90.9771 309.027 93.6811C307.495 95.6978 305.546 97.5229 304.791 99.934C303.585 103.787 305.703 108.226 304.025 111.888C303.067 113.961 301.061 115.369 300.07 117.419C298.831 119.977 299.394 123.053 300.149 125.757C300.526 127.706 301.489 129.494 302.909 130.883C304.188 131.76 305.661 132.313 307.202 132.494C318.749 134.617 330.669 133.142 341.35 128.269" fill="#263238"/>
<path d="M348.955 98.7505C348.908 96.4054 348.391 94.0936 347.433 91.9526C346.475 89.8116 345.096 87.885 343.379 86.2874C341.661 84.6899 339.64 83.4539 337.436 82.653C335.231 81.8522 332.888 81.5028 330.546 81.6256C321.183 82.0987 313.984 90.1655 313.928 99.5392C313.928 107.752 314.029 116.022 314.502 118.962C315.911 127.829 321.611 130.533 323.865 131.265C324.665 131.429 325.481 131.509 326.298 131.502V131.502C326.314 131.505 326.329 131.513 326.339 131.525C326.349 131.538 326.355 131.553 326.355 131.57L325.87 142.059C325.949 148.819 330.546 154.283 337.362 154.283C344.178 154.283 348.685 148.39 348.73 141.552L348.955 98.7505Z" fill="#FFBE9D"/>
<path d="M317.274 104.136C317.274 104.508 317.418 104.866 317.677 105.133C317.936 105.4 318.288 105.556 318.66 105.567C318.841 105.583 319.023 105.561 319.196 105.504C319.369 105.448 319.528 105.357 319.665 105.237C319.802 105.117 319.913 104.97 319.992 104.807C320.071 104.643 320.116 104.465 320.124 104.283C320.13 103.91 319.99 103.55 319.733 103.28C319.475 103.01 319.122 102.853 318.75 102.841C318.567 102.827 318.384 102.85 318.211 102.908C318.037 102.966 317.877 103.058 317.74 103.178C317.602 103.299 317.49 103.446 317.41 103.611C317.33 103.775 317.284 103.954 317.274 104.136Z" fill="#263238"/>
<path d="M316.361 101.646C316.53 101.838 317.612 101.038 319.156 101.038C320.699 101.038 321.814 101.804 321.983 101.624C322.152 101.444 321.882 101.207 321.386 100.846C320.726 100.386 319.938 100.142 319.133 100.148C318.323 100.136 317.532 100.389 316.88 100.869C316.429 101.229 316.271 101.579 316.361 101.646Z" fill="#263238"/>
<path d="M332.303 104.136C332.297 104.508 332.438 104.867 332.696 105.135C332.953 105.403 333.306 105.558 333.678 105.567C333.859 105.583 334.042 105.561 334.214 105.504C334.387 105.448 334.547 105.357 334.683 105.237C334.82 105.117 334.931 104.97 335.01 104.807C335.089 104.643 335.134 104.465 335.143 104.283C335.149 103.91 335.008 103.55 334.751 103.28C334.494 103.01 334.141 102.853 333.768 102.841C333.586 102.827 333.404 102.85 333.231 102.908C333.058 102.966 332.898 103.058 332.762 103.179C332.625 103.3 332.514 103.447 332.436 103.611C332.357 103.776 332.312 103.954 332.303 104.136V104.136Z" fill="#263238"/>
<path d="M331.458 101.939C331.639 102.12 332.72 101.32 334.253 101.32C335.785 101.32 336.911 102.097 337.08 101.906C337.249 101.714 336.99 101.489 336.495 101.128C335.831 100.674 335.046 100.431 334.241 100.43C333.433 100.426 332.644 100.678 331.988 101.151C331.537 101.511 331.368 101.849 331.458 101.939Z" fill="#263238"/>
<path d="M325.881 113.33C325.075 113.07 324.238 112.918 323.392 112.879C322.997 112.879 322.625 112.755 322.558 112.496C322.532 112.103 322.622 111.712 322.817 111.369L323.944 108.384C325.555 104.136 326.726 100.633 326.546 100.576C325.271 103.013 324.194 105.549 323.324 108.158C322.93 109.206 322.569 110.209 322.197 111.167C321.951 111.637 321.879 112.18 321.994 112.699C322.052 112.836 322.14 112.959 322.251 113.059C322.362 113.158 322.494 113.231 322.637 113.273C322.858 113.331 323.084 113.365 323.313 113.375C324.167 113.471 325.031 113.456 325.881 113.33Z" fill="#263238"/>
<path d="M326.377 131.502C326.377 131.502 332.315 131.986 339.728 127.525C339.728 127.525 337.385 135.411 326.208 134.285L326.377 131.502Z" fill="#EB996E"/>
<path d="M326.535 117.025C326.829 116.659 327.21 116.374 327.643 116.195C328.076 116.016 328.548 115.949 329.014 115.999C329.352 116.032 329.681 116.131 329.98 116.292C330.28 116.452 330.545 116.671 330.76 116.934C330.964 117.192 331.085 117.505 331.107 117.833C331.13 118.161 331.052 118.488 330.884 118.771C330.637 119.048 330.313 119.245 329.953 119.335C329.594 119.425 329.215 119.406 328.867 119.278C328.144 119.039 327.477 118.655 326.907 118.151C326.733 118.03 326.584 117.877 326.467 117.701C326.412 117.615 326.383 117.515 326.383 117.413C326.383 117.311 326.412 117.212 326.467 117.126" fill="#EB996E"/>
<path d="M330.399 114.388C330.152 114.388 330.152 116.045 328.721 117.228C327.29 118.411 325.521 118.23 325.51 118.456C325.498 118.681 325.904 118.782 326.636 118.805C327.612 118.815 328.56 118.484 329.318 117.87C330.043 117.277 330.508 116.424 330.613 115.493C330.704 114.794 330.546 114.377 330.399 114.388Z" fill="#263238"/>
<path d="M330.771 99.2465C330.918 99.6633 332.45 99.4605 334.252 99.6859C336.055 99.9112 337.52 100.384 337.756 100.013C337.858 99.8323 337.61 99.438 337.024 99.0437C336.239 98.5468 335.352 98.2348 334.428 98.1314C333.505 98.0279 332.57 98.1357 331.695 98.4466C331.03 98.7169 330.704 99.0437 330.771 99.2465Z" fill="#263238"/>
<path d="M316.925 98.5029C317.195 98.8521 318.254 98.5029 319.527 98.5029C320.8 98.5029 321.87 98.7395 322.118 98.3677C322.231 98.1874 322.118 97.8382 321.589 97.5114C320.957 97.1127 320.22 96.9124 319.473 96.9365C318.726 96.9606 318.003 97.208 317.398 97.6466C316.947 97.9734 316.801 98.3339 316.925 98.5029Z" fill="#263238"/>
<path d="M311.889 97.6128C314.142 100.159 319.775 97.6128 322.975 95.1229C324.986 96.0266 327.27 96.1109 329.342 95.3578C331.414 94.6047 333.111 93.0736 334.072 91.0895C336.461 93.3428 340.426 91.9232 341.508 88.8362C342.59 85.7492 341.159 81.8623 338.736 79.6316C336.326 77.5696 333.256 76.4386 330.084 76.4432C326.424 76.2688 322.792 77.1689 319.637 79.0326C316.483 80.8964 313.942 83.6423 312.328 86.9322C310.818 90.1431 310.232 94.2554 311.889 97.6015" fill="#263238"/>
<path d="M338.173 79.4737C344.606 77.2204 351.941 82.91 353.293 87.5292C355.636 95.5396 354.679 96.7226 356.74 100.429C358.092 102.84 361.833 104.936 363.5 107.403C365.337 110.017 366.024 114.794 365.472 117.949C365.01 120.607 362.633 128.178 362.633 128.178C362.633 128.178 352.752 129.305 347.536 128.742C346.198 128.676 344.896 128.289 343.739 127.615C342.612 126.894 344.19 123.604 343.829 122.354C342.781 118.805 339.762 117.104 340.021 113.408C340.359 108.507 344.054 107.775 343.266 102.863C342.849 100.283 338.455 97.1395 337.734 94.6383C337.013 92.1372 334.219 83.4282 338.128 79.4962" fill="#263238"/>
<path d="M354.611 94.7511C354.442 94.7511 354.554 93.0836 354.228 91.112C353.901 89.1404 353.304 87.5969 353.462 87.5293C354.234 88.5367 354.699 89.7454 354.802 91.0106C355.11 92.2489 355.043 93.5507 354.611 94.7511V94.7511Z" fill="#F76400"/>
<path d="M354.014 92.0022C354.014 92.0022 353.789 92.1599 353.327 92.2726C352.671 92.4347 351.996 92.4993 351.321 92.4641C350.311 92.413 349.321 92.1682 348.403 91.743C347.283 91.2166 346.294 90.4468 345.508 89.4898C344.787 88.5485 343.963 87.6907 343.052 86.9323C342.291 86.3677 341.437 85.9406 340.528 85.6704C339.665 85.4566 338.788 85.306 337.903 85.2198C338.132 85.1147 338.384 85.0683 338.635 85.0846C339.305 85.0468 339.977 85.1076 340.63 85.2649C341.61 85.5011 342.539 85.9176 343.367 86.4929C344.328 87.2414 345.195 88.104 345.947 89.0616C347.296 90.7114 349.237 91.7671 351.355 92.0022C352.24 92.0616 353.129 92.0616 354.014 92.0022Z" fill="#455A64"/>
<path d="M371.623 99.7531C371.403 99.9721 371.119 100.114 370.812 100.159C369.98 100.332 369.114 100.217 368.356 99.832C367.244 99.2592 366.347 98.3424 365.798 97.2182C365.122 96.0127 364.672 94.5706 364.041 93.1961C363.537 91.8824 362.599 90.7809 361.382 90.0753C360.345 89.5946 359.172 89.4949 358.07 89.7936C357.042 90.1148 356.12 90.7063 355.399 91.5061C355.488 91.2142 355.651 90.9503 355.873 90.74C356.428 90.1116 357.145 89.6478 357.946 89.3993C359.147 89.0071 360.45 89.0712 361.607 89.5796C362.966 90.3173 364.017 91.5159 364.57 92.9595C365.246 94.3903 365.697 95.8099 366.272 96.9704C366.741 98.02 367.53 98.8951 368.525 99.4715C369.207 99.8629 369.996 100.029 370.778 99.9447C371.308 99.8658 371.589 99.7081 371.623 99.7531Z" fill="#455A64"/>
<path d="M354.036 90.9882C354.036 90.9882 353.755 91.1234 353.225 91.0783C352.467 90.9884 351.749 90.6879 351.152 90.2108C350.287 89.5126 349.567 88.6513 349.034 87.6759C348.433 86.5239 347.716 85.4366 346.893 84.4311C346.087 83.5939 345.111 82.9395 344.03 82.5119C342.95 82.0843 341.79 81.8935 340.629 81.9525C339.654 82.0468 338.691 82.2432 337.756 82.5384C337.756 82.5384 337.97 82.3356 338.444 82.1103C339.126 81.8084 339.853 81.6182 340.596 81.5469C341.837 81.4153 343.092 81.5703 344.264 82C345.436 82.4298 346.493 83.1227 347.355 84.0256C348.205 85.067 348.934 86.2007 349.53 87.4055C350.003 88.3442 350.649 89.1851 351.434 89.8841C352.167 90.5119 353.076 90.8975 354.036 90.9882V90.9882Z" fill="#455A64"/>
<path d="M356.864 129.328C356.864 129.328 357.27 128.708 357.991 127.582C358.956 125.991 359.714 124.284 360.244 122.5C361.045 119.875 361.142 117.086 360.526 114.411C360.153 112.79 359.463 111.259 358.497 109.905C357.53 108.552 356.305 107.403 354.893 106.525C353.372 105.623 351.693 105.015 350.206 104.102C348.726 103.242 347.546 101.948 346.826 100.396C346.228 99.0222 345.746 97.6015 345.384 96.1482C345.067 94.9083 344.633 93.7011 344.088 92.543C343.718 91.7051 343.174 90.9554 342.492 90.3436C341.81 89.7318 341.006 89.2718 340.134 88.994C339.478 88.8294 338.799 88.7874 338.128 88.8701C338.128 88.8701 338.297 88.78 338.646 88.7124C339.156 88.6089 339.681 88.6089 340.19 88.7124C341.119 88.9635 341.983 89.4141 342.72 90.0328C343.457 90.6515 344.051 91.4236 344.46 92.2951C345.04 93.4678 345.504 94.6941 345.846 95.9567C346.219 97.3782 346.713 98.7652 347.322 100.103C347.997 101.55 349.103 102.754 350.487 103.55C351.907 104.429 353.586 105.026 355.174 105.973C356.65 106.898 357.925 108.11 358.926 109.536C359.926 110.962 360.631 112.573 360.999 114.276C361.611 117.042 361.467 119.922 360.582 122.613C360.013 124.417 359.186 126.128 358.126 127.694C357.85 128.121 357.549 128.531 357.225 128.922C357.011 129.204 356.887 129.339 356.864 129.328Z" fill="#455A64"/>
<path d="M308.171 132.055C308.171 132.055 308.047 131.964 307.867 131.739C307.606 131.415 307.369 131.072 307.157 130.714C306.369 129.379 305.855 127.901 305.647 126.365C305.295 124.072 305.607 121.726 306.549 119.605C307.145 118.4 307.822 117.237 308.576 116.124C309.372 114.984 309.872 113.663 310.03 112.282C310.221 109.443 308.903 106.795 308.723 104.204C308.441 101.914 308.739 99.5889 309.59 97.4441C310.175 96.0125 311.059 94.722 312.182 93.6586C312.48 93.3675 312.8 93.1001 313.139 92.8587C313.252 92.763 313.377 92.6834 313.511 92.6221C313.511 92.6221 313.072 93.0389 312.385 93.8163C311.363 94.9171 310.561 96.2016 310.019 97.6018C309.255 99.69 309.008 101.932 309.298 104.136C309.481 105.445 309.752 106.74 310.109 108.012C310.531 109.414 310.717 110.876 310.661 112.338C310.49 113.808 309.96 115.212 309.117 116.428C308.37 117.51 307.693 118.639 307.089 119.808C306.164 121.83 305.821 124.069 306.098 126.275C306.273 127.767 306.712 129.217 307.393 130.556C307.855 131.548 308.216 131.998 308.171 132.055Z" fill="#455A64"/>
<path d="M328.811 77.6151C327.383 77.7972 325.97 78.0872 324.586 78.4826C321.281 79.5402 318.42 81.664 316.451 84.5214C314.621 87.4687 313.617 90.8543 313.545 94.3232C313.558 95.763 313.694 97.199 313.95 98.6157C313.754 98.2651 313.617 97.8844 313.545 97.4891C313.28 96.4465 313.14 95.3762 313.128 94.3007C313.08 90.7196 314.061 87.2001 315.956 84.1609C317.988 81.1896 320.998 79.0248 324.462 78.0432C325.497 77.7487 326.564 77.5748 327.639 77.525C328.032 77.4948 328.427 77.5252 328.811 77.6151V77.6151Z" fill="#455A64"/>
<path d="M321.217 92.0582C321.064 91.7555 320.969 91.427 320.936 91.0893C320.768 90.1679 320.726 89.2279 320.812 88.2952C320.934 86.7432 321.372 85.2325 322.099 83.8561C322.826 82.4796 323.828 81.2665 325.041 80.2914C326.255 79.3163 327.655 78.5998 329.156 78.186C330.657 77.7722 332.226 77.6698 333.768 77.8851C334.693 77.9999 335.599 78.2386 336.461 78.5949C336.79 78.7014 337.096 78.8697 337.362 79.0906C336.176 78.7172 334.958 78.4532 333.723 78.3019C330.737 77.9887 327.749 78.8679 325.409 80.7482C323.068 82.6284 321.566 85.3573 321.229 88.3403C321.115 89.5769 321.111 90.821 321.217 92.0582Z" fill="#455A64"/>
<path d="M372.525 252.199L360.346 205.117L364.559 186.696L370.632 152.12C370.632 152.12 365.055 144.492 350.612 143.76L349.643 136.764L324.913 137.631L324.451 144.245C320.779 145.156 317.34 146.832 314.358 149.161C311.376 151.49 308.919 154.422 307.146 157.764L289.581 190.797L241.541 214.84L247.884 229.723C247.884 229.723 296.105 211.449 300.183 209.657C302.898 208.474 305.816 203.472 308.396 198.109C310.323 207.325 312.317 214.626 312.317 214.626L311.9 250.746L372.525 252.199Z" fill="#F76400"/>
<path d="M350.983 156.626C350.983 156.626 350.352 156.807 349.237 157.145C348.121 157.483 346.51 157.989 344.527 158.665C342.544 159.341 340.201 160.164 337.486 160.806C336.055 161.172 334.579 161.335 333.103 161.291C331.51 161.1 329.975 160.578 328.597 159.758C327.177 159.003 325.87 158.158 324.541 157.505C323.273 156.854 321.935 156.351 320.552 156.007C318.2 155.42 315.76 155.267 313.353 155.556C311.134 155.885 308.968 156.502 306.909 157.392C307.028 157.288 307.16 157.201 307.303 157.133C307.691 156.905 308.094 156.702 308.509 156.525C310.036 155.851 311.646 155.385 313.297 155.139C317.23 154.561 321.246 155.206 324.8 156.987C326.163 157.674 327.481 158.519 328.878 159.24C330.178 160.017 331.624 160.52 333.126 160.716C334.544 160.76 335.961 160.613 337.339 160.277C340.021 159.679 342.387 158.88 344.381 158.271C346.375 157.663 348.009 157.144 349.158 156.919C349.732 156.784 350.183 156.705 350.487 156.66C350.649 156.616 350.817 156.605 350.983 156.626V156.626Z" fill="#FAFAFA"/>
<path d="M358.43 180.522C358.43 180.59 357.484 180.353 355.749 180.263C353.308 180.2 350.873 180.531 348.538 181.243C345.081 182.341 341.72 183.72 338.489 185.367C334.51 187.456 330.242 188.941 325.825 189.772C324.65 189.937 323.463 190.001 322.276 189.964C321.116 189.916 319.964 189.746 318.84 189.457C316.742 188.856 314.748 187.941 312.925 186.741C309.444 184.488 306.503 182.235 303.552 181.3C301.285 180.398 298.782 180.283 296.442 180.973C295.604 181.287 294.806 181.699 294.065 182.201C294.225 182.025 294.402 181.866 294.595 181.728C295.136 181.324 295.732 180.998 296.364 180.759C298.749 179.964 301.335 180.016 303.687 180.905C306.729 181.84 309.759 184.128 313.218 186.279C314.997 187.439 316.942 188.321 318.987 188.893C320.071 189.17 321.181 189.333 322.299 189.378C323.451 189.414 324.605 189.35 325.746 189.186C330.104 188.362 334.32 186.912 338.263 184.882C341.521 183.246 344.914 181.893 348.403 180.838C350.787 180.15 353.272 179.879 355.749 180.038C356.417 180.089 357.079 180.191 357.732 180.342C357.969 180.382 358.203 180.443 358.43 180.522V180.522Z" fill="#FAFAFA"/>
<path d="M313.342 164.051C313.342 164.051 313.342 164.22 313.229 164.536C313.117 164.851 313.004 165.302 312.801 165.888C312.407 167.014 311.776 168.727 310.965 170.766C310.154 172.805 309.162 175.273 308.272 177.977C307.802 179.412 307.426 180.876 307.145 182.359C306.812 183.932 306.683 185.542 306.762 187.147C306.986 190.28 307.446 193.39 308.137 196.454C308.723 199.293 309.342 201.828 309.861 203.968C310.379 206.109 310.796 207.833 311.055 209.038C311.19 209.635 311.28 210.165 311.337 210.424C311.383 210.585 311.402 210.752 311.393 210.92C311.16 210.326 310.972 209.716 310.83 209.094L309.444 204.103C308.88 201.974 308.216 199.439 307.596 196.6C306.865 193.516 306.387 190.377 306.165 187.215C306.082 185.559 306.218 183.9 306.571 182.28C306.85 180.778 307.226 179.295 307.697 177.841C308.621 175.07 309.669 172.659 310.525 170.642C311.382 168.625 312.069 166.981 312.531 165.843C312.757 165.226 313.028 164.628 313.342 164.051Z" fill="#263238"/>
<path d="M285.829 215.279C285.536 215.32 285.238 215.285 284.962 215.178C284.204 214.94 283.5 214.558 282.889 214.051C281.975 213.305 281.181 212.424 280.534 211.437C279.803 210.189 279.292 208.825 279.024 207.404C278.751 206.04 278.374 204.699 277.898 203.393C277.473 202.353 276.832 201.416 276.016 200.644C275.244 199.953 274.297 199.485 273.279 199.292C273.279 199.292 273.583 199.202 274.146 199.292C274.939 199.449 275.676 199.81 276.287 200.34C277.197 201.112 277.918 202.084 278.393 203.179C278.932 204.501 279.346 205.87 279.633 207.269C279.891 208.628 280.367 209.936 281.041 211.144C281.63 212.107 282.359 212.976 283.204 213.724C283.761 214.241 284.396 214.667 285.086 214.986C285.536 215.178 285.841 215.223 285.829 215.279Z" fill="#FAFAFA"/>
<path d="M258.305 225.78C258.204 225.78 258.305 224.788 258.057 223.211C257.774 221.162 257.225 219.158 256.424 217.251C255.644 215.339 254.614 213.539 253.359 211.899C252.39 210.638 251.647 209.984 251.714 209.905C252.478 210.346 253.148 210.931 253.686 211.629C255.062 213.24 256.169 215.062 256.965 217.026C257.796 218.977 258.302 221.051 258.463 223.166C258.574 224.039 258.521 224.926 258.305 225.78V225.78Z" fill="#FAFAFA"/>
<path d="M360.503 204.689C360.503 204.689 359.794 204.689 358.52 204.847C356.718 205.022 354.934 205.358 353.191 205.85C350.938 206.447 348.415 207.382 345.553 208.419C342.456 209.62 339.248 210.515 335.976 211.089C329.998 212.002 323.888 211.477 318.153 209.556C316.426 208.968 314.746 208.249 313.128 207.405C312.554 207.1 312.125 206.841 311.832 206.672C311.54 206.503 311.393 206.357 311.393 206.357C312.012 206.603 312.617 206.882 313.207 207.191C314.851 207.948 316.541 208.602 318.266 209.151C323.971 210.939 330.009 211.402 335.92 210.503C339.156 209.931 342.332 209.06 345.406 207.9C348.268 206.898 350.871 205.985 353.124 205.433C354.892 204.968 356.705 204.692 358.532 204.61C359.027 204.58 359.524 204.58 360.019 204.61C360.183 204.615 360.346 204.641 360.503 204.689V204.689Z" fill="#FAFAFA"/>
<g opacity="0.3">
<path opacity="0.3" d="M326.197 144.267C329.452 146.09 333.117 147.055 336.848 147.073C340.578 147.091 344.252 146.16 347.524 144.368C340.374 144.721 333.216 144.748 326.051 144.447" fill="black"/>
</g>
<path d="M350.442 143.614C350.133 143.772 349.803 143.885 349.462 143.952C348.558 144.215 347.635 144.411 346.702 144.538C343.624 144.937 340.516 145.043 337.418 144.853C333.79 144.695 330.534 144.481 328.169 144.47C325.803 144.459 324.338 144.538 324.338 144.47C324.666 144.362 325.007 144.302 325.352 144.29C326.017 144.2 326.974 144.132 328.169 144.087C330.546 143.997 333.802 144.143 337.441 144.301C340.512 144.484 343.593 144.435 346.657 144.154C349 143.873 350.42 143.512 350.442 143.614Z" fill="#263238"/>
<path d="M335.278 195.541C335.942 196.859 374.913 227.943 386.089 236.832C386.478 237.142 386.801 237.526 387.041 237.961C387.281 238.396 387.433 238.875 387.487 239.369C387.542 239.863 387.498 240.363 387.359 240.84C387.219 241.318 386.987 241.763 386.675 242.15L360.672 274.428C360.05 275.204 359.147 275.702 358.159 275.814C357.171 275.926 356.179 275.642 355.4 275.025L305.591 235.593C305.191 235.276 304.859 234.882 304.616 234.433C304.374 233.985 304.225 233.492 304.178 232.984C304.132 232.476 304.189 231.964 304.347 231.479C304.504 230.994 304.759 230.546 305.095 230.162L335.278 195.541Z" fill="#263238"/>
<path d="M334.681 190.031C335.368 191.394 377.099 224.653 386.563 232.179C387.059 232.579 387.376 233.159 387.446 233.792C387.515 234.426 387.332 235.061 386.934 235.559L359.23 269.967C358.83 270.463 358.25 270.78 357.617 270.85C356.984 270.919 356.348 270.736 355.85 270.338L303.867 229.126C303.612 228.924 303.4 228.672 303.244 228.386C303.088 228.1 302.993 227.785 302.962 227.461C302.931 227.136 302.967 226.809 303.066 226.499C303.166 226.189 303.327 225.902 303.54 225.656L334.681 190.031Z" fill="#F76400"/>
<path opacity="0.4" d="M334.681 190.031C335.368 191.406 377.899 225.284 386.822 232.393C387.036 232.563 387.214 232.773 387.345 233.013C387.477 233.252 387.56 233.515 387.589 233.786C387.619 234.058 387.594 234.332 387.516 234.594C387.439 234.856 387.31 235.099 387.137 235.311L358.971 270.237C358.626 270.665 358.126 270.94 357.579 271.001C357.033 271.063 356.484 270.905 356.053 270.564L303.552 228.878C303.33 228.704 303.146 228.487 303.011 228.24C302.876 227.993 302.793 227.72 302.766 227.44C302.74 227.16 302.771 226.877 302.857 226.609C302.944 226.341 303.084 226.093 303.27 225.881L334.681 190.031Z" fill="black"/>
<path d="M338.984 190.64C352.2 201.647 387.926 230.072 387.926 230.072L360.233 264.468C359.431 265.456 358.274 266.09 357.01 266.233C355.745 266.376 354.476 266.018 353.473 265.235L305.41 227.132C304.896 226.722 304.469 226.213 304.156 225.635C303.843 225.056 303.651 224.42 303.591 223.765C303.531 223.11 303.605 222.45 303.807 221.824C304.009 221.198 304.336 220.62 304.768 220.124L329.859 191.406C330.982 190.118 332.563 189.317 334.266 189.174C335.97 189.031 337.662 189.557 338.984 190.64V190.64Z" fill="#455A64"/>
<path d="M372.074 217.397L372.772 222.265L385.436 233.137L387.926 230.038L372.074 217.397Z" fill="#FAFAFA"/>
<path d="M335.052 265.438L346.995 255.478L341.193 241.666L333.148 248.966C331.262 249.467 329.336 249.803 327.391 249.969C326.391 250.069 325.38 249.992 324.406 249.744C323.187 249.486 322.008 249.066 320.902 248.493C319.944 247.851 318.716 248.718 319.077 249.687C319.437 250.656 322.028 252.481 325.679 253.067C328.957 253.574 325.251 255.996 323.144 257.281C322.958 257.394 322.821 257.571 322.758 257.779C322.696 257.987 322.713 258.211 322.806 258.407C323.899 260.886 328.202 269.009 335.052 265.438Z" fill="#FFBE9D"/>
<path d="M354.003 167.645C353.112 155.252 364.615 142.679 371.33 153.1C378.699 164.524 394.843 191.406 398.82 209.658C400.679 218.164 349.687 258.723 346.544 261.224C346.454 261.303 345.632 260.176 345.564 260.098L332.957 247.028C332.901 246.95 335.92 243.863 335.999 243.784L371.905 208.61C371.93 208.575 371.943 208.534 371.943 208.492C371.943 208.449 371.93 208.408 371.905 208.373C370.699 206.176 354.847 177.256 354.003 167.938V167.645Z" fill="#F76400"/>
<path d="M382.371 208.373C382.293 208.599 379.915 207.844 376.885 207.776C373.854 207.709 371.443 208.283 371.375 208.047C371.308 207.81 373.73 206.852 376.918 206.92C380.107 206.988 382.371 208.182 382.371 208.373Z" fill="#263238"/>
<path d="M380.118 212.339C379.927 212.496 378.473 210.885 376.141 209.702C373.809 208.519 371.635 208.227 371.691 207.979C371.747 207.731 374.023 207.674 376.513 208.981C379.003 210.288 380.287 212.237 380.118 212.339Z" fill="#263238"/>
<path d="M371.905 208.61C371.748 208.404 371.616 208.181 371.51 207.945L370.485 206.007L366.835 198.831C363.77 192.69 359.591 184.308 354.983 175.047C352.569 170.739 351.123 165.956 350.746 161.032C350.431 156.525 351.738 152.255 354.126 149.765C355.196 148.619 356.536 147.759 358.025 147.264C359.14 146.885 360.322 146.743 361.495 146.847C362.233 146.911 362.956 147.093 363.635 147.388C363.872 147.49 364.03 147.602 364.142 147.659C364.255 147.715 364.311 147.76 364.3 147.771C363.407 147.383 362.455 147.146 361.483 147.073C360.334 147.004 359.182 147.176 358.103 147.58C356.684 148.084 355.41 148.932 354.397 150.047C352.144 152.514 350.882 156.627 351.22 161.054C351.652 165.892 353.112 170.582 355.501 174.811C360.064 184.094 364.187 192.51 367.207 198.673C368.66 201.692 369.843 204.148 370.688 205.929L371.612 207.923C371.726 208.144 371.824 208.374 371.905 208.61V208.61Z" fill="#263238"/>
<g opacity="0.3">
<path opacity="0.3" d="M351.366 160.683C350.059 171.667 349.113 182.776 350.127 193.783C350.668 199.586 356.808 206.852 361.641 210.108L360.345 205.117C361.055 201.884 363.421 191.665 363.421 191.665C363.421 191.665 359.016 182.945 357.258 179.757C353.879 173.925 351.864 167.404 351.366 160.683" fill="black"/>
</g>
<path d="M395.226 198.729C395.226 198.729 394.979 199.01 394.449 199.45C394.19 199.664 393.852 199.912 393.446 200.182C393.041 200.452 392.59 200.768 392.061 201.072C390.827 201.799 389.539 202.428 388.207 202.954C386.575 203.593 384.895 204.102 383.183 204.475C381.468 204.834 379.727 205.053 377.978 205.128C376.544 205.183 375.107 205.115 373.685 204.925C373.139 204.86 372.597 204.763 372.063 204.632C371.658 204.561 371.258 204.459 370.868 204.328C370.519 204.257 370.184 204.128 369.877 203.945C369.877 203.844 371.342 204.283 373.741 204.508C375.142 204.639 376.55 204.669 377.955 204.599C379.67 204.479 381.375 204.246 383.059 203.9C384.742 203.53 386.399 203.044 388.016 202.447C389.332 201.95 390.615 201.37 391.858 200.712C393.976 199.596 395.159 198.65 395.226 198.729Z" fill="#FAFAFA"/>
<path d="M374.293 236.483C373.832 235.456 373.455 234.394 373.167 233.306C372.376 230.731 371.385 228.222 370.203 225.802C369.542 224.483 368.761 223.228 367.871 222.051C367.145 221.099 366.3 220.244 365.359 219.504C363.737 218.254 362.52 217.769 362.576 217.668C362.88 217.71 363.173 217.805 363.444 217.95C364.204 218.281 364.929 218.689 365.607 219.166C366.616 219.889 367.522 220.745 368.299 221.713C369.235 222.9 370.047 224.18 370.722 225.532C371.93 227.981 372.882 230.548 373.561 233.193C373.915 234.262 374.161 235.364 374.293 236.483V236.483Z" fill="#FAFAFA"/>
<path d="M360.965 248.932C359.934 248.695 358.94 248.316 358.013 247.806C355.723 246.707 353.592 245.3 351.682 243.626C349.771 241.949 348.092 240.024 346.691 237.902C346.066 237.053 345.572 236.115 345.226 235.12C345.305 235.12 345.902 236.111 347.04 237.666C349.97 241.729 353.789 245.069 358.205 247.434C359.839 248.38 360.965 248.842 360.965 248.932Z" fill="#FAFAFA"/>
<path d="M373.606 156.784C373.34 156.966 373.042 157.096 372.727 157.167C371.9 157.423 371.052 157.604 370.192 157.708C368.018 158.035 364.976 157.843 361.709 158.023C360.174 158.089 358.656 158.373 357.202 158.868C356.027 159.282 354.939 159.908 353.991 160.716C353.142 161.497 352.43 162.415 351.884 163.431C351.905 163.109 352.002 162.797 352.166 162.519C352.542 161.725 353.066 161.01 353.709 160.412C354.663 159.516 355.785 158.819 357.01 158.361C358.504 157.826 360.068 157.515 361.652 157.438C365.032 157.257 367.995 157.505 370.136 157.291C372.277 157.077 373.572 156.671 373.606 156.784Z" fill="#FAFAFA"/>
<path d="M385.244 177.75C385.161 178.092 384.99 178.407 384.749 178.663C384.146 179.393 383.372 179.962 382.495 180.319C381.187 180.802 379.811 181.08 378.417 181.142C376.754 181.262 375.099 181.477 373.46 181.784C370.483 182.368 367.581 183.283 364.807 184.51C362.678 185.457 361.427 186.189 361.427 186.11C361.669 185.867 361.946 185.662 362.25 185.502C363.035 185.003 363.848 184.548 364.683 184.139C367.442 182.776 370.371 181.791 373.392 181.209C376.93 180.443 380.265 180.792 382.405 179.925C383.54 179.486 384.525 178.732 385.244 177.75V177.75Z" fill="#FAFAFA"/>
<path d="M106.806 65.7397C109.11 65.9164 111.355 66.5574 113.406 67.6242C115.456 68.691 117.27 70.1616 118.737 71.9475C121.636 75.5361 123.675 79.7408 124.697 84.2392C126.95 92.8355 125.429 102.964 122.906 111.481C113.633 108.101 107.989 98.1194 105.443 92.8918C101.42 84.611 99.1672 67.2269 106.862 65.7397" fill="#F76400"/>
<path d="M136.132 122.004C134.76 119.828 133.985 117.328 133.887 114.757C133.788 112.186 134.368 109.634 135.569 107.358C136.815 105.106 138.496 103.124 140.516 101.529C142.535 99.9329 144.852 98.7549 147.331 98.0632C149.584 97.3872 152.243 97.1169 154.203 98.4576C155.08 99.1407 155.759 100.044 156.173 101.075C156.586 102.106 156.719 103.228 156.558 104.327C156.191 106.527 155.251 108.59 153.832 110.31C149.258 116.394 143.692 121.441 136.132 122.004" fill="#F76400"/>
<g opacity="0.3">
<path opacity="0.3" d="M136.132 122.004C134.76 119.828 133.985 117.328 133.887 114.757C133.788 112.186 134.368 109.634 135.569 107.358C136.815 105.106 138.496 103.124 140.516 101.529C142.535 99.9329 144.852 98.7549 147.331 98.0632C149.584 97.3872 152.243 97.1169 154.203 98.4576C155.08 99.1407 155.759 100.044 156.173 101.075C156.586 102.106 156.719 103.228 156.558 104.327C156.191 106.527 155.251 108.59 153.832 110.31C149.258 116.394 143.692 121.441 136.132 122.004" fill="white"/>
</g>
<path d="M126.24 131.119C123.353 126.525 119.413 122.684 114.746 119.916C110.079 117.148 104.82 115.531 99.4036 115.2C96.6433 115.064 93.3535 115.594 92.1818 118.084C91.0101 120.574 92.7001 123.469 94.6154 125.463C98.6848 129.541 103.87 132.323 109.517 133.46C115.165 134.597 121.023 134.037 126.353 131.851" fill="#F76400"/>
<g opacity="0.3">
<path opacity="0.3" d="M126.24 131.119C123.353 126.525 119.413 122.684 114.746 119.916C110.079 117.148 104.82 115.531 99.4036 115.2C96.6433 115.064 93.3535 115.594 92.1818 118.084C91.0101 120.574 92.7001 123.469 94.6154 125.463C98.6848 129.541 103.87 132.323 109.517 133.46C115.165 134.597 121.023 134.037 126.353 131.851" fill="white"/>
</g>
<path d="M136.211 151.523C136.028 150.927 135.899 150.316 135.828 149.698C135.625 148.515 135.344 146.802 135.062 144.684C134.213 139.147 134.088 133.523 134.69 127.953C135.339 122.34 137.479 117.003 140.887 112.496C141.934 111.153 143.141 109.942 144.481 108.891C144.842 108.601 145.218 108.33 145.607 108.079C145.737 107.98 145.882 107.9 146.035 107.843C144.254 109.296 142.637 110.939 141.213 112.744C137.967 117.253 135.92 122.514 135.265 128.032C134.684 133.557 134.756 139.131 135.479 144.639C135.715 146.678 135.907 148.379 136.053 149.664C136.15 150.279 136.203 150.9 136.211 151.523V151.523Z" fill="#263238"/>
<path d="M109.724 78.8315C109.86 79.0593 109.981 79.2965 110.084 79.5413C110.321 80.0709 110.636 80.7581 111.019 81.6256C111.819 83.4282 112.946 86.0646 114.32 89.3318C117.058 95.8551 120.72 104.925 124.539 115.031C128.358 125.137 131.614 134.364 133.879 141.079C135.005 144.458 135.907 147.151 136.504 149.033C136.774 149.934 137 150.666 137.169 151.218C137.266 151.465 137.334 151.722 137.371 151.984C137.242 151.752 137.136 151.506 137.056 151.252C136.864 150.711 136.605 150.002 136.279 149.111C135.603 147.185 134.645 144.504 133.485 141.225C131.119 134.555 127.851 125.351 123.998 115.256C120.145 105.161 116.574 96.103 113.937 89.5008L110.805 81.727C110.467 80.8482 110.186 80.1384 109.971 79.5977C109.86 79.3524 109.777 79.0954 109.724 78.8315V78.8315Z" fill="#263238"/>
<path d="M103.798 122.32C104.393 122.308 104.988 122.342 105.578 122.421C106.27 122.474 106.959 122.572 107.639 122.714C108.555 122.862 109.461 123.061 110.355 123.311L111.909 123.739C112.45 123.897 113.036 124.122 113.566 124.314C114.773 124.757 115.958 125.26 117.114 125.824C122.45 128.422 127.118 132.211 130.758 136.898C131.558 138.025 132.347 139.028 133.011 140.076C133.327 140.594 133.654 141.078 133.913 141.574L134.656 143.016C135.152 143.917 135.467 144.796 135.783 145.54C136.059 146.181 136.292 146.839 136.481 147.511C136.684 148.073 136.842 148.649 136.955 149.235C136.819 149.235 136.166 146.813 134.273 143.208C134.025 142.757 133.777 142.284 133.507 141.799C133.237 141.315 132.91 140.853 132.583 140.346C131.886 139.271 131.134 138.233 130.33 137.236C126.694 132.659 122.103 128.93 116.878 126.308C115.661 125.745 114.523 125.181 113.385 124.776C112.833 124.573 112.259 124.336 111.774 124.167L110.242 123.705C106.344 122.59 103.775 122.455 103.798 122.32Z" fill="#263238"/>
<path d="M118.568 143.196H151.95V162.732C151.95 166.405 150.491 169.926 147.895 172.523C145.298 175.12 141.776 176.579 138.104 176.579H132.414C128.742 176.579 125.22 175.12 122.623 172.523C120.027 169.926 118.568 166.405 118.568 162.732V143.196Z" fill="#F76400"/>
<path opacity="0.3" d="M118.568 143.196H151.95V162.732C151.95 166.405 150.491 169.926 147.895 172.523C145.298 175.12 141.776 176.579 138.104 176.579H132.414C128.742 176.579 125.22 175.12 122.623 172.523C120.027 169.926 118.568 166.405 118.568 162.732V143.196Z" fill="black"/>
<path d="M141.123 143.264C141.05 143.613 140.921 143.948 140.74 144.256C140.315 145.122 139.818 145.952 139.253 146.734C137.395 149.347 134.933 151.473 132.077 152.931C129.221 154.388 126.055 155.134 122.849 155.105C121.886 155.105 120.925 155.022 119.976 154.857C119.622 154.823 119.275 154.732 118.951 154.587C118.951 154.486 120.438 154.778 122.838 154.7C125.96 154.607 129.023 153.822 131.805 152.401C134.587 150.981 137.019 148.961 138.926 146.486C140.391 144.616 141.022 143.264 141.123 143.264Z" fill="#FAFAFA"/>
<path d="M151.635 165.797C151.249 165.787 150.868 165.711 150.508 165.572C149.548 165.265 148.625 164.849 147.759 164.332C144.842 162.623 142.631 159.927 141.526 156.731C140.421 153.535 140.494 150.05 141.732 146.903C142.098 145.965 142.566 145.069 143.129 144.233C143.323 143.919 143.562 143.634 143.838 143.388C143.184 144.568 142.612 145.791 142.126 147.05C141.039 150.113 141.027 153.456 142.092 156.527C143.157 159.598 145.235 162.216 147.985 163.949C149.157 164.649 150.377 165.266 151.635 165.797V165.797Z" fill="#FAFAFA"/>
<path d="M143.084 175.666C143.052 173.999 142.818 172.342 142.385 170.731C141.842 169.015 140.999 167.409 139.895 165.988C138.539 164.256 136.864 162.799 134.961 161.696C131.44 159.725 127.381 158.935 123.379 159.442C121.723 159.717 120.087 160.093 118.478 160.569C118.868 160.335 119.284 160.146 119.717 160.006C120.883 159.576 122.092 159.27 123.322 159.093C127.426 158.435 131.631 159.185 135.253 161.222C137.227 162.371 138.951 163.904 140.323 165.729C141.444 167.214 142.277 168.895 142.779 170.686C143.113 171.889 143.269 173.134 143.241 174.382C143.242 174.815 143.189 175.246 143.084 175.666V175.666Z" fill="#FAFAFA"/>
<path d="M147.838 176.579H42.7561V481.595H147.838V176.579Z" fill="#263238"/>
<path d="M204.249 176.579H89.1963V481.594H204.249V176.579Z" fill="#455A64"/>
<path d="M199.111 263.15H96.5757V326.118H199.111V263.15Z" fill="#455A64"/>
<path d="M131.13 411.844H166.247V413.432C166.255 413.757 166.197 414.08 166.077 414.382C165.958 414.684 165.778 414.959 165.55 415.19C165.322 415.421 165.05 415.604 164.75 415.728C164.449 415.852 164.127 415.914 163.803 415.911H133.563C132.921 415.911 132.305 415.656 131.851 415.201C131.396 414.747 131.141 414.131 131.141 413.489V411.9L131.13 411.844Z" fill="#263238"/>
<path d="M198.886 411.844C198.886 411.844 198.886 412.216 198.886 412.97C198.886 413.725 198.886 414.818 198.886 416.238C198.886 419.144 198.886 423.381 198.886 428.822C198.886 439.784 198.965 455.546 199.01 474.846V475.071H198.785L96.2604 475.139H95.9111V474.846C95.9111 452.561 95.9111 431.301 95.9111 411.956V411.686H96.1815L170.157 411.754H191.27H196.903H198.334H198.807H198.3H196.836H191.203L170.022 411.844L96.2266 412.035L96.497 411.765C96.497 431.109 96.497 452.324 96.497 474.654L96.2041 474.361L198.729 474.417L198.492 474.654C198.492 455.411 198.593 439.728 198.616 428.777C198.616 423.313 198.616 419.054 198.672 416.136C198.672 414.694 198.672 413.59 198.672 412.824C198.864 412.238 198.886 411.844 198.886 411.844Z" fill="#263238"/>
<path d="M164.884 427.223H134.352V435.47H164.884V427.223Z" fill="#E0E0E0"/>
<path d="M199.111 333.238H96.5757V396.206H199.111V333.238Z" fill="#455A64"/>
<path d="M130.995 341.406H166.112V342.995C166.112 343.637 165.857 344.253 165.403 344.708C164.948 345.162 164.332 345.417 163.69 345.417H133.383C132.741 345.417 132.125 345.162 131.67 344.708C131.216 344.253 130.961 343.637 130.961 342.995V341.406H130.995Z" fill="#263238"/>
<path d="M199.855 341.406C199.855 341.406 199.855 341.778 199.855 342.533C199.855 343.287 199.855 344.38 199.855 345.8C199.855 348.707 199.855 352.943 199.911 358.384C199.911 369.347 199.99 385.108 200.035 404.408V404.633H199.855L97.3307 404.644H96.9814V404.351C96.9814 382.066 96.9814 360.807 96.9814 341.462V341.192H97.2518L171.227 341.259L192.34 341.316H197.974H199.404H199.855H199.348H197.884H192.25L171.069 341.406L97.2744 341.609L97.5448 341.327C97.5448 360.672 97.5448 381.886 97.5448 404.216L97.2518 403.923L199.776 403.98L199.54 404.216C199.596 384.973 199.641 369.29 199.664 358.339C199.664 352.875 199.664 348.616 199.664 345.698C199.664 344.256 199.664 343.152 199.664 342.386C199.855 341.812 199.855 341.406 199.855 341.406Z" fill="#263238"/>
<path d="M163.825 356.3H133.293V364.547H163.825V356.3Z" fill="#E0E0E0"/>
<path d="M131.366 184.95H166.484V186.538C166.484 187.181 166.229 187.797 165.774 188.251C165.32 188.705 164.704 188.961 164.062 188.961H133.789C133.146 188.961 132.53 188.705 132.076 188.251C131.622 187.797 131.366 187.181 131.366 186.538V184.95Z" fill="#263238"/>
<path d="M199.112 184.949C199.112 184.949 199.112 185.31 199.112 186.076C199.112 186.842 199.112 187.924 199.112 189.354C199.112 192.25 199.112 196.497 199.168 201.939C199.168 212.89 199.236 228.652 199.292 247.951V248.176H199.055L96.5308 248.233H96.2041V247.94C96.2041 225.655 96.2041 204.406 96.2041 185.062V184.792H96.4745L170.439 184.859H191.563H197.196H198.627H199.1H198.593H197.14H191.507L170.337 184.949L96.5421 185.152L96.8125 184.882C96.8125 204.226 96.8125 225.441 96.8125 247.76L96.5196 247.467L199.044 247.534L198.819 247.76C198.819 228.516 198.909 212.834 198.943 201.883C198.943 196.43 198.943 192.171 198.999 189.253C198.999 187.811 198.999 186.707 198.999 185.941C198.999 185.175 199.112 184.949 199.112 184.949Z" fill="#263238"/>
<path d="M163.645 198.312H133.113V206.559H163.645V198.312Z" fill="#E0E0E0"/>
<path d="M96.9026 283.564V259.905C96.9026 258.925 97.2919 257.985 97.9849 257.292C98.678 256.599 99.6179 256.209 100.598 256.209H163.622C164.587 256.209 165.513 256.593 166.196 257.275C166.878 257.958 167.261 258.883 167.261 259.849V283.508L96.9026 283.564Z" fill="#F76400"/>
<path opacity="0.3" d="M96.9026 283.564V259.905C96.9026 258.925 97.2919 257.985 97.9849 257.292C98.678 256.599 99.6179 256.209 100.598 256.209H163.622C164.587 256.209 165.513 256.593 166.196 257.275C166.878 257.958 167.261 258.883 167.261 259.849V283.508L96.9026 283.564Z" fill="black"/>
<path d="M103.347 283.565V262.767C103.347 262.669 103.384 262.575 103.451 262.504C103.518 262.432 103.61 262.39 103.707 262.384H167.261V283.565H103.347Z" fill="#FAFAFA"/>
<path d="M181.581 258.395L179.767 283.565H111.369L113.194 260.209C113.374 257.956 114.929 256.244 116.788 256.255L150.058 256.435C150 255.77 150.203 255.108 150.623 254.589C151.043 254.07 151.648 253.734 152.311 253.652H177.998C180.105 253.675 181.761 255.849 181.581 258.395Z" fill="#F76400"/>
<path d="M124.911 281.12V257.46C124.911 256.974 125.007 256.492 125.193 256.043C125.379 255.594 125.653 255.186 125.997 254.843C126.341 254.5 126.75 254.228 127.2 254.043C127.649 253.858 128.131 253.763 128.617 253.765H191.642C192.607 253.765 193.532 254.148 194.215 254.831C194.897 255.513 195.281 256.439 195.281 257.404V281.131L124.911 281.12Z" fill="#F76400"/>
<path opacity="0.3" d="M124.911 281.12V257.46C124.911 256.974 125.007 256.492 125.193 256.043C125.379 255.594 125.653 255.186 125.997 254.843C126.341 254.5 126.75 254.228 127.2 254.043C127.649 253.858 128.131 253.763 128.617 253.765H191.642C192.607 253.765 193.532 254.148 194.215 254.831C194.897 255.513 195.281 256.439 195.281 257.404V281.131L124.911 281.12Z" fill="black"/>
<path d="M131.366 281.12V260.311C131.365 260.262 131.373 260.214 131.391 260.169C131.408 260.124 131.434 260.083 131.468 260.049C131.502 260.014 131.542 259.986 131.586 259.967C131.631 259.949 131.679 259.939 131.727 259.939H195.281V281.12H131.366Z" fill="#FAFAFA"/>
<path d="M209.601 255.928L207.742 281.12H139.377L141.27 257.753C141.266 256.765 141.633 255.812 142.299 255.082C142.964 254.351 143.88 253.898 144.864 253.81L178.133 253.979C178.076 253.314 178.279 252.652 178.699 252.133C179.119 251.614 179.724 251.278 180.387 251.196H206.04C208.125 251.196 209.781 253.393 209.601 255.928Z" fill="#F76400"/>
<path d="M163.893 282.483V258.823C163.891 258.337 163.986 257.855 164.171 257.406C164.356 256.956 164.628 256.547 164.971 256.203C165.314 255.859 165.722 255.585 166.171 255.399C166.621 255.213 167.102 255.117 167.588 255.117H230.613C231.091 255.117 231.566 255.211 232.008 255.395C232.45 255.578 232.852 255.847 233.19 256.187C233.528 256.526 233.796 256.928 233.978 257.371C234.16 257.814 234.253 258.288 234.252 258.767V282.483H163.893Z" fill="#F76400"/>
<path opacity="0.3" d="M163.893 282.483V258.823C163.891 258.337 163.986 257.855 164.171 257.406C164.356 256.956 164.628 256.547 164.971 256.203C165.314 255.859 165.722 255.585 166.171 255.399C166.621 255.213 167.102 255.117 167.588 255.117H230.613C231.091 255.117 231.566 255.211 232.008 255.395C232.45 255.578 232.852 255.847 233.19 256.187C233.528 256.526 233.796 256.928 233.978 257.371C234.16 257.814 234.253 258.288 234.252 258.767V282.483H163.893Z" fill="black"/>
<path d="M170.348 282.483V261.685C170.345 261.588 170.38 261.494 170.445 261.422C170.51 261.351 170.601 261.308 170.698 261.302H234.251V282.483H170.348Z" fill="#FAFAFA"/>
<path d="M238.015 255.883H173.548V293.67H238.015V255.883Z" fill="#E0E0E0"/>
<path d="M243.321 239.107H178.359V279.396H243.321V239.107Z" fill="#F5F5F5"/>
<path d="M190.2 276.85C190.031 276.85 189.907 269.887 189.907 261.302C189.907 252.717 190.031 245.754 190.2 245.754C190.369 245.754 190.493 252.717 190.493 261.302C190.493 269.887 190.358 276.85 190.2 276.85Z" fill="#263238"/>
<path d="M194.808 276.85C194.65 276.85 194.515 269.887 194.515 261.302C194.515 252.717 194.65 245.754 194.808 245.754C194.966 245.754 195.101 252.717 195.101 261.302C195.101 269.887 194.977 276.85 194.808 276.85Z" fill="#263238"/>
<path d="M199.855 276.85C199.686 276.85 199.562 269.887 199.562 261.302C199.562 252.717 199.686 245.754 199.855 245.754C200.024 245.754 200.148 252.717 200.148 261.302C200.148 269.887 200.002 276.85 199.855 276.85Z" fill="#263238"/>
<path d="M204.869 276.85C204.711 276.85 204.576 269.887 204.576 261.302C204.576 252.717 204.711 245.754 204.869 245.754C205.027 245.754 205.162 252.717 205.162 261.302C205.162 269.887 205.027 276.85 204.869 276.85Z" fill="#263238"/>
<path d="M209.894 276.85C209.736 276.85 209.601 269.887 209.601 261.302C209.601 252.717 209.736 245.754 209.894 245.754C210.051 245.754 210.186 252.717 210.186 261.302C210.186 269.887 210.063 276.85 209.894 276.85Z" fill="#263238"/>
<path d="M214.93 276.85C214.761 276.85 214.637 269.887 214.637 261.302C214.637 252.717 214.761 245.754 214.93 245.754C215.099 245.754 215.223 252.717 215.223 261.302C215.223 269.887 215.087 276.85 214.93 276.85Z" fill="#263238"/>
<path d="M219.955 276.85C219.797 276.85 219.662 269.887 219.662 261.302C219.662 252.717 219.797 245.754 219.955 245.754C220.112 245.754 220.247 252.717 220.247 261.302C220.247 269.887 220.135 276.85 219.955 276.85Z" fill="#263238"/>
<path d="M224.979 276.85C224.821 276.85 224.686 269.887 224.686 261.302C224.686 252.717 224.821 245.754 224.979 245.754C225.137 245.754 225.272 252.717 225.272 261.302C225.272 269.887 225.148 276.85 224.979 276.85Z" fill="#263238"/>
<path d="M230.015 276.85C229.846 276.85 229.711 269.887 229.711 261.302C229.711 252.717 229.846 245.754 230.015 245.754C230.184 245.754 230.308 252.717 230.308 261.302C230.308 269.887 230.173 276.85 230.015 276.85Z" fill="#263238"/>
<path d="M235.04 276.85C234.871 276.85 234.747 269.887 234.747 261.302C234.747 252.717 234.871 245.754 235.04 245.754C235.209 245.754 235.333 252.717 235.333 261.302C235.333 269.887 235.198 276.85 235.04 276.85Z" fill="#263238"/>
<path d="M248.571 261.764L246.768 282.483H178.359L180.195 263.251C180.279 262.36 180.693 261.532 181.356 260.929C182.019 260.327 182.882 259.994 183.778 259.995L217.059 260.142C217.059 259.544 217.296 258.971 217.719 258.548C218.141 258.126 218.714 257.888 219.312 257.888H244.966C245.464 257.884 245.957 257.983 246.415 258.179C246.873 258.376 247.284 258.666 247.624 259.031C247.963 259.395 248.222 259.827 248.385 260.297C248.549 260.768 248.612 261.268 248.571 261.764V261.764Z" fill="#F76400"/>
<path d="M198.852 270.968H96.3167V333.936H198.852V270.968Z" fill="#263238"/>
<path d="M260.897 270.968H158.361V333.936H260.897V270.968Z" fill="#455A64"/>
<path d="M260.897 333.666C260.897 333.666 260.897 333.272 260.897 332.54C260.897 331.807 260.897 330.681 260.897 329.25C260.897 326.366 260.897 322.141 260.897 316.721C260.897 305.883 260.818 290.29 260.773 271.183L260.998 271.419L158.474 271.476L158.767 271.183C158.767 293.332 158.767 314.457 158.767 333.677L158.496 333.407L232.246 333.542L253.416 333.61H259.049H260.502H261.009H260.536H259.105H253.472L232.359 333.689L158.429 333.813H158.158V333.666C158.158 314.446 158.158 293.321 158.158 271.171V270.878H158.462L260.987 270.946H261.223V271.171C261.223 290.324 261.122 305.973 261.099 316.845C261.099 322.242 261.099 326.456 261.043 329.329C261.043 330.748 261.043 331.83 261.043 332.573C260.919 333.272 260.897 333.666 260.897 333.666Z" fill="#263238"/>
<path d="M195.258 270.968H230.376V272.354C230.376 272.996 230.121 273.613 229.666 274.067C229.212 274.521 228.596 274.776 227.953 274.776H197.681C197.038 274.776 196.422 274.521 195.968 274.067C195.513 273.613 195.258 272.996 195.258 272.354V270.968Z" fill="#263238"/>
<path d="M228.742 285.085H198.21V293.332H228.742V285.085Z" fill="#E0E0E0"/>
<path d="M227.469 231.728C226.515 235.663 225.945 239.681 225.768 243.727C225.768 244.245 225.768 244.853 226.218 245.135C226.669 245.417 227.345 244.639 227.717 244.177C228.438 243.355 231.097 238.747 231.097 238.747C232.964 238.576 234.704 237.726 235.985 236.357C237.267 234.988 238.001 233.197 238.048 231.322" fill="#FFBE9D"/>
<path d="M238.014 231.322C238.053 231.599 238.053 231.879 238.014 232.156C237.944 232.933 237.75 233.693 237.44 234.409C236.953 235.516 236.212 236.493 235.277 237.26C234.065 238.222 232.61 238.831 231.074 239.017L231.277 238.882C230.432 240.347 229.497 241.946 228.438 243.569C228.269 243.805 228.122 244.042 227.92 244.29C227.717 244.538 227.57 244.718 227.356 244.943C227.139 245.206 226.842 245.392 226.511 245.473C226.316 245.492 226.119 245.448 225.95 245.346C225.782 245.245 225.651 245.092 225.576 244.91C225.391 244.359 225.345 243.77 225.441 243.197C225.441 242.679 225.509 242.172 225.554 241.676C225.701 239.915 225.938 238.163 226.263 236.426C226.534 234.95 226.815 233.767 227.041 232.956C227.123 232.527 227.259 232.111 227.446 231.717C227.435 232.151 227.371 232.582 227.255 233.001C227.108 233.835 226.883 235.018 226.669 236.505C226.455 237.992 226.23 239.75 226.094 241.71L225.993 243.231C225.92 243.706 225.954 244.191 226.094 244.65C226.173 244.831 226.331 244.932 226.421 244.91C226.622 244.83 226.8 244.702 226.939 244.538L227.469 243.907C227.638 243.694 227.796 243.472 227.942 243.242C228.99 241.642 229.936 240.042 230.804 238.6L230.871 238.476H231.007C232.451 238.322 233.826 237.776 234.984 236.899C235.891 236.202 236.624 235.303 237.124 234.274C237.54 233.33 237.838 232.339 238.014 231.322V231.322Z" fill="#EB996E"/>
</svg>
