<svg width="427" height="439" viewBox="0 0 427 439" fill="none" xmlns="http://www.w3.org/2000/svg">
<path d="M164.165 437.359C251.288 437.359 321.916 427.065 321.916 414.367C321.916 401.669 251.288 391.375 164.165 391.375C77.0413 391.375 6.41376 401.669 6.41376 414.367C6.41376 427.065 77.0413 437.359 164.165 437.359Z" fill="#EBEBEB"/>
<path d="M51.5208 117.548L301.977 117.548V108.297L51.5208 108.297V117.548Z" fill="#455A64"/>
<path d="M290.433 117.548H281.404V148.145H290.433V117.548Z" fill="#455A64"/>
<path d="M290.433 117.548H281.404V127.002H290.433V117.548Z" fill="#263238"/>
<path d="M72.0947 117.548H63.0658V148.145H72.0947V117.548Z" fill="#455A64"/>
<path d="M72.0947 117.548H63.0658V127.002H72.0947V117.548Z" fill="#263238"/>
<path d="M217.79 108.296V49.3481H203.307V108.296H217.79Z" fill="#E9A439"/>
<path d="M217.791 52.678V46.1963H203.307V52.678H217.791Z" fill="#263238"/>
<path d="M217.778 63.3841V60.9854H203.294V63.3841H217.778Z" fill="#263238"/>
<path d="M217.778 100.576V94.0947H203.294V100.576H217.778Z" fill="#263238"/>
<path d="M203.294 108.297V39.5376H193.169V108.297H203.294Z" fill="#37474F"/>
<path d="M201.314 72.4544V46.0044H195.237V72.4544H201.314Z" fill="#E9A439"/>
<path d="M128.263 108.347L175.991 60.0068L168.873 52.6297L121.145 100.969L128.263 108.347Z" fill="#E9A439"/>
<path d="M138.02 95.5022L156.379 76.9072L152.107 72.4791L133.747 91.0741L138.02 95.5022Z" fill="white"/>
<path d="M193.169 108.309V56.0728H175.971V108.309H193.169Z" fill="#EBEBEB"/>
<path d="M193.169 102.772V97.8984H175.971V102.772H193.169Z" fill="#455A64"/>
<path d="M193.169 94.7082V92.8198H175.971V94.7082H193.169Z" fill="#455A64"/>
<path d="M229.659 108.309V59.2241H217.778V108.309H229.659Z" fill="#A6A6A6"/>
<path d="M229.659 103.116V98.5356H217.778V103.116H229.659Z" fill="#EBEBEB"/>
<path d="M229.671 73.9243V69.3438H217.79V73.9243H229.671Z" fill="#EBEBEB"/>
<path d="M229.659 78.8224V77.0488H217.778V78.8224H229.659Z" fill="#EBEBEB"/>
<path d="M127.426 55.8174C127.442 63.1765 125.169 70.3493 120.938 76.2961V76.2961C117.516 81.121 112.943 84.9656 107.656 87.4622C102.369 89.9587 96.5455 91.0238 90.7421 90.5554C84.9387 90.0871 79.3497 88.101 74.5096 84.7872C69.6695 81.4733 65.7403 76.9425 63.0978 71.6282C60.4553 66.3139 59.1878 60.3939 59.4167 54.4343C59.6455 48.4747 61.363 42.6749 64.4049 37.5897C67.4468 32.5046 71.7114 28.3041 76.7906 25.3901C81.8698 22.4761 87.5939 20.946 93.4152 20.9463C94.3534 20.9463 95.275 20.9846 96.18 21.0611C101.47 21.4837 106.59 23.1752 111.124 25.999C116.124 29.1049 120.255 33.4804 123.12 38.7021C125.985 43.9238 127.485 49.8147 127.476 55.8047L127.426 55.8174Z" fill="#455A64"/>
<path d="M100.788 72.2651C100.352 73.4389 101.074 73.541 101.112 73.9748C101.149 74.4086 101.112 75.3911 99.7294 76.8074C98.3471 78.2237 96.068 77.9302 95.5948 78.5171C95.1215 79.104 94.3494 81.5921 93.104 82.4215C91.8587 83.2508 91.7715 82.7532 90.1525 83.0977C88.5335 83.4422 87.3006 85.6496 86.8149 86.6193C86.3292 87.589 86.9146 89.3498 85.7688 89.4008C84.6231 89.4519 84.1 86.9128 83.0539 85.573C82.1459 84.3391 81.5549 82.8913 81.3353 81.3625C81.0115 79.7548 81.5346 76.3863 81.3353 75.0721C81.1361 73.7579 77.7238 71.4102 76.4784 69.8025C75.233 68.1949 73.5269 64.9668 73.6265 63.895C73.7724 62.8532 74.2757 61.8988 75.0462 61.2028C75.6191 60.769 75.3824 60.5265 75.4821 60.131C75.5817 59.7355 76.0549 59.6461 76.1421 59.1613C76.2293 58.6764 75.8682 57.2091 75.3825 56.9667C74.8968 56.7242 74.573 57.5409 74.2865 57.4005C74.0001 57.2601 73.1408 56.2266 72.817 56.1246C72.4932 56.0225 72.5804 56.7625 72.0947 55.8439C71.609 54.9252 71.3848 52.5647 70.9987 52.1819C70.6127 51.7992 70.3387 52.8582 69.4296 52.1819C68.5205 51.5057 68.1842 50.1787 67.7608 49.9746C67.3374 49.7704 66.8517 49.9746 66.5154 49.2473C66.1792 48.52 66.8641 47.0527 66.5154 47.1931C66.1667 47.3334 65.432 48.469 65.2701 47.3972C65.1082 46.3254 66.2165 42.7018 66.0297 40.7496C65.9439 39.7334 66.0548 38.7098 66.3561 37.7376C66.6575 36.7654 67.1433 35.8638 67.7857 35.0845C67.7857 35.0845 67.9725 33.9999 68.1718 33.3237C68.371 32.6475 72.4558 29.9042 72.9291 29.1259C73.1301 28.6897 73.2444 28.217 73.2653 27.7351C79.103 23.3306 86.1656 20.9604 93.4154 20.9727C94.3536 20.9727 95.2751 21.011 96.1801 21.0875L96.2798 21.2151C96.8252 21.8472 97.5468 22.2926 98.3471 22.4911C99.5925 22.9376 99.8415 23.5246 99.5925 24.0094C99.476 24.2115 99.3075 24.3768 99.1054 24.4871C98.9032 24.5974 98.6753 24.6484 98.4467 24.6346C97.9735 24.6346 97.5251 24.405 97.027 24.7367C96.5288 25.0684 96.0058 26.8165 95.3333 26.9058C94.6608 26.9951 93.5026 25.3491 93.2411 24.8643C92.9795 24.3794 93.8139 23.3332 93.4279 22.8483C93.0418 22.3635 92.3568 22.4528 91.2734 22.3507C90.1899 22.2486 87.6867 22.6824 87.7739 23.1035C87.861 23.5246 91.51 23.0397 91.51 23.8818C91.51 24.7239 88.8698 26.1657 88.3965 26.0381C87.9233 25.9106 87.2882 25.0557 86.5908 24.9536C85.8934 24.8515 85.3454 25.4512 84.8722 25.515C84.3989 25.5788 83.9132 25.0174 83.2532 25.1578C82.5932 25.2981 82.4188 25.8723 82.0701 26.1019C81.7214 26.3316 80.8994 26.3316 80.8247 26.842C80.75 27.3524 81.8833 27.6586 82.1697 27.9903C82.4561 28.3221 81.8085 29.4194 82.095 29.649C82.3814 29.8787 84.1623 28.2838 84.5857 27.8882C85.0091 27.4927 85.4077 25.8085 86.3666 25.834C87.3256 25.8595 87.612 27.531 87.9482 27.6968C88.2845 27.8627 88.9694 27.3013 90.0156 27.531C91.0617 27.7606 91.7964 30.0828 91.9832 30.8101C92.17 31.5374 92.6184 32.2519 92.2448 32.5454C91.8338 32.6244 91.4107 32.6069 91.0073 32.4942C90.604 32.3815 90.2308 32.1765 89.9159 31.8947C89.7042 31.4353 91.0617 30.7463 90.9745 30.6187C90.7932 30.4946 90.5853 30.417 90.3686 30.3925C90.1518 30.3681 89.9324 30.3976 89.7291 30.4784C89.3181 30.7336 89.1313 31.2695 88.683 31.397C88.2347 31.5246 87.064 30.1211 86.7402 30.5549C86.4164 30.9887 87.064 32.1754 87.3754 32.4688C87.6867 32.7623 88.8698 32.9282 88.9694 33.2471C89.0691 33.5661 88.1724 34.2934 87.0889 34.2296C86.0055 34.1658 85.1212 33.3109 84.7103 33.6682C84.2993 34.0255 84.5235 34.9441 84.237 35.3014C83.9506 35.6586 82.3939 35.4035 81.6342 36.2456C80.8745 37.0877 80.5134 38.3636 79.7537 39.0781C78.994 39.7927 78.6453 38.874 77.6241 39.8947C76.6029 40.9155 76.4535 43.1484 76.3787 43.9267C76.304 44.705 76.3788 45.3174 76.1297 45.2026C75.7593 44.8735 75.5126 44.4222 75.4323 43.9267C75.3327 43.5056 75.6564 42.7911 75.6564 42.5359C75.0855 41.7156 74.2673 41.1104 73.3276 40.8134C72.4808 40.6731 71.7086 41.4003 71.0735 41.9107C70.4383 42.4211 69.305 42.3445 68.8816 42.7656C68.3583 44.4107 68.2175 46.1585 68.4706 47.8693C68.7944 48.7497 69.2054 48.7497 70.2266 48.2904C71.2478 47.831 70.6625 47.0144 71.2727 47.1548C71.5439 47.2589 71.7775 47.4455 71.9423 47.6895C72.107 47.9335 72.1949 48.2233 72.1943 48.52C72.1943 49.0432 70.9489 50.2808 71.1357 50.6381C71.3225 50.9953 72.3811 50.6381 72.8544 50.7274C73.3276 50.8167 73.614 51.225 73.4646 52.552C73.3151 53.8789 73.4023 54.9379 74.162 55.3718C74.9217 55.8056 75.3451 54.7338 75.6813 54.8869C76.0176 55.04 76.4908 55.8056 76.9267 55.7673C77.3626 55.729 77.1633 55.2697 78.06 54.9762C78.9567 54.6828 78.6329 54.4914 78.8321 53.9044C78.8623 53.7553 78.9236 53.6145 79.0118 53.4919C79.0999 53.3692 79.2129 53.2674 79.3429 53.1935C79.473 53.1196 79.617 53.0754 79.7653 53.0638C79.9136 53.0521 80.0625 53.0734 80.202 53.1261C80.8247 53.4196 80.4013 53.8534 80.4511 54.4021C80.5009 54.9507 81.5844 54.9379 82.4437 55.2314C83.4717 55.3619 84.4907 55.5579 85.4949 55.8183C87.2135 56.3925 87.3131 58.1533 87.9856 58.4468C88.6581 58.7402 91.0865 58.2554 92.7927 59.5185C94.4989 60.7817 94.0381 63.1294 94.8974 63.8184C96.5621 64.6906 98.3404 65.3137 100.178 65.6685C101.423 65.9109 101.61 65.0433 102.669 65.2857C103.158 65.3338 103.616 65.5549 103.963 65.9111C104.311 66.2674 104.527 66.7364 104.574 67.2379C104.91 68.4756 101.187 71.0912 100.788 72.2651Z" fill="#E9A439"/>
<path d="M75.1582 47.3063C75.1582 47.5742 75.9801 47.6891 76.9391 48.2505C77.898 48.8119 78.1844 50.4196 78.7448 50.394C79.3052 50.3685 79.0935 49.6157 79.2804 49.4116C79.3652 49.3563 79.4351 49.2799 79.4835 49.1896C79.5319 49.0993 79.5573 48.9979 79.5573 48.8948C79.5573 48.7918 79.5319 48.6904 79.4835 48.6001C79.4351 48.5097 79.3652 48.4334 79.2804 48.3781C78.7822 47.957 78.284 47.1021 77.35 46.9107C76.416 46.7194 76.2666 46.3876 75.8556 46.4259C75.7494 46.4254 75.6444 46.4493 75.5484 46.4958C75.4524 46.5424 75.3679 46.6104 75.3009 46.6949C75.234 46.7793 75.1865 46.8781 75.1618 46.9839C75.137 47.0898 75.1358 47.1999 75.1582 47.3063Z" fill="#E9A439"/>
<path d="M80.4012 50.0384C80.2517 50.4339 80.4012 50.7146 81.4099 50.9825C82.4187 51.2505 83.3776 50.7146 83.0662 50.5104C82.7549 50.3063 82.2692 50.3956 82.456 50.0384C82.6428 49.6811 82.593 49.158 81.7586 49.26C80.9242 49.3621 80.5257 49.6811 80.4012 50.0384Z" fill="#E9A439"/>
<path d="M83.9505 50.1521C83.6142 50.1521 83.4149 50.8156 83.7636 51.2111C84.1123 51.6067 84.1124 51.5301 84.5233 51.2111C84.9343 50.8922 85.5694 50.7135 85.42 50.3945C85.2706 50.0756 84.2992 50.0883 83.9505 50.1521Z" fill="#E9A439"/>
<path d="M86.715 51.4797C86.8769 50.9821 87.6739 51.4797 88.0227 51.9901C88.1545 52.2753 88.2229 52.5868 88.2229 52.9024C88.2229 53.2179 88.1545 53.5295 88.0227 53.8147C87.8358 54.3633 87.6989 55.014 87.263 54.7589C86.8271 54.5037 87.263 53.7126 87.263 53.2533C87.263 52.7939 86.5905 51.8753 86.715 51.4797Z" fill="#E9A439"/>
<path d="M100.415 24.3273C100.24 24.7356 101.012 24.876 101.461 25.1439C101.909 25.4118 102.258 25.565 102.507 25.1439C102.553 25.0488 102.577 24.9445 102.579 24.8385C102.581 24.7324 102.559 24.6273 102.516 24.5308C102.473 24.4343 102.41 24.3488 102.331 24.2805C102.252 24.2122 102.159 24.1628 102.058 24.1359C101.71 24.0338 100.564 23.9318 100.415 24.3273Z" fill="#E9A439"/>
<path d="M106.417 28.1293C106.703 28.4483 107.202 28.3973 107.55 28.8439C107.899 29.2904 107.775 30.1198 108.223 30.3112C108.671 30.5026 108.983 30.3112 109.02 29.9922C109.057 29.6732 108.385 28.8439 108.447 28.7163C108.509 28.5887 109.369 28.9332 109.555 29.4308C109.742 29.9284 109.369 30.6046 109.817 30.7067C110.265 30.8088 110.166 30.2474 110.352 30.1198C110.539 29.9922 110.95 30.1198 110.925 29.6605C110.766 29.0617 110.431 28.5273 109.966 28.1293C109.558 27.7619 109.072 27.4956 108.547 27.351C108.259 27.265 107.957 27.2433 107.66 27.2873C107.364 27.3313 107.08 27.4401 106.828 27.6062C106.479 27.8997 106.23 27.9379 106.417 28.1293Z" fill="#E9A439"/>
<path d="M120.154 34.267C120.133 34.3979 120.072 34.5185 119.979 34.6115C119.307 35.0963 118.51 33.3994 117.588 33.0804C116.667 32.7614 116.256 31.5493 116.069 31.8044C115.882 32.0596 115.944 32.4296 115.658 32.8507C115.371 33.2718 114.96 33.1824 114.761 33.9863C114.562 34.7901 115.658 36.2957 115.396 36.7933C115.135 37.2909 114.836 37.1123 114.325 37.0868C113.815 37.0613 113.914 37.5078 113.242 37.3165C112.569 37.1251 113.142 36.2702 112.096 35.2622C111.05 34.2542 110.701 33.9863 110.925 33.6035C111.15 33.2207 110.826 32.4934 111.299 32.4296C111.772 32.3658 112.158 33.0804 112.482 33.2718C112.806 33.4632 113.217 32.889 113.242 32.3659C113.267 31.8427 112.133 31.0899 111.723 30.7199C111.538 30.3954 111.418 30.0368 111.369 29.6646C111.319 29.2924 111.342 28.9139 111.436 28.5508C111.585 28.2574 112.071 28.3594 112.196 27.6449C112.27 27.2239 111.623 26.5221 111.075 26.0117C114.557 28.1877 117.631 30.9833 120.154 34.267V34.267Z" fill="#E9A439"/>
<path d="M124.898 63.4479C124.998 62.4016 124.487 62.3378 124.998 60.4112C125.149 59.654 125.145 58.8731 124.986 58.1176C124.828 57.3621 124.518 56.6485 124.076 56.022C123.69 55.6009 122.831 55.7285 122.196 56.1495C121.561 56.5706 122.009 56.9023 121.561 57.0682C121.112 57.2341 120.676 56.9661 120.315 57.0682C119.954 57.1703 119.518 58.1655 118.634 58.14C117.75 58.1145 117.165 56.8003 116.504 55.8816C115.844 54.9629 114.462 54.3632 114.014 53.2277C113.565 52.0921 114.425 50.3313 114.238 48.9916C114.051 47.6519 113.179 47.9453 112.993 47.2053C112.806 46.4652 113.117 46.8097 113.341 46.0952C113.565 45.3807 113.08 44.9852 113.528 43.7475C113.976 42.5099 114.773 41.8974 114.574 41.3488C114.216 40.68 113.94 39.9686 113.752 39.2307C113.752 38.58 114.35 38.6055 115.558 37.6996C116.766 36.7937 117.09 36.8575 118.049 37.1765C118.709 37.4278 119.388 37.6241 120.079 37.7634C120.614 37.8655 121.324 39.2945 121.573 39.2307C121.822 39.1669 121.822 38.7459 121.922 38.1207C121.982 37.8507 122.121 37.606 122.32 37.4189C125.898 43.312 127.681 50.1638 127.442 57.0997C127.202 64.0355 124.951 70.741 120.975 76.3603C124.176 71.231 124.799 64.4303 124.898 63.4479Z" fill="#E9A439"/>
<path d="M132.545 55.8175C132.653 59.4034 132.284 62.9876 131.449 66.4716L131.15 67.7475L130.739 69.0234L129.892 71.5753L128.809 74.0506C128.622 74.4589 128.46 74.8799 128.248 75.3265L127.588 76.5131C125.857 79.6808 123.712 82.5914 121.212 85.1639L119.269 87.0395C118.634 87.6775 117.874 88.1751 117.19 88.7493C115.77 89.8589 114.286 90.8773 112.744 91.7987C111.971 92.2453 111.162 92.6281 110.365 93.0747L109.12 93.6744C108.709 93.8658 108.285 94.0189 107.874 94.1847L105.383 95.1544L102.793 95.869L101.548 96.2135L100.228 96.4304L97.575 96.8769L94.8974 97.0301L93.5524 97.1194C93.1041 97.1194 92.6557 97.1194 92.2074 97.1194L89.5298 97.0045C88.6332 96.9025 87.749 96.7366 86.8648 96.609C85.09 96.3231 83.3347 95.9225 81.6093 95.4096C80.7625 95.1289 79.9281 94.7972 79.1186 94.491L77.8732 94.0189C77.4622 93.8402 77.0637 93.6233 76.6278 93.4319L74.1993 92.2326L71.8954 90.8163C71.122 90.3462 70.3813 89.8219 69.6786 89.2469C68.9688 88.6855 68.234 88.1624 67.5491 87.5627C66.1911 86.3686 64.906 85.0903 63.7009 83.7349C61.2686 81.0256 59.2187 77.9805 57.611 74.6885L56.4653 72.2005C56.1166 71.3584 55.8426 70.478 55.5313 69.6486L55.0829 68.3727C54.9459 67.9389 54.8588 67.4923 54.7467 67.0968L54.0991 64.4301C53.4342 60.8277 53.2207 57.1531 53.4639 53.4953C53.9615 46.2325 56.3917 39.2481 60.4908 33.3006C64.5899 27.3532 70.2011 22.67 76.715 19.7598C70.5509 23.0396 65.3305 27.9131 61.5713 33.8971C57.8333 39.7943 55.6849 46.5999 55.3445 53.6229C55.216 57.094 55.4962 60.5683 56.1788 63.9707L56.8265 66.5226C56.9385 66.9436 57.0257 67.3647 57.1627 67.7985L57.611 69.0106C57.9224 69.8272 58.1839 70.6438 58.5326 71.4349L59.6534 73.7699C60.0197 74.5457 60.4358 75.2959 60.8988 76.0155C61.3596 76.7428 61.7332 77.5211 62.2563 78.1973C63.2285 79.6138 64.2937 80.9609 65.4444 82.2293C66.5789 83.5084 67.7936 84.7104 69.0809 85.8274C69.716 86.3888 70.4259 86.8609 71.0859 87.3968L72.1071 88.1624C72.4434 88.4175 72.817 88.6217 73.1781 88.8514C78.9193 92.5506 85.5103 94.6351 92.2877 94.8949C99.0651 95.1547 105.79 93.5808 111.785 90.3314C114.77 88.652 117.543 86.6037 120.041 84.2325C122.545 81.8421 124.724 79.1168 126.517 76.1303L127.215 75.0203C127.439 74.6503 127.613 74.242 127.813 73.8592L128.996 71.5115L129.955 69.0489L130.428 67.773L130.776 66.4971C131.013 65.6422 131.262 64.8001 131.486 63.9452L131.947 61.3933C132.022 60.9595 132.109 60.5257 132.171 60.1174L132.283 58.8415L132.545 55.8175Z" fill="#263238"/>
<path d="M79.9529 24.2631L75.3575 26.5088L72.1071 16.5565L74.4733 15.4082L79.9529 24.2631Z" fill="#263238"/>
<path d="M96.6158 95.9077H91.6717V108.31H96.6158V95.9077Z" fill="#263238"/>
<path d="M112.258 103.703H76.03V108.309H112.258V103.703Z" fill="#263238"/>
<path d="M252.823 29.1247C265.588 41.884 267.767 61.7247 265.04 79.0646C264.965 79.4601 264.38 79.3581 264.38 78.9881C264.38 75.0327 264.492 71.1283 264.48 67.224C264.405 67.0454 264.355 66.8795 264.28 66.7009C260.846 64.3801 258.002 61.2523 255.986 57.578C253.857 53.2781 253.022 48.4423 251.391 43.951C251.241 43.5172 251.69 43.6448 251.976 43.8745C259.747 49.731 262.213 56.0468 264.43 64.4807C264.389 60.0705 263.939 55.6742 263.085 51.3514C261.403 43.3386 258.103 35.4151 252.474 29.4692C252.452 29.4458 252.435 29.4181 252.423 29.3878C252.411 29.3574 252.406 29.325 252.406 29.2925C252.407 29.2599 252.414 29.2277 252.426 29.1979C252.439 29.168 252.457 29.141 252.48 29.1183C252.503 29.0957 252.53 29.078 252.56 29.066C252.59 29.0541 252.621 29.0483 252.653 29.0489C252.685 29.0495 252.716 29.0565 252.745 29.0695C252.774 29.0825 252.801 29.1013 252.823 29.1247V29.1247Z" fill="#263238"/>
<path d="M250.432 30.6176C248.227 30.6942 246.857 34.2923 245.139 35.3385C244.96 35.4893 244.752 35.5995 244.529 35.6617C244.306 35.7239 244.072 35.7367 243.844 35.6993C243.615 35.6619 243.397 35.5751 243.204 35.4447C243.01 35.3143 242.846 35.1433 242.723 34.943C241.029 32.5187 243.358 29.5331 245.537 27.8616C243.981 28.5123 242.673 29.6734 240.992 30.0052C240.775 30.0782 240.545 30.1024 240.318 30.0759C240.091 30.0494 239.873 29.9729 239.678 29.8517C239.482 29.7304 239.315 29.5673 239.187 29.3736C239.059 29.1798 238.974 28.96 238.937 28.7292C238.19 25.4246 242.237 23.9573 245.014 23.8807C243.669 22.9238 239.809 20.3209 241.863 19.0449C243.918 17.769 248.464 21.482 249.946 22.7068C252.113 24.5059 254.703 27.2109 254.803 30.0307C254.927 33.3353 252.113 31.2556 250.432 30.6176Z" fill="#E9A439"/>
<path opacity="0.1" d="M250.432 30.6176C248.227 30.6942 246.857 34.2923 245.139 35.3385C244.96 35.4893 244.752 35.5995 244.529 35.6617C244.306 35.7239 244.072 35.7367 243.844 35.6993C243.615 35.6619 243.397 35.5751 243.204 35.4447C243.01 35.3143 242.846 35.1433 242.723 34.943C241.029 32.5187 243.358 29.5331 245.537 27.8616C243.981 28.5123 242.673 29.6734 240.992 30.0052C240.775 30.0782 240.545 30.1024 240.318 30.0759C240.091 30.0494 239.873 29.9729 239.678 29.8517C239.482 29.7304 239.315 29.5673 239.187 29.3736C239.059 29.1798 238.974 28.96 238.937 28.7292C238.19 25.4246 242.237 23.9573 245.014 23.8807C243.669 22.9238 239.809 20.3209 241.863 19.0449C243.918 17.769 248.464 21.482 249.946 22.7068C252.113 24.5059 254.703 27.2109 254.803 30.0307C254.927 33.3353 252.113 31.2556 250.432 30.6176Z" fill="black"/>
<path d="M251.067 31.168C248.252 29.892 242.86 31.7421 242.349 30.6576C241.427 28.4502 245.736 26.9191 248.065 26.6257C245.923 26.0387 241.838 25.0945 241.938 22.9765C242.087 20.4246 248.24 22.6065 251.341 25.0563C255.263 28.1312 255.239 31.0914 254.591 31.6911C253.744 32.5332 251.478 31.3849 251.067 31.168Z" fill="#E9A439"/>
<path d="M281.89 27.8613C268.664 40.1485 265.787 59.8489 267.83 77.2909C267.83 77.6864 268.477 77.5971 268.49 77.2271C268.639 73.2844 268.664 69.3674 268.826 65.4758C268.901 65.2971 268.963 65.1313 269.038 64.9654C272.56 62.7795 275.519 59.7605 277.668 56.1615C279.959 51.9509 280.968 47.1534 282.762 42.7259C282.936 42.3049 282.488 42.4197 282.176 42.6239C274.206 48.1869 271.503 54.4007 268.963 62.7325C269.173 58.3283 269.786 53.954 270.794 49.667C272.774 41.7307 276.385 33.9348 282.214 28.2186C282.425 28.0017 282.114 27.6444 281.89 27.8613Z" fill="#263238"/>
<path d="M284.231 29.4445C286.423 29.6104 287.656 33.2723 289.324 34.3696C289.499 34.5346 289.707 34.6591 289.933 34.7346C290.16 34.81 290.399 34.8347 290.635 34.8068C290.872 34.779 291.099 34.6993 291.303 34.5732C291.507 34.4471 291.681 34.2776 291.815 34.0761C293.596 31.7156 291.392 28.6406 289.262 26.8799C290.806 27.5944 292.052 28.8065 293.733 29.2021C293.946 29.2821 294.173 29.3143 294.399 29.2964C294.625 29.2785 294.845 29.211 295.044 29.0985C295.242 28.9859 295.415 28.8309 295.549 28.6441C295.684 28.4572 295.778 28.2428 295.825 28.0154C296.697 24.7491 292.699 23.1159 289.935 22.9117C291.317 22.0058 295.265 19.556 293.26 18.1908C291.255 16.8255 286.572 20.3726 285.053 21.5465C282.824 23.269 280.134 25.8591 279.934 28.6662C279.635 31.9836 282.512 30.0697 284.231 29.4445Z" fill="#E9A439"/>
<path opacity="0.1" d="M284.231 29.4445C286.423 29.6104 287.656 33.2723 289.324 34.3696C289.499 34.5346 289.707 34.6591 289.933 34.7346C290.16 34.81 290.399 34.8347 290.635 34.8068C290.872 34.779 291.099 34.6993 291.303 34.5732C291.507 34.4471 291.681 34.2776 291.815 34.0761C293.596 31.7156 291.392 28.6406 289.262 26.8799C290.806 27.5944 292.052 28.8065 293.733 29.2021C293.946 29.2821 294.173 29.3143 294.399 29.2964C294.625 29.2785 294.845 29.211 295.044 29.0985C295.242 28.9859 295.415 28.8309 295.549 28.6441C295.684 28.4572 295.778 28.2428 295.825 28.0154C296.697 24.7491 292.699 23.1159 289.935 22.9117C291.317 22.0058 295.265 19.556 293.26 18.1908C291.255 16.8255 286.572 20.3726 285.053 21.5465C282.824 23.269 280.134 25.8591 279.934 28.6662C279.635 31.9836 282.512 30.0697 284.231 29.4445Z" fill="black"/>
<path d="M283.571 29.9802C286.423 28.7935 291.741 30.8733 292.289 29.8143C293.297 27.6324 289.051 25.9865 286.734 25.5654C288.901 25.0551 293.036 24.2895 292.961 22.1459C292.961 19.5941 286.734 21.5335 283.496 23.8557C279.461 26.7776 279.387 29.7377 280.009 30.3629C280.844 31.2561 283.098 30.1715 283.571 29.9802Z" fill="#E9A439"/>
<path d="M268.365 60.3225C267.465 66.8992 266.091 73.3987 264.255 79.7677C264.219 79.8809 264.144 79.9766 264.044 80.0366C263.943 80.0966 263.825 80.1167 263.711 80.093C263.597 80.0694 263.496 80.0037 263.426 79.9084C263.357 79.8131 263.324 79.6949 263.334 79.5763C264.193 73.5794 265.824 67.6974 266.646 61.7133C267.596 55.6532 267.938 49.5096 267.668 43.3782C267.107 33.2856 264.43 22.5422 258.004 14.6442C257.867 14.4656 258.165 14.1977 258.315 14.3763C271.18 29.6874 269.137 48.5967 269.125 50.281C270.943 43.9013 272.861 36.6285 279.71 30.1468C280.009 29.8661 280.246 29.9937 280.196 30.4785C278.951 42.2809 275.75 48.4436 269.075 54.7212C268.913 56.6223 268.651 58.4852 268.365 60.3225Z" fill="#263238"/>
<path d="M257.891 16.4169C255.575 15.3706 252.374 18.3818 250.095 18.586C249.834 18.6552 249.561 18.6665 249.295 18.6189C249.03 18.5714 248.777 18.4661 248.554 18.3103C248.331 18.1544 248.143 17.9515 248.003 17.7152C247.863 17.4788 247.774 17.2145 247.741 16.94C247.181 13.546 251.054 11.6449 254.155 11.0325C252.2 10.9176 250.282 11.4407 248.377 10.9176C248.116 10.8825 247.866 10.79 247.644 10.6466C247.422 10.5031 247.233 10.312 247.09 10.0865C246.947 9.86099 246.853 9.60638 246.815 9.34016C246.777 9.07395 246.796 8.80246 246.87 8.54438C247.717 4.71659 252.636 5.30353 255.587 6.65601C254.666 4.97179 251.938 0.276366 254.703 0.00842077C257.468 -0.259524 260.345 5.94149 261.279 7.97022C262.649 10.9687 264.006 15.1027 262.723 18.0756C261.216 21.5589 259.299 18.0118 257.891 16.4169Z" fill="#E9A439"/>
<path opacity="0.1" d="M257.891 16.4169C255.575 15.3706 252.374 18.3818 250.095 18.586C249.834 18.6552 249.561 18.6665 249.295 18.6189C249.03 18.5714 248.777 18.4661 248.554 18.3103C248.331 18.1544 248.143 17.9515 248.003 17.7152C247.863 17.4788 247.774 17.2145 247.741 16.94C247.181 13.546 251.054 11.6449 254.155 11.0325C252.2 10.9176 250.282 11.4407 248.377 10.9176C248.116 10.8825 247.866 10.79 247.644 10.6466C247.422 10.5031 247.233 10.312 247.09 10.0865C246.947 9.86099 246.853 9.60638 246.815 9.34016C246.777 9.07395 246.796 8.80246 246.87 8.54438C247.717 4.71659 252.636 5.30353 255.587 6.65601C254.666 4.97179 251.938 0.276366 254.703 0.00842077C257.468 -0.259524 260.345 5.94149 261.279 7.97022C262.649 10.9687 264.006 15.1027 262.723 18.0756C261.216 21.5589 259.299 18.0118 257.891 16.4169Z" fill="black"/>
<path d="M258.277 17.3234C256.011 14.5163 249.485 13.687 249.56 12.3218C249.684 9.54023 254.902 10.191 257.455 11.0458C255.525 9.32332 251.739 6.2228 252.91 4.092C254.329 1.54014 259.61 6.96284 261.627 11.0969C264.18 16.3154 262.698 19.3776 261.727 19.6583C260.407 20.0922 258.651 17.7827 258.277 17.3234Z" fill="#E9A439"/>
<path d="M276.833 63.8806L282.5 108.309H247.965C248.675 104.379 255.101 63.8296 255.101 63.8296L276.833 63.8806Z" fill="#E9A439"/>
<path d="M0 360.715L24.9349 360.182L49.8699 359.982L99.7332 359.604L149.603 359.982L174.538 360.182L199.473 360.715L174.538 361.27L149.603 361.47L99.7332 361.826L49.8699 361.47L24.9349 361.27L0 360.715Z" fill="#263238"/>
<path d="M227.534 360.715L252.469 360.182L277.397 359.982L327.267 359.604L377.13 359.982L402.065 360.182L427 360.715L402.065 361.27L377.13 361.47L327.267 361.826L277.397 361.47L252.469 361.27L227.534 360.715Z" fill="#263238"/>
<path d="M92.5436 386.453L239.161 359.837L302.974 402.134L158.747 438.217L92.5436 386.453Z" fill="#455A64"/>
<path d="M101.498 386.541L162.11 434.082L297.22 400.36L235.5 359.798C235.5 359.798 195.648 361.788 193.817 362.222C191.986 362.656 173.991 368.602 173.991 368.602C173.991 368.602 149.283 370.886 147.576 371.319C145.87 371.753 101.498 386.541 101.498 386.541Z" fill="white"/>
<path d="M174.028 368.577L181.426 374.42L188.761 380.328L203.369 392.271L217.865 404.341L225.076 410.427L232.224 416.59L224.827 410.746L217.479 404.826L202.883 392.896L188.387 380.813L181.177 374.727L174.028 368.577Z" fill="#DBDBDB"/>
<path d="M153.019 415.39C157.527 413.642 162.047 411.97 166.593 410.286C171.139 408.602 175.697 407.058 180.292 405.463C182.567 404.672 184.863 403.915 187.179 403.192C187.77 403.017 188.374 402.889 188.985 402.809L190.778 402.541L194.352 402.031C199.135 401.418 203.917 400.832 208.711 400.347C203.967 401.189 199.209 401.929 194.452 402.694L190.878 403.243C189.703 403.392 188.538 403.618 187.391 403.919C185.099 404.647 182.82 405.463 180.529 406.216L166.83 410.848C162.197 412.417 157.614 413.935 153.019 415.39Z" fill="#DBDBDB"/>
<path d="M146.929 411.945C151.425 410.197 155.958 408.526 160.503 406.841C165.049 405.157 169.607 403.613 174.202 402.018C176.486 401.227 178.781 400.47 181.089 399.747C181.68 399.571 182.284 399.443 182.895 399.364L184.688 399.096L188.263 398.586C193.045 397.974 197.827 397.387 202.622 396.902C197.877 397.744 193.107 398.484 188.362 399.25L184.788 399.798C183.609 399.949 182.44 400.174 181.289 400.474C179.01 401.202 176.731 402.018 174.439 402.771L160.74 407.403C156.107 408.934 151.512 410.49 146.929 411.945Z" fill="#DBDBDB"/>
<path d="M140.839 408.501C145.335 406.753 149.868 405.081 154.414 403.397C158.959 401.713 163.505 400.169 168.113 398.574C170.396 397.783 172.691 397.03 175 396.316C175.593 396.13 176.202 395.998 176.818 395.92L178.611 395.652L182.185 395.155C186.968 394.529 191.75 393.879 196.544 393.458C191.787 394.3 187.03 395.04 182.273 395.805L178.711 396.354C177.531 396.502 176.362 396.728 175.211 397.03C172.932 397.757 170.653 398.574 168.362 399.327L154.663 403.958C150.017 405.528 145.434 407.046 140.839 408.501Z" fill="#DBDBDB"/>
<path d="M134.737 405.106C139.245 403.358 143.778 401.686 148.311 400.002C152.844 398.318 157.415 396.774 162.01 395.179C164.285 394.388 166.581 393.635 168.897 392.921C169.491 392.734 170.099 392.602 170.716 392.525L172.496 392.257L176.083 391.76C180.865 391.134 185.635 390.547 190.43 390.062C185.685 390.905 180.928 391.645 176.17 392.41L172.609 392.959C171.429 393.107 170.26 393.333 169.109 393.635C166.818 394.362 164.551 395.179 162.26 395.932L148.56 400.563C143.928 402.082 139.345 403.6 134.737 405.106Z" fill="#DBDBDB"/>
<path d="M157.253 418.783C161.62 417.081 166.008 415.38 170.416 413.679C174.8 412.007 179.233 410.464 183.655 408.869C185.859 408.078 188.088 407.312 190.317 406.585C190.878 406.406 191.426 406.215 192.036 406.062C192.646 405.908 193.207 405.845 193.792 405.755L197.266 405.258C201.912 404.645 206.569 404.071 211.227 403.625C206.619 404.454 201.986 405.181 197.366 405.934L193.891 406.483C193.319 406.572 192.733 406.661 192.198 406.789C191.662 406.916 191.102 407.133 190.554 407.312L183.904 409.609C179.458 411.127 175.049 412.722 170.603 414.227C166.157 415.733 161.724 417.328 157.253 418.783Z" fill="#DBDBDB"/>
<path d="M161.475 421.694C165.908 420.137 170.362 418.636 174.837 417.189C179.296 415.697 183.792 414.319 188.275 412.902C190.529 412.213 192.746 411.499 195.075 410.925L201.986 409.547C206.594 408.692 211.202 407.824 215.847 407.059C211.277 408.194 206.694 409.202 202.148 410.223L195.262 411.677C193.045 412.252 190.778 412.953 188.536 413.655C184.028 414.931 179.557 416.424 175.049 417.738C170.541 419.052 166.02 420.418 161.475 421.694Z" fill="#DBDBDB"/>
<path d="M227.703 405.26C231.838 403.601 236.023 402.108 240.257 400.73C241.315 400.399 242.362 400.041 243.445 399.735C243.98 399.582 244.516 399.429 245.089 399.314L246.733 399.008L253.271 397.809C257.63 396.992 261.989 396.252 266.372 395.461C270.756 394.67 275.09 393.955 279.498 393.241C275.165 394.159 270.818 395.057 266.459 395.933C262.101 396.788 257.742 397.681 253.395 398.485L246.857 399.761L245.226 400.08C244.715 400.195 244.18 400.36 243.657 400.513L240.469 401.47C236.197 402.785 231.988 404.086 227.703 405.26Z" fill="#DBDBDB"/>
<path d="M223.656 401.418C227.741 400.048 231.854 398.802 235.997 397.679C238.077 397.118 240.132 396.506 242.224 396.123L248.65 394.898C252.872 394.081 257.094 393.329 261.316 392.55C265.538 391.772 269.772 391.032 274.006 390.317C269.809 391.236 265.612 392.155 261.403 393.022C257.194 393.89 252.997 394.783 248.775 395.574L242.461 396.85C241.402 397.042 240.394 397.322 239.347 397.59L236.222 398.368C232.054 399.457 227.865 400.474 223.656 401.418Z" fill="#DBDBDB"/>
<path d="M219.721 397.986C223.789 396.651 227.882 395.422 232 394.299C234.068 393.75 236.11 393.15 238.227 392.704L244.554 391.683C248.763 390.994 252.985 390.407 257.194 389.718C261.404 389.029 265.638 388.442 269.86 387.894C265.675 388.685 261.478 389.476 257.281 390.203C253.085 390.93 248.888 391.696 244.678 392.385C242.586 392.755 240.456 393.087 238.389 393.469L232.162 395.013C228.053 396.085 223.906 397.076 219.721 397.986Z" fill="#DBDBDB"/>
<path d="M216.346 395.397C220.281 393.637 224.304 392.131 228.389 390.766C228.899 390.587 229.41 390.434 229.945 390.294C230.476 390.149 231.018 390.046 231.564 389.987L234.753 389.541L241.129 388.699C249.635 387.627 258.141 386.581 266.659 385.662C258.19 386.938 249.697 388.214 241.216 389.388L234.852 390.281L231.676 390.74C230.635 390.906 229.609 391.167 228.613 391.519C224.54 392.807 220.481 394.236 216.346 395.397Z" fill="#DBDBDB"/>
<path d="M212.66 392.347C216.595 390.586 220.618 389.08 224.702 387.715C225.213 387.536 225.724 387.383 226.259 387.243C226.791 387.1 227.332 386.993 227.878 386.924L231.066 386.49L237.443 385.648C245.948 384.576 254.454 383.53 262.973 382.611C254.504 383.887 246.011 385.163 237.53 386.337L231.166 387.23L227.978 387.69C226.94 387.857 225.919 388.117 224.927 388.468C220.842 389.693 216.794 391.071 212.66 392.347Z" fill="#DBDBDB"/>
<path d="M208.961 389.17C212.896 387.409 216.931 385.904 221.016 384.526C221.527 384.36 222.037 384.207 222.573 384.066C223.105 383.922 223.646 383.815 224.192 383.747L227.38 383.313L233.756 382.471C242.25 381.387 250.768 380.353 259.286 379.435C250.818 380.711 242.324 381.986 233.843 383.16L227.467 384.041L224.291 384.5C223.254 384.672 222.233 384.936 221.24 385.291C217.155 386.58 213.108 387.996 208.961 389.17Z" fill="#DBDBDB"/>
<path d="M205.274 386.056C209.21 384.295 213.232 382.79 217.317 381.412C217.84 381.246 218.351 381.093 218.874 380.953C219.409 380.803 219.954 380.697 220.505 380.634L223.693 380.2L230.057 379.358C238.563 378.273 247.069 377.24 255.6 376.308C247.119 377.584 238.638 378.86 230.144 380.047L223.78 380.927L220.605 381.386C219.554 381.537 218.52 381.789 217.516 382.139C213.469 383.415 209.421 384.882 205.274 386.056Z" fill="#DBDBDB"/>
<path d="M200.405 383.416C204.353 381.655 208.375 380.15 212.46 378.772C212.971 378.606 213.481 378.453 214.017 378.312C214.549 378.169 215.09 378.063 215.636 377.993L218.824 377.56L225.2 376.717C233.706 375.633 242.212 374.599 250.73 373.681C242.262 374.957 233.768 376.233 225.287 377.406L218.924 378.287L215.735 378.746C214.698 378.918 213.677 379.183 212.684 379.537C208.6 380.864 204.552 382.217 200.405 383.416Z" fill="#DBDBDB"/>
<path d="M195.685 380.761C199.621 379.001 203.643 377.495 207.728 376.117C208.239 375.951 208.749 375.798 209.285 375.658C209.815 375.508 210.357 375.402 210.904 375.339L214.092 374.905L220.468 374.063C228.974 372.978 237.48 371.945 245.998 371.013C237.53 372.289 229.036 373.565 220.555 374.752L214.191 375.632L211.003 376.091C209.966 376.263 208.945 376.528 207.952 376.882C203.88 378.171 199.82 379.587 195.685 380.761Z" fill="#DBDBDB"/>
<path d="M191.987 377.649C195.922 375.888 199.945 374.382 204.017 373.017C204.528 372.838 205.038 372.685 205.574 372.545C206.105 372.4 206.646 372.297 207.193 372.239L210.381 371.843L216.757 371.116C225.275 370.197 233.781 369.33 242.3 368.564C233.819 369.712 225.325 370.759 216.844 371.818L210.468 372.583L207.292 372.991C206.258 373.153 205.24 373.413 204.254 373.77C200.169 375.058 196.121 376.475 191.987 377.649Z" fill="#DBDBDB"/>
<path d="M188.3 374.485C192.223 372.737 196.233 371.231 200.305 369.866C200.816 369.687 201.327 369.534 201.862 369.394C202.393 369.246 202.934 369.144 203.481 369.087L206.682 368.768L213.058 368.169C221.576 367.416 230.082 366.727 238.613 366.153C230.12 367.123 221.626 367.99 213.12 368.858L206.756 369.496L203.568 369.853C202.539 370.011 201.525 370.268 200.542 370.619C196.47 371.933 192.435 373.362 188.3 374.485Z" fill="#DBDBDB"/>
<path d="M184.614 371.409C188.537 369.661 192.534 368.156 196.594 366.79C197.105 366.624 197.615 366.459 198.138 366.331C198.675 366.171 199.226 366.069 199.782 366.025L202.971 365.795L209.359 365.4C213.618 365.157 217.878 364.979 222.137 364.774C226.396 364.57 230.655 364.43 234.914 364.302C226.408 364.953 217.902 365.578 209.397 366.101L203.02 366.535L199.845 366.79C198.817 366.937 197.806 367.193 196.831 367.556C192.771 368.832 188.736 370.248 184.614 371.409Z" fill="#DBDBDB"/>
<path d="M165.734 425.902C170.255 424.448 174.8 423.07 179.358 421.717C183.916 420.365 188.474 419.076 193.057 417.762C195.349 417.111 197.615 416.486 199.957 415.912L206.906 414.393C211.551 413.424 216.196 412.454 220.854 411.586C216.271 412.862 211.651 413.934 207.043 415.044L200.081 416.652C197.815 417.226 195.523 417.928 193.232 418.527L179.533 422.355C174.925 423.529 170.342 424.754 165.734 425.902Z" fill="#DBDBDB"/>
<path d="M230.643 408.935C235.217 407.583 239.804 406.286 244.404 405.044C248.987 403.768 253.607 402.594 258.215 401.382C260.531 400.769 262.81 400.208 265.177 399.672L272.176 398.307C276.858 397.426 281.528 396.559 286.236 395.755C281.603 396.878 276.945 397.898 272.3 398.919L265.314 400.374C263.022 400.91 260.706 401.548 258.402 402.109L244.541 405.618C239.933 406.753 235.288 407.876 230.643 408.935Z" fill="#DBDBDB"/>
<path d="M11.6691 361.046H121.722L99.7791 230.264H17.485L11.6691 361.046Z" fill="#DBDBDB"/>
<path d="M11.6691 361.046H21.3207L26.7381 230.264H17.485L11.6691 361.046Z" fill="#A6A6A6"/>
<path d="M106.678 253.855C108.608 270.149 118.559 330.028 134.923 345.365C145.945 355.687 198.636 360.204 211.987 358.201C217.441 357.384 215.86 314.015 210.243 312.165C204.128 310.136 163.417 311.514 159.806 308.911C156.194 306.309 136.903 270.634 123.528 251.66C115.458 240.33 105.532 244.668 106.678 253.855Z" fill="#EB9481"/>
<path d="M205.947 358.635C211.103 358.801 239.572 358.367 246.097 356.466C252.623 354.565 271.005 347.7 270.058 342.431C269.112 337.161 263.595 338.756 263.595 338.756C263.595 338.756 271.665 334.329 269.51 329.391C267.817 325.448 259.859 327.273 259.859 327.273C259.859 327.273 268.452 321.939 265.712 317.321C263.221 313.123 255.164 317.244 255.164 317.244C255.164 317.244 261.914 312.038 258.738 308.466C254.94 304.166 243.258 313.174 235.923 314.718C234.254 315.075 201.613 319.375 201.613 319.375L205.947 358.635Z" fill="#EB9481"/>
<path d="M255.263 316.746C245.848 322.59 241.788 324.721 231.24 325.589C231.041 325.589 231.016 325.92 231.24 325.92C241.639 326.035 246.645 323.866 255.612 317.155C256.023 316.836 255.699 316.479 255.263 316.746Z" fill="#263238"/>
<path d="M259.859 327.17C250.344 333.23 245.113 334.481 234.129 336.216C233.98 336.216 234.005 336.522 234.129 336.509C245.039 335.718 251.365 334.761 260.095 327.438C260.481 327.106 260.257 326.889 259.859 327.17Z" fill="#263238"/>
<path d="M263.072 338.832C253.445 344.012 247.729 345.951 236.919 346.232C236.866 346.232 236.816 346.253 236.778 346.292C236.741 346.33 236.72 346.382 236.72 346.436C236.72 346.49 236.741 346.542 236.778 346.58C236.816 346.619 236.866 346.64 236.919 346.64C248.028 347.457 255.176 345.096 263.259 339.151C263.744 338.755 263.67 338.5 263.072 338.832Z" fill="#263238"/>
<path d="M193.17 311.858L211.85 306.014C217.654 304.228 233.345 296.84 237.579 299.941C242.337 303.424 230.792 314.359 220.468 317.638C220.468 317.638 220.58 335.82 210.816 339.444C201.053 343.067 193.17 311.858 193.17 311.858Z" fill="#EB9481"/>
<path d="M219.584 318.342C219.87 325.411 217.591 334.457 211.912 338.451C211.884 338.476 211.865 338.511 211.859 338.549C211.853 338.587 211.86 338.627 211.879 338.66C211.899 338.693 211.929 338.719 211.964 338.732C212 338.745 212.038 338.745 212.074 338.731C218.724 335.286 221.464 324.862 220.792 318.559C220.704 317.36 219.509 316.53 219.584 318.342Z" fill="#263238"/>
<path d="M120.439 329.084L154.413 295.374C154.413 295.374 138.734 268.069 125.396 252.579C112.058 237.09 104.05 237.511 106.304 267.686C108.559 297.862 120.439 329.084 120.439 329.084Z" fill="#E9A439"/>
<path d="M147.464 288.421C144.749 290.475 121.062 315.088 119.107 317.908C119.007 318.048 119.194 318.227 119.331 318.125C122.071 316.058 145.658 291.33 147.601 288.549C147.651 288.472 147.539 288.357 147.464 288.421Z" fill="#263238"/>
<path d="M134.687 314.933L120.44 329.071C120.44 329.071 108.559 297.823 106.305 267.647C104.847 248.087 107.687 241.032 113.515 242.716L134.687 314.933Z" fill="#263238"/>
<path d="M32.5536 361.047L134.388 361.162C134.612 360.741 129.892 271.234 119.53 248.79C116.018 241.135 103.627 235.597 91.6713 244.695C59.2668 269.346 32.4914 360.919 32.5536 361.047Z" fill="#E9A439"/>
<path d="M132.295 328.446H43.5129C44.3224 326.29 45.1568 324.069 46.0036 321.798H131.685C131.922 324.057 132.109 326.277 132.295 328.446Z" fill="#455A64"/>
<path d="M133.367 342.736H38.4075C39.1173 340.644 39.9019 338.424 40.7239 336.089H132.881C133.068 338.424 133.217 340.644 133.367 342.736Z" fill="#455A64"/>
<path d="M134.238 357.028H33.7495C34.285 355.292 34.9949 353.047 35.8542 350.38H133.865C134.077 353.034 134.151 355.343 134.238 357.028Z" fill="#455A64"/>
<path d="M104.736 237.524C99.2063 239.361 97.961 247.068 104.188 254.545C110.415 262.022 117.077 265.046 121.162 263.987C126.032 262.711 126.293 253.32 121.735 246.532C118.696 241.951 112.793 234.819 104.736 237.524Z" fill="#455A64"/>
<path d="M102.768 241.785C102.917 243.878 110.352 258.551 119.456 259.572C122.42 259.891 124.886 243.38 124.886 243.38L125.334 242.206L131.673 225.734L111.498 207.578C111.498 207.578 102.718 240.841 102.768 241.785Z" fill="#EB9481"/>
<path d="M131.66 225.683L125.359 242.142L124.898 243.329C124.898 243.329 124.45 246.327 123.653 249.709C111.623 245.881 107.463 235.457 105.969 228.528C108.459 218.895 111.461 207.501 111.461 207.501L131.66 225.683Z" fill="#263238"/>
<path d="M166.107 207.961C160.964 245.524 138.423 246.609 130.514 245.46C123.341 244.427 99.0314 239.948 100.364 202.079C101.697 164.209 120.365 154.755 136.891 156.235C153.417 157.715 171.238 170.397 166.107 207.961Z" fill="#EB9481"/>
<path d="M160.727 205.917C159.928 205.609 159.147 205.256 158.386 204.858C157.516 204.599 156.751 204.057 156.207 203.315C156.082 203.044 156.047 202.739 156.107 202.446C156.168 202.153 156.321 201.889 156.543 201.694C157.037 201.382 157.603 201.21 158.183 201.197C158.763 201.183 159.336 201.328 159.843 201.618C160.966 202.04 161.895 202.877 162.446 203.965C162.555 204.219 162.59 204.5 162.546 204.775C162.503 205.049 162.384 205.304 162.202 205.51C162.021 205.716 161.785 205.864 161.523 205.937C161.262 206.009 160.985 206.002 160.727 205.917V205.917Z" fill="#263238"/>
<path d="M135.869 201.759C136.724 201.804 137.58 201.804 138.435 201.759C139.334 201.883 140.247 201.704 141.038 201.249C141.27 201.065 141.431 200.802 141.492 200.508C141.554 200.214 141.512 199.907 141.374 199.641C141.048 199.148 140.598 198.753 140.073 198.497C139.547 198.241 138.965 198.134 138.385 198.187C137.195 198.112 136.02 198.489 135.085 199.246C134.875 199.429 134.722 199.671 134.646 199.942C134.57 200.214 134.575 200.502 134.659 200.771C134.743 201.04 134.902 201.277 135.118 201.453C135.333 201.629 135.595 201.736 135.869 201.759V201.759Z" fill="#263238"/>
<path d="M138.273 207.234C134.35 206.15 132.532 214.277 136.169 215.285C139.805 216.293 141.549 208.14 138.273 207.234Z" fill="#263238"/>
<path d="M156.194 210.499C160.217 211.15 158.685 219.342 154.949 218.729C151.213 218.117 152.832 209.964 156.194 210.499Z" fill="#263238"/>
<path d="M134.649 229.727C135.073 230.48 135.434 231.45 136.293 231.769C137.204 232.011 138.155 232.05 139.083 231.884C139.099 231.89 139.113 231.902 139.122 231.917C139.132 231.931 139.137 231.949 139.137 231.967C139.137 231.985 139.132 232.002 139.122 232.017C139.113 232.032 139.099 232.043 139.083 232.05C138.603 232.441 138.029 232.691 137.421 232.774C136.814 232.857 136.196 232.77 135.633 232.522C135.174 232.249 134.805 231.842 134.572 231.354C134.339 230.865 134.253 230.317 134.325 229.778C134.388 229.625 134.587 229.625 134.649 229.727Z" fill="#263238"/>
<path d="M145.285 227.469C144.067 228.788 142.541 229.767 140.851 230.314C139.921 230.58 138.934 230.544 138.024 230.212C136.044 229.459 136.181 227.545 136.704 225.951C136.997 225.103 137.385 224.294 137.862 223.539C139.865 225.625 142.465 227.002 145.285 227.469V227.469Z" fill="white"/>
<path d="M143.255 229.205L142.806 229.499C142.155 229.317 141.528 229.056 140.938 228.72C141.723 228.899 142.495 229.026 143.255 229.205Z" fill="#DBDBDB"/>
<path d="M139.058 227.75C138.578 227.559 138.123 227.311 137.701 227.01C137.336 226.743 136.998 226.439 136.692 226.104V225.925C136.727 225.838 136.756 225.748 136.779 225.657C137.499 226.398 138.26 227.097 139.058 227.75V227.75Z" fill="#DBDBDB"/>
<path d="M146.879 222.888C146.879 222.888 146.592 226.78 146.206 228.553C146.206 228.719 145.746 228.706 145.148 228.617H145.073C143.524 228.563 142.02 228.074 140.724 227.203C139.428 226.332 138.391 225.113 137.725 223.679C137.713 223.638 137.714 223.594 137.729 223.554C137.744 223.514 137.772 223.48 137.808 223.458C137.843 223.436 137.886 223.427 137.927 223.432C137.969 223.438 138.007 223.457 138.037 223.488C139.931 225.51 142.412 226.853 145.11 227.316C145.335 226.856 145.397 220.592 145.658 220.694C146.779 221.153 148.697 222.123 149.394 222.48C149.644 219.928 149.98 212.783 150.441 208.19C150.441 207.909 150.901 207.909 150.914 208.19C151.247 213.591 151.226 219.008 150.852 224.407C150.839 224.853 147.501 223.348 146.879 222.888Z" fill="#263238"/>
<path d="M102.12 208.024C109.393 209.083 114.574 190.939 114.574 190.939C114.574 190.939 124.251 190.123 131.636 174.352C131.636 174.352 133.068 192.381 163.193 197.319C165.563 192.3 166.334 186.645 165.398 181.153C166.844 187.135 167.806 193.229 168.274 199.373C168.274 199.373 182.135 176.598 163.903 161.81C156.643 155.941 143.977 152.993 122.27 157.064C122.27 157.064 121.859 144.304 119.257 145.236C116.654 146.167 117.824 158.25 117.824 158.25C117.824 158.25 110.215 153.146 108.31 154.55C106.678 155.724 114.113 160.241 114.113 160.241C114.113 160.241 100.178 160.674 98.1102 176.394C96.2546 190.812 98.5212 207.488 102.12 208.024Z" fill="#263238"/>
<path d="M116.516 160.725C112.869 159.523 108.919 159.729 105.41 161.304C101.9 162.878 99.0739 165.713 97.4623 169.274C95.669 173.369 95.4323 178.269 95.644 182.684C95.9827 187.464 96.9159 192.181 98.4212 196.719C98.5084 196.961 98.882 196.796 98.7948 196.54C97.5584 192.351 96.9618 187.991 97.0264 183.615C96.8596 179.432 97.3515 175.249 98.4835 171.226C99.6966 167.555 102.214 164.487 105.534 162.631C108.855 160.775 112.735 160.268 116.404 161.21C116.641 161.223 116.753 160.802 116.516 160.725Z" fill="#263238"/>
<path d="M148.448 152.84C143.16 152.555 137.859 152.984 132.681 154.116C127.715 154.943 122.922 156.63 118.509 159.105C118.467 159.131 118.436 159.171 118.421 159.219C118.407 159.267 118.409 159.318 118.429 159.364C118.449 159.409 118.485 159.446 118.53 159.466C118.574 159.487 118.624 159.49 118.671 159.475C127.575 155.992 137.501 154.945 146.978 154.933C155.858 154.933 165.572 157.778 169.918 166.416C169.934 166.441 169.959 166.459 169.987 166.467C170.015 166.476 170.045 166.474 170.072 166.461C170.099 166.449 170.12 166.428 170.133 166.401C170.146 166.374 170.149 166.343 170.142 166.314C166.555 157.485 157.203 153.465 148.448 152.84Z" fill="#263238"/>
<path d="M106.852 207.144C106.852 207.144 101.572 193.747 95.8059 195.431C90.0399 197.115 92.2317 215.221 97.7114 218.921C98.3788 219.459 99.1466 219.851 99.9676 220.074C100.789 220.297 101.645 220.345 102.485 220.216C103.325 220.087 104.13 219.783 104.851 219.324C105.572 218.864 106.194 218.258 106.678 217.543L106.852 207.144Z" fill="#EB9481"/>
<path d="M96.5656 200.598C96.5441 200.588 96.5196 200.587 96.4974 200.595C96.4752 200.603 96.4572 200.62 96.4473 200.642C96.4374 200.664 96.4364 200.69 96.4446 200.712C96.4528 200.735 96.4694 200.753 96.4909 200.764C100.302 203.494 101.622 208.011 102.244 212.528C101.348 210.639 99.8409 209.363 97.4125 210.397C97.2879 210.397 97.3502 210.652 97.4747 210.652C98.2688 210.583 99.0643 210.768 99.7514 211.181C100.438 211.595 100.983 212.217 101.31 212.962C101.858 214.188 102.275 215.472 102.556 216.789C102.668 217.223 103.39 217.172 103.353 216.7C103.347 216.662 103.347 216.623 103.353 216.585C104.636 211.162 102.195 202.512 96.5656 200.598Z" fill="#263238"/>
<path d="M106.491 204.708C106.029 203.054 105.246 201.514 104.188 200.178C103.655 199.499 103.059 198.875 102.407 198.315C101.771 197.693 101.069 197.145 100.314 196.682C100.115 196.567 99.7789 196.491 99.9782 196.618C101.298 197.435 102.369 199.744 102.967 201.212C103.561 202.685 104.068 204.193 104.486 205.729C105.322 209.383 105.971 213.08 106.429 216.804C106.429 217.11 106.94 217.212 106.99 216.804C107.63 212.779 107.461 208.663 106.491 204.708V204.708Z" fill="#EBEBEB"/>
<path d="M109.68 235.573C107.946 234.91 106.463 233.699 105.445 232.115C103.503 229.826 101.749 227.377 100.202 224.791C99.2169 222.916 98.3839 220.962 97.7116 218.947C98.3365 219.375 99.0152 219.714 99.7291 219.955C100.265 221.167 100.837 222.367 101.448 223.541C102.571 225.744 103.901 227.829 105.42 229.767C106.168 230.724 106.927 231.668 107.687 232.625C108.447 233.582 109.256 234.271 109.916 235.177C109.95 235.216 109.971 235.265 109.975 235.317C109.979 235.368 109.968 235.42 109.941 235.465C109.914 235.509 109.875 235.543 109.828 235.563C109.781 235.582 109.729 235.586 109.68 235.573V235.573Z" fill="#EBEBEB"/>
<path d="M106.217 215.194C106.454 213.344 120.639 217.593 123.403 217.619C126.168 217.644 143.927 216.343 150.129 217.619C154.276 218.486 160.441 223.73 164.052 223.641C164.949 223.641 159.133 238.34 151.91 245.613C149.905 247.616 139.456 249.377 135.048 248.981C123.665 247.922 109.866 238.353 107.263 235.086C105.831 233.274 105.321 222.212 106.217 215.194Z" fill="#EBEBEB"/>
<path d="M161.749 225.964C160.054 225.815 158.406 225.316 156.904 224.497C155.459 223.795 154.002 223.106 152.52 222.493C149.364 221.275 145.982 220.791 142.62 221.077C139.058 221.281 135.534 221.958 131.972 222.213C128.334 222.413 124.687 222.152 121.112 221.434C119.144 221.064 117.177 220.643 115.234 220.158C113.291 219.674 111.112 219.253 109.107 218.653C108.982 218.653 108.945 218.806 109.107 218.844C110.9 219.38 112.644 220.12 114.425 220.669C116.205 221.217 118.011 221.741 119.817 222.149C123.279 222.972 126.823 223.378 130.378 223.361C137.439 223.272 144.575 220.72 151.549 223.182C153.292 223.808 154.936 224.701 156.705 225.262C158.36 225.821 160.094 226.092 161.836 226.066C161.823 226.079 161.811 225.964 161.749 225.964Z" fill="#DBDBDB"/>
<path d="M153.591 241.785C148.261 244.579 142.209 244.834 136.405 244.082C133.323 243.776 130.285 243.108 127.351 242.091C124.38 240.872 121.471 239.501 118.634 237.983C115.407 236.459 112.298 234.689 109.331 232.688C109.244 232.688 109.131 232.79 109.219 232.853C111.779 234.917 114.503 236.756 117.363 238.353C120.24 239.935 123.167 241.542 126.168 242.818C129.23 244.011 132.434 244.775 135.695 245.09C138.64 245.525 141.625 245.598 144.587 245.306C147.855 244.972 150.989 243.805 153.703 241.912C153.728 241.785 153.666 241.683 153.591 241.785Z" fill="#DBDBDB"/>
<path d="M159.195 230.507C155.97 230.507 153.081 229.448 150.029 228.491C146.9 227.646 143.648 227.383 140.428 227.712C133.779 228.054 127.114 227.574 120.576 226.283C116.905 225.624 113.291 224.669 109.767 223.425C109.655 223.425 109.605 223.578 109.767 223.629C112.904 224.841 116.106 225.872 119.356 226.717C122.546 227.473 125.784 228.002 129.045 228.299C132.357 228.609 135.685 228.69 139.008 228.542C142.429 228.184 145.883 228.313 149.27 228.925C152.508 229.69 155.87 231.349 159.233 230.685C159.307 230.66 159.283 230.507 159.195 230.507Z" fill="#DBDBDB"/>
<path d="M156.83 235.404C155.298 235.621 153.791 235.991 152.271 236.221C150.752 236.45 149.195 236.603 147.651 236.706C144.505 236.954 141.345 236.954 138.199 236.706C132.03 236.034 125.963 234.603 120.128 232.444C118.497 231.882 116.866 231.283 115.247 230.67L112.818 229.79C111.859 229.505 110.923 229.147 110.016 228.718C109.892 228.654 109.817 228.871 109.941 228.91C111.514 229.48 113.053 230.144 114.549 230.9C115.944 231.5 117.351 232.048 118.771 232.584C121.729 233.723 124.742 234.703 127.8 235.519C133.892 237.147 140.195 237.789 146.48 237.42C148.151 237.297 149.813 237.084 151.462 236.782C153.284 236.516 155.079 236.089 156.83 235.506C156.83 235.506 156.879 235.404 156.83 235.404Z" fill="#DBDBDB"/>
<path d="M113.963 393.774C113.963 393.774 102.855 397.028 106.043 405.487C109.231 413.946 119.605 408.69 119.605 408.69L113.963 393.774Z" fill="#EB9481"/>
<path d="M194.953 378.827L189.326 363.915L113.534 393.941L119.162 408.852L194.953 378.827Z" fill="#E9A439"/>
<path d="M122.234 409.061L115.664 391.65L112.655 392.842L119.226 410.252L122.234 409.061Z" fill="#37474F"/>
<path d="M125.564 407.744L118.993 390.333L115.985 391.525L122.555 408.936L125.564 407.744Z" fill="#37474F"/>
<path d="M194.962 378.845L202.198 369.518L204.602 366.456L200.866 365.818L189.396 363.917L188.076 366.163C188.076 366.163 190.479 366.877 190.566 366.903L189.246 369.148L191.737 369.888L190.404 372.108C190.404 372.108 192.82 372.848 192.895 372.874L191.363 375.094L193.854 375.86L192.522 378.08C192.522 378.08 194.925 378.82 194.962 378.845Z" fill="#EBEBEB"/>
<path d="M202.198 369.532L204.602 366.457L200.803 365.819L202.198 369.532Z" fill="#37474F"/>
<path d="M85.3824 250.628C60.475 272.561 18.5185 331.93 23.2758 345.761C31.9934 371.28 101.124 386.68 114.549 390.559C120.265 392.218 127.003 337.251 120.863 335.35C115.57 333.704 78.9812 331.228 77.8853 326.495C77.4245 324.542 89.8907 297.084 98.5086 265.62C105.122 241.518 92.7426 244.121 85.3824 250.628Z" fill="#EB9481"/>
<path d="M106.678 335.694C106.678 335.694 109.954 336.039 127.513 334.98C139.643 334.24 169.682 340.39 184.003 372.186C189.483 384.371 183.543 393.634 175.647 382.011C170.08 373.832 166.929 367.669 164.439 365.526C164.439 365.526 163.48 380.747 156.132 385.405C149.711 389.477 143.014 393.076 136.094 396.173C135.252 395.008 134.482 393.789 133.79 392.524C130.732 394.095 127.303 394.748 123.898 394.407C120.493 394.066 117.252 392.746 114.549 390.598L106.678 335.694Z" fill="#EB9481"/>
<path d="M139.257 336.205C144.301 340.199 154.837 348.85 161.064 359.006C167.976 370.285 178.337 393.915 170.155 399.057C164.165 402.821 159.432 394.158 159.432 394.158C159.432 394.158 161.699 404.85 155.559 407.045C149.955 409.048 146.692 402.12 146.692 402.12C146.692 402.12 146.979 408.844 141.225 409.699C134.313 410.745 134.836 396.467 126.941 391.312C125.172 390.113 139.257 336.205 139.257 336.205Z" fill="#EB9481"/>
<path d="M148.224 364.467C152.358 369.022 159.17 381.833 159.569 393.877C159.569 394.158 159.382 394.311 159.32 394.056C156.764 383.786 153.001 373.871 148.112 364.531C148.087 364.467 148.174 364.416 148.224 364.467Z" fill="#263238"/>
<path d="M137.315 371.931C140.49 376.244 146.941 389.794 146.929 401.992C146.929 402.26 146.717 402.4 146.667 402.158C144.638 391.769 141.463 381.649 137.202 371.995C137.178 371.931 137.277 371.931 137.315 371.931Z" fill="#263238"/>
<path d="M175.697 357.423C167.248 347.038 155.773 339.699 142.956 336.485C141.219 336.024 139.461 335.654 137.688 335.375C135.899 335.05 134.087 334.883 132.271 334.877C132.244 334.877 132.219 334.888 132.2 334.907C132.181 334.926 132.171 334.952 132.171 334.979C132.171 335.006 132.181 335.032 132.2 335.051C132.219 335.07 132.244 335.081 132.271 335.081C133.84 335.451 135.446 335.719 137.04 336.064C138.634 336.408 140.054 336.778 141.549 337.199C144.649 338.072 147.687 339.163 150.64 340.466C156.55 343.048 162.106 346.411 167.166 350.469C170.021 352.765 172.749 355.222 175.335 357.831C175.572 358.086 175.908 357.691 175.697 357.423Z" fill="#263238"/>
<path d="M38.3573 306.603L85.233 313.072C85.233 313.072 96.4414 283.573 100.103 263.247C103.764 242.922 98.4589 236.746 76.7022 257.225C54.9456 277.704 38.3573 306.603 38.3573 306.603Z" fill="#E9A439"/>
<path d="M85.9677 304.013C82.7297 303.03 49.2791 298.501 45.9041 298.59C45.7422 298.59 45.7173 298.858 45.9041 298.909C49.1794 299.892 82.6301 304.294 85.9801 304.204C86.0424 304.204 86.0549 304.038 85.9677 304.013Z" fill="#263238"/>
<path d="M95.8312 285.64C95.2335 286.992 94.5859 288.332 93.9383 289.646C93.7141 290.08 93.5149 290.526 93.3032 290.922C93.465 290.361 93.6519 289.812 93.8137 289.238C94.8225 285.831 95.6444 282.361 96.5411 278.915C96.5411 278.813 96.429 278.788 96.3917 278.915C94.2745 284.963 92.2072 290.999 90.1648 297.085C89.1851 300.045 88.2096 303.022 87.2382 306.016C86.7276 307.56 86.2295 309.117 85.7438 310.673C85.557 311.248 85.4573 312.472 84.8346 312.677C84.0088 312.8 83.1698 312.8 82.3439 312.677C82.1944 312.677 82.1695 312.932 82.3439 312.957C83.1783 313.059 84.0002 313.289 84.8346 313.378C84.9953 313.416 85.1616 313.421 85.3241 313.393C85.4866 313.364 85.6419 313.303 85.7811 313.212C86.1402 312.817 86.3933 312.334 86.5159 311.809C86.8272 310.98 87.1137 310.125 87.4125 309.257C88.5832 305.965 89.6791 302.635 90.7128 299.318C91.3728 297.212 92.0453 295.12 92.7054 293.027C93.2782 291.968 93.8636 290.896 94.3368 289.786C94.8972 288.447 95.4327 287.081 95.9184 285.691C95.9184 285.627 95.8561 285.601 95.8312 285.64Z" fill="#263238"/>
<path d="M374.408 337.251H267.742V361.035H374.408V337.251Z" fill="#E9A439"/>
<path d="M287.195 337.25H275.7V361.034H287.195V337.25Z" fill="#37474F"/>
<path d="M296.261 337.25H291.467V361.034H296.261V337.25Z" fill="#37474F"/>
<path d="M372.216 337.25H360.721V361.034H372.216V337.25Z" fill="#37474F"/>
<path d="M346.25 319.502H272.263V337.251H346.25V319.502Z" fill="#455A64"/>
<path d="M378.194 319.502H346.263V337.251H378.194V319.502Z" fill="#455A64"/>
<path d="M346.25 321.353H272.263V335.414H346.25V321.353Z" fill="white"/>
<path d="M277.057 324.25C282.819 324.122 288.585 324.037 294.356 323.994L311.654 323.931L328.952 323.994C334.714 324.045 340.484 324.131 346.263 324.25C340.501 324.369 334.731 324.45 328.952 324.492L311.654 324.556L294.356 324.492C288.594 324.441 282.828 324.36 277.057 324.25Z" fill="#DBDBDB"/>
<path d="M277.057 327.004C282.819 326.885 288.585 326.804 294.356 326.762L311.654 326.685L328.952 326.762C334.714 326.762 340.484 326.842 346.263 327.004C340.501 327.115 334.731 327.195 328.952 327.246L311.654 327.323L294.356 327.272C288.594 327.212 282.828 327.123 277.057 327.004Z" fill="#DBDBDB"/>
<path d="M277.057 329.825C282.819 329.715 288.585 329.634 294.356 329.583L311.654 329.506L328.952 329.583C334.714 329.583 340.484 329.664 346.263 329.825C340.501 329.944 334.731 330.025 328.952 330.068L311.654 330.144L294.356 330.068C288.594 329.991 282.828 329.91 277.057 329.825Z" fill="#DBDBDB"/>
<path d="M277.057 332.516C282.819 332.397 288.585 332.316 294.356 332.273L311.654 332.197L328.952 332.273C334.714 332.273 340.484 332.354 346.263 332.516C340.501 332.643 334.731 332.728 328.952 332.771L311.654 332.835L294.356 332.758C288.594 332.724 282.828 332.643 277.057 332.516Z" fill="#DBDBDB"/>
<path d="M361.544 300.057H279.847V319.502H361.544V300.057Z" fill="#37474F"/>
<path d="M352.876 300.057H345.267V319.502H352.876V300.057Z" fill="#E9A439"/>
<path d="M340.273 300.057H337.321V319.502H340.273V300.057Z" fill="#E9A439"/>
</svg>
