<svg width="520" height="436" viewBox="0 0 520 436" fill="none" xmlns="http://www.w3.org/2000/svg">
<path d="M402.363 0.767579C395.37 0.766095 388.508 2.65699 382.503 6.23976C376.498 9.82253 371.574 14.9636 368.254 21.1179C364.934 27.2721 363.341 34.2101 363.645 41.1961C363.949 48.1822 366.137 54.9558 369.979 60.7989L364.339 75.0002L379.002 70.4882C383.908 74.1925 389.624 76.677 395.679 77.7364C401.734 78.7959 407.954 78.4 413.825 76.5814C419.697 74.7628 425.052 71.5737 429.448 67.2773C433.844 62.981 437.156 57.7006 439.108 51.8722C441.061 46.0438 441.6 39.8344 440.68 33.7568C439.759 27.6792 437.407 21.9076 433.816 16.9185C430.225 11.9295 425.499 7.86598 420.028 5.06359C414.558 2.26121 408.499 0.80028 402.352 0.801417L402.363 0.767579Z" fill="#FAFAFA"/>
<path d="M412.052 46.6992H406.694C406.704 47.3119 406.589 47.9202 406.356 48.4869C406.122 49.0535 405.776 49.5668 405.338 49.9953C404.9 50.4238 404.38 50.7586 403.808 50.9793C403.236 51.2 402.626 51.3019 402.013 51.2788C401.112 51.3124 400.222 51.0628 399.47 50.5652C398.717 50.0675 398.139 49.3468 397.817 48.504C397.532 47.8015 397.419 47.0415 397.485 46.2864C397.552 45.5313 397.797 44.803 398.201 44.1613C399.103 42.6723 401.1 41.3075 404.709 41.9053V29.8472H399.408V36.9309C397.227 37.5737 395.318 38.9156 393.975 40.75C392.631 42.5845 391.929 44.8096 391.974 47.0828C391.974 54.9222 399.002 56.7496 402.013 56.7496C404.314 56.7157 412.154 56.1517 412.052 46.6992Z" fill="#52B796"/>
<path d="M399.34 27.3545H404.72V22.3237H399.34V27.3545Z" fill="#52B796"/>
<path d="M441.425 39.5251C441.445 39.2962 441.445 39.0659 441.425 38.837C441.425 38.352 441.425 37.709 441.369 36.8518C441.369 36.4118 441.369 35.9155 441.301 35.3741C441.233 34.8327 441.143 34.2461 441.053 33.6144C440.963 32.9828 440.861 32.2947 440.759 31.5615C440.658 30.8283 440.387 30.0839 440.196 29.3055C439.199 25.3609 437.561 21.6072 435.345 18.1949C432.136 13.1339 427.81 8.87565 422.698 5.74708C417.587 2.61851 411.827 0.702846 405.86 0.147186C404.074 -0.00555138 402.28 -0.0394615 400.49 0.045672C399.577 0.045672 398.652 0.0456651 397.738 0.214863L394.963 0.632219C391.162 1.32812 387.483 2.57848 384.045 4.34329C376.577 8.15145 370.534 14.2618 366.809 21.7706C364.798 25.6965 363.496 29.9465 362.962 34.3251C362.793 35.4455 362.699 36.576 362.681 37.709C362.596 38.8349 362.573 39.9646 362.613 41.093C362.714 43.3685 363.001 45.632 363.47 47.8609C364.488 52.6854 366.401 57.2765 369.11 61.3967V60.9906C367.226 65.6605 365.388 70.2513 363.594 74.7294L363.267 75.5416L364.113 75.3047L378.777 71.2665L378.416 71.1989C383.356 74.9292 389.107 77.4412 395.2 78.5307C398.037 79.0561 400.927 79.2379 403.807 79.0722C405.191 79.0384 406.57 78.9065 407.935 78.6774L409.943 78.3615C410.597 78.2375 411.24 78.0457 411.883 77.8878C420.915 75.5858 428.837 70.1538 434.24 62.5585C436.254 59.7524 437.871 56.6816 439.045 53.4331L439.789 51.3802C439.959 50.7034 440.117 50.0492 440.274 49.4288L440.726 47.6353C440.827 47.0713 440.895 46.5073 440.974 45.9997C441.098 44.962 441.278 44.0483 441.323 43.2474C441.369 42.4466 441.323 41.7923 441.391 41.2283C441.459 40.6643 441.391 40.3147 441.391 39.9988C441.404 39.86 441.404 39.7203 441.391 39.5815C441.355 39.7139 441.336 39.8504 441.335 39.9876C441.335 40.3034 441.278 40.7095 441.233 41.2171C441.188 41.7247 441.154 42.4466 441.098 43.2249C441.041 44.0032 440.838 44.9281 440.692 45.9546C439.398 53.408 435.971 60.3264 430.826 65.872C425.681 71.4175 419.038 75.3523 411.703 77.1997C411.071 77.3464 410.439 77.5381 409.785 77.6622L407.811 77.9555C406.472 78.1788 405.119 78.2995 403.762 78.3164C400.937 78.4725 398.104 78.2869 395.324 77.7637C389.362 76.6743 383.74 74.1975 378.912 70.5333L378.743 70.4093H378.551L363.887 74.4136L364.395 75.0002L369.933 61.2613L370.012 61.047L369.888 60.8553C366.003 54.9498 363.796 48.0994 363.504 41.0366C363.464 39.9345 363.487 38.8311 363.572 37.7316C363.582 36.6361 363.673 35.5428 363.842 34.4604C364.368 30.1802 365.643 26.026 367.61 22.188C369.479 18.4756 371.91 15.0741 374.818 12.1038C377.67 9.31812 380.906 6.95543 384.428 5.08776C387.796 3.33968 391.403 2.09686 395.133 1.39925L397.84 0.970618C398.742 0.84654 399.645 0.857815 400.536 0.790136C402.295 0.708782 404.058 0.73515 405.815 0.869095C411.685 1.39607 417.358 3.25105 422.406 6.29371C427.454 9.33637 431.743 13.487 434.95 18.4318C437.171 21.7859 438.836 25.4769 439.88 29.362C440.094 30.1628 440.297 30.9186 440.478 31.6179C440.658 32.3173 440.714 33.0166 440.816 33.6483C440.917 34.28 441.019 34.8552 441.098 35.3854C441.177 35.9155 441.177 36.4118 441.211 36.8518C441.267 37.6865 441.323 38.3407 441.357 38.837C441.361 39.0678 441.383 39.298 441.425 39.5251V39.5251Z" fill="#263238"/>
<path d="M246.611 257.61C245.945 259.866 242.956 358 261.151 435.504L351.694 435.707C352.901 382.759 373.126 300.428 343.854 254.891L246.611 257.61Z" fill="#263238"/>
<path d="M338.011 70.2852C341.001 81.1589 345.524 89.8669 349.934 94.2435C354.345 98.6201 359.06 103.741 358.902 109.945C358.834 112.381 358.022 114.965 359.093 117.164C360.47 120.007 364.158 120.627 366.922 122.184C368.927 123.424 370.56 125.181 371.65 127.272C372.74 129.362 373.246 131.708 373.114 134.061C372.783 138.777 370.708 143.2 367.294 146.469C363.91 149.921 358.428 152.335 354.164 149.977C351.592 148.556 350.126 145.781 348.829 143.142C342.114 129.478 336.037 115.529 330.601 101.293" fill="#263238"/>
<path d="M310.534 23.7336C306.726 19.5056 301.722 16.5373 296.186 15.2241C290.649 13.9108 284.845 14.3147 279.544 16.3821C274.243 18.4496 269.698 22.0824 266.513 26.797C263.328 31.5117 261.654 37.0846 261.715 42.774C261.794 50.0495 264.636 57.6859 261.715 64.3636C259.684 69.1011 254.947 72.6768 254.326 77.7866C253.571 83.7085 258.647 89.0664 258.376 95.056C258.207 98.9588 255.759 102.399 252.95 105.106C250.142 107.813 246.87 110.036 244.287 113.002C237.125 121.146 236.673 134.005 242.031 143.39C247.389 152.775 257.902 158.686 268.663 159.96C279.424 161.235 290.411 158.268 299.942 153.091C306.146 149.707 311.978 145.285 315.666 139.262C319.355 133.238 320.629 125.433 317.708 118.958" fill="#263238"/>
<path d="M276.378 19.3456C277.987 19.3155 279.596 19.3908 281.195 19.5712C285.024 20.2695 288.781 21.3192 292.418 22.707C296.112 24.0981 300.033 24.7904 303.98 24.7487C305.174 24.6912 306.356 24.4866 307.499 24.1396C307.924 24.0238 308.333 23.8572 308.718 23.6433C307.163 24.0416 305.572 24.2834 303.969 24.3652C300.078 24.2961 296.229 23.5598 292.588 22.1882C288.922 20.7881 285.118 19.7823 281.24 19.1877C280.051 19.078 278.854 19.078 277.664 19.1877C277.23 19.1796 276.797 19.2328 276.378 19.3456Z" fill="#455A64"/>
<path d="M367.497 153.711C367.404 152.316 367.22 150.93 366.944 149.56C365.755 143.978 363.224 138.77 359.57 134.385C355.917 130 351.251 126.572 345.975 124.395L318.734 112.9L287.602 113.701C287.602 113.701 264.467 124.27 259.808 129.775C259.459 130.181 256.357 133.249 256.154 134.445L232.725 203.996L202.777 222.664L210.989 233.132L255.138 228.947L260.485 220.251C257.564 226.804 245.912 253.391 245.912 261.535C245.912 261.535 314.053 276.12 341.181 273.39C353.115 272.183 355.946 271.066 355.946 271.066L347.983 241.22C354.581 240.769 361.327 236.708 364.034 231.068C368.738 221.288 368.343 166.841 367.497 153.711Z" fill="#52B796"/>
<path d="M154.804 164.077H150.112L156.541 224.774L212.038 220.961L205.778 168.702L154.804 164.077Z" fill="#E0E0E0"/>
<path d="M154.804 161.077L159.711 222.642L269.283 219.111L255.781 161.077L206.522 165.837L154.804 161.077Z" fill="#FAFAFA"/>
<path d="M154.804 161.133L155.684 161.201L158.335 161.427L168.6 162.307L206.545 165.69L255.804 160.885H256.041V161.111C260.203 178.933 264.771 198.549 269.577 219.146L269.656 219.495H269.295L264.128 219.653L159.734 222.947H159.508V222.721C158.053 203.816 156.869 188.408 156.034 177.703C155.639 172.391 155.323 168.251 155.12 165.408C155.015 164.025 154.936 162.965 154.883 162.228C154.883 161.506 154.883 161.1 154.883 161.1C154.883 161.1 154.883 161.494 154.985 162.228C155.086 162.961 155.154 164.055 155.267 165.454C155.515 168.307 155.865 172.458 156.316 177.794C157.196 188.464 158.459 203.816 160.016 222.642L159.779 222.439L264.174 219.055L269.351 218.897L269.069 219.247C264.286 198.661 259.741 179.046 255.601 161.212L255.883 161.415L206.624 166.108L168.848 162.521L158.549 161.528L155.853 161.257L154.804 161.133Z" fill="#263238"/>
<path d="M215.456 220.104C215.373 219.936 215.312 219.758 215.276 219.574C215.174 219.156 215.039 218.649 214.892 218.04C214.565 216.698 214.125 214.757 213.606 212.4C212.557 207.583 211.249 200.917 210.008 193.506C208.767 186.095 207.853 179.361 207.278 174.477C206.996 172.029 206.782 170.055 206.658 168.679C206.601 168.048 206.556 167.551 206.522 167.1C206.493 166.917 206.493 166.73 206.522 166.547C206.58 166.724 206.622 166.905 206.646 167.089C206.646 167.517 206.782 168.025 206.883 168.657C207.086 170.101 207.357 172.041 207.695 174.421C208.372 179.294 209.365 186.016 210.594 193.416C211.824 200.815 213.076 207.493 213.978 212.321C214.43 214.667 214.802 216.596 215.106 218.029C215.219 218.66 215.321 219.156 215.388 219.596C215.431 219.762 215.453 219.933 215.456 220.104V220.104Z" fill="#263238"/>
<path d="M186.692 182.058L187.753 203.489L182.79 203.737L181.921 186.254L177.623 186.468L177.432 182.565L186.692 182.058Z" fill="#52B796"/>
<path d="M246.07 197.037L246.476 201.064L230.312 202.688L229.996 199.485L237.463 190.867C239.178 188.87 239.403 187.742 239.302 186.693C239.132 185.024 237.869 184.155 235.613 184.381C234.753 184.437 233.92 184.702 233.185 185.152C232.45 185.602 231.835 186.224 231.394 186.964L227.559 185.013C228.406 183.602 229.589 182.423 231.002 181.581C232.415 180.739 234.015 180.259 235.658 180.185C240.418 179.7 243.847 181.832 244.231 185.712C244.445 187.787 244.05 189.739 241.332 192.818L236.888 197.962L246.07 197.037Z" fill="#52B796"/>
<path d="M200.285 234.791L190.133 227.346L190.686 210.426C191.822 210.672 192.856 211.264 193.643 212.12C194.431 212.977 194.934 214.055 195.085 215.209C195.502 219.179 195.852 222.947 195.852 222.947L199.044 223.906L198.604 221.706L206.364 210.652C206.364 210.652 209.309 212.829 208.079 215.694C209.489 214.318 211.722 215.457 211.463 216.732L212.004 213.72C212.004 213.72 215.535 212.671 215.388 216.247C215.383 217.678 215.243 219.105 214.971 220.51H227.3C227.3 220.51 223.735 226.534 221.66 228.169C219.584 229.805 200.871 234.881 200.871 234.881" fill="#FFBE9D"/>
<path d="M201.221 231.542C199.502 228.59 198.602 225.234 198.615 221.818C198.796 221.818 199.123 224.074 199.845 226.703C200.567 229.331 201.379 231.463 201.221 231.542Z" fill="#EB996E"/>
<path d="M205.327 228.925C204.73 226.738 204.318 224.504 204.097 222.248V222.146V222.056L204.289 221.729C205.385 219.602 206.652 217.569 208.079 215.649C207.156 217.857 206.058 219.988 204.797 222.022L204.605 222.349V222.169C205.032 224.397 205.273 226.657 205.327 228.925Z" fill="#EB996E"/>
<path d="M210.357 226.974C210.038 225.659 209.876 224.311 209.872 222.958V222.89C210.019 222.247 210.154 221.582 210.312 220.894C210.661 218.895 211.201 216.935 211.925 215.04C211.766 217.065 211.415 219.07 210.876 221.029L210.414 223.003V222.935C210.544 224.279 210.525 225.634 210.357 226.974Z" fill="#EB996E"/>
<path d="M324.34 33.0395V38.5779L325.468 121.417C325.604 131.027 317.448 138.811 307.15 138.878C296.75 138.946 288.076 131.129 287.782 121.417C287.467 111.265 286.959 100.493 286.959 100.493C286.959 100.493 273.762 98.6769 270.569 81.6218C268.979 73.1393 269.024 59.1523 269.441 47.7146C269.517 45.2634 270.091 42.8533 271.129 40.6314C272.167 38.4095 273.647 36.4225 275.478 34.7916C277.31 33.1607 279.454 31.9201 281.781 31.1457C284.108 30.3713 286.568 30.0792 289.012 30.2873L324.34 33.0395Z" fill="#FFBE9D"/>
<path d="M275.938 60.0769C275.961 60.646 276.198 61.1856 276.602 61.5873C277.005 61.989 277.546 62.2231 278.115 62.2426C278.399 62.2641 278.685 62.2276 278.954 62.1354C279.223 62.0432 279.471 61.8971 279.682 61.7061C279.893 61.5151 280.063 61.2832 280.181 61.0244C280.3 60.7657 280.365 60.4855 280.371 60.2009C280.349 59.6318 280.112 59.0922 279.708 58.6905C279.304 58.2888 278.764 58.0547 278.194 58.0352C277.91 58.0121 277.624 58.0474 277.354 58.139C277.084 58.2306 276.836 58.3765 276.625 58.5679C276.413 58.7592 276.243 58.9918 276.125 59.2513C276.007 59.5108 275.944 59.7918 275.938 60.0769V60.0769Z" fill="#263238"/>
<path d="M272.746 54.8997C273.028 55.1704 274.664 53.8958 277.021 53.8394C279.379 53.783 281.15 54.9674 281.398 54.6177C281.646 54.268 281.229 53.9747 280.462 53.4897C279.418 52.8061 278.189 52.4632 276.942 52.5083C275.715 52.5422 274.53 52.9648 273.558 53.7153C272.859 54.2454 272.611 54.7643 272.746 54.8997Z" fill="#263238"/>
<path d="M299.254 60.0774C299.276 60.6466 299.513 61.1861 299.917 61.5879C300.321 61.9896 300.862 62.2237 301.431 62.2432C301.715 62.2647 302 62.2282 302.269 62.136C302.539 62.0437 302.786 61.8977 302.997 61.7067C303.208 61.5157 303.378 61.2838 303.497 61.025C303.615 60.7662 303.68 60.4861 303.687 60.2015C303.664 59.6324 303.428 59.0928 303.024 58.6911C302.62 58.2894 302.079 58.0553 301.51 58.0358C301.226 58.0143 300.941 58.0507 300.672 58.143C300.402 58.2352 300.155 58.3812 299.944 58.5722C299.733 58.7632 299.563 58.9952 299.444 59.2539C299.325 59.5127 299.261 59.7929 299.254 60.0774V60.0774Z" fill="#263238"/>
<path d="M296.005 54.6966C296.287 54.9786 297.923 53.6927 300.28 53.6363C302.638 53.5799 304.409 54.7643 304.657 54.4146C304.905 54.0649 304.499 53.7717 303.721 53.2866C302.676 52.607 301.447 52.2681 300.201 52.3166C298.975 52.3472 297.791 52.7658 296.817 53.5122C296.107 54.0424 295.87 54.5725 296.005 54.6966Z" fill="#263238"/>
<path d="M287.906 72.4738C286.65 72.1158 285.354 71.9187 284.049 71.8872C283.44 71.8872 282.864 71.7293 282.751 71.3232C282.682 70.7001 282.804 70.0704 283.101 69.5184L284.771 64.8712C287.027 58.2612 288.707 52.8243 288.448 52.734C288.188 52.6438 286.102 57.9341 283.801 64.544L282.21 69.2252C281.856 69.9662 281.768 70.807 281.962 71.6052C282.058 71.8147 282.2 71.9997 282.378 72.1462C282.556 72.2928 282.764 72.397 282.988 72.4512C283.324 72.5379 283.669 72.5796 284.015 72.5753C285.311 72.6958 286.618 72.6618 287.906 72.4738Z" fill="#263238"/>
<path d="M287.049 100.493C295.12 100.388 303.004 98.0454 309.823 93.7251C309.823 93.7251 304.578 105.648 287.387 104.52L287.049 100.493Z" fill="#EB996E"/>
<path d="M289.068 78.1362C289.502 77.5593 290.075 77.1024 290.734 76.8084C291.394 76.5143 292.117 76.3929 292.836 76.4555C293.36 76.4847 293.872 76.6209 294.342 76.8556C294.811 77.0903 295.228 77.4186 295.565 77.8203C295.892 78.2049 296.093 78.6801 296.141 79.1822C296.19 79.6843 296.083 80.1892 295.836 80.629C295.467 81.0637 294.977 81.3785 294.429 81.5332C293.88 81.6879 293.298 81.6755 292.757 81.4976C291.627 81.1362 290.58 80.5534 289.677 79.783C289.411 79.5988 289.178 79.3698 288.989 79.1062C288.901 78.9744 288.854 78.8193 288.854 78.6607C288.854 78.502 288.901 78.347 288.989 78.2151" fill="#EB996E"/>
<path d="M294.911 73.9176C294.528 73.9176 294.595 76.4668 292.441 78.3506C290.286 80.2343 287.557 80.0313 287.545 80.3809C287.545 80.5501 288.166 80.866 289.328 80.866C290.833 80.8433 292.282 80.2924 293.422 79.3094C294.512 78.3654 295.192 77.0345 295.317 75.5983C295.419 74.5154 295.092 73.895 294.911 73.9176Z" fill="#263238"/>
<path d="M295.137 45.4472C295.385 46.0789 297.742 45.7067 300.528 45.9661C303.315 46.2255 305.571 46.9249 305.932 46.3383C306.078 46.0563 305.672 45.4585 304.804 44.8607C303.574 44.132 302.195 43.6925 300.77 43.5752C299.345 43.458 297.913 43.6661 296.581 44.1839C295.532 44.6238 295.035 45.1427 295.137 45.4472Z" fill="#263238"/>
<path d="M273.423 48.0304C273.863 48.5493 275.476 47.9514 277.427 47.8725C279.379 47.7935 281.059 48.1319 281.42 47.5566C281.59 47.2859 281.308 46.7445 280.574 46.2595C279.588 45.6632 278.441 45.3873 277.292 45.4699C276.144 45.5066 275.036 45.901 274.122 46.5979C273.446 47.207 273.243 47.771 273.423 48.0304Z" fill="#263238"/>
<path d="M302.796 27.6139C298.216 33.7051 302.976 42.2777 308.255 47.8274C313.534 53.3771 319.964 59.7051 318.52 67.1836C316.85 75.8578 304.984 81.4075 306.755 90.0591C307.398 93.2175 309.891 95.9133 309.902 99.083C309.902 104.903 302.39 107.723 300.224 113.126C297.257 120.526 305.424 127.903 305.548 135.878C305.616 140.39 303.044 144.631 302.909 149.154C302.627 158.426 313.602 165.217 322.592 162.938C331.582 160.66 337.741 151.884 339.703 142.815C341.666 133.746 338.688 121 337.233 111.84L352.811 115.45C355.721 112.686 351.75 109.742 351.096 105.783C349.46 95.8682 342.941 87.476 339.816 77.9107C337.098 69.5524 337.086 60.6075 335.902 51.8994C334.718 43.1914 332.01 34.1224 325.367 28.381C318.723 22.6395 307.217 21.9289 301.837 28.8773" fill="#263238"/>
<path d="M312.891 186.434L308.154 179.993L314.594 165.645L316.85 132.043C316.85 132.043 312.181 130.813 311.707 136.092C311.425 139.194 311.177 141.969 311.177 141.969L305.875 140.266L298.329 142.522C298.329 142.522 298.667 146.357 301.713 145.601C303.507 145.147 305.357 144.957 307.206 145.037L310.094 149.278V150.801L306.259 148.06H298.679L293.986 152.109C293.986 152.109 295.577 155.866 298.036 154.726C298.036 154.726 293.941 165.803 293.524 167.89C293.524 167.89 289.35 178.685 293.524 184.934C296.377 189.055 299.659 192.863 303.315 196.293L312.891 186.434Z" fill="#FFBE9D"/>
<path d="M314.786 153.61C315.051 153.091 315.161 152.508 315.102 151.929C314.69 150.553 314.138 149.222 313.455 147.958C312.527 146.103 311.772 144.166 311.199 142.172C312.312 143.927 313.259 145.781 314.03 147.71C314.369 148.477 314.696 149.21 315.001 149.966C315.311 150.582 315.498 151.253 315.553 151.94C315.583 152.417 315.461 152.891 315.204 153.294C314.978 153.542 314.809 153.632 314.786 153.61Z" fill="#EB996E"/>
<path d="M312.812 152.741C311.56 152.212 310.39 151.505 309.338 150.643C307.511 149.346 306.123 148.139 306.259 147.981C307.454 148.601 308.587 149.334 309.643 150.169C310.816 150.872 311.883 151.738 312.812 152.741V152.741Z" fill="#EB996E"/>
<path d="M309.417 159.08C308.768 158.599 308.226 157.989 307.827 157.287C307.338 156.579 306.922 155.823 306.586 155.031C306.384 154.559 306.207 154.077 306.056 153.587C306.038 153.491 305.999 153.4 305.943 153.32C305.886 153.24 305.813 153.173 305.729 153.124C305.499 153.046 305.26 152.996 305.018 152.978C303.473 152.775 302.006 152.515 300.833 152.403H300.912C300.489 152.644 300.108 152.953 299.784 153.316C299.457 153.655 299.175 153.948 298.927 154.173C298.43 154.647 298.047 154.828 298.024 154.771C298.002 154.715 298.295 154.501 298.712 153.982L299.491 153.045C299.828 152.585 300.259 152.201 300.754 151.917H300.833C302.108 151.985 303.529 152.211 305.086 152.414C305.391 152.434 305.692 152.503 305.977 152.617C306.127 152.701 306.26 152.814 306.366 152.949C306.473 153.085 306.551 153.24 306.597 153.406C306.755 153.937 306.89 154.388 307.071 154.839C307.385 155.62 307.762 156.375 308.199 157.095C308.955 158.313 309.485 159.012 309.417 159.08Z" fill="#EB996E"/>
<path d="M302.367 160.005C302.326 158.752 302.478 157.501 302.818 156.294C302.965 155.046 303.316 153.83 303.856 152.696C303.896 153.949 303.74 155.201 303.394 156.407C303.245 157.653 302.899 158.868 302.367 160.005V160.005Z" fill="#EB996E"/>
<path d="M308.075 166.344C308.146 165.962 308.094 165.568 307.928 165.216C307.717 164.847 307.393 164.554 307.003 164.382C306.478 164.194 305.904 164.194 305.379 164.382C304.714 164.621 304.087 164.955 303.518 165.374C302.833 165.872 302.071 166.253 301.262 166.502C300.761 166.647 300.229 166.639 299.733 166.48C299.237 166.322 298.799 166.019 298.476 165.611C298.321 165.369 298.223 165.096 298.188 164.811C298.153 164.526 298.182 164.237 298.273 163.964C298.455 163.453 298.734 162.982 299.096 162.577C300.359 161.11 301.786 159.793 303.348 158.652C304.056 158.123 304.887 157.785 305.762 157.67C306.55 157.604 307.339 157.785 308.018 158.189C308.936 158.755 309.708 159.528 310.274 160.445C310.52 160.75 310.714 161.093 310.85 161.46C310.567 161.195 310.314 160.9 310.094 160.58C309.486 159.759 308.719 159.068 307.838 158.55C307.233 158.227 306.546 158.09 305.864 158.155C305.079 158.282 304.338 158.604 303.709 159.091C302.21 160.235 300.834 161.532 299.604 162.96C298.961 163.682 298.543 164.619 299.006 165.295C299.267 165.607 299.612 165.837 299.999 165.959C300.387 166.081 300.802 166.089 301.194 165.983C302.784 165.555 303.958 164.258 305.356 163.942C305.977 163.748 306.647 163.788 307.24 164.055C307.676 164.278 308.023 164.644 308.221 165.092C308.436 165.95 308.075 166.378 308.075 166.344Z" fill="#EB996E"/>
<path d="M357.458 236.55C357.152 236.958 356.809 237.336 356.431 237.678C355.373 238.649 354.156 239.431 352.833 239.991C350.733 240.889 348.473 241.354 346.189 241.355C343.168 241.352 340.181 240.71 337.425 239.472C334.108 237.962 331.005 236.02 328.198 233.696C325.141 231.237 321.96 228.542 318.689 225.609C315.244 222.549 312.045 219.223 309.124 215.66C306.051 211.785 303.283 207.678 300.844 203.376C300.314 202.44 299.795 201.504 299.265 200.59L299.164 200.398L299.322 200.24L316.625 182.396L316.771 182.238L316.963 182.351C328.243 189.344 337.763 195.582 344.509 199.879L352.404 204.91L354.491 206.253L355.033 206.602L355.202 206.738C355.202 206.738 355.134 206.738 354.999 206.647L354.446 206.332L352.314 205.057C350.453 203.929 347.802 202.282 344.351 200.161C337.583 195.932 328.04 189.773 316.693 182.813H317.031L299.784 200.613V200.263C300.303 201.188 300.833 202.113 301.352 203.049C303.79 207.331 306.554 211.419 309.62 215.276C312.515 218.824 315.687 222.135 319.106 225.18C325.66 230.955 331.514 236.46 337.639 239.066C340.336 240.309 343.265 240.97 346.234 241.006C348.479 241.026 350.706 240.604 352.788 239.765C354.102 239.232 355.321 238.489 356.398 237.565C357.131 236.922 357.458 236.528 357.458 236.55Z" fill="#263238"/>
<path d="M338.891 165.036C338.927 165.438 338.927 165.842 338.891 166.243C338.891 167.145 338.835 168.24 338.801 169.514C338.7 172.436 338.564 176.181 338.418 180.332C338.271 184.483 338.09 188.374 337.932 191.138L337.729 194.409C337.727 194.812 337.674 195.214 337.572 195.604C337.492 195.207 337.469 194.801 337.504 194.398C337.504 193.619 337.504 192.503 337.504 191.115C337.504 188.352 337.662 184.528 337.82 180.309C337.978 176.09 338.181 172.266 338.372 169.503C338.388 168 338.562 166.503 338.891 165.036V165.036Z" fill="#263238"/>
<path d="M353.171 135.348C353.171 135.449 351.953 135.867 350.137 136.938C349.075 137.562 348.071 138.279 347.137 139.081C344.851 141.052 343.01 143.486 341.734 146.221C341.212 147.335 340.793 148.494 340.482 149.684C339.94 151.726 339.884 153.068 339.771 153.068C339.713 152.763 339.713 152.449 339.771 152.143C339.807 151.296 339.92 150.454 340.109 149.628C340.362 148.393 340.74 147.188 341.237 146.03C342.493 143.191 344.393 140.684 346.787 138.709C347.761 137.903 348.816 137.2 349.934 136.611C350.68 136.205 351.461 135.869 352.269 135.607C352.555 135.474 352.859 135.387 353.171 135.348V135.348Z" fill="#263238"/>
<path d="M265.132 198.199C264.814 197.627 264.543 197.031 264.32 196.417C263.835 195.289 263.136 193.563 262.369 191.442C260.857 187.223 258.793 181.189 258.771 174.218C258.77 172.528 258.909 170.842 259.188 169.176C259.484 167.631 259.861 166.102 260.316 164.596C261.151 161.731 261.94 159.182 262.369 156.982C262.738 155.252 262.878 153.481 262.786 151.715C262.718 150.474 262.549 149.786 262.617 149.774C262.682 149.931 262.731 150.093 262.764 150.259C262.883 150.734 262.966 151.216 263.012 151.703C263.192 153.487 263.116 155.288 262.786 157.05C262.403 159.306 261.658 161.878 260.835 164.743C260.451 166.175 260.056 167.687 259.786 169.255C259.521 170.892 259.389 172.548 259.391 174.207C259.391 181.053 261.387 187.054 262.775 191.295C263.485 193.427 264.128 195.142 264.546 196.326C264.792 196.933 264.988 197.56 265.132 198.199V198.199Z" fill="#263238"/>
<path d="M320.358 244.028C320.202 244.129 320.031 244.205 319.851 244.254L318.384 244.795C317.11 245.258 315.226 245.844 312.88 246.487C310.534 247.13 307.702 247.773 304.533 248.349C301.363 248.924 297.855 249.341 294.144 249.601C290.433 249.86 286.891 249.849 283.676 249.736C280.462 249.623 277.574 249.33 275.16 248.991C272.746 248.653 270.806 248.337 269.52 248.044L267.997 247.706C267.815 247.675 267.637 247.622 267.467 247.548C267.65 247.518 267.837 247.518 268.02 247.548L269.565 247.785C270.908 248.01 272.848 248.281 275.205 248.54C277.563 248.8 280.495 249.037 283.699 249.161C286.902 249.285 290.467 249.217 294.11 248.98C297.754 248.743 301.284 248.281 304.443 247.773C307.601 247.266 310.432 246.645 312.778 246.047C315.125 245.45 317.02 244.919 318.317 244.536L319.817 244.107C319.993 244.055 320.175 244.028 320.358 244.028V244.028Z" fill="#263238"/>
<path d="M261.151 218.751C261.066 219.344 260.907 219.923 260.677 220.476C260.305 221.604 259.718 223.127 258.996 225.045C257.53 228.891 255.466 234.17 253.289 240.047C251.112 245.924 249.239 251.327 247.976 255.185L246.498 259.821C246.351 260.4 246.155 260.966 245.912 261.512C245.985 260.92 246.11 260.335 246.284 259.764C246.543 258.636 246.994 257.046 247.57 255.06C248.698 251.124 250.548 245.732 252.736 239.844C254.924 233.956 257.045 228.699 258.601 224.887L260.463 220.375C260.903 219.337 261.117 218.739 261.151 218.751Z" fill="#263238"/>
<path d="M340.076 435.29C340.061 435.151 340.061 435.011 340.076 434.872C340.076 434.568 340.076 434.173 340.076 433.654C340.076 432.526 340.008 430.992 339.963 428.984C339.895 424.923 339.85 419.058 339.861 411.794C339.861 397.277 340.064 377.232 339.861 355.09C339.658 332.948 338.959 312.903 337.605 298.454C337.244 294.844 336.996 291.573 336.579 288.731C336.398 287.302 336.229 285.971 336.071 284.738C335.992 284.129 335.925 283.542 335.857 282.989C335.789 282.437 335.665 281.861 335.575 281.41C335.248 279.436 334.988 277.891 334.797 276.797C334.718 276.3 334.661 275.894 334.616 275.601C334.599 275.462 334.599 275.322 334.616 275.184C334.664 275.315 334.698 275.451 334.718 275.59L334.966 276.718C335.169 277.846 335.473 279.346 335.846 281.309C335.947 281.816 336.049 282.335 336.15 282.888C336.252 283.44 336.308 284.016 336.398 284.647C336.567 285.877 336.748 287.197 336.951 288.629C337.402 291.483 337.684 294.754 338.079 298.364C339.534 312.813 340.335 332.88 340.504 355.034C340.673 377.187 340.414 397.231 340.312 411.737C340.312 418.968 340.245 424.833 340.233 428.928V433.598C340.233 434.105 340.233 434.511 340.233 434.816C340.204 434.981 340.151 435.14 340.076 435.29V435.29Z" fill="#455A64"/>
<path d="M327.454 31.415C327.276 29.9348 327.573 28.4365 328.3 27.1354C329.028 25.8342 330.149 24.7972 331.503 24.1734C332.876 23.5924 334.367 23.3399 335.855 23.4359C337.343 23.5318 338.788 23.9736 340.076 24.7261C341.708 25.6276 343.099 26.9084 344.132 28.4602C345.165 30.0121 345.81 31.7897 346.013 33.643C346.215 35.4964 345.969 37.3712 345.295 39.1095C344.621 40.8478 343.539 42.3985 342.14 43.6311C340.586 45.0983 338.524 45.9068 336.387 45.887C334.544 45.6176 332.754 45.0579 331.086 44.2289C329.337 43.5634 327.341 43.1009 325.66 43.9356" fill="#263238"/>
<path d="M335.146 45.8759C334.368 42.9889 333.326 40.1796 332.033 37.4837C330.554 34.8862 328.832 32.435 326.889 30.1631C327.637 30.6498 328.303 31.2513 328.863 31.9453C331.769 35.1391 333.811 39.0216 334.797 43.2251C335.048 44.0856 335.166 44.9796 335.146 45.8759V45.8759Z" fill="#52B796"/>
<path d="M332.36 38.86C331.977 39.1803 331.561 39.4601 331.119 39.6947C329.93 40.3663 328.685 40.9325 327.397 41.3866C323.114 42.894 318.517 43.2823 314.042 42.5146C311.579 42.093 309.192 41.31 306.958 40.191C305.097 39.3023 303.505 37.9361 302.345 36.2317C301.579 35.0636 301.161 33.7026 301.138 32.3064C301.128 31.9271 301.166 31.5481 301.25 31.1784C301.307 30.9302 301.352 30.8062 301.375 30.8062C301.397 30.8062 301.296 31.3476 301.375 32.2838C301.483 33.6167 301.942 34.8972 302.706 35.9949C304.555 38.86 309.079 41.0257 314.143 41.9281C318.533 42.6669 323.035 42.3419 327.273 40.9806C329.01 40.376 330.708 39.6678 332.36 38.86V38.86Z" fill="#455A64"/>
<path d="M333.545 44.951C333.545 44.951 333.387 45.233 333.026 45.6842C332.506 46.3052 331.937 46.8824 331.322 47.41C327.238 50.9889 321.976 52.9331 316.546 52.8695C315.737 52.873 314.929 52.8051 314.132 52.6664C313.557 52.5649 313.252 52.4972 313.263 52.4521C313.275 52.407 314.527 52.5198 316.546 52.4521C319.173 52.3612 321.77 51.8548 324.239 50.9519C326.686 50.03 328.971 48.7239 331.007 47.0829C332.642 45.7857 333.466 44.8382 333.545 44.951Z" fill="#455A64"/>
<path d="M344.204 32.543C344.342 33.2714 344.264 34.0244 343.978 34.7087C343.446 36.4376 342.307 37.916 340.772 38.8716C339.236 39.8271 337.406 40.1954 335.62 39.9087C334.883 39.849 334.177 39.5875 333.578 39.153C333.578 39.0627 334.379 39.3898 335.665 39.4913C337.339 39.6518 339.018 39.2571 340.445 38.3684C341.872 37.4796 342.967 36.146 343.561 34.5733C344.069 33.4115 344.114 32.543 344.204 32.543Z" fill="#455A64"/>
<path d="M464.086 393.938H39.8742L38.7688 407.451H121.021V435.707H128.974V407.451H430.833V435.831H438.774V407.451H464.086V393.938Z" fill="#455A64"/>
<path d="M375.923 290.118C375.923 289.509 367.238 250.853 366.572 247.932L373.915 237.092C373.915 237.092 376.6 234.542 375.765 233.403C374.93 232.264 373.509 232.117 371.919 233.155C370.915 233.821 365.647 236.607 365.647 236.607C365.647 236.607 363.651 220.916 363.233 219.788C362.816 218.66 361.722 218.119 360.977 218.942C360.233 219.766 360.436 230.403 360.436 230.403C360.436 230.403 356.206 217.296 355.303 216.777C355.086 216.643 354.841 216.561 354.587 216.536C354.333 216.512 354.076 216.545 353.837 216.634C353.598 216.723 353.382 216.866 353.206 217.051C353.03 217.236 352.899 217.458 352.822 217.702C352.822 218.22 355.721 232.275 355.721 232.275C355.721 232.275 348.953 219.461 347.825 219.867C347.386 219.977 346.997 220.23 346.717 220.585C346.437 220.94 346.284 221.378 346.28 221.83C346.178 222.755 350.792 236.279 350.792 236.279C350.792 236.279 345.625 226.365 344.7 226.68C344.242 226.932 343.876 227.325 343.657 227.8C343.438 228.275 343.377 228.807 343.482 229.32C343.618 230.222 350.047 249.77 351.243 253.368L353.972 299.616L372.55 339.727L389.301 316.287C389.301 316.287 375.923 290.761 375.923 290.118Z" fill="#FFBE9D"/>
<path d="M399.87 301.894C399.87 301.894 397.614 334.606 401.991 339.727C406.367 344.848 415.301 343.517 415.301 343.517L421.099 315.667L399.87 301.894Z" fill="#FFBE9D"/>
<path d="M389.966 316.422L398.449 328.379L417.625 338.441L461.232 361.305C463.474 362.481 465.237 364.401 466.219 366.735C467.201 369.068 467.34 371.671 466.613 374.096L465.101 379.138L448.746 419.588L449.58 435.831L362.534 435.707C362.534 435.707 382.104 372.077 382.725 368.028C383.345 363.978 379.589 358.598 379.589 358.598C379.589 358.598 368.309 350.702 368.309 349.788C368.309 348.874 369.866 318.002 389.966 316.422Z" fill="#52B796"/>
<path d="M387.914 384.011C387.801 384.011 387.914 382.454 387.733 379.984C387.607 378.534 387.381 377.094 387.056 375.675C386.649 373.94 386.129 372.233 385.5 370.565C384.309 367.558 382.852 364.662 381.146 361.914C379.837 359.793 378.946 358.53 379.025 358.53C379.299 358.769 379.542 359.042 379.747 359.342C380.198 359.883 380.796 360.707 381.495 361.756C383.319 364.477 384.832 367.394 386.007 370.453C386.653 372.145 387.169 373.883 387.553 375.653C387.855 377.102 388.044 378.573 388.117 380.052C388.117 380.683 388.117 381.259 388.117 381.755C388.121 382.185 388.098 382.614 388.049 383.041C388.048 383.369 388.003 383.695 387.914 384.011Z" fill="#263238"/>
<path d="M437.477 415.076C436.937 415.337 436.374 415.548 435.796 415.708C434.668 416.08 433.112 416.588 431.138 417.197C427.201 418.426 421.73 420.028 415.65 421.709C409.571 423.389 404.044 424.743 400.028 425.679C398.02 426.153 396.385 426.514 395.257 426.751C394.677 426.909 394.084 427.011 393.486 427.055C394.043 426.837 394.616 426.66 395.2 426.525L399.926 425.273L415.504 421.133L431.025 416.825L435.729 415.516C436.299 415.324 436.883 415.177 437.477 415.076V415.076Z" fill="#263238"/>
<path d="M465.925 374.897L465.214 374.672C464.53 374.421 463.834 374.206 463.127 374.029C460.424 373.326 457.621 373.082 454.837 373.307C450.421 373.645 446.187 375.207 442.609 377.819C440.379 379.436 438.435 381.415 436.857 383.673C435.057 386.171 433.821 389.031 433.236 392.054C432.933 393.669 432.976 395.329 433.36 396.927C433.754 398.588 434.715 400.061 436.078 401.089C437.575 402.107 439.344 402.652 441.154 402.652C442.965 402.652 444.733 402.107 446.23 401.089C447.749 399.878 448.899 398.267 449.551 396.437C450.202 394.608 450.33 392.632 449.919 390.734C449.467 388.72 448.54 386.843 447.216 385.259C445.892 383.676 444.208 382.432 442.305 381.631C438.277 379.876 433.757 379.604 429.547 380.864C427.366 381.445 425.267 382.298 423.298 383.402C421.279 384.506 419.387 385.83 417.658 387.35C414.1 390.483 411.286 394.372 409.424 398.732C408.482 400.959 407.83 403.298 407.484 405.691C407.312 406.89 407.24 408.101 407.27 409.312C407.276 410.509 407.616 411.681 408.251 412.696C408.592 413.169 409.026 413.566 409.527 413.865C410.027 414.164 410.583 414.357 411.161 414.433C412.342 414.617 413.549 414.552 414.703 414.241C417.019 413.641 419.048 412.243 420.433 410.293C421.755 408.365 422.358 406.034 422.138 403.707C421.917 401.38 420.887 399.204 419.226 397.558C417.568 395.98 415.533 394.854 413.316 394.287C411.148 393.683 408.895 393.442 406.649 393.577C402.27 393.854 398.01 395.115 394.185 397.265C390.537 399.298 387.362 402.082 384.868 405.432C382.488 408.658 380.773 412.437 380.909 416.227C380.938 418.039 381.519 419.799 382.572 421.274C383.626 422.749 385.103 423.868 386.808 424.483C387.617 424.723 388.466 424.799 389.305 424.706C390.144 424.613 390.955 424.353 391.692 423.942C393.109 423.146 394.28 421.975 395.076 420.558C396.47 417.809 396.838 414.654 396.114 411.658C395.589 408.959 394.617 406.367 393.238 403.988C390.677 399.532 386.571 396.837 382.928 396.667C381.329 396.549 379.724 396.764 378.213 397.299C377.105 397.696 376.086 398.305 375.212 399.092C374.509 399.748 373.912 400.509 373.442 401.348C373.442 401.348 373.543 401.123 373.769 400.683C374.142 400.051 374.601 399.474 375.134 398.968C376.19 398.027 377.43 397.312 378.775 396.87C380.119 396.427 381.541 396.266 382.95 396.397C386.673 396.532 390.903 399.262 393.52 403.774C394.931 406.183 395.934 408.809 396.486 411.545C397.24 414.633 396.868 417.889 395.437 420.727C394.597 422.223 393.36 423.457 391.861 424.292C391.073 424.734 390.203 425.014 389.304 425.115C388.405 425.216 387.495 425.135 386.628 424.878C384.829 424.241 383.267 423.07 382.15 421.523C381.034 419.975 380.416 418.123 380.379 416.215C380.221 412.256 381.992 408.387 384.406 405.093C387.005 401.593 390.332 398.698 394.159 396.608C397.986 394.519 402.22 393.284 406.57 392.99C408.88 392.844 411.198 393.084 413.429 393.701C415.732 394.296 417.85 395.459 419.587 397.085C421.344 398.827 422.434 401.129 422.669 403.592C422.904 406.054 422.268 408.521 420.873 410.564C419.404 412.628 417.256 414.109 414.805 414.749C413.57 415.081 412.278 415.151 411.015 414.952C410.361 414.863 409.731 414.642 409.165 414.303C408.599 413.964 408.108 413.513 407.721 412.978C407.009 411.881 406.618 410.608 406.593 409.301C406.565 408.052 406.641 406.803 406.819 405.567C407.165 403.123 407.828 400.734 408.793 398.461C410.714 394.033 413.6 390.091 417.241 386.922C419.005 385.371 420.939 384.024 423.005 382.906C425.012 381.78 427.153 380.912 429.378 380.323C433.714 379.037 438.364 379.325 442.508 381.135C444.488 381.975 446.237 383.276 447.611 384.93C448.985 386.585 449.942 388.544 450.404 390.644C450.831 392.637 450.69 394.71 449.996 396.627C449.302 398.544 448.083 400.227 446.478 401.484C444.899 402.557 443.032 403.126 441.123 403.115C439.214 403.105 437.353 402.517 435.785 401.427C434.35 400.33 433.335 398.773 432.909 397.017C432.523 395.358 432.485 393.638 432.796 391.964C433.411 388.885 434.685 385.976 436.53 383.436C438.137 381.152 440.12 379.157 442.395 377.537C445.365 375.428 448.769 374.008 452.358 373.382C455.946 372.755 459.63 372.938 463.139 373.916C464.092 374.167 465.024 374.495 465.925 374.897Z" fill="#FAFAFA"/>
<path d="M407.676 339.354C407.081 340.423 406.319 341.39 405.42 342.219C403.059 344.575 400.045 346.167 396.768 346.788C394.501 347.221 392.166 347.144 389.933 346.562C387.368 345.883 384.997 344.616 383.007 342.862C381.935 341.917 380.991 340.837 380.198 339.647C379.339 338.41 378.712 337.026 378.348 335.564C378.13 334.796 378.065 333.991 378.158 333.198C378.251 332.404 378.499 331.637 378.89 330.939C379.35 330.243 379.977 329.672 380.714 329.278C381.45 328.884 382.273 328.68 383.108 328.683C384.739 328.655 386.346 329.085 387.744 329.924C389.079 330.765 390.23 331.866 391.128 333.162C392.742 335.636 393.531 338.558 393.384 341.509C393.321 342.872 393.067 344.22 392.629 345.513C392.196 346.719 391.596 347.858 390.846 348.897C389.447 350.736 387.625 352.211 385.534 353.194C382.52 354.631 379.141 355.118 375.844 354.593C374.646 354.427 373.479 354.085 372.381 353.578C373.529 353.913 374.697 354.177 375.878 354.368C379.12 354.793 382.415 354.255 385.353 352.822C387.364 351.841 389.111 350.395 390.452 348.604C391.166 347.594 391.735 346.489 392.143 345.321C392.551 344.069 392.787 342.768 392.843 341.452C392.973 338.623 392.208 335.824 390.655 333.455C389.817 332.231 388.738 331.191 387.485 330.398C386.181 329.62 384.683 329.229 383.165 329.27C382.429 329.257 381.701 329.429 381.049 329.77C380.397 330.111 379.841 330.61 379.431 331.221C379.079 331.855 378.855 332.552 378.774 333.272C378.693 333.992 378.755 334.721 378.957 335.417C379.306 336.808 379.898 338.125 380.706 339.309C381.467 340.465 382.377 341.515 383.413 342.434C385.334 344.144 387.623 345.391 390.102 346.077C392.266 346.654 394.529 346.75 396.734 346.359C399.953 345.782 402.933 344.277 405.307 342.027C406.156 341.191 406.947 340.298 407.676 339.354V339.354Z" fill="#FAFAFA"/>
<path d="M447.697 432.312C447.629 432.402 446.715 431.68 445.001 431.014C442.784 430.112 440.357 429.855 438 430.272C435.643 430.689 433.452 431.764 431.679 433.372C430.303 434.59 429.694 435.628 429.604 435.515C429.513 435.402 429.694 435.233 429.976 434.793C430.382 434.165 430.859 433.586 431.397 433.067C433.176 431.309 435.445 430.13 437.906 429.683C440.366 429.262 442.897 429.588 445.17 430.62C445.85 430.922 446.493 431.3 447.087 431.748C447.482 432.075 447.697 432.289 447.697 432.312Z" fill="#FAFAFA"/>
<g opacity="0.3">
<path opacity="0.3" d="M435.289 341.994C426.818 338.271 417.309 337.854 408.364 333.726L397.907 328.244C398.923 329.845 401.788 331.176 402.476 333.602C402.986 336.084 403.085 338.633 402.769 341.148C402.42 347.892 403.005 354.653 404.506 361.237C405.442 365.332 407.225 369.889 411.206 371.265C413.857 372.179 416.779 371.389 419.475 370.599C431.499 367.058 445.858 363.234 457.882 359.692C454.295 351.153 443.749 345.705 435.289 341.994Z" fill="black"/>
</g>
<path d="M462.688 303.259C461.379 296.953 459.484 290.513 455.243 285.662C450.314 280.022 442.7 277.191 435.199 276.717C428.769 276.311 427.494 273.153 420.93 274.225C418.402 274.664 415.985 275.591 413.812 276.954C404.619 282.594 399.475 291.866 396.791 302.774C395.787 306.857 395.742 311.944 399.148 314.403C401.618 316.186 405.115 315.949 407.608 317.697C410.372 319.648 411.082 323.529 410.507 326.868C409.932 330.206 408.353 333.274 407.416 336.523C405.16 344.419 406.796 352.811 408.454 360.842L456.371 359.455C458.221 359.399 460.24 359.274 461.582 358C462.611 356.806 463.234 355.318 463.364 353.747C466.378 337.03 466.148 319.889 462.688 303.259V303.259Z" fill="#263238"/>
<path d="M400.378 304.251C400.36 303.808 400.398 303.365 400.49 302.932C400.547 302.419 400.633 301.911 400.75 301.409C400.885 300.811 400.998 300.134 401.224 299.401C401.693 297.672 402.296 295.982 403.028 294.348C403.933 292.352 405.008 290.439 406.243 288.629C407.507 286.83 408.918 285.14 410.462 283.575C411.73 282.312 413.095 281.151 414.545 280.101C415.143 279.639 415.741 279.278 416.248 278.973C416.678 278.687 417.122 278.424 417.579 278.184C417.954 277.949 418.355 277.759 418.775 277.62C418.831 277.71 417.173 278.612 414.793 280.462C413.398 281.543 412.079 282.719 410.845 283.981C409.35 285.542 407.974 287.212 406.728 288.978C405.513 290.773 404.438 292.659 403.513 294.618C402.772 296.221 402.139 297.872 401.618 299.559C400.739 302.401 400.49 304.274 400.378 304.251Z" fill="#455A64"/>
<path d="M406.085 311.03C405.994 309.962 406.028 308.887 406.187 307.827C406.434 305.254 406.883 302.705 407.529 300.202C408.175 297.701 409.012 295.253 410.033 292.881C410.411 291.877 410.903 290.919 411.5 290.027C411.196 291.053 410.819 292.056 410.372 293.028C408.565 297.827 407.283 302.808 406.548 307.883C406.47 308.942 406.315 309.994 406.085 311.03V311.03Z" fill="#455A64"/>
<path d="M452.942 350.86C452.844 350.612 452.772 350.355 452.727 350.093C452.592 349.585 452.445 348.818 452.265 347.837C451.83 345.049 451.608 342.232 451.599 339.411C451.599 335.846 451.836 331.594 452.22 326.901C452.723 321.83 452.956 316.736 452.919 311.64C452.899 306.556 451.983 301.516 450.212 296.75C448.701 292.886 446.364 289.398 443.365 286.531C441.334 284.606 438.947 283.097 436.338 282.087C435.624 281.823 434.898 281.597 434.161 281.41C433.898 281.357 433.641 281.278 433.394 281.173C433.66 281.194 433.924 281.235 434.183 281.297C434.95 281.426 435.704 281.619 436.439 281.872C439.123 282.812 441.584 284.294 443.67 286.226C446.765 289.098 449.181 292.624 450.742 296.547C452.564 301.367 453.508 306.475 453.528 311.628C453.57 316.744 453.321 321.859 452.784 326.946C452.366 331.639 452.062 335.857 452.039 339.411C452.005 342.216 452.167 345.02 452.524 347.803C452.66 348.784 452.773 349.551 452.863 350.059C452.92 350.322 452.946 350.591 452.942 350.86V350.86Z" fill="#455A64"/>
<path d="M448.464 350.149C448.235 348.959 448.106 347.751 448.08 346.54C447.945 344.284 447.855 341.215 447.911 337.786C447.967 334.357 448.204 331.278 448.43 329.056C448.493 327.842 448.67 326.638 448.96 325.458C449 326.666 448.962 327.875 448.847 329.078C448.723 331.334 448.576 334.391 448.498 337.798C448.419 341.204 448.498 344.295 448.498 346.528C448.578 347.734 448.567 348.945 448.464 350.149V350.149Z" fill="#455A64"/>
<path d="M232.59 318.633C233.056 324.83 233.515 331.019 233.966 337.2C229.296 338.057 224.446 338.587 219.833 337.482C215.219 336.376 210.809 333.365 209.173 328.909C208.807 328.065 208.697 327.131 208.857 326.225C208.955 325.779 209.185 325.374 209.517 325.062C209.849 324.75 210.268 324.546 210.719 324.476" fill="#FFBE9D"/>
<path d="M245.1 298.837C245.833 296.581 248.923 295.182 248.946 292.802C248.969 290.422 245.709 288.967 244.75 286.655C243.306 283.169 247.581 279.47 246.588 275.86C245.46 271.529 237.971 271.066 236.583 266.836C236.008 265.065 236.583 262.843 235.139 261.568C233.267 259.899 229.996 261.568 227.638 260.565C225.461 259.617 224.897 256.718 222.72 255.748C220.543 254.778 217.859 256.402 215.67 257.654C215.016 258.038 214.193 258.523 213.347 258.963C209.636 257.745 203.725 257.914 201.187 259.899C198.198 262.223 195.919 265.336 192.592 267.22C189.67 268.889 186.027 269.555 183.692 271.912C179.541 276.108 181.775 282.989 179.654 288.347C178.932 290.174 177.703 291.798 176.924 293.603C176.146 295.408 175.909 297.619 177.105 299.243C178.3 300.867 180.804 301.77 180.85 303.755C180.895 305.74 178.379 307.071 178.594 308.966C178.808 310.861 181.899 311.516 183.218 313.185C184.944 315.351 183.218 318.735 184.707 321.081C186.343 323.574 190.28 323.044 193.314 323.765C198.604 325.018 202.529 330.782 207.899 329.913C209.952 329.575 211.722 328.266 213.775 327.939C216.55 327.499 219.246 328.898 222.032 329.236C227.063 329.857 231.767 327.048 235.94 324.352C238.083 322.976 240.385 321.374 240.937 319.005C241.445 316.862 240.407 314.493 241.558 312.519C242.708 310.545 245.257 310.106 246.205 308.256C247.694 305.244 244.118 301.894 245.1 298.837Z" fill="#263238"/>
<path d="M191.441 276.639C191.368 276.504 191.315 276.36 191.283 276.21C191.188 275.785 191.15 275.349 191.17 274.913C191.278 273.285 191.99 271.757 193.167 270.627C194.919 268.98 197.137 267.916 199.518 267.581C200.962 267.342 202.442 267.674 203.646 268.506C204.26 268.999 204.735 269.645 205.022 270.379C205.316 271.152 205.316 272.007 205.022 272.781C204.874 273.179 204.628 273.534 204.307 273.812C203.985 274.09 203.599 274.283 203.184 274.372C202.752 274.468 202.3 274.408 201.909 274.202C201.528 273.985 201.246 273.629 201.119 273.21C201.024 272.826 201.011 272.427 201.081 272.038C201.151 271.649 201.302 271.28 201.525 270.954C201.942 270.354 202.521 269.884 203.195 269.6C204.334 269.131 205.601 269.074 206.778 269.441C207.954 269.808 208.965 270.574 209.636 271.608C210.499 272.989 210.847 274.631 210.617 276.244C210.573 276.674 210.482 277.097 210.346 277.507C210.245 277.789 210.188 277.925 210.166 277.925C210.143 277.925 210.324 277.316 210.391 276.221C210.513 274.678 210.116 273.138 209.263 271.845C208.685 270.972 207.831 270.317 206.838 269.984C205.712 269.584 204.476 269.62 203.375 270.085C202.814 270.331 202.328 270.72 201.965 271.213C201.791 271.472 201.671 271.763 201.615 272.07C201.559 272.377 201.567 272.692 201.638 272.995C201.724 273.278 201.918 273.515 202.177 273.657C202.437 273.798 202.741 273.832 203.026 273.751C203.347 273.682 203.646 273.534 203.894 273.319C204.142 273.104 204.333 272.83 204.447 272.522C204.63 271.867 204.611 271.173 204.394 270.529C204.177 269.885 203.771 269.322 203.229 268.912C202.144 268.161 200.808 267.861 199.506 268.077C197.236 268.381 195.107 269.355 193.393 270.875C192.246 271.923 191.513 273.348 191.328 274.89C191.324 275.475 191.362 276.06 191.441 276.639V276.639Z" fill="#455A64"/>
<path d="M186.005 298.443C185.768 298.105 185.606 297.72 185.531 297.315C185.177 295.936 185.228 294.484 185.678 293.134C186.128 291.783 186.958 290.591 188.069 289.701C188.912 289.042 189.883 288.566 190.92 288.304C191.957 288.042 193.037 287.999 194.092 288.178L193.754 288.516C193.63 287.694 193.63 286.857 193.754 286.035C193.928 284.835 194.345 283.682 194.979 282.649C195.613 281.615 196.451 280.721 197.442 280.023C198.822 279.117 200.432 278.627 202.082 278.611C203.732 278.595 205.352 279.054 206.748 279.932C207.046 280.129 207.329 280.347 207.594 280.587C207.763 280.756 207.854 280.846 207.842 280.857C207.427 280.639 207.024 280.398 206.635 280.135C205.522 279.528 204.291 279.166 203.026 279.075C201.161 278.919 199.3 279.413 197.758 280.474C196.847 281.141 196.078 281.984 195.497 282.952C194.916 283.921 194.534 284.996 194.374 286.114C194.256 286.88 194.256 287.66 194.374 288.426L194.431 288.832L194.036 288.753C193.052 288.58 192.044 288.612 191.073 288.847C190.103 289.082 189.191 289.515 188.396 290.118C187.108 291.095 186.202 292.492 185.835 294.066C185.581 295.116 185.554 296.208 185.756 297.27C185.892 298.025 186.005 298.42 186.005 298.443Z" fill="#455A64"/>
<path d="M225.134 267.525C225.134 267.615 224.345 267.378 223.104 267.322C221.485 267.221 219.869 267.548 218.418 268.271C216.966 268.994 215.731 270.086 214.836 271.439C214.136 272.465 213.866 273.221 213.775 273.187C213.844 272.48 214.088 271.801 214.486 271.213C215.34 269.72 216.618 268.513 218.158 267.746C219.698 266.979 221.431 266.686 223.138 266.904C223.846 266.935 224.533 267.149 225.134 267.525V267.525Z" fill="#455A64"/>
<path d="M241.479 297.36C241.479 297.36 241.693 296.942 241.998 296.232C242.404 295.153 242.562 293.996 242.46 292.848C242.345 291.161 241.615 289.575 240.407 288.392C239.653 287.699 238.76 287.175 237.788 286.854C236.815 286.533 235.786 286.423 234.767 286.531C233.811 286.637 232.886 286.936 232.049 287.411L231.451 287.772L231.631 287.095C231.827 286.278 231.827 285.425 231.631 284.608C231.435 283.791 231.049 283.031 230.503 282.391C230.059 281.881 229.517 281.465 228.908 281.168C228.299 280.872 227.638 280.701 226.962 280.666C226.048 280.612 225.135 280.778 224.299 281.151C224.006 281.313 223.705 281.459 223.397 281.591C223.617 281.322 223.895 281.106 224.209 280.959C225.055 280.495 226.009 280.265 226.973 280.293C227.71 280.299 228.438 280.458 229.11 280.761C229.782 281.064 230.384 281.504 230.876 282.053C231.494 282.749 231.937 283.584 232.164 284.487C232.392 285.391 232.399 286.335 232.184 287.242L231.755 286.915C232.662 286.388 233.669 286.057 234.711 285.945C235.811 285.828 236.922 285.952 237.97 286.306C239.018 286.66 239.976 287.237 240.779 287.997C241.828 289.075 242.525 290.445 242.779 291.928C243.033 293.41 242.831 294.934 242.201 296.299C242.065 296.591 241.899 296.867 241.704 297.123C241.569 297.281 241.501 297.371 241.479 297.36Z" fill="#455A64"/>
<path d="M181.03 401.935C181.03 401.935 167.099 404.743 165.013 403.254C162.926 401.766 155.199 396.712 156.384 389.865C157.568 383.018 171.86 334.244 174.826 330.669C177.793 327.093 180.782 323.529 186.726 323.833C192.671 324.138 231.643 332.451 231.643 332.451C231.643 332.451 247.705 331.56 250.976 333.94C254.247 336.32 261.692 340.787 261.692 349.111C261.692 357.436 260.045 414.534 260.045 414.534L264.377 435.503H178.65L181.041 401.935" fill="#52B796"/>
<path d="M181.03 401.935C180.861 401.935 179.834 390.655 178.774 376.612C177.714 362.568 176.913 351.243 177.071 351.232C177.229 351.221 178.266 362.512 179.327 376.566C180.387 390.621 181.188 401.924 181.03 401.935Z" fill="#263238"/>
<path d="M261.579 347.667C261.279 347.663 260.98 347.625 260.688 347.555L258.139 347.103L248.788 345.423C240.892 344.024 229.962 342.208 217.836 340.505C205.71 338.802 194.701 337.572 186.715 336.749L177.262 335.801L174.691 335.542C174.39 335.525 174.092 335.479 173.8 335.406C174.1 335.381 174.402 335.381 174.702 335.406L177.285 335.564C179.541 335.711 182.756 335.97 186.76 336.331C194.757 337.042 205.789 338.226 217.915 339.918C230.041 341.61 240.982 343.494 248.867 345.005C252.804 345.761 255.996 346.404 258.184 346.878L260.711 347.431C261.005 347.492 261.295 347.571 261.579 347.667V347.667Z" fill="#FAFAFA"/>
<path d="M260.045 368.456C259.764 368.488 259.48 368.488 259.199 368.456L256.797 368.4C254.699 368.4 251.676 368.208 247.931 368.027C240.463 367.644 230.142 366.967 218.772 365.929C207.402 364.892 197.126 363.673 189.704 362.692C185.993 362.207 182.993 361.778 180.928 361.463L178.548 361.079C178.269 361.05 177.993 360.993 177.725 360.91C178.008 360.901 178.291 360.92 178.571 360.966L180.962 361.237L189.761 362.286C197.183 363.166 207.459 364.305 218.829 365.343C230.199 366.381 240.497 367.125 247.964 367.599L256.797 368.163L259.21 368.332C259.491 368.357 259.77 368.399 260.045 368.456V368.456Z" fill="#FAFAFA"/>
<path d="M261.354 387.858C261.094 387.941 260.825 387.994 260.553 388.016L258.229 388.365C256.221 388.659 253.3 389.008 249.679 389.381C242.449 390.114 232.398 390.791 221.299 390.791C210.2 390.791 200.149 390.125 192.908 389.392C189.287 389.031 186.365 388.681 184.358 388.388L182.034 388.05C181.764 388.012 181.497 387.959 181.233 387.892C181.507 387.862 181.783 387.862 182.057 387.892L184.38 388.129C186.399 388.343 189.332 388.636 192.953 388.952C200.183 389.572 210.211 390.17 221.299 390.17C232.387 390.17 242.404 389.561 249.645 388.929C253.255 388.614 256.188 388.32 258.207 388.095L260.53 387.869C260.804 387.84 261.08 387.836 261.354 387.858Z" fill="#FAFAFA"/>
<path d="M259.831 416.554C259.565 416.614 259.292 416.641 259.019 416.632L256.695 416.757L248.145 417.039C240.915 417.242 230.932 417.433 219.945 417.501C208.959 417.569 198.92 417.501 191.746 417.208C188.136 417.084 185.204 416.971 183.196 416.824L180.872 416.655C180.599 416.649 180.326 416.615 180.06 416.554C180.33 416.534 180.602 416.534 180.872 416.554H183.207C185.226 416.632 188.148 416.689 191.757 416.768C198.976 416.892 208.959 416.937 219.957 416.869L248.156 416.587L256.718 416.486H259.041C259.306 416.488 259.57 416.51 259.831 416.554V416.554Z" fill="#FAFAFA"/>
<path d="M179.022 377.096C175.966 376.484 172.952 375.678 169.998 374.682C166.994 373.878 164.044 372.884 161.166 371.705C164.222 372.318 167.236 373.124 170.19 374.118C173.195 374.921 176.145 375.916 179.022 377.096V377.096Z" fill="#FAFAFA"/>
<path d="M54.5379 337.662C54.2559 331.018 48.5032 319.051 46.1344 307.286C44.9275 301.274 44.2056 295.927 48.0858 291.167C51.3683 287.14 55.9817 284.399 60.4937 281.85C67.7015 277.755 75.3153 273.728 83.5835 273.277C88.9752 272.984 94.7956 274.495 98.2472 278.646C101.078 282.03 101.879 286.677 102.432 291.054C103.366 298.37 103.89 305.732 104 313.106C104.203 316.939 103.823 320.78 102.872 324.499C102.388 326.356 101.54 328.098 100.378 329.626C99.2168 331.153 97.7641 332.436 96.1041 333.399C93.1713 334.921 89.6746 335.057 86.7418 336.579C83.8091 338.102 81.6433 342.219 83.8203 344.656L64.419 349.957L54.5379 337.662Z" fill="#A36957"/>
<path d="M50.4885 327.973C51.4862 330.055 52.8935 331.914 54.6261 333.439C56.3588 334.965 58.3813 336.125 60.5727 336.85C62.7814 337.537 65.1331 337.621 67.3855 337.096C69.6379 336.57 71.7094 335.454 73.3865 333.861C75.2928 331.91 76.4208 329.349 77.718 326.947C79.0152 324.544 80.6169 322.13 83.0646 320.901C85.5124 319.671 88.9978 320.055 90.3514 322.435C90.8026 323.179 91.0846 324.127 91.8629 324.522C92.3821 324.699 92.9501 324.664 93.4441 324.426C93.9381 324.187 94.3183 323.764 94.5024 323.247C94.8278 322.196 94.8551 321.075 94.5813 320.01C93.7381 316.003 93.2961 311.922 93.2616 307.827C93.4195 303.744 94.6039 299.537 97.4126 296.548C99.567 294.292 102.489 292.87 105.06 291.077C107.632 289.283 110.046 286.723 110.26 283.587C110.452 280.79 108.816 278.139 106.741 276.244C102.229 272.115 84.4182 268.935 78.7332 271.247C78.7332 271.247 54.8425 281.636 53.6694 282.47C52.4963 283.305 43.8785 286.339 44.0815 296.863C44.2846 307.388 50.4885 327.973 50.4885 327.973Z" fill="#263238"/>
<path d="M54.5379 337.662C54.2559 331.018 48.5032 319.051 46.1344 307.286C44.9275 301.274 44.2056 295.927 48.0858 291.167C51.3683 287.14 55.9817 284.399 60.4937 281.85C67.7015 277.755 75.3153 273.728 83.5835 273.277C88.9752 272.984 94.7956 274.495 98.2472 278.646C101.078 282.03 101.879 286.677 102.432 291.054C103.366 298.37 103.89 305.732 104 313.106C104.203 316.939 103.823 320.78 102.872 324.499C102.388 326.356 101.54 328.098 100.378 329.626C99.2168 331.153 97.7641 332.436 96.1041 333.399C93.1713 334.921 89.6746 335.057 86.7418 336.579C83.8091 338.102 81.6433 342.219 83.8203 344.656L64.419 349.957L54.5379 337.662Z" fill="#A36957"/>
<path d="M110.655 275.59C110.375 275.306 110.039 275.084 109.668 274.937C109.298 274.79 108.901 274.721 108.502 274.734C108.104 274.748 107.713 274.844 107.353 275.017C106.994 275.189 106.674 275.434 106.414 275.736C107.184 274.709 107.515 273.417 107.333 272.146C107.151 270.874 106.471 269.727 105.444 268.957C104.416 268.187 103.125 267.856 101.853 268.038C100.582 268.22 99.435 268.9 98.6647 269.927C99.145 268.881 99.2432 267.7 98.9423 266.589C98.6414 265.478 97.9604 264.508 97.0178 263.847C96.0549 263.219 94.965 262.812 93.8263 262.654C92.6875 262.496 91.5279 262.591 90.4304 262.934C88.237 263.634 86.1803 264.706 84.3506 266.103C84.3287 265.34 84.0999 264.597 83.6887 263.953C83.2775 263.309 82.6992 262.789 82.0156 262.449C80.6397 261.779 79.1067 261.498 77.5827 261.637C74.618 261.794 71.7401 262.693 69.212 264.249C66.6839 265.806 64.5862 267.971 63.1107 270.548C61.6133 269.945 59.9734 269.79 58.3896 270.101C56.8059 270.411 55.3461 271.174 54.1871 272.298C53.0281 273.421 52.2196 274.856 51.8594 276.429C51.4993 278.002 51.603 279.646 52.1579 281.162C50.5772 281.489 49.1592 282.355 48.1468 283.612C47.1344 284.87 46.5905 286.44 46.6082 288.054C44.8116 290.637 43.9229 293.743 44.0816 296.886C44.3297 307.433 50.4885 327.996 50.4885 327.996C51.4862 330.077 52.8935 331.936 54.6262 333.462C56.3589 334.987 58.3813 336.147 60.5727 336.873C62.7814 337.559 65.1332 337.644 67.3855 337.118C69.6379 336.593 71.7094 335.476 73.3866 333.884C75.2929 331.932 76.4208 329.372 77.718 326.969C79.0152 324.567 80.6282 322.153 83.0647 320.923C85.5011 319.694 88.3098 320.54 90.9606 321.307C93.3406 321.995 93.3406 320.45 93.4872 318.633L93.2842 307.816C93.4421 303.733 94.6265 299.525 97.4352 296.536C99.5896 294.28 102.511 292.859 105.083 291.066C107.655 289.272 110.069 286.712 110.283 283.576C110.311 283.12 110.289 282.662 110.215 282.211C110.736 281.589 111.148 280.884 111.433 280.124C111.737 279.371 111.826 278.547 111.688 277.746C111.551 276.946 111.193 276.199 110.655 275.59V275.59Z" fill="#263238"/>
<path d="M78.6769 293.389C78.6535 293.78 78.5579 294.162 78.3949 294.517C77.8798 295.803 76.9952 296.907 75.8528 297.69C74.7104 298.473 73.3616 298.9 71.9767 298.916C70.9283 298.925 69.8905 298.707 68.9345 298.277C67.9784 297.846 67.1269 297.214 66.4383 296.424H66.9008C66.4136 297.141 65.8159 297.777 65.1298 298.307C64.1777 299.038 63.0857 299.565 61.9215 299.856C60.7573 300.147 59.5458 300.196 58.3619 299.999C56.4442 299.631 54.7206 298.591 53.5003 297.067C52.6768 296.07 52.1044 294.89 51.8309 293.626C51.7545 293.285 51.7092 292.938 51.6956 292.589C51.6956 292.352 51.6956 292.228 51.6956 292.228C51.6956 292.228 51.7858 292.713 52.0227 293.57C52.3785 294.762 52.9819 295.865 53.7936 296.807C55.0145 298.221 56.6971 299.156 58.5424 299.447C59.6433 299.608 60.7653 299.548 61.8425 299.269C62.9196 298.99 63.9299 298.498 64.814 297.822C65.445 297.33 65.9933 296.739 66.4383 296.074L66.6526 295.758L66.9008 296.051C67.5317 296.779 68.3087 297.366 69.1812 297.774C70.0537 298.182 71.0023 298.402 71.9654 298.42C73.5361 298.444 75.0626 297.899 76.263 296.886C77.0737 296.222 77.7316 295.391 78.1919 294.45C78.5303 293.773 78.6318 293.378 78.6769 293.389Z" fill="#455A64"/>
<path d="M94.1865 286.249C94.3664 286.531 94.4793 286.85 94.5164 287.183C94.5536 287.515 94.5141 287.852 94.4008 288.167C94.231 288.877 93.8725 289.527 93.3631 290.05C92.7369 290.665 91.9581 291.101 91.1071 291.314C89.5537 291.639 87.9375 291.474 86.4824 290.84C85.8692 290.653 85.301 290.342 84.813 289.926C85.4316 290.033 86.0367 290.207 86.6178 290.445C88.0145 290.923 89.5123 291.024 90.9605 290.738C91.735 290.549 92.4466 290.16 93.0247 289.61C93.4975 289.172 93.8508 288.621 94.0512 288.009C94.1798 287.432 94.2253 286.839 94.1865 286.249V286.249Z" fill="#455A64"/>
<path d="M105.241 282.391C105.344 283.039 105.237 283.703 104.936 284.286C104.357 285.781 103.217 286.991 101.759 287.658C100.302 288.326 98.6412 288.399 97.1307 287.862C96.4946 287.705 95.923 287.354 95.4951 286.858C95.4951 286.768 96.1493 287.185 97.2435 287.467C98.6629 287.831 100.163 287.712 101.507 287.129C102.832 286.496 103.905 285.435 104.553 284.117C105.06 283.113 105.151 282.38 105.241 282.391Z" fill="#455A64"/>
<path d="M91.8178 274.811C90.7895 274.133 89.6408 273.659 88.4338 273.413C87.0051 273.145 85.5279 273.356 84.231 274.012C82.9341 274.669 81.8899 275.735 81.2598 277.045C80.8532 277.842 80.6116 278.713 80.5492 279.605L79.9739 279.571C79.9622 278.976 79.7408 278.405 79.3487 277.957C78.9567 277.509 78.4191 277.214 77.8308 277.124C76.8491 276.962 75.8423 277.175 75.0108 277.722C74.2582 278.273 73.5353 278.864 72.8451 279.492C72.8451 279.492 72.9579 279.233 73.2737 278.85C73.7151 278.302 74.2315 277.82 74.8078 277.417C75.2528 277.086 75.7592 276.847 76.2975 276.713C76.8359 276.579 77.3954 276.554 77.9436 276.639C78.6119 276.769 79.2298 277.086 79.7258 277.552C80.0096 277.815 80.2308 278.137 80.3734 278.497C80.5159 278.856 80.576 279.242 80.5492 279.628L79.9739 279.571C80.0661 278.213 80.5379 276.909 81.3356 275.806C82.1334 274.703 83.2249 273.846 84.4859 273.334C85.7914 272.818 87.2211 272.704 88.5917 273.007C89.5086 273.197 90.374 273.582 91.1297 274.135C91.6147 274.507 91.8403 274.789 91.8178 274.811Z" fill="#455A64"/>
<path d="M81.226 266.634C81.226 266.724 80.6959 266.746 79.9063 267.006C78.8859 267.333 77.9864 267.958 77.3232 268.799C76.6537 269.65 76.2602 270.685 76.1952 271.766C76.2239 272.224 76.2239 272.684 76.1952 273.142C76.1388 273.142 75.8568 272.668 75.8004 271.766C75.7248 270.572 76.0842 269.391 76.812 268.441C77.5398 267.491 78.5869 266.837 79.7596 266.6C80.6846 266.431 81.2373 266.566 81.226 266.634Z" fill="#455A64"/>
<path d="M59.2755 279.808C59.2191 279.808 59.3996 278.962 60.4035 278.173C61.0179 277.72 61.7347 277.425 62.4902 277.316C63.4005 277.192 64.3272 277.28 65.1974 277.575C66.724 278.143 68.093 279.067 69.1905 280.271C70.0477 281.162 70.4989 281.76 70.4425 281.816C69.8858 281.462 69.3711 281.046 68.9085 280.575C67.7846 279.515 66.4621 278.687 65.0169 278.139C64.2313 277.868 63.3959 277.772 62.5692 277.857C61.8974 277.934 61.2506 278.157 60.6742 278.511C59.6703 279.132 59.3657 279.865 59.2755 279.808Z" fill="#455A64"/>
<path d="M70.6907 288.866C70.2287 287.871 70.1292 286.745 70.4093 285.684C70.6895 284.624 71.3316 283.694 72.2247 283.057C71.7399 283.948 71.3251 284.876 70.9839 285.831C70.8167 286.835 70.7187 287.849 70.6907 288.866V288.866Z" fill="#455A64"/>
<path d="M133.97 332.417L117.615 337.73L120.751 367.802L119.623 370.058L107.474 389.99C107.26 390.339 119.803 393.283 124.529 394.299C130.429 395.562 145.961 394.299 143.705 374.762C142.013 360.967 133.97 332.417 133.97 332.417Z" fill="#A36957"/>
<path d="M116.34 310.839C115.046 311.48 113.946 312.454 113.153 313.662C112.36 314.869 111.902 316.266 111.828 317.708C111.791 318.098 111.87 318.491 112.054 318.836C112.285 319.126 112.61 319.325 112.973 319.4C113.336 319.474 113.713 319.418 114.039 319.242C114.685 318.877 115.232 318.358 115.629 317.731" fill="#A36957"/>
<path d="M115.663 317.753C115.663 317.753 115.663 317.956 115.415 318.261C115.129 318.717 114.744 319.103 114.287 319.389C113.947 319.594 113.556 319.696 113.159 319.682C112.918 319.686 112.679 319.635 112.46 319.533C112.242 319.432 112.049 319.282 111.896 319.096C111.617 318.669 111.497 318.158 111.557 317.652C111.576 317.154 111.644 316.659 111.761 316.174C112.161 314.474 113.108 312.953 114.456 311.843C114.972 311.343 115.616 310.995 116.318 310.839C116.318 310.929 115.641 311.279 114.727 312.147C113.55 313.281 112.717 314.724 112.325 316.31C112.223 316.758 112.159 317.215 112.133 317.674C112.073 318.063 112.144 318.46 112.336 318.802C112.562 319.027 112.854 319.172 113.169 319.216C113.484 319.261 113.805 319.203 114.084 319.051C114.509 318.811 114.89 318.502 115.212 318.137C115.483 317.923 115.641 317.72 115.663 317.753Z" fill="#7C3B29"/>
<path d="M125.928 310.907C125.928 310.907 117.874 314.122 116.904 316.716C115.934 319.31 114.107 328.988 114.107 328.988L117.682 338.351L133.7 335.147C133.7 335.147 136.159 316.062 136.328 315.498C136.328 315.498 141.968 299.514 141.9 298.048C141.9 296.074 140.332 295.42 138.392 297.732C136.452 300.044 132.143 308.854 132.143 308.854L125.928 310.907Z" fill="#A36957"/>
<path d="M124.428 307.071C122.802 306.852 121.147 307.07 119.634 307.703C118.258 308.493 117.215 309.755 116.701 311.256C116.204 312.747 115.886 314.292 115.754 315.858C115.607 316.986 115.562 318.442 116.509 319.152C116.745 319.32 117.02 319.426 117.307 319.461C117.595 319.497 117.886 319.46 118.156 319.355C118.423 319.239 118.656 319.057 118.833 318.826C119.011 318.595 119.127 318.323 119.171 318.035" fill="#A36957"/>
<path d="M119.171 318.036C119.171 318.036 119.25 318.374 118.935 318.87C118.741 319.172 118.456 319.405 118.122 319.536C117.67 319.716 117.165 319.716 116.712 319.536C116.442 319.414 116.201 319.235 116.006 319.011C115.811 318.787 115.668 318.524 115.584 318.239C115.412 317.623 115.359 316.98 115.427 316.344C115.525 314.948 115.744 313.562 116.081 312.204C116.426 310.802 117.139 309.517 118.145 308.482C118.997 307.655 120.093 307.125 121.269 306.97C122.019 306.879 122.776 306.879 123.525 306.97C123.81 306.966 124.094 307.016 124.36 307.117C124.36 307.241 123.142 307.117 121.281 307.41C120.213 307.597 119.231 308.114 118.472 308.888C117.561 309.875 116.916 311.079 116.6 312.384C116.269 313.708 116.035 315.054 115.9 316.411C115.825 316.98 115.856 317.557 115.99 318.115C116.046 318.341 116.149 318.553 116.293 318.736C116.437 318.918 116.618 319.068 116.825 319.175C117.134 319.33 117.487 319.376 117.825 319.304C118.163 319.232 118.467 319.047 118.686 318.78C118.869 318.546 119.031 318.297 119.171 318.036V318.036Z" fill="#7C3B29"/>
<path d="M131.861 308.628C130.926 307.492 129.685 306.647 128.285 306.192C127.5 306.071 126.697 306.135 125.941 306.38C125.185 306.625 124.497 307.043 123.931 307.602C122.812 308.73 121.913 310.058 121.281 311.516C120.705 312.701 120.153 313.907 119.668 315.137C119.372 315.785 119.174 316.473 119.081 317.179C119.034 317.531 119.058 317.89 119.153 318.233C119.248 318.576 119.412 318.897 119.634 319.175C120.014 319.556 120.508 319.804 121.04 319.881C121.573 319.958 122.116 319.861 122.589 319.604C123.531 319.067 124.232 318.192 124.552 317.156" fill="#A36957"/>
<path d="M124.574 317.156C124.528 317.537 124.397 317.903 124.191 318.228C123.957 318.712 123.61 319.133 123.181 319.457C122.751 319.781 122.251 319.997 121.721 320.089C121.338 320.148 120.947 320.121 120.576 320.01C120.205 319.899 119.864 319.706 119.577 319.446C119.274 319.118 119.051 318.724 118.926 318.295C118.801 317.867 118.777 317.415 118.856 316.975C119.013 316.073 119.302 315.199 119.713 314.381C120.096 313.524 120.491 312.644 120.841 311.73C121.542 309.962 122.646 308.382 124.067 307.117C124.678 306.589 125.407 306.217 126.192 306.03C126.977 305.844 127.796 305.849 128.579 306.045C129.572 306.394 130.463 306.983 131.173 307.76C131.681 308.29 131.929 308.606 131.895 308.628C131.579 308.426 131.284 308.191 131.015 307.929C130.284 307.255 129.414 306.751 128.466 306.451C127.757 306.313 127.025 306.342 126.329 306.538C125.634 306.734 124.994 307.091 124.462 307.579C123.131 308.816 122.094 310.334 121.427 312.024L120.299 314.629C119.903 315.406 119.614 316.233 119.442 317.088C119.374 317.447 119.385 317.816 119.477 318.169C119.569 318.522 119.738 318.85 119.972 319.13C120.205 319.349 120.484 319.514 120.788 319.614C121.092 319.713 121.414 319.744 121.732 319.705C122.211 319.631 122.667 319.452 123.069 319.181C123.471 318.91 123.807 318.553 124.056 318.137C124.394 317.517 124.529 317.133 124.574 317.156Z" fill="#7C3B29"/>
<path d="M126.221 323.247L125.172 317.754C123.146 317.43 121.231 316.608 119.6 315.362C119.047 313.907 119.814 312.994 121.856 312.43C123.898 311.866 130.271 312.791 130.97 313.174C133.418 314.494 133.711 317.923 134.061 320.686" fill="#A36957"/>
<path d="M134.038 320.686C133.902 320.264 133.807 319.83 133.756 319.389C133.589 318.212 133.302 317.056 132.899 315.938C132.625 315.188 132.185 314.509 131.613 313.952C131.294 313.651 130.907 313.43 130.485 313.309C130.045 313.197 129.571 313.106 129.075 313.027C126.945 312.657 124.783 312.51 122.623 312.587C121.818 312.67 121.044 312.945 120.367 313.388C120.067 313.581 119.85 313.879 119.758 314.223C119.701 314.573 119.74 314.931 119.871 315.261L119.781 315.137C121.372 316.362 123.238 317.183 125.217 317.528H125.375V317.675C125.646 319.276 125.872 320.63 126.052 321.713C126.164 322.205 126.217 322.709 126.21 323.213C126.03 322.742 125.898 322.255 125.815 321.758C125.578 320.686 125.285 319.344 124.947 317.754L125.127 317.934C123.05 317.63 121.084 316.807 119.408 315.543V315.543V315.464C119.233 315.035 119.182 314.566 119.262 314.11C119.393 313.648 119.685 313.248 120.085 312.982C120.856 312.455 121.749 312.137 122.679 312.057C124.887 311.978 127.096 312.144 129.267 312.554C129.761 312.631 130.251 312.736 130.733 312.869C131.21 313.025 131.643 313.292 131.997 313.648C132.606 314.267 133.069 315.014 133.35 315.836C133.723 316.996 133.954 318.196 134.038 319.412C134.09 319.835 134.09 320.263 134.038 320.686V320.686Z" fill="#7C3B29"/>
<path d="M124.563 321.307C124.069 321.407 123.567 321.467 123.063 321.487C121.885 321.647 120.76 322.081 119.781 322.755C118.801 323.429 117.994 324.324 117.423 325.367C116.972 326.168 116.803 326.732 116.712 326.71C116.622 326.687 116.712 326.089 117.051 325.187C117.553 324.009 118.38 322.998 119.434 322.271C120.488 321.545 121.727 321.132 123.007 321.081C123.965 321.07 124.586 321.307 124.563 321.307Z" fill="#7C3B29"/>
<path d="M130.587 372.788C128.848 372.201 127.149 371.504 125.499 370.701C123.774 370.081 122.089 369.35 120.457 368.513C122.284 368.803 124.058 369.358 125.725 370.16C127.468 370.788 129.107 371.674 130.587 372.788V372.788Z" fill="#7C3B29"/>
<path d="M75.462 340.922C76.4998 340.573 92.7089 343.494 97.4239 345.592C100.086 346.777 122.657 365.084 122.657 365.084L106.076 392.279L95.2018 388.32L95.0777 435.887L27.3987 435.707L28.8651 359.737C28.8651 359.737 33.7267 339.828 41.9948 337.414C50.2629 335 75.462 340.922 75.462 340.922Z" fill="#52B796"/>
<path d="M93.7128 388.986C93.5258 388.985 93.3398 388.958 93.1601 388.907C92.6306 388.813 92.1071 388.689 91.5922 388.535C89.6917 387.96 87.8864 387.109 86.2342 386.008C83.7641 384.399 81.6365 382.317 79.9739 379.883C77.8803 376.904 76.6187 373.422 76.3193 369.793C76.02 366.165 76.6935 362.522 78.2707 359.241C79.5022 356.557 81.25 354.143 83.4143 352.135C84.8558 350.764 86.4993 349.623 88.2872 348.751C88.7651 348.507 89.2588 348.296 89.7648 348.119C89.9339 348.041 90.112 347.984 90.295 347.95C87.8763 349.105 85.6506 350.627 83.6963 352.462C81.6463 354.465 79.9997 356.843 78.846 359.466C77.3352 362.672 76.6931 366.218 76.9841 369.75C77.2752 373.281 78.489 376.675 80.5041 379.59C82.1047 381.995 84.149 384.074 86.5275 385.715C88.7402 387.168 91.1638 388.271 93.7128 388.986V388.986Z" fill="#263238"/>
<path d="M82.23 432.492C82.0721 432.492 82.4782 422.994 83.1324 411.297C83.7866 399.6 84.486 390.114 84.5875 390.114C84.689 390.114 84.3506 399.611 83.6851 411.32C83.0196 423.028 82.3654 432.503 82.23 432.492Z" fill="#263238"/>
<path d="M65.0396 404.315C64.7577 404.68 64.4361 405.013 64.0808 405.308C63.4491 405.928 62.5016 406.785 61.3172 407.823C58.9372 409.91 55.5645 412.685 51.7068 415.572C47.8491 418.46 44.2057 420.896 41.5549 422.588C40.2239 423.434 39.1298 424.089 38.3628 424.528C37.9812 424.783 37.5726 424.995 37.1445 425.16C37.4883 424.844 37.8667 424.568 38.2725 424.337L41.3632 422.239C43.9801 420.468 47.5558 417.986 51.4022 415.11C55.2487 412.233 58.6552 409.47 61.1029 407.507L63.9905 405.138C64.3157 404.834 64.6667 404.558 65.0396 404.315V404.315Z" fill="#263238"/>
<path d="M38.3289 358.53C38.1822 358.429 39.5132 356.489 40.8443 353.928C42.1753 351.368 43.0438 349.191 43.2017 349.247C42.8993 350.997 42.276 352.676 41.3631 354.199C40.621 355.814 39.5931 357.281 38.3289 358.53V358.53Z" fill="#FAFAFA"/>
<path d="M42.9874 383.842C41.6618 382.633 40.5417 381.215 39.6711 379.646C38.6346 378.178 37.8529 376.546 37.3588 374.818C38.3727 376.273 39.3102 377.779 40.1674 379.33C41.1979 380.776 42.1396 382.283 42.9874 383.842V383.842Z" fill="#FAFAFA"/>
<path d="M61.0577 361.068C59.9648 362.723 58.7144 364.268 57.3241 365.682C56.0741 367.217 54.6803 368.63 53.1619 369.9C54.2441 368.241 55.4913 366.696 56.8842 365.287C58.1329 363.747 59.5309 362.334 61.0577 361.068V361.068Z" fill="#FAFAFA"/>
<path d="M66.6187 390.802C66.4608 390.734 67.7467 387.959 69.01 384.451C70.2733 380.943 71.1644 378.022 71.3336 378.055C70.5612 382.559 68.9627 386.88 66.6187 390.802Z" fill="#FAFAFA"/>
<path d="M54.9779 404.067C54.5994 402.474 54.4213 400.841 54.4477 399.205C54.2716 397.576 54.2943 395.933 54.5154 394.31C54.8778 395.904 55.052 397.536 55.0343 399.171C55.2036 400.8 55.1847 402.442 54.9779 404.067V404.067Z" fill="#FAFAFA"/>
<path d="M44.0477 418.753C42.5936 417.354 41.2755 415.821 40.111 414.174C38.8002 412.636 37.637 410.978 36.6368 409.222C38.0992 410.612 39.418 412.147 40.5735 413.801C41.8952 415.331 43.0591 416.99 44.0477 418.753V418.753Z" fill="#FAFAFA"/>
<path d="M58.8017 428.217C58.1793 425.711 57.9435 423.124 58.1023 420.547C58.7246 423.053 58.9605 425.64 58.8017 428.217V428.217Z" fill="#FAFAFA"/>
<path d="M75.3154 421.201C74.115 419.948 73.0559 418.568 72.157 417.084C71.1023 415.685 70.2093 414.171 69.495 412.572C70.6954 413.824 71.7545 415.205 72.6534 416.689C73.7081 418.088 74.6011 419.601 75.3154 421.201V421.201Z" fill="#FAFAFA"/>
<path d="M81.1019 398.72C80.2813 398.892 79.4322 398.873 78.6203 398.664C77.7843 398.637 76.9657 398.417 76.229 398.021C77.0495 397.849 77.8987 397.868 78.7106 398.077C79.5466 398.104 80.3652 398.324 81.1019 398.72V398.72Z" fill="#FAFAFA"/>
<path d="M92.6413 411.286C91.5041 409.939 90.524 408.467 89.7198 406.898C88.7436 405.435 87.9304 403.869 87.2947 402.229C88.4367 403.568 89.4173 405.037 90.2162 406.605C91.1938 408.072 92.0071 409.642 92.6413 411.286V411.286Z" fill="#FAFAFA"/>
<path d="M92.3818 421.923C92.112 423.294 91.6566 424.622 91.0282 425.871C90.5784 427.196 89.9402 428.45 89.1332 429.593C89.4012 428.221 89.8566 426.893 90.4868 425.645C90.9388 424.321 91.5769 423.068 92.3818 421.923V421.923Z" fill="#FAFAFA"/>
<path d="M85.2417 373.408C84.4326 372.025 83.9216 370.488 83.7414 368.896C83.3682 367.332 83.3221 365.708 83.6061 364.125C83.7866 364.125 83.8655 366.246 84.3167 368.795C84.7679 371.344 85.3996 373.352 85.2417 373.408Z" fill="#FAFAFA"/>
<path d="M91.7275 356.658C92.6314 355.94 93.6495 355.38 94.7393 355C95.7536 354.44 96.8561 354.059 97.9991 353.872C97.0922 354.591 96.0701 355.151 94.9761 355.53C93.9635 356.084 92.8655 356.465 91.7275 356.658V356.658Z" fill="#FAFAFA"/>
<path d="M99.9054 371.536C98.992 370.413 98.2332 369.172 97.6494 367.847C96.8926 366.617 96.3081 365.289 95.9124 363.899C96.829 365.016 97.5881 366.253 98.1683 367.577C98.9174 368.815 99.5014 370.146 99.9054 371.536Z" fill="#FAFAFA"/>
<path d="M110.982 366.697C109.968 365.629 109.106 364.426 108.422 363.121C107.566 361.926 106.876 360.621 106.369 359.241C107.374 360.314 108.231 361.517 108.918 362.817C109.774 364.014 110.468 365.318 110.982 366.697V366.697Z" fill="#FAFAFA"/>
<path d="M107.565 380.255C106.146 380.948 104.65 381.47 103.109 381.812C101.62 382.324 100.075 382.657 98.5068 382.805C99.9163 382.099 101.41 381.576 102.951 381.248C104.441 380.723 105.991 380.39 107.565 380.255Z" fill="#FAFAFA"/>
<path d="M72.6985 350.634C71.138 350.21 69.6849 349.46 68.4347 348.435C67.0777 347.562 65.9237 346.408 65.0508 345.051C65.1749 344.927 66.6864 346.427 68.7957 347.95C70.905 349.472 72.7662 350.499 72.6985 350.634Z" fill="#FAFAFA"/>
<path d="M48.3116 342.028C47.184 342.283 46.0059 342.197 44.9276 341.78C43.8111 341.562 42.7834 341.021 41.9723 340.223C43.0282 340.494 44.0676 340.826 45.0855 341.216C46.1766 341.42 47.254 341.691 48.3116 342.028V342.028Z" fill="#FAFAFA"/>
<path d="M519.29 435.707C519.29 435.865 403.04 436 259.662 436C116.284 436 0 435.865 0 435.707C0 435.549 116.182 435.414 259.662 435.414C403.141 435.414 519.29 435.538 519.29 435.707Z" fill="#263238"/>
</svg>
